G04 #@! TF.GenerationSoftware,KiCad,Pcbnew,9.0.1*
G04 #@! TF.CreationDate,2026-07-16T12:47:56-04:00*
G04 #@! TF.ProjectId,DAQ-V4.1,4441512d-5634-42e3-912e-6b696361645f,rev?*
G04 #@! TF.SameCoordinates,Original*
G04 #@! TF.FileFunction,Legend,Top*
G04 #@! TF.FilePolarity,Positive*
%FSLAX46Y46*%
G04 Gerber Fmt 4.6, Leading zero omitted, Abs format (unit mm)*
G04 Created by KiCad (PCBNEW 9.0.1) date 2026-07-16 12:47:56*
%MOMM*%
%LPD*%
G01*
G04 APERTURE LIST*
G04 Aperture macros list*
%AMRoundRect*
0 Rectangle with rounded corners*
0 $1 Rounding radius*
0 $2 $3 $4 $5 $6 $7 $8 $9 X,Y pos of 4 corners*
0 Add a 4 corners polygon primitive as box body*
4,1,4,$2,$3,$4,$5,$6,$7,$8,$9,$2,$3,0*
0 Add four circle primitives for the rounded corners*
1,1,$1+$1,$2,$3*
1,1,$1+$1,$4,$5*
1,1,$1+$1,$6,$7*
1,1,$1+$1,$8,$9*
0 Add four rect primitives between the rounded corners*
20,1,$1+$1,$2,$3,$4,$5,0*
20,1,$1+$1,$4,$5,$6,$7,0*
20,1,$1+$1,$6,$7,$8,$9,0*
20,1,$1+$1,$8,$9,$2,$3,0*%
G04 Aperture macros list end*
%ADD10C,0.150000*%
%ADD11C,0.254000*%
%ADD12C,0.120000*%
%ADD13C,0.127000*%
%ADD14C,0.200000*%
%ADD15C,0.152400*%
%ADD16C,0.000000*%
%ADD17C,0.010000*%
%ADD18R,1.193800X1.397000*%
%ADD19RoundRect,0.150000X-0.150000X0.512500X-0.150000X-0.512500X0.150000X-0.512500X0.150000X0.512500X0*%
%ADD20RoundRect,0.075000X-0.725000X-0.075000X0.725000X-0.075000X0.725000X0.075000X-0.725000X0.075000X0*%
%ADD21RoundRect,0.075000X-0.075000X-0.725000X0.075000X-0.725000X0.075000X0.725000X-0.075000X0.725000X0*%
%ADD22RoundRect,0.055050X-0.701950X-0.311950X0.701950X-0.311950X0.701950X0.311950X-0.701950X0.311950X0*%
%ADD23RoundRect,0.058720X-0.698280X-0.308280X0.698280X-0.308280X0.698280X0.308280X-0.698280X0.308280X0*%
%ADD24R,0.449200X1.117800*%
%ADD25R,0.813000X0.500000*%
%ADD26R,0.533400X0.304800*%
%ADD27R,0.304800X0.533400*%
%ADD28RoundRect,0.200000X0.275000X-0.200000X0.275000X0.200000X-0.275000X0.200000X-0.275000X-0.200000X0*%
%ADD29RoundRect,0.200000X-0.275000X0.200000X-0.275000X-0.200000X0.275000X-0.200000X0.275000X0.200000X0*%
%ADD30RoundRect,0.200000X0.200000X0.275000X-0.200000X0.275000X-0.200000X-0.275000X0.200000X-0.275000X0*%
%ADD31RoundRect,0.200000X-0.200000X-0.275000X0.200000X-0.275000X0.200000X0.275000X-0.200000X0.275000X0*%
%ADD32RoundRect,0.198500X0.508500X0.198500X-0.508500X0.198500X-0.508500X-0.198500X0.508500X-0.198500X0*%
%ADD33RoundRect,0.218750X0.218750X0.256250X-0.218750X0.256250X-0.218750X-0.256250X0.218750X-0.256250X0*%
%ADD34RoundRect,0.102000X-0.750000X0.650000X-0.750000X-0.650000X0.750000X-0.650000X0.750000X0.650000X0*%
%ADD35RoundRect,0.102000X-1.100000X0.750000X-1.100000X-0.750000X1.100000X-0.750000X1.100000X0.750000X0*%
%ADD36RoundRect,0.750000X0.750000X-0.750000X0.750000X0.750000X-0.750000X0.750000X-0.750000X-0.750000X0*%
%ADD37C,3.000000*%
%ADD38RoundRect,0.102000X-0.350000X-0.700000X0.350000X-0.700000X0.350000X0.700000X-0.350000X0.700000X0*%
%ADD39RoundRect,0.102000X-0.500000X-0.700000X0.500000X-0.700000X0.500000X0.700000X-0.500000X0.700000X0*%
%ADD40RoundRect,0.102000X-0.600000X-0.600000X0.600000X-0.600000X0.600000X0.600000X-0.600000X0.600000X0*%
%ADD41RoundRect,0.102000X-0.600000X-1.600000X0.600000X-1.600000X0.600000X1.600000X-0.600000X1.600000X0*%
%ADD42RoundRect,0.102000X-0.600000X-0.400000X0.600000X-0.400000X0.600000X0.400000X-0.600000X0.400000X0*%
%ADD43RoundRect,0.102000X-0.350000X-0.600000X0.350000X-0.600000X0.350000X0.600000X-0.350000X0.600000X0*%
%ADD44RoundRect,0.150000X-0.700000X0.150000X-0.700000X-0.150000X0.700000X-0.150000X0.700000X0.150000X0*%
%ADD45RoundRect,0.250000X-1.150000X0.250000X-1.150000X-0.250000X1.150000X-0.250000X1.150000X0.250000X0*%
%ADD46R,2.400000X0.740000*%
%ADD47RoundRect,0.150000X0.150000X0.700000X-0.150000X0.700000X-0.150000X-0.700000X0.150000X-0.700000X0*%
%ADD48RoundRect,0.250000X0.250000X1.150000X-0.250000X1.150000X-0.250000X-1.150000X0.250000X-1.150000X0*%
%ADD49R,1.650000X0.650000*%
%ADD50C,2.200000*%
%ADD51RoundRect,0.218750X0.256250X-0.218750X0.256250X0.218750X-0.256250X0.218750X-0.256250X-0.218750X0*%
%ADD52RoundRect,0.225000X0.225000X0.375000X-0.225000X0.375000X-0.225000X-0.375000X0.225000X-0.375000X0*%
%ADD53RoundRect,0.250000X-1.000000X-0.650000X1.000000X-0.650000X1.000000X0.650000X-1.000000X0.650000X0*%
%ADD54RoundRect,0.250000X0.475000X-0.250000X0.475000X0.250000X-0.475000X0.250000X-0.475000X-0.250000X0*%
%ADD55RoundRect,0.225000X-0.225000X-0.250000X0.225000X-0.250000X0.225000X0.250000X-0.225000X0.250000X0*%
%ADD56RoundRect,0.225000X0.225000X0.250000X-0.225000X0.250000X-0.225000X-0.250000X0.225000X-0.250000X0*%
%ADD57RoundRect,0.225000X0.250000X-0.225000X0.250000X0.225000X-0.250000X0.225000X-0.250000X-0.225000X0*%
%ADD58RoundRect,0.225000X-0.250000X0.225000X-0.250000X-0.225000X0.250000X-0.225000X0.250000X0.225000X0*%
%ADD59RoundRect,0.250000X-0.475000X0.250000X-0.475000X-0.250000X0.475000X-0.250000X0.475000X0.250000X0*%
G04 APERTURE END LIST*
D10*
X170758207Y-108274580D02*
X170710588Y-108322200D01*
X170710588Y-108322200D02*
X170567731Y-108369819D01*
X170567731Y-108369819D02*
X170472493Y-108369819D01*
X170472493Y-108369819D02*
X170329636Y-108322200D01*
X170329636Y-108322200D02*
X170234398Y-108226961D01*
X170234398Y-108226961D02*
X170186779Y-108131723D01*
X170186779Y-108131723D02*
X170139160Y-107941247D01*
X170139160Y-107941247D02*
X170139160Y-107798390D01*
X170139160Y-107798390D02*
X170186779Y-107607914D01*
X170186779Y-107607914D02*
X170234398Y-107512676D01*
X170234398Y-107512676D02*
X170329636Y-107417438D01*
X170329636Y-107417438D02*
X170472493Y-107369819D01*
X170472493Y-107369819D02*
X170567731Y-107369819D01*
X170567731Y-107369819D02*
X170710588Y-107417438D01*
X170710588Y-107417438D02*
X170758207Y-107465057D01*
X179089160Y-105609104D02*
X179565350Y-105609104D01*
X178993922Y-105894819D02*
X179327255Y-104894819D01*
X179327255Y-104894819D02*
X179660588Y-105894819D01*
X152476190Y-60804819D02*
X153142856Y-61804819D01*
X153142856Y-60804819D02*
X152476190Y-61804819D01*
X153380952Y-60804819D02*
X153952380Y-60804819D01*
X153666666Y-61804819D02*
X153666666Y-60804819D01*
X154238095Y-61519104D02*
X154714285Y-61519104D01*
X154142857Y-61804819D02*
X154476190Y-60804819D01*
X154476190Y-60804819D02*
X154809523Y-61804819D01*
X155619047Y-61804819D02*
X155142857Y-61804819D01*
X155142857Y-61804819D02*
X155142857Y-60804819D01*
X156476190Y-61804819D02*
X155904762Y-61804819D01*
X156190476Y-61804819D02*
X156190476Y-60804819D01*
X156190476Y-60804819D02*
X156095238Y-60947676D01*
X156095238Y-60947676D02*
X156000000Y-61042914D01*
X156000000Y-61042914D02*
X155904762Y-61090533D01*
X176788095Y-109629819D02*
X176788095Y-110439342D01*
X176788095Y-110439342D02*
X176835714Y-110534580D01*
X176835714Y-110534580D02*
X176883333Y-110582200D01*
X176883333Y-110582200D02*
X176978571Y-110629819D01*
X176978571Y-110629819D02*
X177169047Y-110629819D01*
X177169047Y-110629819D02*
X177264285Y-110582200D01*
X177264285Y-110582200D02*
X177311904Y-110534580D01*
X177311904Y-110534580D02*
X177359523Y-110439342D01*
X177359523Y-110439342D02*
X177359523Y-109629819D01*
X177883333Y-110629819D02*
X178073809Y-110629819D01*
X178073809Y-110629819D02*
X178169047Y-110582200D01*
X178169047Y-110582200D02*
X178216666Y-110534580D01*
X178216666Y-110534580D02*
X178311904Y-110391723D01*
X178311904Y-110391723D02*
X178359523Y-110201247D01*
X178359523Y-110201247D02*
X178359523Y-109820295D01*
X178359523Y-109820295D02*
X178311904Y-109725057D01*
X178311904Y-109725057D02*
X178264285Y-109677438D01*
X178264285Y-109677438D02*
X178169047Y-109629819D01*
X178169047Y-109629819D02*
X177978571Y-109629819D01*
X177978571Y-109629819D02*
X177883333Y-109677438D01*
X177883333Y-109677438D02*
X177835714Y-109725057D01*
X177835714Y-109725057D02*
X177788095Y-109820295D01*
X177788095Y-109820295D02*
X177788095Y-110058390D01*
X177788095Y-110058390D02*
X177835714Y-110153628D01*
X177835714Y-110153628D02*
X177883333Y-110201247D01*
X177883333Y-110201247D02*
X177978571Y-110248866D01*
X177978571Y-110248866D02*
X178169047Y-110248866D01*
X178169047Y-110248866D02*
X178264285Y-110201247D01*
X178264285Y-110201247D02*
X178311904Y-110153628D01*
X178311904Y-110153628D02*
X178359523Y-110058390D01*
X169688095Y-45629819D02*
X169688095Y-46439342D01*
X169688095Y-46439342D02*
X169735714Y-46534580D01*
X169735714Y-46534580D02*
X169783333Y-46582200D01*
X169783333Y-46582200D02*
X169878571Y-46629819D01*
X169878571Y-46629819D02*
X170069047Y-46629819D01*
X170069047Y-46629819D02*
X170164285Y-46582200D01*
X170164285Y-46582200D02*
X170211904Y-46534580D01*
X170211904Y-46534580D02*
X170259523Y-46439342D01*
X170259523Y-46439342D02*
X170259523Y-45629819D01*
X170640476Y-45629819D02*
X171307142Y-45629819D01*
X171307142Y-45629819D02*
X170878571Y-46629819D01*
X171888095Y-76354819D02*
X171888095Y-77164342D01*
X171888095Y-77164342D02*
X171935714Y-77259580D01*
X171935714Y-77259580D02*
X171983333Y-77307200D01*
X171983333Y-77307200D02*
X172078571Y-77354819D01*
X172078571Y-77354819D02*
X172269047Y-77354819D01*
X172269047Y-77354819D02*
X172364285Y-77307200D01*
X172364285Y-77307200D02*
X172411904Y-77259580D01*
X172411904Y-77259580D02*
X172459523Y-77164342D01*
X172459523Y-77164342D02*
X172459523Y-76354819D01*
X173411904Y-76354819D02*
X172935714Y-76354819D01*
X172935714Y-76354819D02*
X172888095Y-76831009D01*
X172888095Y-76831009D02*
X172935714Y-76783390D01*
X172935714Y-76783390D02*
X173030952Y-76735771D01*
X173030952Y-76735771D02*
X173269047Y-76735771D01*
X173269047Y-76735771D02*
X173364285Y-76783390D01*
X173364285Y-76783390D02*
X173411904Y-76831009D01*
X173411904Y-76831009D02*
X173459523Y-76926247D01*
X173459523Y-76926247D02*
X173459523Y-77164342D01*
X173459523Y-77164342D02*
X173411904Y-77259580D01*
X173411904Y-77259580D02*
X173364285Y-77307200D01*
X173364285Y-77307200D02*
X173269047Y-77354819D01*
X173269047Y-77354819D02*
X173030952Y-77354819D01*
X173030952Y-77354819D02*
X172935714Y-77307200D01*
X172935714Y-77307200D02*
X172888095Y-77259580D01*
X184113095Y-56704819D02*
X184113095Y-57514342D01*
X184113095Y-57514342D02*
X184160714Y-57609580D01*
X184160714Y-57609580D02*
X184208333Y-57657200D01*
X184208333Y-57657200D02*
X184303571Y-57704819D01*
X184303571Y-57704819D02*
X184494047Y-57704819D01*
X184494047Y-57704819D02*
X184589285Y-57657200D01*
X184589285Y-57657200D02*
X184636904Y-57609580D01*
X184636904Y-57609580D02*
X184684523Y-57514342D01*
X184684523Y-57514342D02*
X184684523Y-56704819D01*
X185589285Y-57038152D02*
X185589285Y-57704819D01*
X185351190Y-56657200D02*
X185113095Y-57371485D01*
X185113095Y-57371485D02*
X185732142Y-57371485D01*
X179954819Y-62499999D02*
X180192914Y-62499999D01*
X180097676Y-62738094D02*
X180192914Y-62499999D01*
X180192914Y-62499999D02*
X180097676Y-62261904D01*
X180383390Y-62642856D02*
X180192914Y-62499999D01*
X180192914Y-62499999D02*
X180383390Y-62357142D01*
X169801195Y-37904819D02*
X169801195Y-38714342D01*
X169801195Y-38714342D02*
X169848814Y-38809580D01*
X169848814Y-38809580D02*
X169896433Y-38857200D01*
X169896433Y-38857200D02*
X169991671Y-38904819D01*
X169991671Y-38904819D02*
X170182147Y-38904819D01*
X170182147Y-38904819D02*
X170277385Y-38857200D01*
X170277385Y-38857200D02*
X170325004Y-38809580D01*
X170325004Y-38809580D02*
X170372623Y-38714342D01*
X170372623Y-38714342D02*
X170372623Y-37904819D01*
X170801195Y-38000057D02*
X170848814Y-37952438D01*
X170848814Y-37952438D02*
X170944052Y-37904819D01*
X170944052Y-37904819D02*
X171182147Y-37904819D01*
X171182147Y-37904819D02*
X171277385Y-37952438D01*
X171277385Y-37952438D02*
X171325004Y-38000057D01*
X171325004Y-38000057D02*
X171372623Y-38095295D01*
X171372623Y-38095295D02*
X171372623Y-38190533D01*
X171372623Y-38190533D02*
X171325004Y-38333390D01*
X171325004Y-38333390D02*
X170753576Y-38904819D01*
X170753576Y-38904819D02*
X171372623Y-38904819D01*
X173381465Y-39786470D02*
X173381465Y-39548375D01*
X173619560Y-39643613D02*
X173381465Y-39548375D01*
X173381465Y-39548375D02*
X173143370Y-39643613D01*
X173524322Y-39357899D02*
X173381465Y-39548375D01*
X173381465Y-39548375D02*
X173238608Y-39357899D01*
X172354761Y-90075057D02*
X172259523Y-90027438D01*
X172259523Y-90027438D02*
X172164285Y-89932200D01*
X172164285Y-89932200D02*
X172021428Y-89789342D01*
X172021428Y-89789342D02*
X171926190Y-89741723D01*
X171926190Y-89741723D02*
X171830952Y-89741723D01*
X171878571Y-89979819D02*
X171783333Y-89932200D01*
X171783333Y-89932200D02*
X171688095Y-89836961D01*
X171688095Y-89836961D02*
X171640476Y-89646485D01*
X171640476Y-89646485D02*
X171640476Y-89313152D01*
X171640476Y-89313152D02*
X171688095Y-89122676D01*
X171688095Y-89122676D02*
X171783333Y-89027438D01*
X171783333Y-89027438D02*
X171878571Y-88979819D01*
X171878571Y-88979819D02*
X172069047Y-88979819D01*
X172069047Y-88979819D02*
X172164285Y-89027438D01*
X172164285Y-89027438D02*
X172259523Y-89122676D01*
X172259523Y-89122676D02*
X172307142Y-89313152D01*
X172307142Y-89313152D02*
X172307142Y-89646485D01*
X172307142Y-89646485D02*
X172259523Y-89836961D01*
X172259523Y-89836961D02*
X172164285Y-89932200D01*
X172164285Y-89932200D02*
X172069047Y-89979819D01*
X172069047Y-89979819D02*
X171878571Y-89979819D01*
X173259523Y-89979819D02*
X172688095Y-89979819D01*
X172973809Y-89979819D02*
X172973809Y-88979819D01*
X172973809Y-88979819D02*
X172878571Y-89122676D01*
X172878571Y-89122676D02*
X172783333Y-89217914D01*
X172783333Y-89217914D02*
X172688095Y-89265533D01*
X162402380Y-124529819D02*
X162402380Y-123529819D01*
X162402380Y-123529819D02*
X162783332Y-123529819D01*
X162783332Y-123529819D02*
X162878570Y-123577438D01*
X162878570Y-123577438D02*
X162926189Y-123625057D01*
X162926189Y-123625057D02*
X162973808Y-123720295D01*
X162973808Y-123720295D02*
X162973808Y-123863152D01*
X162973808Y-123863152D02*
X162926189Y-123958390D01*
X162926189Y-123958390D02*
X162878570Y-124006009D01*
X162878570Y-124006009D02*
X162783332Y-124053628D01*
X162783332Y-124053628D02*
X162402380Y-124053628D01*
X163545237Y-124529819D02*
X163449999Y-124482200D01*
X163449999Y-124482200D02*
X163402380Y-124434580D01*
X163402380Y-124434580D02*
X163354761Y-124339342D01*
X163354761Y-124339342D02*
X163354761Y-124053628D01*
X163354761Y-124053628D02*
X163402380Y-123958390D01*
X163402380Y-123958390D02*
X163449999Y-123910771D01*
X163449999Y-123910771D02*
X163545237Y-123863152D01*
X163545237Y-123863152D02*
X163688094Y-123863152D01*
X163688094Y-123863152D02*
X163783332Y-123910771D01*
X163783332Y-123910771D02*
X163830951Y-123958390D01*
X163830951Y-123958390D02*
X163878570Y-124053628D01*
X163878570Y-124053628D02*
X163878570Y-124339342D01*
X163878570Y-124339342D02*
X163830951Y-124434580D01*
X163830951Y-124434580D02*
X163783332Y-124482200D01*
X163783332Y-124482200D02*
X163688094Y-124529819D01*
X163688094Y-124529819D02*
X163545237Y-124529819D01*
X164211904Y-123863152D02*
X164402380Y-124529819D01*
X164402380Y-124529819D02*
X164592856Y-124053628D01*
X164592856Y-124053628D02*
X164783332Y-124529819D01*
X164783332Y-124529819D02*
X164973808Y-123863152D01*
X165735713Y-124482200D02*
X165640475Y-124529819D01*
X165640475Y-124529819D02*
X165449999Y-124529819D01*
X165449999Y-124529819D02*
X165354761Y-124482200D01*
X165354761Y-124482200D02*
X165307142Y-124386961D01*
X165307142Y-124386961D02*
X165307142Y-124006009D01*
X165307142Y-124006009D02*
X165354761Y-123910771D01*
X165354761Y-123910771D02*
X165449999Y-123863152D01*
X165449999Y-123863152D02*
X165640475Y-123863152D01*
X165640475Y-123863152D02*
X165735713Y-123910771D01*
X165735713Y-123910771D02*
X165783332Y-124006009D01*
X165783332Y-124006009D02*
X165783332Y-124101247D01*
X165783332Y-124101247D02*
X165307142Y-124196485D01*
X166211904Y-124529819D02*
X166211904Y-123863152D01*
X166211904Y-124053628D02*
X166259523Y-123958390D01*
X166259523Y-123958390D02*
X166307142Y-123910771D01*
X166307142Y-123910771D02*
X166402380Y-123863152D01*
X166402380Y-123863152D02*
X166497618Y-123863152D01*
X166592857Y-124625057D02*
X167354761Y-124625057D01*
X167783333Y-123529819D02*
X167973809Y-123529819D01*
X167973809Y-123529819D02*
X168069047Y-123577438D01*
X168069047Y-123577438D02*
X168164285Y-123672676D01*
X168164285Y-123672676D02*
X168211904Y-123863152D01*
X168211904Y-123863152D02*
X168211904Y-124196485D01*
X168211904Y-124196485D02*
X168164285Y-124386961D01*
X168164285Y-124386961D02*
X168069047Y-124482200D01*
X168069047Y-124482200D02*
X167973809Y-124529819D01*
X167973809Y-124529819D02*
X167783333Y-124529819D01*
X167783333Y-124529819D02*
X167688095Y-124482200D01*
X167688095Y-124482200D02*
X167592857Y-124386961D01*
X167592857Y-124386961D02*
X167545238Y-124196485D01*
X167545238Y-124196485D02*
X167545238Y-123863152D01*
X167545238Y-123863152D02*
X167592857Y-123672676D01*
X167592857Y-123672676D02*
X167688095Y-123577438D01*
X167688095Y-123577438D02*
X167783333Y-123529819D01*
X168640476Y-123863152D02*
X168640476Y-124529819D01*
X168640476Y-123958390D02*
X168688095Y-123910771D01*
X168688095Y-123910771D02*
X168783333Y-123863152D01*
X168783333Y-123863152D02*
X168926190Y-123863152D01*
X168926190Y-123863152D02*
X169021428Y-123910771D01*
X169021428Y-123910771D02*
X169069047Y-124006009D01*
X169069047Y-124006009D02*
X169069047Y-124529819D01*
X169307143Y-124625057D02*
X170069047Y-124625057D01*
X170783333Y-124529819D02*
X170307143Y-124529819D01*
X170307143Y-124529819D02*
X170307143Y-123529819D01*
X171116667Y-124006009D02*
X171450000Y-124006009D01*
X171592857Y-124529819D02*
X171116667Y-124529819D01*
X171116667Y-124529819D02*
X171116667Y-123529819D01*
X171116667Y-123529819D02*
X171592857Y-123529819D01*
X172021429Y-124529819D02*
X172021429Y-123529819D01*
X172021429Y-123529819D02*
X172259524Y-123529819D01*
X172259524Y-123529819D02*
X172402381Y-123577438D01*
X172402381Y-123577438D02*
X172497619Y-123672676D01*
X172497619Y-123672676D02*
X172545238Y-123767914D01*
X172545238Y-123767914D02*
X172592857Y-123958390D01*
X172592857Y-123958390D02*
X172592857Y-124101247D01*
X172592857Y-124101247D02*
X172545238Y-124291723D01*
X172545238Y-124291723D02*
X172497619Y-124386961D01*
X172497619Y-124386961D02*
X172402381Y-124482200D01*
X172402381Y-124482200D02*
X172259524Y-124529819D01*
X172259524Y-124529819D02*
X172021429Y-124529819D01*
X173545238Y-124529819D02*
X172973810Y-124529819D01*
X173259524Y-124529819D02*
X173259524Y-123529819D01*
X173259524Y-123529819D02*
X173164286Y-123672676D01*
X173164286Y-123672676D02*
X173069048Y-123767914D01*
X173069048Y-123767914D02*
X172973810Y-123815533D01*
X173432142Y-100804819D02*
X172955952Y-100804819D01*
X172955952Y-100804819D02*
X172955952Y-99804819D01*
X173717857Y-100757200D02*
X173860714Y-100804819D01*
X173860714Y-100804819D02*
X174098809Y-100804819D01*
X174098809Y-100804819D02*
X174194047Y-100757200D01*
X174194047Y-100757200D02*
X174241666Y-100709580D01*
X174241666Y-100709580D02*
X174289285Y-100614342D01*
X174289285Y-100614342D02*
X174289285Y-100519104D01*
X174289285Y-100519104D02*
X174241666Y-100423866D01*
X174241666Y-100423866D02*
X174194047Y-100376247D01*
X174194047Y-100376247D02*
X174098809Y-100328628D01*
X174098809Y-100328628D02*
X173908333Y-100281009D01*
X173908333Y-100281009D02*
X173813095Y-100233390D01*
X173813095Y-100233390D02*
X173765476Y-100185771D01*
X173765476Y-100185771D02*
X173717857Y-100090533D01*
X173717857Y-100090533D02*
X173717857Y-99995295D01*
X173717857Y-99995295D02*
X173765476Y-99900057D01*
X173765476Y-99900057D02*
X173813095Y-99852438D01*
X173813095Y-99852438D02*
X173908333Y-99804819D01*
X173908333Y-99804819D02*
X174146428Y-99804819D01*
X174146428Y-99804819D02*
X174289285Y-99852438D01*
X174670238Y-99900057D02*
X174717857Y-99852438D01*
X174717857Y-99852438D02*
X174813095Y-99804819D01*
X174813095Y-99804819D02*
X175051190Y-99804819D01*
X175051190Y-99804819D02*
X175146428Y-99852438D01*
X175146428Y-99852438D02*
X175194047Y-99900057D01*
X175194047Y-99900057D02*
X175241666Y-99995295D01*
X175241666Y-99995295D02*
X175241666Y-100090533D01*
X175241666Y-100090533D02*
X175194047Y-100233390D01*
X175194047Y-100233390D02*
X174622619Y-100804819D01*
X174622619Y-100804819D02*
X175241666Y-100804819D01*
X169344048Y-94948866D02*
X170105953Y-94948866D01*
X174398866Y-95530951D02*
X174398866Y-94769047D01*
X174779819Y-95149999D02*
X174017914Y-95149999D01*
X177533333Y-119654819D02*
X177057143Y-119654819D01*
X177057143Y-119654819D02*
X177057143Y-118654819D01*
X178390476Y-119654819D02*
X177819048Y-119654819D01*
X178104762Y-119654819D02*
X178104762Y-118654819D01*
X178104762Y-118654819D02*
X178009524Y-118797676D01*
X178009524Y-118797676D02*
X177914286Y-118892914D01*
X177914286Y-118892914D02*
X177819048Y-118940533D01*
X185866666Y-111479819D02*
X185866666Y-112194104D01*
X185866666Y-112194104D02*
X185819047Y-112336961D01*
X185819047Y-112336961D02*
X185723809Y-112432200D01*
X185723809Y-112432200D02*
X185580952Y-112479819D01*
X185580952Y-112479819D02*
X185485714Y-112479819D01*
X186819047Y-111479819D02*
X186342857Y-111479819D01*
X186342857Y-111479819D02*
X186295238Y-111956009D01*
X186295238Y-111956009D02*
X186342857Y-111908390D01*
X186342857Y-111908390D02*
X186438095Y-111860771D01*
X186438095Y-111860771D02*
X186676190Y-111860771D01*
X186676190Y-111860771D02*
X186771428Y-111908390D01*
X186771428Y-111908390D02*
X186819047Y-111956009D01*
X186819047Y-111956009D02*
X186866666Y-112051247D01*
X186866666Y-112051247D02*
X186866666Y-112289342D01*
X186866666Y-112289342D02*
X186819047Y-112384580D01*
X186819047Y-112384580D02*
X186771428Y-112432200D01*
X186771428Y-112432200D02*
X186676190Y-112479819D01*
X186676190Y-112479819D02*
X186438095Y-112479819D01*
X186438095Y-112479819D02*
X186342857Y-112432200D01*
X186342857Y-112432200D02*
X186295238Y-112384580D01*
X182289700Y-119396428D02*
X182289700Y-118253571D01*
X182289700Y-106396428D02*
X182289700Y-105253571D01*
X182861128Y-105824999D02*
X181718271Y-105824999D01*
X159966666Y-105504819D02*
X159966666Y-106219104D01*
X159966666Y-106219104D02*
X159919047Y-106361961D01*
X159919047Y-106361961D02*
X159823809Y-106457200D01*
X159823809Y-106457200D02*
X159680952Y-106504819D01*
X159680952Y-106504819D02*
X159585714Y-106504819D01*
X160871428Y-105838152D02*
X160871428Y-106504819D01*
X160633333Y-105457200D02*
X160395238Y-106171485D01*
X160395238Y-106171485D02*
X161014285Y-106171485D01*
X186391666Y-96954819D02*
X186391666Y-97669104D01*
X186391666Y-97669104D02*
X186344047Y-97811961D01*
X186344047Y-97811961D02*
X186248809Y-97907200D01*
X186248809Y-97907200D02*
X186105952Y-97954819D01*
X186105952Y-97954819D02*
X186010714Y-97954819D01*
X186772619Y-96954819D02*
X187391666Y-96954819D01*
X187391666Y-96954819D02*
X187058333Y-97335771D01*
X187058333Y-97335771D02*
X187201190Y-97335771D01*
X187201190Y-97335771D02*
X187296428Y-97383390D01*
X187296428Y-97383390D02*
X187344047Y-97431009D01*
X187344047Y-97431009D02*
X187391666Y-97526247D01*
X187391666Y-97526247D02*
X187391666Y-97764342D01*
X187391666Y-97764342D02*
X187344047Y-97859580D01*
X187344047Y-97859580D02*
X187296428Y-97907200D01*
X187296428Y-97907200D02*
X187201190Y-97954819D01*
X187201190Y-97954819D02*
X186915476Y-97954819D01*
X186915476Y-97954819D02*
X186820238Y-97907200D01*
X186820238Y-97907200D02*
X186772619Y-97859580D01*
X181091666Y-43624819D02*
X181091666Y-44339104D01*
X181091666Y-44339104D02*
X181044047Y-44481961D01*
X181044047Y-44481961D02*
X180948809Y-44577200D01*
X180948809Y-44577200D02*
X180805952Y-44624819D01*
X180805952Y-44624819D02*
X180710714Y-44624819D01*
X181520238Y-43720057D02*
X181567857Y-43672438D01*
X181567857Y-43672438D02*
X181663095Y-43624819D01*
X181663095Y-43624819D02*
X181901190Y-43624819D01*
X181901190Y-43624819D02*
X181996428Y-43672438D01*
X181996428Y-43672438D02*
X182044047Y-43720057D01*
X182044047Y-43720057D02*
X182091666Y-43815295D01*
X182091666Y-43815295D02*
X182091666Y-43910533D01*
X182091666Y-43910533D02*
X182044047Y-44053390D01*
X182044047Y-44053390D02*
X181472619Y-44624819D01*
X181472619Y-44624819D02*
X182091666Y-44624819D01*
X180073005Y-86403819D02*
X180073005Y-87118104D01*
X180073005Y-87118104D02*
X180025386Y-87260961D01*
X180025386Y-87260961D02*
X179930148Y-87356200D01*
X179930148Y-87356200D02*
X179787291Y-87403819D01*
X179787291Y-87403819D02*
X179692053Y-87403819D01*
X181073005Y-87403819D02*
X180501577Y-87403819D01*
X180787291Y-87403819D02*
X180787291Y-86403819D01*
X180787291Y-86403819D02*
X180692053Y-86546676D01*
X180692053Y-86546676D02*
X180596815Y-86641914D01*
X180596815Y-86641914D02*
X180501577Y-86689533D01*
D11*
X155360237Y-39174318D02*
X155360237Y-37904318D01*
X156690714Y-39053365D02*
X156630238Y-39113842D01*
X156630238Y-39113842D02*
X156448809Y-39174318D01*
X156448809Y-39174318D02*
X156327857Y-39174318D01*
X156327857Y-39174318D02*
X156146428Y-39113842D01*
X156146428Y-39113842D02*
X156025476Y-38992889D01*
X156025476Y-38992889D02*
X155964999Y-38871937D01*
X155964999Y-38871937D02*
X155904523Y-38630032D01*
X155904523Y-38630032D02*
X155904523Y-38448603D01*
X155904523Y-38448603D02*
X155964999Y-38206699D01*
X155964999Y-38206699D02*
X156025476Y-38085746D01*
X156025476Y-38085746D02*
X156146428Y-37964794D01*
X156146428Y-37964794D02*
X156327857Y-37904318D01*
X156327857Y-37904318D02*
X156448809Y-37904318D01*
X156448809Y-37904318D02*
X156630238Y-37964794D01*
X156630238Y-37964794D02*
X156690714Y-38025270D01*
X157900238Y-39174318D02*
X157174523Y-39174318D01*
X157537380Y-39174318D02*
X157537380Y-37904318D01*
X157537380Y-37904318D02*
X157416428Y-38085746D01*
X157416428Y-38085746D02*
X157295476Y-38206699D01*
X157295476Y-38206699D02*
X157174523Y-38267175D01*
D10*
X183238095Y-73254819D02*
X183238095Y-72254819D01*
X183238095Y-72731009D02*
X183809523Y-72731009D01*
X183809523Y-73254819D02*
X183809523Y-72254819D01*
X184714285Y-72254819D02*
X184523809Y-72254819D01*
X184523809Y-72254819D02*
X184428571Y-72302438D01*
X184428571Y-72302438D02*
X184380952Y-72350057D01*
X184380952Y-72350057D02*
X184285714Y-72492914D01*
X184285714Y-72492914D02*
X184238095Y-72683390D01*
X184238095Y-72683390D02*
X184238095Y-73064342D01*
X184238095Y-73064342D02*
X184285714Y-73159580D01*
X184285714Y-73159580D02*
X184333333Y-73207200D01*
X184333333Y-73207200D02*
X184428571Y-73254819D01*
X184428571Y-73254819D02*
X184619047Y-73254819D01*
X184619047Y-73254819D02*
X184714285Y-73207200D01*
X184714285Y-73207200D02*
X184761904Y-73159580D01*
X184761904Y-73159580D02*
X184809523Y-73064342D01*
X184809523Y-73064342D02*
X184809523Y-72826247D01*
X184809523Y-72826247D02*
X184761904Y-72731009D01*
X184761904Y-72731009D02*
X184714285Y-72683390D01*
X184714285Y-72683390D02*
X184619047Y-72635771D01*
X184619047Y-72635771D02*
X184428571Y-72635771D01*
X184428571Y-72635771D02*
X184333333Y-72683390D01*
X184333333Y-72683390D02*
X184285714Y-72731009D01*
X184285714Y-72731009D02*
X184238095Y-72826247D01*
X153238095Y-73254819D02*
X153238095Y-72254819D01*
X153238095Y-72731009D02*
X153809523Y-72731009D01*
X153809523Y-73254819D02*
X153809523Y-72254819D01*
X154761904Y-72254819D02*
X154285714Y-72254819D01*
X154285714Y-72254819D02*
X154238095Y-72731009D01*
X154238095Y-72731009D02*
X154285714Y-72683390D01*
X154285714Y-72683390D02*
X154380952Y-72635771D01*
X154380952Y-72635771D02*
X154619047Y-72635771D01*
X154619047Y-72635771D02*
X154714285Y-72683390D01*
X154714285Y-72683390D02*
X154761904Y-72731009D01*
X154761904Y-72731009D02*
X154809523Y-72826247D01*
X154809523Y-72826247D02*
X154809523Y-73064342D01*
X154809523Y-73064342D02*
X154761904Y-73159580D01*
X154761904Y-73159580D02*
X154714285Y-73207200D01*
X154714285Y-73207200D02*
X154619047Y-73254819D01*
X154619047Y-73254819D02*
X154380952Y-73254819D01*
X154380952Y-73254819D02*
X154285714Y-73207200D01*
X154285714Y-73207200D02*
X154238095Y-73159580D01*
X157166666Y-68556009D02*
X156833333Y-68556009D01*
X156833333Y-69079819D02*
X156833333Y-68079819D01*
X156833333Y-68079819D02*
X157309523Y-68079819D01*
X158023809Y-68556009D02*
X158166666Y-68603628D01*
X158166666Y-68603628D02*
X158214285Y-68651247D01*
X158214285Y-68651247D02*
X158261904Y-68746485D01*
X158261904Y-68746485D02*
X158261904Y-68889342D01*
X158261904Y-68889342D02*
X158214285Y-68984580D01*
X158214285Y-68984580D02*
X158166666Y-69032200D01*
X158166666Y-69032200D02*
X158071428Y-69079819D01*
X158071428Y-69079819D02*
X157690476Y-69079819D01*
X157690476Y-69079819D02*
X157690476Y-68079819D01*
X157690476Y-68079819D02*
X158023809Y-68079819D01*
X158023809Y-68079819D02*
X158119047Y-68127438D01*
X158119047Y-68127438D02*
X158166666Y-68175057D01*
X158166666Y-68175057D02*
X158214285Y-68270295D01*
X158214285Y-68270295D02*
X158214285Y-68365533D01*
X158214285Y-68365533D02*
X158166666Y-68460771D01*
X158166666Y-68460771D02*
X158119047Y-68508390D01*
X158119047Y-68508390D02*
X158023809Y-68556009D01*
X158023809Y-68556009D02*
X157690476Y-68556009D01*
X159214285Y-69079819D02*
X158642857Y-69079819D01*
X158928571Y-69079819D02*
X158928571Y-68079819D01*
X158928571Y-68079819D02*
X158833333Y-68222676D01*
X158833333Y-68222676D02*
X158738095Y-68317914D01*
X158738095Y-68317914D02*
X158642857Y-68365533D01*
X174761905Y-93204819D02*
X174761905Y-92204819D01*
X174761905Y-92204819D02*
X175000000Y-92204819D01*
X175000000Y-92204819D02*
X175142857Y-92252438D01*
X175142857Y-92252438D02*
X175238095Y-92347676D01*
X175238095Y-92347676D02*
X175285714Y-92442914D01*
X175285714Y-92442914D02*
X175333333Y-92633390D01*
X175333333Y-92633390D02*
X175333333Y-92776247D01*
X175333333Y-92776247D02*
X175285714Y-92966723D01*
X175285714Y-92966723D02*
X175238095Y-93061961D01*
X175238095Y-93061961D02*
X175142857Y-93157200D01*
X175142857Y-93157200D02*
X175000000Y-93204819D01*
X175000000Y-93204819D02*
X174761905Y-93204819D01*
X175666667Y-92204819D02*
X176285714Y-92204819D01*
X176285714Y-92204819D02*
X175952381Y-92585771D01*
X175952381Y-92585771D02*
X176095238Y-92585771D01*
X176095238Y-92585771D02*
X176190476Y-92633390D01*
X176190476Y-92633390D02*
X176238095Y-92681009D01*
X176238095Y-92681009D02*
X176285714Y-92776247D01*
X176285714Y-92776247D02*
X176285714Y-93014342D01*
X176285714Y-93014342D02*
X176238095Y-93109580D01*
X176238095Y-93109580D02*
X176190476Y-93157200D01*
X176190476Y-93157200D02*
X176095238Y-93204819D01*
X176095238Y-93204819D02*
X175809524Y-93204819D01*
X175809524Y-93204819D02*
X175714286Y-93157200D01*
X175714286Y-93157200D02*
X175666667Y-93109580D01*
X174361905Y-104992319D02*
X174361905Y-103992319D01*
X174361905Y-103992319D02*
X174600000Y-103992319D01*
X174600000Y-103992319D02*
X174742857Y-104039938D01*
X174742857Y-104039938D02*
X174838095Y-104135176D01*
X174838095Y-104135176D02*
X174885714Y-104230414D01*
X174885714Y-104230414D02*
X174933333Y-104420890D01*
X174933333Y-104420890D02*
X174933333Y-104563747D01*
X174933333Y-104563747D02*
X174885714Y-104754223D01*
X174885714Y-104754223D02*
X174838095Y-104849461D01*
X174838095Y-104849461D02*
X174742857Y-104944700D01*
X174742857Y-104944700D02*
X174600000Y-104992319D01*
X174600000Y-104992319D02*
X174361905Y-104992319D01*
X175314286Y-104087557D02*
X175361905Y-104039938D01*
X175361905Y-104039938D02*
X175457143Y-103992319D01*
X175457143Y-103992319D02*
X175695238Y-103992319D01*
X175695238Y-103992319D02*
X175790476Y-104039938D01*
X175790476Y-104039938D02*
X175838095Y-104087557D01*
X175838095Y-104087557D02*
X175885714Y-104182795D01*
X175885714Y-104182795D02*
X175885714Y-104278033D01*
X175885714Y-104278033D02*
X175838095Y-104420890D01*
X175838095Y-104420890D02*
X175266667Y-104992319D01*
X175266667Y-104992319D02*
X175885714Y-104992319D01*
X170611905Y-83104819D02*
X170611905Y-82104819D01*
X170611905Y-82104819D02*
X170850000Y-82104819D01*
X170850000Y-82104819D02*
X170992857Y-82152438D01*
X170992857Y-82152438D02*
X171088095Y-82247676D01*
X171088095Y-82247676D02*
X171135714Y-82342914D01*
X171135714Y-82342914D02*
X171183333Y-82533390D01*
X171183333Y-82533390D02*
X171183333Y-82676247D01*
X171183333Y-82676247D02*
X171135714Y-82866723D01*
X171135714Y-82866723D02*
X171088095Y-82961961D01*
X171088095Y-82961961D02*
X170992857Y-83057200D01*
X170992857Y-83057200D02*
X170850000Y-83104819D01*
X170850000Y-83104819D02*
X170611905Y-83104819D01*
X172135714Y-83104819D02*
X171564286Y-83104819D01*
X171850000Y-83104819D02*
X171850000Y-82104819D01*
X171850000Y-82104819D02*
X171754762Y-82247676D01*
X171754762Y-82247676D02*
X171659524Y-82342914D01*
X171659524Y-82342914D02*
X171564286Y-82390533D01*
X166279761Y-120084580D02*
X166232142Y-120132200D01*
X166232142Y-120132200D02*
X166089285Y-120179819D01*
X166089285Y-120179819D02*
X165994047Y-120179819D01*
X165994047Y-120179819D02*
X165851190Y-120132200D01*
X165851190Y-120132200D02*
X165755952Y-120036961D01*
X165755952Y-120036961D02*
X165708333Y-119941723D01*
X165708333Y-119941723D02*
X165660714Y-119751247D01*
X165660714Y-119751247D02*
X165660714Y-119608390D01*
X165660714Y-119608390D02*
X165708333Y-119417914D01*
X165708333Y-119417914D02*
X165755952Y-119322676D01*
X165755952Y-119322676D02*
X165851190Y-119227438D01*
X165851190Y-119227438D02*
X165994047Y-119179819D01*
X165994047Y-119179819D02*
X166089285Y-119179819D01*
X166089285Y-119179819D02*
X166232142Y-119227438D01*
X166232142Y-119227438D02*
X166279761Y-119275057D01*
X166898809Y-119179819D02*
X167089285Y-119179819D01*
X167089285Y-119179819D02*
X167184523Y-119227438D01*
X167184523Y-119227438D02*
X167279761Y-119322676D01*
X167279761Y-119322676D02*
X167327380Y-119513152D01*
X167327380Y-119513152D02*
X167327380Y-119846485D01*
X167327380Y-119846485D02*
X167279761Y-120036961D01*
X167279761Y-120036961D02*
X167184523Y-120132200D01*
X167184523Y-120132200D02*
X167089285Y-120179819D01*
X167089285Y-120179819D02*
X166898809Y-120179819D01*
X166898809Y-120179819D02*
X166803571Y-120132200D01*
X166803571Y-120132200D02*
X166708333Y-120036961D01*
X166708333Y-120036961D02*
X166660714Y-119846485D01*
X166660714Y-119846485D02*
X166660714Y-119513152D01*
X166660714Y-119513152D02*
X166708333Y-119322676D01*
X166708333Y-119322676D02*
X166803571Y-119227438D01*
X166803571Y-119227438D02*
X166898809Y-119179819D01*
X167755952Y-119179819D02*
X167755952Y-119989342D01*
X167755952Y-119989342D02*
X167803571Y-120084580D01*
X167803571Y-120084580D02*
X167851190Y-120132200D01*
X167851190Y-120132200D02*
X167946428Y-120179819D01*
X167946428Y-120179819D02*
X168136904Y-120179819D01*
X168136904Y-120179819D02*
X168232142Y-120132200D01*
X168232142Y-120132200D02*
X168279761Y-120084580D01*
X168279761Y-120084580D02*
X168327380Y-119989342D01*
X168327380Y-119989342D02*
X168327380Y-119179819D01*
X168660714Y-119179819D02*
X169232142Y-119179819D01*
X168946428Y-120179819D02*
X168946428Y-119179819D01*
X169517857Y-119275057D02*
X169565476Y-119227438D01*
X169565476Y-119227438D02*
X169660714Y-119179819D01*
X169660714Y-119179819D02*
X169898809Y-119179819D01*
X169898809Y-119179819D02*
X169994047Y-119227438D01*
X169994047Y-119227438D02*
X170041666Y-119275057D01*
X170041666Y-119275057D02*
X170089285Y-119370295D01*
X170089285Y-119370295D02*
X170089285Y-119465533D01*
X170089285Y-119465533D02*
X170041666Y-119608390D01*
X170041666Y-119608390D02*
X169470238Y-120179819D01*
X169470238Y-120179819D02*
X170089285Y-120179819D01*
X166379761Y-113859580D02*
X166332142Y-113907200D01*
X166332142Y-113907200D02*
X166189285Y-113954819D01*
X166189285Y-113954819D02*
X166094047Y-113954819D01*
X166094047Y-113954819D02*
X165951190Y-113907200D01*
X165951190Y-113907200D02*
X165855952Y-113811961D01*
X165855952Y-113811961D02*
X165808333Y-113716723D01*
X165808333Y-113716723D02*
X165760714Y-113526247D01*
X165760714Y-113526247D02*
X165760714Y-113383390D01*
X165760714Y-113383390D02*
X165808333Y-113192914D01*
X165808333Y-113192914D02*
X165855952Y-113097676D01*
X165855952Y-113097676D02*
X165951190Y-113002438D01*
X165951190Y-113002438D02*
X166094047Y-112954819D01*
X166094047Y-112954819D02*
X166189285Y-112954819D01*
X166189285Y-112954819D02*
X166332142Y-113002438D01*
X166332142Y-113002438D02*
X166379761Y-113050057D01*
X166998809Y-112954819D02*
X167189285Y-112954819D01*
X167189285Y-112954819D02*
X167284523Y-113002438D01*
X167284523Y-113002438D02*
X167379761Y-113097676D01*
X167379761Y-113097676D02*
X167427380Y-113288152D01*
X167427380Y-113288152D02*
X167427380Y-113621485D01*
X167427380Y-113621485D02*
X167379761Y-113811961D01*
X167379761Y-113811961D02*
X167284523Y-113907200D01*
X167284523Y-113907200D02*
X167189285Y-113954819D01*
X167189285Y-113954819D02*
X166998809Y-113954819D01*
X166998809Y-113954819D02*
X166903571Y-113907200D01*
X166903571Y-113907200D02*
X166808333Y-113811961D01*
X166808333Y-113811961D02*
X166760714Y-113621485D01*
X166760714Y-113621485D02*
X166760714Y-113288152D01*
X166760714Y-113288152D02*
X166808333Y-113097676D01*
X166808333Y-113097676D02*
X166903571Y-113002438D01*
X166903571Y-113002438D02*
X166998809Y-112954819D01*
X167855952Y-112954819D02*
X167855952Y-113764342D01*
X167855952Y-113764342D02*
X167903571Y-113859580D01*
X167903571Y-113859580D02*
X167951190Y-113907200D01*
X167951190Y-113907200D02*
X168046428Y-113954819D01*
X168046428Y-113954819D02*
X168236904Y-113954819D01*
X168236904Y-113954819D02*
X168332142Y-113907200D01*
X168332142Y-113907200D02*
X168379761Y-113859580D01*
X168379761Y-113859580D02*
X168427380Y-113764342D01*
X168427380Y-113764342D02*
X168427380Y-112954819D01*
X168760714Y-112954819D02*
X169332142Y-112954819D01*
X169046428Y-113954819D02*
X169046428Y-112954819D01*
X170189285Y-113954819D02*
X169617857Y-113954819D01*
X169903571Y-113954819D02*
X169903571Y-112954819D01*
X169903571Y-112954819D02*
X169808333Y-113097676D01*
X169808333Y-113097676D02*
X169713095Y-113192914D01*
X169713095Y-113192914D02*
X169617857Y-113240533D01*
X177508333Y-116609580D02*
X177460714Y-116657200D01*
X177460714Y-116657200D02*
X177317857Y-116704819D01*
X177317857Y-116704819D02*
X177222619Y-116704819D01*
X177222619Y-116704819D02*
X177079762Y-116657200D01*
X177079762Y-116657200D02*
X176984524Y-116561961D01*
X176984524Y-116561961D02*
X176936905Y-116466723D01*
X176936905Y-116466723D02*
X176889286Y-116276247D01*
X176889286Y-116276247D02*
X176889286Y-116133390D01*
X176889286Y-116133390D02*
X176936905Y-115942914D01*
X176936905Y-115942914D02*
X176984524Y-115847676D01*
X176984524Y-115847676D02*
X177079762Y-115752438D01*
X177079762Y-115752438D02*
X177222619Y-115704819D01*
X177222619Y-115704819D02*
X177317857Y-115704819D01*
X177317857Y-115704819D02*
X177460714Y-115752438D01*
X177460714Y-115752438D02*
X177508333Y-115800057D01*
X178365476Y-116038152D02*
X178365476Y-116704819D01*
X178127381Y-115657200D02*
X177889286Y-116371485D01*
X177889286Y-116371485D02*
X178508333Y-116371485D01*
X168933333Y-111784580D02*
X168885714Y-111832200D01*
X168885714Y-111832200D02*
X168742857Y-111879819D01*
X168742857Y-111879819D02*
X168647619Y-111879819D01*
X168647619Y-111879819D02*
X168504762Y-111832200D01*
X168504762Y-111832200D02*
X168409524Y-111736961D01*
X168409524Y-111736961D02*
X168361905Y-111641723D01*
X168361905Y-111641723D02*
X168314286Y-111451247D01*
X168314286Y-111451247D02*
X168314286Y-111308390D01*
X168314286Y-111308390D02*
X168361905Y-111117914D01*
X168361905Y-111117914D02*
X168409524Y-111022676D01*
X168409524Y-111022676D02*
X168504762Y-110927438D01*
X168504762Y-110927438D02*
X168647619Y-110879819D01*
X168647619Y-110879819D02*
X168742857Y-110879819D01*
X168742857Y-110879819D02*
X168885714Y-110927438D01*
X168885714Y-110927438D02*
X168933333Y-110975057D01*
X169885714Y-111879819D02*
X169314286Y-111879819D01*
X169600000Y-111879819D02*
X169600000Y-110879819D01*
X169600000Y-110879819D02*
X169504762Y-111022676D01*
X169504762Y-111022676D02*
X169409524Y-111117914D01*
X169409524Y-111117914D02*
X169314286Y-111165533D01*
D12*
G04 #@! TO.C,U9*
X173090000Y-111737500D02*
X173090000Y-110937500D01*
X173090000Y-111737500D02*
X173090000Y-112537500D01*
X176210000Y-111737500D02*
X176210000Y-110937500D01*
X176210000Y-111737500D02*
X176210000Y-112537500D01*
X176490000Y-110677500D02*
X176160000Y-110437500D01*
X176490000Y-110197500D01*
X176490000Y-110677500D01*
G36*
X176490000Y-110677500D02*
G01*
X176160000Y-110437500D01*
X176490000Y-110197500D01*
X176490000Y-110677500D01*
G37*
G04 #@! TO.C,U7*
X163320000Y-48635000D02*
X163320000Y-49335000D01*
X163320000Y-62855000D02*
X163320000Y-62155000D01*
X164020000Y-48635000D02*
X163320000Y-48635000D01*
X164020000Y-62855000D02*
X163320000Y-62855000D01*
X176840000Y-48635000D02*
X177540000Y-48635000D01*
X176840000Y-62855000D02*
X177540000Y-62855000D01*
X177540000Y-48635000D02*
X177540000Y-49335000D01*
X177540000Y-62855000D02*
X177540000Y-62155000D01*
X162692500Y-49335000D02*
X162352500Y-48865000D01*
X163032500Y-48865000D01*
X162692500Y-49335000D01*
G36*
X162692500Y-49335000D02*
G01*
X162352500Y-48865000D01*
X163032500Y-48865000D01*
X162692500Y-49335000D01*
G37*
D13*
G04 #@! TO.C,U5*
X171125000Y-70875000D02*
X174125000Y-70875000D01*
X171125000Y-75875000D02*
X174125000Y-75875000D01*
D14*
X170098000Y-71502000D02*
G75*
G02*
X169898000Y-71502000I-100000J0D01*
G01*
X169898000Y-71502000D02*
G75*
G02*
X170098000Y-71502000I100000J0D01*
G01*
D15*
G04 #@! TO.C,U4*
X180623000Y-58698000D02*
X180623000Y-61952000D01*
X185877000Y-61952000D02*
X185877000Y-58698000D01*
D16*
G36*
X183840499Y-58293599D02*
G01*
X183459499Y-58293599D01*
X183459499Y-58039599D01*
X183840499Y-58039599D01*
X183840499Y-58293599D01*
G37*
D15*
G04 #@! TO.C,U2*
X168886700Y-37027600D02*
X168886700Y-37305818D01*
X168886700Y-39594182D02*
X168886700Y-39872400D01*
X168886700Y-39872400D02*
X169668920Y-39872400D01*
X169668920Y-37027600D02*
X168886700Y-37027600D01*
X171457280Y-39872400D02*
X172239500Y-39872400D01*
X172239500Y-37027600D02*
X171457280Y-37027600D01*
X172239500Y-37305818D02*
X172239500Y-37027600D01*
X172239500Y-39872400D02*
X172239500Y-39594182D01*
D16*
G36*
X168861300Y-38890500D02*
G01*
X168607300Y-38890500D01*
X168607300Y-38509499D01*
X168861300Y-38509499D01*
X168861300Y-38890500D01*
G37*
D12*
G04 #@! TO.C,R_Series_MicroSD_3*
X166427500Y-70887258D02*
X166427500Y-70412742D01*
X167472500Y-70887258D02*
X167472500Y-70412742D01*
G04 #@! TO.C,R_Series_MicroSD_2*
X164277500Y-70887258D02*
X164277500Y-70412742D01*
X165322500Y-70887258D02*
X165322500Y-70412742D01*
G04 #@! TO.C,R_Series_MicroSD_1*
X162127500Y-70887258D02*
X162127500Y-70412742D01*
X163172500Y-70887258D02*
X163172500Y-70412742D01*
G04 #@! TO.C,R_Pull_MicroSD_6*
X168602500Y-97912742D02*
X168602500Y-98387258D01*
X169647500Y-97912742D02*
X169647500Y-98387258D01*
G04 #@! TO.C,R_Pull_MicroSD_5*
X165777500Y-85049758D02*
X165777500Y-84575242D01*
X166822500Y-85049758D02*
X166822500Y-84575242D01*
G04 #@! TO.C,R_Pull_MicroSD_4*
X154277500Y-85049758D02*
X154277500Y-84575242D01*
X155322500Y-85049758D02*
X155322500Y-84575242D01*
G04 #@! TO.C,R_Pull_MicroSD_3*
X156577500Y-85049758D02*
X156577500Y-84575242D01*
X157622500Y-85049758D02*
X157622500Y-84575242D01*
G04 #@! TO.C,R_Pull_MicroSD_2*
X158877500Y-85049758D02*
X158877500Y-84575242D01*
X159922500Y-85049758D02*
X159922500Y-84575242D01*
G04 #@! TO.C,R_Pull_MicroSD_1*
X163477500Y-85049758D02*
X163477500Y-84575242D01*
X164522500Y-85049758D02*
X164522500Y-84575242D01*
G04 #@! TO.C,R_Pull_Flash_1*
X154087258Y-34077500D02*
X153612742Y-34077500D01*
X154087258Y-35122500D02*
X153612742Y-35122500D01*
G04 #@! TO.C,R7*
X167700242Y-80477500D02*
X168174758Y-80477500D01*
X167700242Y-81522500D02*
X168174758Y-81522500D01*
G04 #@! TO.C,R(T)2*
X178477500Y-89737258D02*
X178477500Y-89262742D01*
X179522500Y-89737258D02*
X179522500Y-89262742D01*
G04 #@! TO.C,R(T)1*
X183087742Y-89902500D02*
X183562258Y-89902500D01*
X183087742Y-90947500D02*
X183562258Y-90947500D01*
G04 #@! TO.C,R(PULL)19*
X181727500Y-54387742D02*
X181727500Y-54862258D01*
X182772500Y-54387742D02*
X182772500Y-54862258D01*
G04 #@! TO.C,R(PULL)18*
X184327500Y-54387742D02*
X184327500Y-54862258D01*
X185372500Y-54387742D02*
X185372500Y-54862258D01*
G04 #@! TO.C,R(PULL)16*
X175477500Y-72637258D02*
X175477500Y-72162742D01*
X176522500Y-72637258D02*
X176522500Y-72162742D01*
G04 #@! TO.C,R(PULL)15*
X172587742Y-68952500D02*
X173062258Y-68952500D01*
X172587742Y-69997500D02*
X173062258Y-69997500D01*
G04 #@! TO.C,R(PULL)9*
X172224758Y-121602500D02*
X171750242Y-121602500D01*
X172224758Y-122647500D02*
X171750242Y-122647500D01*
G04 #@! TO.C,R(PULL)4*
X167909200Y-43087258D02*
X167909200Y-42612742D01*
X166864200Y-43087258D02*
X166864200Y-42612742D01*
G04 #@! TO.C,R(PULL)3*
X175077500Y-45637258D02*
X175077500Y-45162742D01*
X176122500Y-45637258D02*
X176122500Y-45162742D01*
G04 #@! TO.C,R(PULL)2*
X171427500Y-43087258D02*
X171427500Y-42612742D01*
X172472500Y-43087258D02*
X172472500Y-42612742D01*
G04 #@! TO.C,R(PULL)1*
X169134200Y-43087258D02*
X169134200Y-42612742D01*
X170179200Y-43087258D02*
X170179200Y-42612742D01*
D13*
G04 #@! TO.C,Q1*
X174600000Y-91050000D02*
X176400000Y-91050000D01*
X176400000Y-87950000D02*
X174600000Y-87950000D01*
D14*
X177910000Y-90450000D02*
G75*
G02*
X177710000Y-90450000I-100000J0D01*
G01*
X177710000Y-90450000D02*
G75*
G02*
X177910000Y-90450000I100000J0D01*
G01*
D12*
G04 #@! TO.C,Power_On_LED1*
X167100000Y-122860000D02*
X169385000Y-122860000D01*
X169385000Y-121390000D02*
X167100000Y-121390000D01*
X169385000Y-122860000D02*
X169385000Y-121390000D01*
D13*
G04 #@! TO.C,LS2*
X171125000Y-96150000D02*
X171125000Y-99250000D01*
X171125000Y-99250000D02*
X174775000Y-99250000D01*
X174775000Y-94250000D02*
X172475000Y-94250000D01*
X176125000Y-96150000D02*
X176125000Y-97650000D01*
G04 #@! TO.C,L1*
X171125000Y-114750000D02*
X171125000Y-119950000D01*
X171125000Y-114750000D02*
X172205000Y-114750000D01*
X171125000Y-119950000D02*
X172205000Y-119950000D01*
X176125000Y-114750000D02*
X175045000Y-114750000D01*
X176125000Y-114750000D02*
X176125000Y-119950000D01*
X176125000Y-119950000D02*
X175045000Y-119950000D01*
D12*
G04 #@! TO.C,J5*
X179465000Y-107115000D02*
X184885000Y-107115000D01*
X179465000Y-115835000D02*
X179465000Y-107115000D01*
X180765000Y-117535000D02*
X179465000Y-115835000D01*
X180765000Y-117535000D02*
X183585000Y-117535000D01*
X183585000Y-117535000D02*
X184885000Y-115835000D01*
X184885000Y-115835000D02*
X184885000Y-107115000D01*
D13*
G04 #@! TO.C,J4*
X153375000Y-102212500D02*
X153375000Y-88362500D01*
X154725000Y-88362500D02*
X153375000Y-88362500D01*
X166125000Y-104412500D02*
X155275000Y-104412500D01*
X166925000Y-88362500D02*
X167225000Y-88362500D01*
X167225000Y-88362500D02*
X167225000Y-91812500D01*
X167225000Y-93712500D02*
X167225000Y-98212500D01*
X167225000Y-100662500D02*
X167225000Y-99712500D01*
D14*
X157625000Y-87212500D02*
G75*
G02*
X157425000Y-87212500I-100000J0D01*
G01*
X157425000Y-87212500D02*
G75*
G02*
X157625000Y-87212500I100000J0D01*
G01*
D12*
G04 #@! TO.C,J3*
X180690000Y-92040000D02*
X180690000Y-93840000D01*
X180690000Y-93840000D02*
X179750000Y-93840000D01*
X180690000Y-103010000D02*
X180690000Y-101210000D01*
X182290000Y-92040000D02*
X180690000Y-92040000D01*
X182290000Y-103010000D02*
X180690000Y-103010000D01*
X185160000Y-93310000D02*
X185160000Y-101740000D01*
G04 #@! TO.C,J2*
X179610000Y-36665000D02*
X179610000Y-36600000D01*
X179610000Y-43170000D02*
X179610000Y-43105000D01*
X183240000Y-36600000D02*
X179610000Y-36600000D01*
X183240000Y-36665000D02*
X183240000Y-36600000D01*
X183240000Y-43170000D02*
X179610000Y-43170000D01*
X183240000Y-43170000D02*
X183240000Y-43105000D01*
X184515000Y-43105000D02*
X183240000Y-43105000D01*
G04 #@! TO.C,J1*
X174921339Y-81089000D02*
X176721339Y-81089000D01*
X174921339Y-82689000D02*
X174921339Y-81089000D01*
X184091339Y-81089000D02*
X184091339Y-80149000D01*
X184621339Y-85559000D02*
X176191339Y-85559000D01*
X185891339Y-81089000D02*
X184091339Y-81089000D01*
X185891339Y-82689000D02*
X185891339Y-81089000D01*
D14*
G04 #@! TO.C,IC1*
X152175000Y-36020000D02*
X153825000Y-36020000D01*
X154175000Y-35960000D02*
X159025000Y-35960000D01*
X154175000Y-41240000D02*
X154175000Y-35960000D01*
X159025000Y-35960000D02*
X159025000Y-41240000D01*
X159025000Y-41240000D02*
X154175000Y-41240000D01*
D12*
G04 #@! TO.C,FB1*
X157340000Y-66412779D02*
X157340000Y-66087221D01*
X158360000Y-66412779D02*
X158360000Y-66087221D01*
G04 #@! TO.C,D3*
X177860000Y-91750000D02*
X173850000Y-91750000D01*
X177860000Y-93750000D02*
X173850000Y-93750000D01*
X177860000Y-93750000D02*
X177860000Y-91750000D01*
G04 #@! TO.C,D2*
X171590000Y-105387500D02*
X171590000Y-108687500D01*
X171590000Y-105387500D02*
X177100000Y-105387500D01*
X171590000Y-108687500D02*
X177100000Y-108687500D01*
G04 #@! TO.C,D1*
X170525000Y-81735000D02*
X172810000Y-81735000D01*
X172810000Y-80265000D02*
X170525000Y-80265000D01*
X172810000Y-81735000D02*
X172810000Y-80265000D01*
G04 #@! TO.C,COUT2*
X166315000Y-116411252D02*
X166315000Y-115888748D01*
X167785000Y-116411252D02*
X167785000Y-115888748D01*
G04 #@! TO.C,COUT1*
X168740000Y-116411252D02*
X168740000Y-115888748D01*
X170210000Y-116411252D02*
X170210000Y-115888748D01*
G04 #@! TO.C,C58*
X154359420Y-57770000D02*
X154640580Y-57770000D01*
X154359420Y-58790000D02*
X154640580Y-58790000D01*
G04 #@! TO.C,C57*
X154640580Y-51540000D02*
X154359420Y-51540000D01*
X154640580Y-52560000D02*
X154359420Y-52560000D01*
G04 #@! TO.C,C35*
X158884420Y-62915000D02*
X159165580Y-62915000D01*
X158884420Y-63935000D02*
X159165580Y-63935000D01*
G04 #@! TO.C,C32*
X180515580Y-77965000D02*
X180234420Y-77965000D01*
X180515580Y-78985000D02*
X180234420Y-78985000D01*
G04 #@! TO.C,C31*
X177765000Y-102615580D02*
X177765000Y-102334420D01*
X178785000Y-102615580D02*
X178785000Y-102334420D01*
G04 #@! TO.C,C30*
X177765000Y-99140580D02*
X177765000Y-98859420D01*
X178785000Y-99140580D02*
X178785000Y-98859420D01*
G04 #@! TO.C,C29*
X158834420Y-56290000D02*
X159115580Y-56290000D01*
X158834420Y-57310000D02*
X159115580Y-57310000D01*
G04 #@! TO.C,C28*
X177765000Y-95765580D02*
X177765000Y-95484420D01*
X178785000Y-95765580D02*
X178785000Y-95484420D01*
G04 #@! TO.C,C27*
X159484420Y-30840000D02*
X159765580Y-30840000D01*
X159484420Y-31860000D02*
X159765580Y-31860000D01*
G04 #@! TO.C,C26*
X164570580Y-64910000D02*
X164289420Y-64910000D01*
X164570580Y-65930000D02*
X164289420Y-65930000D01*
G04 #@! TO.C,C25*
X181659078Y-63115000D02*
X181377918Y-63115000D01*
X181659078Y-64135000D02*
X181377918Y-64135000D01*
G04 #@! TO.C,C24*
X184727918Y-64915000D02*
X185009078Y-64915000D01*
X184727918Y-65935000D02*
X185009078Y-65935000D01*
G04 #@! TO.C,C23*
X184727918Y-63115000D02*
X185009078Y-63115000D01*
X184727918Y-64135000D02*
X185009078Y-64135000D01*
G04 #@! TO.C,C22*
X155490000Y-66084420D02*
X155490000Y-66365580D01*
X156510000Y-66084420D02*
X156510000Y-66365580D01*
G04 #@! TO.C,C21*
X157840000Y-61115580D02*
X157840000Y-60834420D01*
X158860000Y-61115580D02*
X158860000Y-60834420D01*
G04 #@! TO.C,C20*
X159290000Y-49615580D02*
X159290000Y-49334420D01*
X160310000Y-49615580D02*
X160310000Y-49334420D01*
G04 #@! TO.C,C19*
X177740000Y-65384420D02*
X177740000Y-65665580D01*
X178760000Y-65384420D02*
X178760000Y-65665580D01*
G04 #@! TO.C,C18*
X159434420Y-34090000D02*
X159715580Y-34090000D01*
X159434420Y-35110000D02*
X159715580Y-35110000D01*
G04 #@! TO.C,C17*
X156090000Y-47115580D02*
X156090000Y-46834420D01*
X157110000Y-47115580D02*
X157110000Y-46834420D01*
G04 #@! TO.C,C16*
X160790000Y-80384420D02*
X160790000Y-80665580D01*
X161810000Y-80384420D02*
X161810000Y-80665580D01*
G04 #@! TO.C,C15*
X161190000Y-84671920D02*
X161190000Y-84953080D01*
X162210000Y-84671920D02*
X162210000Y-84953080D01*
G04 #@! TO.C,C14*
X180490000Y-48659420D02*
X180490000Y-48940580D01*
X181510000Y-48659420D02*
X181510000Y-48940580D01*
G04 #@! TO.C,C13*
X170659420Y-34927500D02*
X170940580Y-34927500D01*
X170659420Y-35947500D02*
X170940580Y-35947500D01*
G04 #@! TO.C,C12*
X164459420Y-44725000D02*
X164740580Y-44725000D01*
X164459420Y-45745000D02*
X164740580Y-45745000D01*
G04 #@! TO.C,C11*
X168640000Y-71959420D02*
X168640000Y-72240580D01*
X169660000Y-71959420D02*
X169660000Y-72240580D01*
G04 #@! TO.C,C10*
X159290000Y-53515580D02*
X159290000Y-53234420D01*
X160310000Y-53515580D02*
X160310000Y-53234420D01*
G04 #@! TO.C,C9*
X160040580Y-58015000D02*
X159759420Y-58015000D01*
X160040580Y-59035000D02*
X159759420Y-59035000D01*
G04 #@! TO.C,C7*
X181565580Y-50915000D02*
X181284420Y-50915000D01*
X181565580Y-51935000D02*
X181284420Y-51935000D01*
G04 #@! TO.C,C5*
X175565000Y-67215580D02*
X175565000Y-66934420D01*
X176585000Y-67215580D02*
X176585000Y-66934420D01*
G04 #@! TO.C,C4*
X176840000Y-113684420D02*
X176840000Y-113965580D01*
X177860000Y-113684420D02*
X177860000Y-113965580D01*
G04 #@! TO.C,C3*
X166890000Y-36709420D02*
X166890000Y-36990580D01*
X167910000Y-36709420D02*
X167910000Y-36990580D01*
G04 #@! TO.C,C1*
X170527500Y-111176248D02*
X170527500Y-111698752D01*
X171997500Y-111176248D02*
X171997500Y-111698752D01*
G04 #@! TD*
%LPC*%
D17*
G04 #@! TO.C,J4*
X154575000Y-103762500D02*
X154725000Y-103912500D01*
X155075000Y-103912500D01*
X155075000Y-104612500D01*
X152875000Y-104612500D01*
X152875000Y-102512500D01*
X154575000Y-102512500D01*
X154575000Y-103762500D01*
G36*
X154575000Y-103762500D02*
G01*
X154725000Y-103912500D01*
X155075000Y-103912500D01*
X155075000Y-104612500D01*
X152875000Y-104612500D01*
X152875000Y-102512500D01*
X154575000Y-102512500D01*
X154575000Y-103762500D01*
G37*
G04 #@! TD*
D18*
G04 #@! TO.C,XTAL1*
X153649999Y-54075000D03*
X153649999Y-56275000D03*
X155250001Y-56275000D03*
X155250001Y-54075000D03*
G04 #@! TD*
D19*
G04 #@! TO.C,U9*
X175600000Y-110600000D03*
X174650000Y-110600000D03*
X173700000Y-110600000D03*
X173700000Y-112875000D03*
X174650000Y-112875000D03*
X175600000Y-112875000D03*
G04 #@! TD*
D20*
G04 #@! TO.C,U7*
X162755000Y-49745000D03*
X162755000Y-50245000D03*
X162755000Y-50745000D03*
X162755000Y-51245000D03*
X162755000Y-51745000D03*
X162755000Y-52245000D03*
X162755000Y-52745000D03*
X162755000Y-53245000D03*
X162755000Y-53745000D03*
X162755000Y-54245000D03*
X162755000Y-54745000D03*
X162755000Y-55245000D03*
X162755000Y-55745000D03*
X162755000Y-56245000D03*
X162755000Y-56745000D03*
X162755000Y-57245000D03*
X162755000Y-57745000D03*
X162755000Y-58245000D03*
X162755000Y-58745000D03*
X162755000Y-59245000D03*
X162755000Y-59745000D03*
X162755000Y-60245000D03*
X162755000Y-60745000D03*
X162755000Y-61245000D03*
X162755000Y-61745000D03*
D21*
X164430000Y-63420000D03*
X164930000Y-63420000D03*
X165430000Y-63420000D03*
X165930000Y-63420000D03*
X166430000Y-63420000D03*
X166930000Y-63420000D03*
X167430000Y-63420000D03*
X167930000Y-63420000D03*
X168430000Y-63420000D03*
X168930000Y-63420000D03*
X169430000Y-63420000D03*
X169930000Y-63420000D03*
X170430000Y-63420000D03*
X170930000Y-63420000D03*
X171430000Y-63420000D03*
X171930000Y-63420000D03*
X172430000Y-63420000D03*
X172930000Y-63420000D03*
X173430000Y-63420000D03*
X173930000Y-63420000D03*
X174430000Y-63420000D03*
X174930000Y-63420000D03*
X175430000Y-63420000D03*
X175930000Y-63420000D03*
X176430000Y-63420000D03*
D20*
X178105000Y-61745000D03*
X178105000Y-61245000D03*
X178105000Y-60745000D03*
X178105000Y-60245000D03*
X178105000Y-59745000D03*
X178105000Y-59245000D03*
X178105000Y-58745000D03*
X178105000Y-58245000D03*
X178105000Y-57745000D03*
X178105000Y-57245000D03*
X178105000Y-56745000D03*
X178105000Y-56245000D03*
X178105000Y-55745000D03*
X178105000Y-55245000D03*
X178105000Y-54745000D03*
X178105000Y-54245000D03*
X178105000Y-53745000D03*
X178105000Y-53245000D03*
X178105000Y-52745000D03*
X178105000Y-52245000D03*
X178105000Y-51745000D03*
X178105000Y-51245000D03*
X178105000Y-50745000D03*
X178105000Y-50245000D03*
X178105000Y-49745000D03*
D21*
X176430000Y-48070000D03*
X175930000Y-48070000D03*
X175430000Y-48070000D03*
X174930000Y-48070000D03*
X174430000Y-48070000D03*
X173930000Y-48070000D03*
X173430000Y-48070000D03*
X172930000Y-48070000D03*
X172430000Y-48070000D03*
X171930000Y-48070000D03*
X171430000Y-48070000D03*
X170930000Y-48070000D03*
X170430000Y-48070000D03*
X169930000Y-48070000D03*
X169430000Y-48070000D03*
X168930000Y-48070000D03*
X168430000Y-48070000D03*
X167930000Y-48070000D03*
X167430000Y-48070000D03*
X166930000Y-48070000D03*
X166430000Y-48070000D03*
X165930000Y-48070000D03*
X165430000Y-48070000D03*
X164930000Y-48070000D03*
X164430000Y-48070000D03*
G04 #@! TD*
D22*
G04 #@! TO.C,U5*
X171425000Y-71500000D03*
D23*
X171425000Y-72750000D03*
X171425000Y-74000000D03*
X171425000Y-75250000D03*
X173825000Y-75250000D03*
X173825000Y-74000000D03*
X173825000Y-72750000D03*
X173825000Y-71500000D03*
G04 #@! TD*
D24*
G04 #@! TO.C,U4*
X181249999Y-61695901D03*
X182050000Y-61695901D03*
X182850001Y-61695901D03*
X183649999Y-61695901D03*
X184450000Y-61695901D03*
X185249999Y-61695901D03*
D25*
X184968498Y-60325000D03*
D24*
X185250001Y-58954099D03*
X184450000Y-58954099D03*
X183649999Y-58954099D03*
X182850001Y-58954099D03*
X182050000Y-58954099D03*
X181250001Y-58954099D03*
D25*
X181531502Y-60325000D03*
G04 #@! TD*
D26*
G04 #@! TO.C,U2*
X171744200Y-39200001D03*
X171744200Y-38700000D03*
X171744200Y-38200000D03*
X171744200Y-37699999D03*
D27*
X171063099Y-37522900D03*
X170563100Y-37522900D03*
X170063101Y-37522900D03*
D26*
X169382000Y-37699999D03*
X169382000Y-38200000D03*
X169382000Y-38700000D03*
X169382000Y-39200001D03*
D27*
X170063101Y-39377100D03*
X170563100Y-39377100D03*
X171063099Y-39377100D03*
G04 #@! TD*
D28*
G04 #@! TO.C,R_Series_MicroSD_3*
X166950000Y-71475000D03*
X166950000Y-69825000D03*
G04 #@! TD*
G04 #@! TO.C,R_Series_MicroSD_2*
X164800000Y-71475000D03*
X164800000Y-69825000D03*
G04 #@! TD*
G04 #@! TO.C,R_Series_MicroSD_1*
X162650000Y-71475000D03*
X162650000Y-69825000D03*
G04 #@! TD*
D29*
G04 #@! TO.C,R_Pull_MicroSD_6*
X169125000Y-97325000D03*
X169125000Y-98975000D03*
G04 #@! TD*
D28*
G04 #@! TO.C,R_Pull_MicroSD_5*
X166300000Y-85637500D03*
X166300000Y-83987500D03*
G04 #@! TD*
G04 #@! TO.C,R_Pull_MicroSD_4*
X154800000Y-85637500D03*
X154800000Y-83987500D03*
G04 #@! TD*
G04 #@! TO.C,R_Pull_MicroSD_3*
X157100000Y-85637500D03*
X157100000Y-83987500D03*
G04 #@! TD*
G04 #@! TO.C,R_Pull_MicroSD_2*
X159400000Y-85637500D03*
X159400000Y-83987500D03*
G04 #@! TD*
G04 #@! TO.C,R_Pull_MicroSD_1*
X164000000Y-85637500D03*
X164000000Y-83987500D03*
G04 #@! TD*
D30*
G04 #@! TO.C,R_Pull_Flash_1*
X154675000Y-34600000D03*
X153025000Y-34600000D03*
G04 #@! TD*
D31*
G04 #@! TO.C,R7*
X167112500Y-81000000D03*
X168762500Y-81000000D03*
G04 #@! TD*
D28*
G04 #@! TO.C,R(T)2*
X179000000Y-90325000D03*
X179000000Y-88675000D03*
G04 #@! TD*
D31*
G04 #@! TO.C,R(T)1*
X182500000Y-90425000D03*
X184150000Y-90425000D03*
G04 #@! TD*
D29*
G04 #@! TO.C,R(PULL)19*
X182250000Y-53800000D03*
X182250000Y-55450000D03*
G04 #@! TD*
G04 #@! TO.C,R(PULL)18*
X184850000Y-53800000D03*
X184850000Y-55450000D03*
G04 #@! TD*
D28*
G04 #@! TO.C,R(PULL)16*
X176000000Y-73225000D03*
X176000000Y-71575000D03*
G04 #@! TD*
D31*
G04 #@! TO.C,R(PULL)15*
X172000000Y-69475000D03*
X173650000Y-69475000D03*
G04 #@! TD*
D30*
G04 #@! TO.C,R(PULL)9*
X171162500Y-122125000D03*
X172812500Y-122125000D03*
G04 #@! TD*
D28*
G04 #@! TO.C,R(PULL)4*
X167386700Y-42025000D03*
X167386700Y-43675000D03*
G04 #@! TD*
G04 #@! TO.C,R(PULL)3*
X175600000Y-46225000D03*
X175600000Y-44575000D03*
G04 #@! TD*
G04 #@! TO.C,R(PULL)2*
X171950000Y-43675000D03*
X171950000Y-42025000D03*
G04 #@! TD*
G04 #@! TO.C,R(PULL)1*
X169656700Y-43675000D03*
X169656700Y-42025000D03*
G04 #@! TD*
D32*
G04 #@! TO.C,Q1*
X176755000Y-90450000D03*
X176755000Y-88550000D03*
X174245000Y-89500000D03*
G04 #@! TD*
D33*
G04 #@! TO.C,Power_On_LED1*
X168687500Y-122125000D03*
X167112500Y-122125000D03*
G04 #@! TD*
D34*
G04 #@! TO.C,LS2*
X175875000Y-98650000D03*
X171375000Y-95150000D03*
X175875000Y-95150000D03*
G04 #@! TD*
D35*
G04 #@! TO.C,L1*
X173625000Y-115250000D03*
X173625000Y-119450000D03*
G04 #@! TD*
D36*
G04 #@! TO.C,J5*
X182175000Y-114825000D03*
D37*
X182175000Y-109825000D03*
G04 #@! TD*
D38*
G04 #@! TO.C,J4*
X157525000Y-88562500D03*
X158625000Y-88562500D03*
X159725000Y-88562500D03*
X160825000Y-88562500D03*
X161925000Y-88562500D03*
X163025000Y-88562500D03*
X164125000Y-88562500D03*
X165225000Y-88562500D03*
D39*
X155625000Y-88562500D03*
D40*
X167025000Y-92762500D03*
D41*
X167025000Y-102562500D03*
D42*
X167025000Y-98962500D03*
D43*
X166175000Y-88462500D03*
G04 #@! TD*
D44*
G04 #@! TO.C,J3*
X180600000Y-94400000D03*
X180600000Y-95650000D03*
X180600000Y-96900000D03*
X180600000Y-98150000D03*
X180600000Y-99400000D03*
X180600000Y-100650000D03*
D45*
X183950000Y-92550000D03*
X183950000Y-102500000D03*
G04 #@! TD*
D46*
G04 #@! TO.C,J2*
X183375000Y-42425000D03*
X179475000Y-42425000D03*
X183375000Y-41155000D03*
X179475000Y-41155000D03*
X183375000Y-39885000D03*
X179475000Y-39885000D03*
X183375000Y-38615000D03*
X179475000Y-38615000D03*
X183375000Y-37345000D03*
X179475000Y-37345000D03*
G04 #@! TD*
D47*
G04 #@! TO.C,J1*
X183531339Y-80999000D03*
X182281339Y-80999000D03*
X181031339Y-80999000D03*
X179781339Y-80999000D03*
X178531339Y-80999000D03*
X177281339Y-80999000D03*
D48*
X185381339Y-84349000D03*
X175431339Y-84349000D03*
G04 #@! TD*
D49*
G04 #@! TO.C,IC1*
X153000000Y-36695000D03*
X153000000Y-37965000D03*
X153000000Y-39235000D03*
X153000000Y-40505000D03*
X160200000Y-40505000D03*
X160200000Y-39235000D03*
X160200000Y-37965000D03*
X160200000Y-36695000D03*
G04 #@! TD*
D50*
G04 #@! TO.C,H6*
X184000000Y-76000000D03*
G04 #@! TD*
G04 #@! TO.C,H5*
X154000000Y-76000000D03*
G04 #@! TD*
G04 #@! TO.C,H4*
X184000000Y-30000000D03*
G04 #@! TD*
G04 #@! TO.C,H3*
X184000000Y-122000000D03*
G04 #@! TD*
G04 #@! TO.C,H2*
X154000000Y-122000000D03*
G04 #@! TD*
G04 #@! TO.C,H1*
X154000000Y-30000000D03*
G04 #@! TD*
D51*
G04 #@! TO.C,FB1*
X157850000Y-67037500D03*
X157850000Y-65462500D03*
G04 #@! TD*
D52*
G04 #@! TO.C,D3*
X177150000Y-92750000D03*
X173850000Y-92750000D03*
G04 #@! TD*
D53*
G04 #@! TO.C,D2*
X173100000Y-107037500D03*
X177100000Y-107037500D03*
G04 #@! TD*
D33*
G04 #@! TO.C,D1*
X172112500Y-81000000D03*
X170537500Y-81000000D03*
G04 #@! TD*
D54*
G04 #@! TO.C,COUT2*
X167050000Y-117100000D03*
X167050000Y-115200000D03*
G04 #@! TD*
G04 #@! TO.C,COUT1*
X169475000Y-117100000D03*
X169475000Y-115200000D03*
G04 #@! TD*
D55*
G04 #@! TO.C,C58*
X153725000Y-58280000D03*
X155275000Y-58280000D03*
G04 #@! TD*
D56*
G04 #@! TO.C,C57*
X155275000Y-52050000D03*
X153725000Y-52050000D03*
G04 #@! TD*
D55*
G04 #@! TO.C,C35*
X158250000Y-63425000D03*
X159800000Y-63425000D03*
G04 #@! TD*
D56*
G04 #@! TO.C,C32*
X181150000Y-78475000D03*
X179600000Y-78475000D03*
G04 #@! TD*
D57*
G04 #@! TO.C,C31*
X178275000Y-103250000D03*
X178275000Y-101700000D03*
G04 #@! TD*
G04 #@! TO.C,C30*
X178275000Y-99775000D03*
X178275000Y-98225000D03*
G04 #@! TD*
D55*
G04 #@! TO.C,C29*
X158200000Y-56800000D03*
X159750000Y-56800000D03*
G04 #@! TD*
D57*
G04 #@! TO.C,C28*
X178275000Y-96400000D03*
X178275000Y-94850000D03*
G04 #@! TD*
D55*
G04 #@! TO.C,C27*
X158850000Y-31350000D03*
X160400000Y-31350000D03*
G04 #@! TD*
D56*
G04 #@! TO.C,C26*
X165205000Y-65420000D03*
X163655000Y-65420000D03*
G04 #@! TD*
G04 #@! TO.C,C25*
X182293498Y-63625000D03*
X180743498Y-63625000D03*
G04 #@! TD*
D55*
G04 #@! TO.C,C24*
X184093498Y-65425000D03*
X185643498Y-65425000D03*
G04 #@! TD*
G04 #@! TO.C,C23*
X184093498Y-63625000D03*
X185643498Y-63625000D03*
G04 #@! TD*
D58*
G04 #@! TO.C,C22*
X156000000Y-65450000D03*
X156000000Y-67000000D03*
G04 #@! TD*
D57*
G04 #@! TO.C,C21*
X158350000Y-61750000D03*
X158350000Y-60200000D03*
G04 #@! TD*
G04 #@! TO.C,C20*
X159800000Y-50250000D03*
X159800000Y-48700000D03*
G04 #@! TD*
D58*
G04 #@! TO.C,C19*
X178250000Y-64750000D03*
X178250000Y-66300000D03*
G04 #@! TD*
D55*
G04 #@! TO.C,C18*
X158800000Y-34600000D03*
X160350000Y-34600000D03*
G04 #@! TD*
D57*
G04 #@! TO.C,C17*
X156600000Y-47750000D03*
X156600000Y-46200000D03*
G04 #@! TD*
D58*
G04 #@! TO.C,C16*
X161300000Y-79750000D03*
X161300000Y-81300000D03*
G04 #@! TD*
G04 #@! TO.C,C15*
X161700000Y-84037500D03*
X161700000Y-85587500D03*
G04 #@! TD*
G04 #@! TO.C,C14*
X181000000Y-48025000D03*
X181000000Y-49575000D03*
G04 #@! TD*
D55*
G04 #@! TO.C,C13*
X170025000Y-35437500D03*
X171575000Y-35437500D03*
G04 #@! TD*
G04 #@! TO.C,C12*
X163825000Y-45235000D03*
X165375000Y-45235000D03*
G04 #@! TD*
D58*
G04 #@! TO.C,C11*
X169150000Y-71325000D03*
X169150000Y-72875000D03*
G04 #@! TD*
D57*
G04 #@! TO.C,C10*
X159800000Y-54150000D03*
X159800000Y-52600000D03*
G04 #@! TD*
D56*
G04 #@! TO.C,C9*
X160675000Y-58525000D03*
X159125000Y-58525000D03*
G04 #@! TD*
G04 #@! TO.C,C7*
X182200000Y-51425000D03*
X180650000Y-51425000D03*
G04 #@! TD*
D57*
G04 #@! TO.C,C5*
X176075000Y-67850000D03*
X176075000Y-66300000D03*
G04 #@! TD*
D58*
G04 #@! TO.C,C4*
X177350000Y-113050000D03*
X177350000Y-114600000D03*
G04 #@! TD*
G04 #@! TO.C,C3*
X167400000Y-36075000D03*
X167400000Y-37625000D03*
G04 #@! TD*
D59*
G04 #@! TO.C,C1*
X171262500Y-110487500D03*
X171262500Y-112387500D03*
G04 #@! TD*
%LPD*%
M02*
