M48
; DRILL file {KiCad 9.0.1} date 2026-07-16T12:47:56-0400
; FORMAT={-:-/ absolute / metric / decimal}
; #@! TF.CreationDate,2026-07-16T12:47:56-04:00
; #@! TF.GenerationSoftware,Kicad,Pcbnew,9.0.1
; #@! TF.FileFunction,Plated,1,4,PTH
FMAT,2
METRIC
; #@! TA.AperFunction,Plated,PTH,ViaDrill
T1C0.300
; #@! TA.AperFunction,Plated,PTH,ComponentDrill
T2C1.800
%
G90
G05
T1
X151.5Y-39.9
X152.022Y-51.55
X152.022Y-52.85
X152.022Y-54.4
X152.022Y-56.0
X152.022Y-57.55
X152.022Y-59.05
X152.72Y-58.06
X152.8Y-105.35
X152.872Y-59.9
X152.922Y-50.6
X153.1Y-42.35
X154.322Y-50.6
X154.422Y-59.9
X154.8Y-82.562
X155.0Y-37.5
X155.25Y-87.25
X155.425Y-46.2
X155.45Y-47.75
X155.775Y-34.575
X155.822Y-50.6
X155.972Y-59.9
X156.0Y-68.15
X156.42Y-52.28
X157.072Y-57.2
X157.072Y-58.8
X157.15Y-82.612
X157.172Y-51.8
X157.172Y-53.6
X157.25Y-60.525
X157.35Y-32.1
X157.35Y-33.85
X158.1Y-40.6
X158.175Y-58.525
X158.5Y-52.6
X158.5Y-54.15
X158.575Y-50.25
X158.65Y-81.1
X159.3Y-65.8
X159.4Y-82.612
X159.787Y-62.306
X159.8Y-47.2
X159.9Y-81.55
X160.1Y-79.775
X160.262Y-60.938
X160.3Y-43.1
X160.35Y-66.875
X161.01Y-57.385
X161.1Y-61.6
X161.537Y-65.962
X161.625Y-34.075
X161.7Y-86.8
X161.85Y-30.35
X161.9Y-45.5
X162.2Y-82.6
X163.36Y-43.94
X163.4Y-87.05
X164.0Y-82.55
X164.45Y-50.0
X164.45Y-54.85
X164.5Y-52.6
X164.7Y-51.6
X165.1Y-50.8
X165.2Y-66.575
X165.75Y-43.875
X166.037Y-122.175
X166.15Y-75.8
X166.3Y-82.6
X166.387Y-42.05
X166.7Y-49.8
X167.05Y-113.775
X167.075Y-118.35
X167.3Y-87.0
X167.437Y-34.9
X167.437Y-38.9
X167.78Y-45.45
X168.175Y-111.325
X168.7Y-93.0
X168.95Y-100.8
X169.0Y-113.775
X169.125Y-95.75
X169.15Y-69.925
X169.25Y-74.25
X169.475Y-118.35
X169.625Y-79.175
X169.657Y-44.65
X170.0Y-34.0
X170.3Y-61.575
X170.58Y-49.65
X170.6Y-78.6
X170.875Y-113.75
X171.35Y-101.75
X171.366Y-49.8
X171.58Y-66.075
X171.761Y-68.086
X171.95Y-44.65
X172.1Y-46.35
X172.29Y-49.76
X172.525Y-113.425
X172.637Y-111.938
X172.694Y-39.4
X172.7Y-35.4
X173.05Y-42.95
X173.275Y-49.65
X173.562Y-81.0
X173.85Y-45.519
X173.9Y-38.4
X174.338Y-122.125
X174.65Y-109.225
X175.05Y-50.25
X176.406Y-79.074
X176.675Y-69.275
X176.75Y-87.3
X176.85Y-45.6
X177.05Y-101.65
X177.1Y-100.1
X177.1Y-103.275
X177.2Y-94.875
X177.2Y-96.4
X177.2Y-98.225
X177.6Y-70.425
X177.768Y-73.212
X178.25Y-67.6
X178.261Y-63.589
X178.5Y-75.7
X179.0Y-87.35
X179.225Y-77.075
X179.5Y-63.6
X179.55Y-54.25
X179.8Y-114.8
X180.6Y-101.825
X180.625Y-93.15
X181.0Y-46.775
X181.15Y-77.2
X181.649Y-56.899
X181.8Y-88.5
X182.2Y-117.2
X182.25Y-52.825
X182.3Y-65.05
X182.406Y-82.449
X182.425Y-49.575
X182.675Y-99.025
X183.35Y-44.325
X183.475Y-51.425
X184.1Y-66.65
X184.35Y-52.825
X184.6Y-114.8
X184.875Y-87.75
X184.9Y-80.3
X185.075Y-39.9
X185.088Y-97.663
X185.15Y-37.45
X185.15Y-41.2
X186.2Y-66.65
X186.8Y-63.625
T2
X182.175Y-109.825
X182.175Y-114.825
M30
