G04 #@! TF.GenerationSoftware,KiCad,Pcbnew,9.0.1*
G04 #@! TF.CreationDate,2026-07-16T12:47:56-04:00*
G04 #@! TF.ProjectId,DAQ-V4.1,4441512d-5634-42e3-912e-6b696361645f,rev?*
G04 #@! TF.SameCoordinates,Original*
G04 #@! TF.FileFunction,Paste,Top*
G04 #@! TF.FilePolarity,Positive*
%FSLAX46Y46*%
G04 Gerber Fmt 4.6, Leading zero omitted, Abs format (unit mm)*
G04 Created by KiCad (PCBNEW 9.0.1) date 2026-07-16 12:47:56*
%MOMM*%
%LPD*%
G01*
G04 APERTURE LIST*
G04 Aperture macros list*
%AMRoundRect*
0 Rectangle with rounded corners*
0 $1 Rounding radius*
0 $2 $3 $4 $5 $6 $7 $8 $9 X,Y pos of 4 corners*
0 Add a 4 corners polygon primitive as box body*
4,1,4,$2,$3,$4,$5,$6,$7,$8,$9,$2,$3,0*
0 Add four circle primitives for the rounded corners*
1,1,$1+$1,$2,$3*
1,1,$1+$1,$4,$5*
1,1,$1+$1,$6,$7*
1,1,$1+$1,$8,$9*
0 Add four rect primitives between the rounded corners*
20,1,$1+$1,$2,$3,$4,$5,0*
20,1,$1+$1,$4,$5,$6,$7,0*
20,1,$1+$1,$6,$7,$8,$9,0*
20,1,$1+$1,$8,$9,$2,$3,0*%
G04 Aperture macros list end*
%ADD10C,0.010000*%
%ADD11R,1.193800X1.397000*%
%ADD12RoundRect,0.150000X-0.150000X0.512500X-0.150000X-0.512500X0.150000X-0.512500X0.150000X0.512500X0*%
%ADD13RoundRect,0.075000X-0.725000X-0.075000X0.725000X-0.075000X0.725000X0.075000X-0.725000X0.075000X0*%
%ADD14RoundRect,0.075000X-0.075000X-0.725000X0.075000X-0.725000X0.075000X0.725000X-0.075000X0.725000X0*%
%ADD15RoundRect,0.039750X-0.615250X-0.225250X0.615250X-0.225250X0.615250X0.225250X-0.615250X0.225250X0*%
%ADD16RoundRect,0.042400X-0.612600X-0.222600X0.612600X-0.222600X0.612600X0.222600X-0.612600X0.222600X0*%
%ADD17R,0.449200X1.117800*%
%ADD18R,0.813000X0.500000*%
%ADD19R,0.533400X0.304800*%
%ADD20R,0.304800X0.533400*%
%ADD21RoundRect,0.200000X0.275000X-0.200000X0.275000X0.200000X-0.275000X0.200000X-0.275000X-0.200000X0*%
%ADD22RoundRect,0.200000X-0.275000X0.200000X-0.275000X-0.200000X0.275000X-0.200000X0.275000X0.200000X0*%
%ADD23RoundRect,0.200000X0.200000X0.275000X-0.200000X0.275000X-0.200000X-0.275000X0.200000X-0.275000X0*%
%ADD24RoundRect,0.200000X-0.200000X-0.275000X0.200000X-0.275000X0.200000X0.275000X-0.200000X0.275000X0*%
%ADD25RoundRect,0.147500X0.457500X0.147500X-0.457500X0.147500X-0.457500X-0.147500X0.457500X-0.147500X0*%
%ADD26RoundRect,0.218750X0.218750X0.256250X-0.218750X0.256250X-0.218750X-0.256250X0.218750X-0.256250X0*%
%ADD27R,1.500000X1.300000*%
%ADD28R,2.200000X1.500000*%
%ADD29R,0.700000X1.400000*%
%ADD30R,1.000000X1.400000*%
%ADD31R,1.200000X1.200000*%
%ADD32R,1.200000X3.200000*%
%ADD33R,1.200000X0.800000*%
%ADD34R,0.700000X1.200000*%
%ADD35RoundRect,0.150000X-0.700000X0.150000X-0.700000X-0.150000X0.700000X-0.150000X0.700000X0.150000X0*%
%ADD36RoundRect,0.250000X-1.150000X0.250000X-1.150000X-0.250000X1.150000X-0.250000X1.150000X0.250000X0*%
%ADD37R,2.400000X0.740000*%
%ADD38RoundRect,0.150000X0.150000X0.700000X-0.150000X0.700000X-0.150000X-0.700000X0.150000X-0.700000X0*%
%ADD39RoundRect,0.250000X0.250000X1.150000X-0.250000X1.150000X-0.250000X-1.150000X0.250000X-1.150000X0*%
%ADD40R,1.650000X0.650000*%
%ADD41RoundRect,0.218750X0.256250X-0.218750X0.256250X0.218750X-0.256250X0.218750X-0.256250X-0.218750X0*%
%ADD42RoundRect,0.225000X0.225000X0.375000X-0.225000X0.375000X-0.225000X-0.375000X0.225000X-0.375000X0*%
%ADD43RoundRect,0.250000X-1.000000X-0.650000X1.000000X-0.650000X1.000000X0.650000X-1.000000X0.650000X0*%
%ADD44RoundRect,0.250000X0.475000X-0.250000X0.475000X0.250000X-0.475000X0.250000X-0.475000X-0.250000X0*%
%ADD45RoundRect,0.225000X-0.225000X-0.250000X0.225000X-0.250000X0.225000X0.250000X-0.225000X0.250000X0*%
%ADD46RoundRect,0.225000X0.225000X0.250000X-0.225000X0.250000X-0.225000X-0.250000X0.225000X-0.250000X0*%
%ADD47RoundRect,0.225000X0.250000X-0.225000X0.250000X0.225000X-0.250000X0.225000X-0.250000X-0.225000X0*%
%ADD48RoundRect,0.225000X-0.250000X0.225000X-0.250000X-0.225000X0.250000X-0.225000X0.250000X0.225000X0*%
%ADD49RoundRect,0.250000X-0.475000X0.250000X-0.475000X-0.250000X0.475000X-0.250000X0.475000X0.250000X0*%
G04 APERTURE END LIST*
D10*
G04 #@! TO.C,J4*
X154475000Y-103862500D02*
X154625000Y-104012500D01*
X154975000Y-104012500D01*
X154975000Y-104512500D01*
X152975000Y-104512500D01*
X152975000Y-102612500D01*
X154475000Y-102612500D01*
X154475000Y-103862500D01*
G36*
X154475000Y-103862500D02*
G01*
X154625000Y-104012500D01*
X154975000Y-104012500D01*
X154975000Y-104512500D01*
X152975000Y-104512500D01*
X152975000Y-102612500D01*
X154475000Y-102612500D01*
X154475000Y-103862500D01*
G37*
G04 #@! TD*
D11*
G04 #@! TO.C,XTAL1*
X153649999Y-54075000D03*
X153649999Y-56275000D03*
X155250001Y-56275000D03*
X155250001Y-54075000D03*
G04 #@! TD*
D12*
G04 #@! TO.C,U9*
X175600000Y-110600000D03*
X174650000Y-110600000D03*
X173700000Y-110600000D03*
X173700000Y-112875000D03*
X174650000Y-112875000D03*
X175600000Y-112875000D03*
G04 #@! TD*
D13*
G04 #@! TO.C,U7*
X162755000Y-49745000D03*
X162755000Y-50245000D03*
X162755000Y-50745000D03*
X162755000Y-51245000D03*
X162755000Y-51745000D03*
X162755000Y-52245000D03*
X162755000Y-52745000D03*
X162755000Y-53245000D03*
X162755000Y-53745000D03*
X162755000Y-54245000D03*
X162755000Y-54745000D03*
X162755000Y-55245000D03*
X162755000Y-55745000D03*
X162755000Y-56245000D03*
X162755000Y-56745000D03*
X162755000Y-57245000D03*
X162755000Y-57745000D03*
X162755000Y-58245000D03*
X162755000Y-58745000D03*
X162755000Y-59245000D03*
X162755000Y-59745000D03*
X162755000Y-60245000D03*
X162755000Y-60745000D03*
X162755000Y-61245000D03*
X162755000Y-61745000D03*
D14*
X164430000Y-63420000D03*
X164930000Y-63420000D03*
X165430000Y-63420000D03*
X165930000Y-63420000D03*
X166430000Y-63420000D03*
X166930000Y-63420000D03*
X167430000Y-63420000D03*
X167930000Y-63420000D03*
X168430000Y-63420000D03*
X168930000Y-63420000D03*
X169430000Y-63420000D03*
X169930000Y-63420000D03*
X170430000Y-63420000D03*
X170930000Y-63420000D03*
X171430000Y-63420000D03*
X171930000Y-63420000D03*
X172430000Y-63420000D03*
X172930000Y-63420000D03*
X173430000Y-63420000D03*
X173930000Y-63420000D03*
X174430000Y-63420000D03*
X174930000Y-63420000D03*
X175430000Y-63420000D03*
X175930000Y-63420000D03*
X176430000Y-63420000D03*
D13*
X178105000Y-61745000D03*
X178105000Y-61245000D03*
X178105000Y-60745000D03*
X178105000Y-60245000D03*
X178105000Y-59745000D03*
X178105000Y-59245000D03*
X178105000Y-58745000D03*
X178105000Y-58245000D03*
X178105000Y-57745000D03*
X178105000Y-57245000D03*
X178105000Y-56745000D03*
X178105000Y-56245000D03*
X178105000Y-55745000D03*
X178105000Y-55245000D03*
X178105000Y-54745000D03*
X178105000Y-54245000D03*
X178105000Y-53745000D03*
X178105000Y-53245000D03*
X178105000Y-52745000D03*
X178105000Y-52245000D03*
X178105000Y-51745000D03*
X178105000Y-51245000D03*
X178105000Y-50745000D03*
X178105000Y-50245000D03*
X178105000Y-49745000D03*
D14*
X176430000Y-48070000D03*
X175930000Y-48070000D03*
X175430000Y-48070000D03*
X174930000Y-48070000D03*
X174430000Y-48070000D03*
X173930000Y-48070000D03*
X173430000Y-48070000D03*
X172930000Y-48070000D03*
X172430000Y-48070000D03*
X171930000Y-48070000D03*
X171430000Y-48070000D03*
X170930000Y-48070000D03*
X170430000Y-48070000D03*
X169930000Y-48070000D03*
X169430000Y-48070000D03*
X168930000Y-48070000D03*
X168430000Y-48070000D03*
X167930000Y-48070000D03*
X167430000Y-48070000D03*
X166930000Y-48070000D03*
X166430000Y-48070000D03*
X165930000Y-48070000D03*
X165430000Y-48070000D03*
X164930000Y-48070000D03*
X164430000Y-48070000D03*
G04 #@! TD*
D15*
G04 #@! TO.C,U5*
X171425000Y-71500000D03*
D16*
X171425000Y-72750000D03*
X171425000Y-74000000D03*
X171425000Y-75250000D03*
X173825000Y-75250000D03*
X173825000Y-74000000D03*
X173825000Y-72750000D03*
X173825000Y-71500000D03*
G04 #@! TD*
D17*
G04 #@! TO.C,U4*
X181249999Y-61695901D03*
X182050000Y-61695901D03*
X182850001Y-61695901D03*
X183649999Y-61695901D03*
X184450000Y-61695901D03*
X185249999Y-61695901D03*
D18*
X184968498Y-60325000D03*
D17*
X185250001Y-58954099D03*
X184450000Y-58954099D03*
X183649999Y-58954099D03*
X182850001Y-58954099D03*
X182050000Y-58954099D03*
X181250001Y-58954099D03*
D18*
X181531502Y-60325000D03*
G04 #@! TD*
D19*
G04 #@! TO.C,U2*
X171744200Y-39200001D03*
X171744200Y-38700000D03*
X171744200Y-38200000D03*
X171744200Y-37699999D03*
D20*
X171063099Y-37522900D03*
X170563100Y-37522900D03*
X170063101Y-37522900D03*
D19*
X169382000Y-37699999D03*
X169382000Y-38200000D03*
X169382000Y-38700000D03*
X169382000Y-39200001D03*
D20*
X170063101Y-39377100D03*
X170563100Y-39377100D03*
X171063099Y-39377100D03*
G04 #@! TD*
D21*
G04 #@! TO.C,R_Series_MicroSD_3*
X166950000Y-71475000D03*
X166950000Y-69825000D03*
G04 #@! TD*
G04 #@! TO.C,R_Series_MicroSD_2*
X164800000Y-71475000D03*
X164800000Y-69825000D03*
G04 #@! TD*
G04 #@! TO.C,R_Series_MicroSD_1*
X162650000Y-71475000D03*
X162650000Y-69825000D03*
G04 #@! TD*
D22*
G04 #@! TO.C,R_Pull_MicroSD_6*
X169125000Y-97325000D03*
X169125000Y-98975000D03*
G04 #@! TD*
D21*
G04 #@! TO.C,R_Pull_MicroSD_5*
X166300000Y-85637500D03*
X166300000Y-83987500D03*
G04 #@! TD*
G04 #@! TO.C,R_Pull_MicroSD_4*
X154800000Y-85637500D03*
X154800000Y-83987500D03*
G04 #@! TD*
G04 #@! TO.C,R_Pull_MicroSD_3*
X157100000Y-85637500D03*
X157100000Y-83987500D03*
G04 #@! TD*
G04 #@! TO.C,R_Pull_MicroSD_2*
X159400000Y-85637500D03*
X159400000Y-83987500D03*
G04 #@! TD*
G04 #@! TO.C,R_Pull_MicroSD_1*
X164000000Y-85637500D03*
X164000000Y-83987500D03*
G04 #@! TD*
D23*
G04 #@! TO.C,R_Pull_Flash_1*
X154675000Y-34600000D03*
X153025000Y-34600000D03*
G04 #@! TD*
D24*
G04 #@! TO.C,R7*
X167112500Y-81000000D03*
X168762500Y-81000000D03*
G04 #@! TD*
D21*
G04 #@! TO.C,R(T)2*
X179000000Y-90325000D03*
X179000000Y-88675000D03*
G04 #@! TD*
D24*
G04 #@! TO.C,R(T)1*
X182500000Y-90425000D03*
X184150000Y-90425000D03*
G04 #@! TD*
D22*
G04 #@! TO.C,R(PULL)19*
X182250000Y-53800000D03*
X182250000Y-55450000D03*
G04 #@! TD*
G04 #@! TO.C,R(PULL)18*
X184850000Y-53800000D03*
X184850000Y-55450000D03*
G04 #@! TD*
D21*
G04 #@! TO.C,R(PULL)16*
X176000000Y-73225000D03*
X176000000Y-71575000D03*
G04 #@! TD*
D24*
G04 #@! TO.C,R(PULL)15*
X172000000Y-69475000D03*
X173650000Y-69475000D03*
G04 #@! TD*
D23*
G04 #@! TO.C,R(PULL)9*
X171162500Y-122125000D03*
X172812500Y-122125000D03*
G04 #@! TD*
D21*
G04 #@! TO.C,R(PULL)4*
X167386700Y-42025000D03*
X167386700Y-43675000D03*
G04 #@! TD*
G04 #@! TO.C,R(PULL)3*
X175600000Y-46225000D03*
X175600000Y-44575000D03*
G04 #@! TD*
G04 #@! TO.C,R(PULL)2*
X171950000Y-43675000D03*
X171950000Y-42025000D03*
G04 #@! TD*
G04 #@! TO.C,R(PULL)1*
X169656700Y-43675000D03*
X169656700Y-42025000D03*
G04 #@! TD*
D25*
G04 #@! TO.C,Q1*
X176755000Y-90450000D03*
X176755000Y-88550000D03*
X174245000Y-89500000D03*
G04 #@! TD*
D26*
G04 #@! TO.C,Power_On_LED1*
X168687500Y-122125000D03*
X167112500Y-122125000D03*
G04 #@! TD*
D27*
G04 #@! TO.C,LS2*
X175875000Y-98650000D03*
X171375000Y-95150000D03*
X175875000Y-95150000D03*
G04 #@! TD*
D28*
G04 #@! TO.C,L1*
X173625000Y-115250000D03*
X173625000Y-119450000D03*
G04 #@! TD*
D29*
G04 #@! TO.C,J4*
X157525000Y-88562500D03*
X158625000Y-88562500D03*
X159725000Y-88562500D03*
X160825000Y-88562500D03*
X161925000Y-88562500D03*
X163025000Y-88562500D03*
X164125000Y-88562500D03*
X165225000Y-88562500D03*
D30*
X155625000Y-88562500D03*
D31*
X167025000Y-92762500D03*
D32*
X167025000Y-102562500D03*
D33*
X167025000Y-98962500D03*
D34*
X166175000Y-88462500D03*
G04 #@! TD*
D35*
G04 #@! TO.C,J3*
X180600000Y-94400000D03*
X180600000Y-95650000D03*
X180600000Y-96900000D03*
X180600000Y-98150000D03*
X180600000Y-99400000D03*
X180600000Y-100650000D03*
D36*
X183950000Y-92550000D03*
X183950000Y-102500000D03*
G04 #@! TD*
D37*
G04 #@! TO.C,J2*
X183375000Y-42425000D03*
X179475000Y-42425000D03*
X183375000Y-41155000D03*
X179475000Y-41155000D03*
X183375000Y-39885000D03*
X179475000Y-39885000D03*
X183375000Y-38615000D03*
X179475000Y-38615000D03*
X183375000Y-37345000D03*
X179475000Y-37345000D03*
G04 #@! TD*
D38*
G04 #@! TO.C,J1*
X183531339Y-80999000D03*
X182281339Y-80999000D03*
X181031339Y-80999000D03*
X179781339Y-80999000D03*
X178531339Y-80999000D03*
X177281339Y-80999000D03*
D39*
X185381339Y-84349000D03*
X175431339Y-84349000D03*
G04 #@! TD*
D40*
G04 #@! TO.C,IC1*
X153000000Y-36695000D03*
X153000000Y-37965000D03*
X153000000Y-39235000D03*
X153000000Y-40505000D03*
X160200000Y-40505000D03*
X160200000Y-39235000D03*
X160200000Y-37965000D03*
X160200000Y-36695000D03*
G04 #@! TD*
D41*
G04 #@! TO.C,FB1*
X157850000Y-67037500D03*
X157850000Y-65462500D03*
G04 #@! TD*
D42*
G04 #@! TO.C,D3*
X177150000Y-92750000D03*
X173850000Y-92750000D03*
G04 #@! TD*
D43*
G04 #@! TO.C,D2*
X173100000Y-107037500D03*
X177100000Y-107037500D03*
G04 #@! TD*
D26*
G04 #@! TO.C,D1*
X172112500Y-81000000D03*
X170537500Y-81000000D03*
G04 #@! TD*
D44*
G04 #@! TO.C,COUT2*
X167050000Y-117100000D03*
X167050000Y-115200000D03*
G04 #@! TD*
G04 #@! TO.C,COUT1*
X169475000Y-117100000D03*
X169475000Y-115200000D03*
G04 #@! TD*
D45*
G04 #@! TO.C,C58*
X153725000Y-58280000D03*
X155275000Y-58280000D03*
G04 #@! TD*
D46*
G04 #@! TO.C,C57*
X155275000Y-52050000D03*
X153725000Y-52050000D03*
G04 #@! TD*
D45*
G04 #@! TO.C,C35*
X158250000Y-63425000D03*
X159800000Y-63425000D03*
G04 #@! TD*
D46*
G04 #@! TO.C,C32*
X181150000Y-78475000D03*
X179600000Y-78475000D03*
G04 #@! TD*
D47*
G04 #@! TO.C,C31*
X178275000Y-103250000D03*
X178275000Y-101700000D03*
G04 #@! TD*
G04 #@! TO.C,C30*
X178275000Y-99775000D03*
X178275000Y-98225000D03*
G04 #@! TD*
D45*
G04 #@! TO.C,C29*
X158200000Y-56800000D03*
X159750000Y-56800000D03*
G04 #@! TD*
D47*
G04 #@! TO.C,C28*
X178275000Y-96400000D03*
X178275000Y-94850000D03*
G04 #@! TD*
D45*
G04 #@! TO.C,C27*
X158850000Y-31350000D03*
X160400000Y-31350000D03*
G04 #@! TD*
D46*
G04 #@! TO.C,C26*
X165205000Y-65420000D03*
X163655000Y-65420000D03*
G04 #@! TD*
G04 #@! TO.C,C25*
X182293498Y-63625000D03*
X180743498Y-63625000D03*
G04 #@! TD*
D45*
G04 #@! TO.C,C24*
X184093498Y-65425000D03*
X185643498Y-65425000D03*
G04 #@! TD*
G04 #@! TO.C,C23*
X184093498Y-63625000D03*
X185643498Y-63625000D03*
G04 #@! TD*
D48*
G04 #@! TO.C,C22*
X156000000Y-65450000D03*
X156000000Y-67000000D03*
G04 #@! TD*
D47*
G04 #@! TO.C,C21*
X158350000Y-61750000D03*
X158350000Y-60200000D03*
G04 #@! TD*
G04 #@! TO.C,C20*
X159800000Y-50250000D03*
X159800000Y-48700000D03*
G04 #@! TD*
D48*
G04 #@! TO.C,C19*
X178250000Y-64750000D03*
X178250000Y-66300000D03*
G04 #@! TD*
D45*
G04 #@! TO.C,C18*
X158800000Y-34600000D03*
X160350000Y-34600000D03*
G04 #@! TD*
D47*
G04 #@! TO.C,C17*
X156600000Y-47750000D03*
X156600000Y-46200000D03*
G04 #@! TD*
D48*
G04 #@! TO.C,C16*
X161300000Y-79750000D03*
X161300000Y-81300000D03*
G04 #@! TD*
G04 #@! TO.C,C15*
X161700000Y-84037500D03*
X161700000Y-85587500D03*
G04 #@! TD*
G04 #@! TO.C,C14*
X181000000Y-48025000D03*
X181000000Y-49575000D03*
G04 #@! TD*
D45*
G04 #@! TO.C,C13*
X170025000Y-35437500D03*
X171575000Y-35437500D03*
G04 #@! TD*
G04 #@! TO.C,C12*
X163825000Y-45235000D03*
X165375000Y-45235000D03*
G04 #@! TD*
D48*
G04 #@! TO.C,C11*
X169150000Y-71325000D03*
X169150000Y-72875000D03*
G04 #@! TD*
D47*
G04 #@! TO.C,C10*
X159800000Y-54150000D03*
X159800000Y-52600000D03*
G04 #@! TD*
D46*
G04 #@! TO.C,C9*
X160675000Y-58525000D03*
X159125000Y-58525000D03*
G04 #@! TD*
G04 #@! TO.C,C7*
X182200000Y-51425000D03*
X180650000Y-51425000D03*
G04 #@! TD*
D47*
G04 #@! TO.C,C5*
X176075000Y-67850000D03*
X176075000Y-66300000D03*
G04 #@! TD*
D48*
G04 #@! TO.C,C4*
X177350000Y-113050000D03*
X177350000Y-114600000D03*
G04 #@! TD*
G04 #@! TO.C,C3*
X167400000Y-36075000D03*
X167400000Y-37625000D03*
G04 #@! TD*
D49*
G04 #@! TO.C,C1*
X171262500Y-110487500D03*
X171262500Y-112387500D03*
G04 #@! TD*
M02*
