G04 #@! TF.GenerationSoftware,KiCad,Pcbnew,9.0.1*
G04 #@! TF.CreationDate,2026-07-16T12:47:56-04:00*
G04 #@! TF.ProjectId,DAQ-V4.1,4441512d-5634-42e3-912e-6b696361645f,rev?*
G04 #@! TF.SameCoordinates,Original*
G04 #@! TF.FileFunction,Copper,L3,Inr*
G04 #@! TF.FilePolarity,Positive*
%FSLAX46Y46*%
G04 Gerber Fmt 4.6, Leading zero omitted, Abs format (unit mm)*
G04 Created by KiCad (PCBNEW 9.0.1) date 2026-07-16 12:47:56*
%MOMM*%
%LPD*%
G01*
G04 APERTURE LIST*
G04 Aperture macros list*
%AMRoundRect*
0 Rectangle with rounded corners*
0 $1 Rounding radius*
0 $2 $3 $4 $5 $6 $7 $8 $9 X,Y pos of 4 corners*
0 Add a 4 corners polygon primitive as box body*
4,1,4,$2,$3,$4,$5,$6,$7,$8,$9,$2,$3,0*
0 Add four circle primitives for the rounded corners*
1,1,$1+$1,$2,$3*
1,1,$1+$1,$4,$5*
1,1,$1+$1,$6,$7*
1,1,$1+$1,$8,$9*
0 Add four rect primitives between the rounded corners*
20,1,$1+$1,$2,$3,$4,$5,0*
20,1,$1+$1,$4,$5,$6,$7,0*
20,1,$1+$1,$6,$7,$8,$9,0*
20,1,$1+$1,$8,$9,$2,$3,0*%
G04 Aperture macros list end*
G04 #@! TA.AperFunction,ComponentPad*
%ADD10RoundRect,0.750000X0.750000X-0.750000X0.750000X0.750000X-0.750000X0.750000X-0.750000X-0.750000X0*%
G04 #@! TD*
G04 #@! TA.AperFunction,ComponentPad*
%ADD11C,3.000000*%
G04 #@! TD*
G04 #@! TA.AperFunction,ViaPad*
%ADD12C,0.600000*%
G04 #@! TD*
G04 #@! TA.AperFunction,ViaPad*
%ADD13C,0.700000*%
G04 #@! TD*
G04 APERTURE END LIST*
D10*
G04 #@! TO.N,GND*
G04 #@! TO.C,J5*
X182175000Y-114825000D03*
D11*
G04 #@! TO.N,+7.5V*
X182175000Y-109825000D03*
G04 #@! TD*
D12*
G04 #@! TO.N,/LSM6DSV INT*
X166700000Y-49800000D03*
X173900000Y-38400000D03*
G04 #@! TO.N,/USART2_CTS*
X173275000Y-49650000D03*
X184875000Y-87750000D03*
G04 #@! TO.N,/USART2_TX*
X177600000Y-70425000D03*
X170300000Y-61575000D03*
G04 #@! TO.N,/USART2_RTS*
X182675000Y-99025000D03*
X172290380Y-49759620D03*
D13*
G04 #@! TO.N,/USART2_RX*
X160350000Y-66875000D03*
D12*
X185088207Y-97663207D03*
G04 #@! TO.N,Net-(U7-PE9)*
X181800000Y-88500000D03*
X171580000Y-66075000D03*
G04 #@! TO.N,/SPI1_MOSI*
X158650000Y-81100000D03*
X166150000Y-75800000D03*
G04 #@! TO.N,/SPI2_NSS*
X164500000Y-52600000D03*
X155000000Y-37500000D03*
G04 #@! TO.N,/SPI2_MOSI*
X160300000Y-43100000D03*
X164450000Y-50000000D03*
G04 #@! TO.N,/SPI2_SCK*
X161900000Y-45500000D03*
X164700000Y-51600000D03*
G04 #@! TO.N,/SPI2_MISO*
X158100000Y-40600000D03*
X165100000Y-50800000D03*
G04 #@! TO.N,/ADXL375 SDA*
X181649265Y-56899265D03*
X179550000Y-54250000D03*
G04 #@! TO.N,/SWO*
X175050000Y-50250000D03*
X176850000Y-45600000D03*
G04 #@! TO.N,/LSM6DSV SDA*
X173050000Y-42950000D03*
X167780000Y-45450000D03*
G04 #@! TO.N,GND*
X184600000Y-114800000D03*
X160100000Y-79775000D03*
X166386700Y-42050000D03*
X157172000Y-53600000D03*
X167050000Y-113775000D03*
X182300000Y-65050000D03*
X182406339Y-82449000D03*
X152922000Y-50600000D03*
X165750000Y-43875000D03*
X152720000Y-58060000D03*
X182200000Y-117200000D03*
X169250000Y-74250000D03*
X174337501Y-122125000D03*
X185150000Y-37450000D03*
X173562500Y-81000000D03*
X169000000Y-113775000D03*
X168950000Y-100800000D03*
X167436900Y-34900000D03*
X185075000Y-39900000D03*
X179800000Y-114800000D03*
X179225000Y-77075000D03*
X168175000Y-111325000D03*
X152022000Y-51550000D03*
D13*
X182425000Y-49575000D03*
D12*
X152800000Y-105350000D03*
X176675000Y-69275000D03*
X177100000Y-103275000D03*
X155972000Y-59900000D03*
D13*
X184100000Y-66650000D03*
D12*
X185150000Y-41200000D03*
X172637500Y-111937500D03*
D13*
X158500000Y-52600000D03*
D12*
X155425000Y-46200000D03*
X152022000Y-52850000D03*
X156420000Y-52280000D03*
X152022000Y-56000000D03*
X153100000Y-42350000D03*
D13*
X178250000Y-67600000D03*
D12*
X170000000Y-34000000D03*
D13*
X159800000Y-47200000D03*
D12*
X152022000Y-54400000D03*
X157072000Y-58800000D03*
X158175000Y-58525000D03*
X179000000Y-87350000D03*
X154322000Y-50600000D03*
X180600000Y-101825000D03*
D13*
X161537500Y-65962500D03*
D12*
X183475000Y-51425000D03*
X163400000Y-87050000D03*
X157350000Y-33850000D03*
X177200000Y-96400000D03*
X172525000Y-113425000D03*
X170875000Y-113750000D03*
X155250000Y-87250000D03*
X155822000Y-50600000D03*
X156000000Y-68150000D03*
X157072000Y-57200000D03*
X152872000Y-59900000D03*
X167300000Y-87000000D03*
X177100000Y-100100000D03*
X162200000Y-82600000D03*
X152022000Y-57550000D03*
X157172000Y-51800000D03*
X157250000Y-60525000D03*
X154422000Y-59900000D03*
X171350000Y-101750000D03*
X152022000Y-59050000D03*
X168700000Y-93000000D03*
X176750000Y-87300000D03*
X157350000Y-32100000D03*
X159787139Y-62306378D03*
X172694350Y-39400000D03*
G04 #@! TO.N,+3.3V*
X159900000Y-81550000D03*
X180625000Y-93150000D03*
X169125000Y-95750000D03*
X184350000Y-52825000D03*
X161850000Y-30350000D03*
X174650000Y-109225000D03*
X177200000Y-98225000D03*
X177050000Y-101650000D03*
X183350000Y-44325000D03*
X167075000Y-118350000D03*
X164000000Y-82550000D03*
X177767699Y-73212399D03*
D13*
X186200000Y-66650000D03*
D12*
X159400000Y-82612500D03*
X167436900Y-38900000D03*
X161009620Y-57384620D03*
X169656700Y-44650000D03*
D13*
X181000000Y-46775000D03*
D12*
X172700000Y-35400000D03*
X161625000Y-34075000D03*
D13*
X158500000Y-54150000D03*
D12*
X157150000Y-82612500D03*
X169150000Y-69925000D03*
X171950000Y-44650000D03*
X179500000Y-63600000D03*
D13*
X178261101Y-63588899D03*
D12*
X171760750Y-68085534D03*
X173850001Y-45519238D03*
D13*
X186800000Y-63625000D03*
D12*
X181150000Y-77200000D03*
X165200000Y-66575000D03*
X169475000Y-118350000D03*
X163359620Y-43940380D03*
X161700000Y-86800000D03*
X154800000Y-82562500D03*
X184900000Y-80300000D03*
X177200000Y-94875000D03*
X182250000Y-52825000D03*
D13*
X158575000Y-50250000D03*
D12*
X166300000Y-82600000D03*
X155775000Y-34575000D03*
X151500000Y-39900000D03*
X166037500Y-122175000D03*
X155450000Y-47750000D03*
X159300000Y-65800000D03*
G04 #@! TO.N,/SAM-M10Q RX*
X169625000Y-79175000D03*
X160262500Y-60937500D03*
G04 #@! TO.N,/SAM-M10Q TX*
X170600000Y-78600000D03*
X161100000Y-61600000D03*
G04 #@! TO.N,/SAM-M10Q TIMEPULSE*
X178500000Y-75700000D03*
X171365814Y-49800000D03*
G04 #@! TO.N,/SAM-M10Q NRESET*
X170580000Y-49650000D03*
X176406339Y-79074000D03*
G04 #@! TO.N,/NRST*
X164450000Y-54850000D03*
X172100000Y-46350000D03*
G04 #@! TD*
G04 #@! TA.AperFunction,Conductor*
G04 #@! TO.N,+3.3V*
G36*
X184003032Y-26200649D02*
G01*
X184067797Y-26203830D01*
X184366338Y-26218497D01*
X184378440Y-26219689D01*
X184735230Y-26272613D01*
X184747140Y-26274982D01*
X185097046Y-26362629D01*
X185108663Y-26366154D01*
X185448275Y-26487669D01*
X185459497Y-26492317D01*
X185785582Y-26646543D01*
X185796290Y-26652267D01*
X185984308Y-26764961D01*
X186105659Y-26837696D01*
X186115777Y-26844456D01*
X186405488Y-27059321D01*
X186414894Y-27067041D01*
X186682146Y-27309264D01*
X186690735Y-27317853D01*
X186894324Y-27542479D01*
X186932958Y-27585105D01*
X186940678Y-27594511D01*
X187155543Y-27884222D01*
X187162303Y-27894340D01*
X187347725Y-28203697D01*
X187353462Y-28214429D01*
X187507679Y-28540495D01*
X187512334Y-28551734D01*
X187599297Y-28794780D01*
X187633840Y-28891319D01*
X187637373Y-28902964D01*
X187725014Y-29252846D01*
X187727388Y-29264782D01*
X187780309Y-29621555D01*
X187781502Y-29633664D01*
X187799351Y-29996967D01*
X187799500Y-30003052D01*
X187799500Y-121996947D01*
X187799351Y-122003032D01*
X187781502Y-122366335D01*
X187780309Y-122378444D01*
X187727388Y-122735217D01*
X187725014Y-122747153D01*
X187637373Y-123097035D01*
X187633840Y-123108680D01*
X187512335Y-123448262D01*
X187507679Y-123459504D01*
X187353462Y-123785570D01*
X187347725Y-123796302D01*
X187162303Y-124105659D01*
X187155543Y-124115777D01*
X186940678Y-124405488D01*
X186932958Y-124414894D01*
X186690743Y-124682138D01*
X186682138Y-124690743D01*
X186414894Y-124932958D01*
X186405488Y-124940678D01*
X186115777Y-125155543D01*
X186105659Y-125162303D01*
X185796302Y-125347725D01*
X185785570Y-125353462D01*
X185459504Y-125507679D01*
X185448262Y-125512335D01*
X185108680Y-125633840D01*
X185097035Y-125637373D01*
X184747153Y-125725014D01*
X184735217Y-125727388D01*
X184378444Y-125780309D01*
X184366335Y-125781502D01*
X184003033Y-125799351D01*
X183996948Y-125799500D01*
X154003052Y-125799500D01*
X153996967Y-125799351D01*
X153633664Y-125781502D01*
X153621555Y-125780309D01*
X153264782Y-125727388D01*
X153252846Y-125725014D01*
X152902964Y-125637373D01*
X152891323Y-125633841D01*
X152551734Y-125512334D01*
X152540495Y-125507679D01*
X152214429Y-125353462D01*
X152203702Y-125347727D01*
X151894340Y-125162303D01*
X151884222Y-125155543D01*
X151594511Y-124940678D01*
X151585105Y-124932958D01*
X151542479Y-124894324D01*
X151317853Y-124690735D01*
X151309264Y-124682146D01*
X151067041Y-124414894D01*
X151059321Y-124405488D01*
X150844456Y-124115777D01*
X150837696Y-124105659D01*
X150652267Y-123796290D01*
X150646543Y-123785582D01*
X150492317Y-123459497D01*
X150487669Y-123448275D01*
X150366154Y-123108663D01*
X150362629Y-123097046D01*
X150274982Y-122747140D01*
X150272613Y-122735230D01*
X150219689Y-122378440D01*
X150218497Y-122366334D01*
X150210514Y-122203846D01*
X150202768Y-122046158D01*
X150200649Y-122003031D01*
X150200500Y-121996947D01*
X150200500Y-121897648D01*
X152699500Y-121897648D01*
X152699500Y-122102351D01*
X152731522Y-122304534D01*
X152794781Y-122499223D01*
X152887715Y-122681613D01*
X153008028Y-122847213D01*
X153152786Y-122991971D01*
X153297397Y-123097035D01*
X153318390Y-123112287D01*
X153434607Y-123171503D01*
X153500776Y-123205218D01*
X153500778Y-123205218D01*
X153500781Y-123205220D01*
X153605137Y-123239127D01*
X153695465Y-123268477D01*
X153796557Y-123284488D01*
X153897648Y-123300500D01*
X153897649Y-123300500D01*
X154102351Y-123300500D01*
X154102352Y-123300500D01*
X154304534Y-123268477D01*
X154499219Y-123205220D01*
X154681610Y-123112287D01*
X154774590Y-123044732D01*
X154847213Y-122991971D01*
X154847215Y-122991968D01*
X154847219Y-122991966D01*
X154991966Y-122847219D01*
X154991968Y-122847215D01*
X154991971Y-122847213D01*
X155044732Y-122774590D01*
X155112287Y-122681610D01*
X155205220Y-122499219D01*
X155268477Y-122304534D01*
X155300500Y-122102352D01*
X155300500Y-122046153D01*
X173537001Y-122046153D01*
X173537001Y-122203846D01*
X173567762Y-122358489D01*
X173567765Y-122358501D01*
X173628103Y-122504172D01*
X173628110Y-122504185D01*
X173715711Y-122635288D01*
X173715714Y-122635292D01*
X173827208Y-122746786D01*
X173827212Y-122746789D01*
X173958315Y-122834390D01*
X173958328Y-122834397D01*
X174103999Y-122894735D01*
X174104004Y-122894737D01*
X174258654Y-122925499D01*
X174258657Y-122925500D01*
X174258659Y-122925500D01*
X174416345Y-122925500D01*
X174416346Y-122925499D01*
X174570998Y-122894737D01*
X174716680Y-122834394D01*
X174847790Y-122746789D01*
X174959290Y-122635289D01*
X175046895Y-122504179D01*
X175048950Y-122499219D01*
X175060568Y-122471166D01*
X175107238Y-122358497D01*
X175138001Y-122203842D01*
X175138001Y-122046158D01*
X175138001Y-122046155D01*
X175138000Y-122046153D01*
X175112304Y-121916967D01*
X175108461Y-121897648D01*
X182699500Y-121897648D01*
X182699500Y-122102351D01*
X182731522Y-122304534D01*
X182794781Y-122499223D01*
X182887715Y-122681613D01*
X183008028Y-122847213D01*
X183152786Y-122991971D01*
X183297397Y-123097035D01*
X183318390Y-123112287D01*
X183434607Y-123171503D01*
X183500776Y-123205218D01*
X183500778Y-123205218D01*
X183500781Y-123205220D01*
X183605137Y-123239127D01*
X183695465Y-123268477D01*
X183796557Y-123284488D01*
X183897648Y-123300500D01*
X183897649Y-123300500D01*
X184102351Y-123300500D01*
X184102352Y-123300500D01*
X184304534Y-123268477D01*
X184499219Y-123205220D01*
X184681610Y-123112287D01*
X184774590Y-123044732D01*
X184847213Y-122991971D01*
X184847215Y-122991968D01*
X184847219Y-122991966D01*
X184991966Y-122847219D01*
X184991968Y-122847215D01*
X184991971Y-122847213D01*
X185044732Y-122774590D01*
X185112287Y-122681610D01*
X185205220Y-122499219D01*
X185268477Y-122304534D01*
X185300500Y-122102352D01*
X185300500Y-121897648D01*
X185276453Y-121745821D01*
X185268477Y-121695465D01*
X185206010Y-121503213D01*
X185205220Y-121500781D01*
X185205218Y-121500778D01*
X185205218Y-121500776D01*
X185171503Y-121434607D01*
X185112287Y-121318390D01*
X185104556Y-121307749D01*
X184991971Y-121152786D01*
X184847213Y-121008028D01*
X184681613Y-120887715D01*
X184681612Y-120887714D01*
X184681610Y-120887713D01*
X184624653Y-120858691D01*
X184499223Y-120794781D01*
X184304534Y-120731522D01*
X184129995Y-120703878D01*
X184102352Y-120699500D01*
X183897648Y-120699500D01*
X183873329Y-120703351D01*
X183695465Y-120731522D01*
X183500776Y-120794781D01*
X183318386Y-120887715D01*
X183152786Y-121008028D01*
X183008028Y-121152786D01*
X182887715Y-121318386D01*
X182794781Y-121500776D01*
X182731522Y-121695465D01*
X182699500Y-121897648D01*
X175108461Y-121897648D01*
X175107239Y-121891507D01*
X175107236Y-121891498D01*
X175046898Y-121745827D01*
X175046891Y-121745814D01*
X174959290Y-121614711D01*
X174959287Y-121614707D01*
X174847793Y-121503213D01*
X174847789Y-121503210D01*
X174716686Y-121415609D01*
X174716673Y-121415602D01*
X174571002Y-121355264D01*
X174570990Y-121355261D01*
X174416346Y-121324500D01*
X174416343Y-121324500D01*
X174258659Y-121324500D01*
X174258656Y-121324500D01*
X174104011Y-121355261D01*
X174103999Y-121355264D01*
X173958328Y-121415602D01*
X173958315Y-121415609D01*
X173827212Y-121503210D01*
X173827208Y-121503213D01*
X173715714Y-121614707D01*
X173715711Y-121614711D01*
X173628110Y-121745814D01*
X173628103Y-121745827D01*
X173567765Y-121891498D01*
X173567762Y-121891510D01*
X173537001Y-122046153D01*
X155300500Y-122046153D01*
X155300500Y-121897648D01*
X155276453Y-121745821D01*
X155268477Y-121695465D01*
X155206010Y-121503213D01*
X155205220Y-121500781D01*
X155205218Y-121500778D01*
X155205218Y-121500776D01*
X155171503Y-121434607D01*
X155112287Y-121318390D01*
X155104556Y-121307749D01*
X154991971Y-121152786D01*
X154847213Y-121008028D01*
X154681613Y-120887715D01*
X154681612Y-120887714D01*
X154681610Y-120887713D01*
X154624653Y-120858691D01*
X154499223Y-120794781D01*
X154304534Y-120731522D01*
X154129995Y-120703878D01*
X154102352Y-120699500D01*
X153897648Y-120699500D01*
X153873329Y-120703351D01*
X153695465Y-120731522D01*
X153500776Y-120794781D01*
X153318386Y-120887715D01*
X153152786Y-121008028D01*
X153008028Y-121152786D01*
X152887715Y-121318386D01*
X152794781Y-121500776D01*
X152731522Y-121695465D01*
X152699500Y-121897648D01*
X150200500Y-121897648D01*
X150200500Y-114721153D01*
X178999500Y-114721153D01*
X178999500Y-114878846D01*
X179030261Y-115033489D01*
X179030264Y-115033501D01*
X179090602Y-115179172D01*
X179090609Y-115179185D01*
X179178210Y-115310288D01*
X179178213Y-115310292D01*
X179289707Y-115421786D01*
X179289711Y-115421789D01*
X179420814Y-115509390D01*
X179420827Y-115509397D01*
X179566498Y-115569735D01*
X179566503Y-115569737D01*
X179719494Y-115600169D01*
X179721153Y-115600499D01*
X179721156Y-115600500D01*
X179721158Y-115600500D01*
X179878844Y-115600500D01*
X179998778Y-115576643D01*
X180030083Y-115570416D01*
X180099674Y-115576643D01*
X180154851Y-115619506D01*
X180177892Y-115682305D01*
X180184904Y-115771413D01*
X180184905Y-115771420D01*
X180239902Y-115989678D01*
X180239903Y-115989681D01*
X180332991Y-116194622D01*
X180332997Y-116194632D01*
X180461174Y-116379645D01*
X180461178Y-116379650D01*
X180461181Y-116379654D01*
X180620346Y-116538819D01*
X180620350Y-116538822D01*
X180620354Y-116538825D01*
X180759603Y-116635297D01*
X180805374Y-116667007D01*
X181010317Y-116760096D01*
X181010321Y-116760097D01*
X181228579Y-116815094D01*
X181228581Y-116815094D01*
X181228588Y-116815096D01*
X181317696Y-116822109D01*
X181382983Y-116846992D01*
X181424454Y-116903223D01*
X181429583Y-116969917D01*
X181399500Y-117121153D01*
X181399500Y-117278846D01*
X181430261Y-117433489D01*
X181430264Y-117433501D01*
X181490602Y-117579172D01*
X181490609Y-117579185D01*
X181578210Y-117710288D01*
X181578213Y-117710292D01*
X181689707Y-117821786D01*
X181689711Y-117821789D01*
X181820814Y-117909390D01*
X181820827Y-117909397D01*
X181966498Y-117969735D01*
X181966503Y-117969737D01*
X182121153Y-118000499D01*
X182121156Y-118000500D01*
X182121158Y-118000500D01*
X182278844Y-118000500D01*
X182278845Y-118000499D01*
X182433497Y-117969737D01*
X182579179Y-117909394D01*
X182710289Y-117821789D01*
X182821789Y-117710289D01*
X182909394Y-117579179D01*
X182969737Y-117433497D01*
X183000500Y-117278842D01*
X183000500Y-117121158D01*
X183000500Y-117121155D01*
X182969645Y-116966043D01*
X182975872Y-116896451D01*
X183018735Y-116841274D01*
X183081532Y-116818234D01*
X183121412Y-116815096D01*
X183339683Y-116760096D01*
X183544626Y-116667007D01*
X183729654Y-116538819D01*
X183888819Y-116379654D01*
X184017007Y-116194626D01*
X184110096Y-115989683D01*
X184165096Y-115771412D01*
X184173434Y-115665455D01*
X184198318Y-115600169D01*
X184254549Y-115558698D01*
X184324274Y-115554211D01*
X184344502Y-115560624D01*
X184366503Y-115569737D01*
X184519494Y-115600169D01*
X184521153Y-115600499D01*
X184521156Y-115600500D01*
X184521158Y-115600500D01*
X184678844Y-115600500D01*
X184678845Y-115600499D01*
X184833497Y-115569737D01*
X184979179Y-115509394D01*
X185110289Y-115421789D01*
X185221789Y-115310289D01*
X185309394Y-115179179D01*
X185369737Y-115033497D01*
X185400500Y-114878842D01*
X185400500Y-114721158D01*
X185400500Y-114721155D01*
X185400499Y-114721153D01*
X185369737Y-114566503D01*
X185369735Y-114566498D01*
X185309397Y-114420827D01*
X185309390Y-114420814D01*
X185221789Y-114289711D01*
X185221786Y-114289707D01*
X185110292Y-114178213D01*
X185110288Y-114178210D01*
X184979185Y-114090609D01*
X184979172Y-114090602D01*
X184833501Y-114030264D01*
X184833489Y-114030261D01*
X184678845Y-113999500D01*
X184678842Y-113999500D01*
X184521158Y-113999500D01*
X184521155Y-113999500D01*
X184366510Y-114030261D01*
X184366502Y-114030263D01*
X184340692Y-114040954D01*
X184271222Y-114048421D01*
X184208744Y-114017145D01*
X184173092Y-113957056D01*
X184169623Y-113936120D01*
X184168234Y-113918468D01*
X184165096Y-113878588D01*
X184158860Y-113853842D01*
X184110097Y-113660321D01*
X184110096Y-113660318D01*
X184109265Y-113658489D01*
X184017007Y-113455374D01*
X183975753Y-113395827D01*
X183888825Y-113270354D01*
X183888822Y-113270350D01*
X183888819Y-113270346D01*
X183729654Y-113111181D01*
X183729650Y-113111178D01*
X183729645Y-113111174D01*
X183544632Y-112982997D01*
X183544630Y-112982995D01*
X183544626Y-112982993D01*
X183538611Y-112980261D01*
X183339681Y-112889903D01*
X183339678Y-112889902D01*
X183121420Y-112834905D01*
X183121413Y-112834904D01*
X183077347Y-112831436D01*
X182989217Y-112824500D01*
X182989215Y-112824500D01*
X181360791Y-112824500D01*
X181360776Y-112824501D01*
X181228586Y-112834904D01*
X181228579Y-112834905D01*
X181010321Y-112889902D01*
X181010318Y-112889903D01*
X180805377Y-112982991D01*
X180805367Y-112982997D01*
X180620354Y-113111174D01*
X180620342Y-113111184D01*
X180461184Y-113270342D01*
X180461174Y-113270354D01*
X180332997Y-113455367D01*
X180332991Y-113455377D01*
X180239903Y-113660318D01*
X180239902Y-113660321D01*
X180184905Y-113878579D01*
X180184904Y-113878584D01*
X180181765Y-113918468D01*
X180156879Y-113983756D01*
X180100647Y-114025225D01*
X180033956Y-114030353D01*
X179878846Y-113999500D01*
X179878842Y-113999500D01*
X179721158Y-113999500D01*
X179721155Y-113999500D01*
X179566510Y-114030261D01*
X179566498Y-114030264D01*
X179420827Y-114090602D01*
X179420814Y-114090609D01*
X179289711Y-114178210D01*
X179289707Y-114178213D01*
X179178213Y-114289707D01*
X179178210Y-114289711D01*
X179090609Y-114420814D01*
X179090602Y-114420827D01*
X179030264Y-114566498D01*
X179030261Y-114566510D01*
X178999500Y-114721153D01*
X150200500Y-114721153D01*
X150200500Y-113696153D01*
X166249500Y-113696153D01*
X166249500Y-113853846D01*
X166280261Y-114008489D01*
X166280264Y-114008501D01*
X166340602Y-114154172D01*
X166340609Y-114154185D01*
X166428210Y-114285288D01*
X166428213Y-114285292D01*
X166539707Y-114396786D01*
X166539711Y-114396789D01*
X166670814Y-114484390D01*
X166670827Y-114484397D01*
X166816498Y-114544735D01*
X166816503Y-114544737D01*
X166925963Y-114566510D01*
X166971153Y-114575499D01*
X166971156Y-114575500D01*
X166971158Y-114575500D01*
X167128844Y-114575500D01*
X167128845Y-114575499D01*
X167283497Y-114544737D01*
X167429179Y-114484394D01*
X167560289Y-114396789D01*
X167671789Y-114285289D01*
X167759394Y-114154179D01*
X167819737Y-114008497D01*
X167850500Y-113853842D01*
X167850500Y-113696158D01*
X167850500Y-113696155D01*
X167850499Y-113696153D01*
X168199500Y-113696153D01*
X168199500Y-113853846D01*
X168230261Y-114008489D01*
X168230264Y-114008501D01*
X168290602Y-114154172D01*
X168290609Y-114154185D01*
X168378210Y-114285288D01*
X168378213Y-114285292D01*
X168489707Y-114396786D01*
X168489711Y-114396789D01*
X168620814Y-114484390D01*
X168620827Y-114484397D01*
X168766498Y-114544735D01*
X168766503Y-114544737D01*
X168875963Y-114566510D01*
X168921153Y-114575499D01*
X168921156Y-114575500D01*
X168921158Y-114575500D01*
X169078844Y-114575500D01*
X169078845Y-114575499D01*
X169233497Y-114544737D01*
X169379179Y-114484394D01*
X169510289Y-114396789D01*
X169621789Y-114285289D01*
X169709394Y-114154179D01*
X169769737Y-114008497D01*
X169800500Y-113853842D01*
X169800500Y-113696158D01*
X169800500Y-113696155D01*
X169800499Y-113696153D01*
X169799128Y-113689257D01*
X169795527Y-113671153D01*
X170074500Y-113671153D01*
X170074500Y-113828846D01*
X170105261Y-113983489D01*
X170105264Y-113983501D01*
X170165602Y-114129172D01*
X170165609Y-114129185D01*
X170253210Y-114260288D01*
X170253213Y-114260292D01*
X170364707Y-114371786D01*
X170364711Y-114371789D01*
X170495814Y-114459390D01*
X170495827Y-114459397D01*
X170641498Y-114519735D01*
X170641503Y-114519737D01*
X170767176Y-114544735D01*
X170796153Y-114550499D01*
X170796156Y-114550500D01*
X170796158Y-114550500D01*
X170953844Y-114550500D01*
X170953845Y-114550499D01*
X171108497Y-114519737D01*
X171254179Y-114459394D01*
X171385289Y-114371789D01*
X171496789Y-114260289D01*
X171584394Y-114129179D01*
X171644737Y-113983497D01*
X171653018Y-113941862D01*
X171685402Y-113879955D01*
X171746117Y-113845380D01*
X171815886Y-113849119D01*
X171872559Y-113889984D01*
X171877737Y-113897165D01*
X171903210Y-113935288D01*
X171903213Y-113935292D01*
X172014707Y-114046786D01*
X172014711Y-114046789D01*
X172145814Y-114134390D01*
X172145827Y-114134397D01*
X172251603Y-114178210D01*
X172291503Y-114194737D01*
X172446153Y-114225499D01*
X172446156Y-114225500D01*
X172446158Y-114225500D01*
X172603844Y-114225500D01*
X172603845Y-114225499D01*
X172758497Y-114194737D01*
X172904179Y-114134394D01*
X173035289Y-114046789D01*
X173146789Y-113935289D01*
X173234394Y-113804179D01*
X173294737Y-113658497D01*
X173325500Y-113503842D01*
X173325500Y-113346158D01*
X173325500Y-113346155D01*
X173325499Y-113346153D01*
X173311909Y-113277833D01*
X173294737Y-113191503D01*
X173268521Y-113128211D01*
X173234397Y-113045827D01*
X173234390Y-113045814D01*
X173146789Y-112914711D01*
X173146786Y-112914707D01*
X173040970Y-112808891D01*
X173007485Y-112747568D01*
X173012469Y-112677876D01*
X173054341Y-112621943D01*
X173059761Y-112618108D01*
X173112291Y-112583007D01*
X173147789Y-112559289D01*
X173259289Y-112447789D01*
X173346894Y-112316679D01*
X173407237Y-112170997D01*
X173438000Y-112016342D01*
X173438000Y-111858658D01*
X173438000Y-111858655D01*
X173437999Y-111858653D01*
X173431404Y-111825499D01*
X173407237Y-111704003D01*
X173346964Y-111558489D01*
X173346897Y-111558327D01*
X173346890Y-111558314D01*
X173259289Y-111427211D01*
X173259286Y-111427207D01*
X173147792Y-111315713D01*
X173147788Y-111315710D01*
X173016685Y-111228109D01*
X173016672Y-111228102D01*
X172871001Y-111167764D01*
X172870989Y-111167761D01*
X172716345Y-111137000D01*
X172716342Y-111137000D01*
X172558658Y-111137000D01*
X172558655Y-111137000D01*
X172404010Y-111167761D01*
X172403998Y-111167764D01*
X172258327Y-111228102D01*
X172258314Y-111228109D01*
X172127211Y-111315710D01*
X172127207Y-111315713D01*
X172015713Y-111427207D01*
X172015710Y-111427211D01*
X171928109Y-111558314D01*
X171928102Y-111558327D01*
X171867764Y-111703998D01*
X171867761Y-111704010D01*
X171837000Y-111858653D01*
X171837000Y-112016346D01*
X171867761Y-112170989D01*
X171867764Y-112171001D01*
X171928102Y-112316672D01*
X171928109Y-112316685D01*
X172015710Y-112447788D01*
X172015713Y-112447792D01*
X172121529Y-112553608D01*
X172155014Y-112614931D01*
X172150030Y-112684623D01*
X172108158Y-112740556D01*
X172102740Y-112744391D01*
X172014707Y-112803213D01*
X171903213Y-112914707D01*
X171903210Y-112914711D01*
X171815609Y-113045814D01*
X171815602Y-113045827D01*
X171755264Y-113191498D01*
X171755261Y-113191507D01*
X171746981Y-113233136D01*
X171714595Y-113295046D01*
X171653879Y-113329620D01*
X171584110Y-113325879D01*
X171527438Y-113285012D01*
X171522261Y-113277833D01*
X171517258Y-113270346D01*
X171496789Y-113239711D01*
X171496787Y-113239708D01*
X171385292Y-113128213D01*
X171385288Y-113128210D01*
X171254185Y-113040609D01*
X171254172Y-113040602D01*
X171108501Y-112980264D01*
X171108489Y-112980261D01*
X170953845Y-112949500D01*
X170953842Y-112949500D01*
X170796158Y-112949500D01*
X170796155Y-112949500D01*
X170641510Y-112980261D01*
X170641498Y-112980264D01*
X170495827Y-113040602D01*
X170495814Y-113040609D01*
X170364711Y-113128210D01*
X170364707Y-113128213D01*
X170253213Y-113239707D01*
X170253210Y-113239711D01*
X170165609Y-113370814D01*
X170165602Y-113370827D01*
X170105264Y-113516498D01*
X170105261Y-113516510D01*
X170074500Y-113671153D01*
X169795527Y-113671153D01*
X169769738Y-113541508D01*
X169769737Y-113541507D01*
X169769737Y-113541503D01*
X169754138Y-113503844D01*
X169709397Y-113395827D01*
X169709390Y-113395814D01*
X169621789Y-113264711D01*
X169621786Y-113264707D01*
X169510292Y-113153213D01*
X169510288Y-113153210D01*
X169379185Y-113065609D01*
X169379172Y-113065602D01*
X169233501Y-113005264D01*
X169233489Y-113005261D01*
X169078845Y-112974500D01*
X169078842Y-112974500D01*
X168921158Y-112974500D01*
X168921155Y-112974500D01*
X168766510Y-113005261D01*
X168766498Y-113005264D01*
X168620827Y-113065602D01*
X168620814Y-113065609D01*
X168489711Y-113153210D01*
X168489707Y-113153213D01*
X168378213Y-113264707D01*
X168378210Y-113264711D01*
X168290609Y-113395814D01*
X168290602Y-113395827D01*
X168230264Y-113541498D01*
X168230261Y-113541510D01*
X168199500Y-113696153D01*
X167850499Y-113696153D01*
X167845526Y-113671153D01*
X167819737Y-113541503D01*
X167804138Y-113503844D01*
X167759397Y-113395827D01*
X167759390Y-113395814D01*
X167671789Y-113264711D01*
X167671786Y-113264707D01*
X167560292Y-113153213D01*
X167560288Y-113153210D01*
X167429185Y-113065609D01*
X167429172Y-113065602D01*
X167283501Y-113005264D01*
X167283489Y-113005261D01*
X167128845Y-112974500D01*
X167128842Y-112974500D01*
X166971158Y-112974500D01*
X166971155Y-112974500D01*
X166816510Y-113005261D01*
X166816498Y-113005264D01*
X166670827Y-113065602D01*
X166670814Y-113065609D01*
X166539711Y-113153210D01*
X166539707Y-113153213D01*
X166428213Y-113264707D01*
X166428210Y-113264711D01*
X166340609Y-113395814D01*
X166340602Y-113395827D01*
X166280264Y-113541498D01*
X166280261Y-113541510D01*
X166249500Y-113696153D01*
X150200500Y-113696153D01*
X150200500Y-111246153D01*
X167374500Y-111246153D01*
X167374500Y-111403846D01*
X167405261Y-111558489D01*
X167405264Y-111558501D01*
X167465602Y-111704172D01*
X167465609Y-111704185D01*
X167553210Y-111835288D01*
X167553213Y-111835292D01*
X167664707Y-111946786D01*
X167664711Y-111946789D01*
X167795814Y-112034390D01*
X167795827Y-112034397D01*
X167941498Y-112094735D01*
X167941503Y-112094737D01*
X168096153Y-112125499D01*
X168096156Y-112125500D01*
X168096158Y-112125500D01*
X168253844Y-112125500D01*
X168253845Y-112125499D01*
X168408497Y-112094737D01*
X168554179Y-112034394D01*
X168685289Y-111946789D01*
X168796789Y-111835289D01*
X168884394Y-111704179D01*
X168944737Y-111558497D01*
X168975500Y-111403842D01*
X168975500Y-111246158D01*
X168975500Y-111246155D01*
X168975499Y-111246153D01*
X168944738Y-111091510D01*
X168944737Y-111091503D01*
X168944735Y-111091498D01*
X168884397Y-110945827D01*
X168884390Y-110945814D01*
X168796789Y-110814711D01*
X168796786Y-110814707D01*
X168685292Y-110703213D01*
X168685288Y-110703210D01*
X168554185Y-110615609D01*
X168554172Y-110615602D01*
X168408501Y-110555264D01*
X168408489Y-110555261D01*
X168253845Y-110524500D01*
X168253842Y-110524500D01*
X168096158Y-110524500D01*
X168096155Y-110524500D01*
X167941510Y-110555261D01*
X167941498Y-110555264D01*
X167795827Y-110615602D01*
X167795814Y-110615609D01*
X167664711Y-110703210D01*
X167664707Y-110703213D01*
X167553213Y-110814707D01*
X167553210Y-110814711D01*
X167465609Y-110945814D01*
X167465602Y-110945827D01*
X167405264Y-111091498D01*
X167405261Y-111091510D01*
X167374500Y-111246153D01*
X150200500Y-111246153D01*
X150200500Y-109693872D01*
X180174500Y-109693872D01*
X180174500Y-109956127D01*
X180201123Y-110158339D01*
X180208730Y-110216116D01*
X180276602Y-110469418D01*
X180276605Y-110469428D01*
X180376953Y-110711690D01*
X180376958Y-110711700D01*
X180508075Y-110938803D01*
X180667718Y-111146851D01*
X180667726Y-111146860D01*
X180853140Y-111332274D01*
X180853148Y-111332281D01*
X181061196Y-111491924D01*
X181288299Y-111623041D01*
X181288309Y-111623046D01*
X181530571Y-111723394D01*
X181530581Y-111723398D01*
X181783884Y-111791270D01*
X182043880Y-111825500D01*
X182043887Y-111825500D01*
X182306113Y-111825500D01*
X182306120Y-111825500D01*
X182566116Y-111791270D01*
X182819419Y-111723398D01*
X183061697Y-111623043D01*
X183288803Y-111491924D01*
X183496851Y-111332282D01*
X183496855Y-111332277D01*
X183496860Y-111332274D01*
X183682274Y-111146860D01*
X183682277Y-111146855D01*
X183682282Y-111146851D01*
X183841924Y-110938803D01*
X183973043Y-110711697D01*
X183976559Y-110703210D01*
X184037841Y-110555261D01*
X184073398Y-110469419D01*
X184141270Y-110216116D01*
X184175500Y-109956120D01*
X184175500Y-109693880D01*
X184141270Y-109433884D01*
X184073398Y-109180581D01*
X184073394Y-109180571D01*
X183973046Y-108938309D01*
X183973041Y-108938299D01*
X183841924Y-108711196D01*
X183682281Y-108503148D01*
X183682274Y-108503140D01*
X183496860Y-108317726D01*
X183496851Y-108317718D01*
X183288803Y-108158075D01*
X183061700Y-108026958D01*
X183061690Y-108026953D01*
X182819428Y-107926605D01*
X182819421Y-107926603D01*
X182819419Y-107926602D01*
X182566116Y-107858730D01*
X182508339Y-107851123D01*
X182306127Y-107824500D01*
X182306120Y-107824500D01*
X182043880Y-107824500D01*
X182043872Y-107824500D01*
X181812772Y-107854926D01*
X181783884Y-107858730D01*
X181530581Y-107926602D01*
X181530571Y-107926605D01*
X181288309Y-108026953D01*
X181288299Y-108026958D01*
X181061196Y-108158075D01*
X180853148Y-108317718D01*
X180667718Y-108503148D01*
X180508075Y-108711196D01*
X180376958Y-108938299D01*
X180376953Y-108938309D01*
X180276605Y-109180571D01*
X180276602Y-109180581D01*
X180208730Y-109433885D01*
X180174500Y-109693872D01*
X150200500Y-109693872D01*
X150200500Y-105271153D01*
X151999500Y-105271153D01*
X151999500Y-105428846D01*
X152030261Y-105583489D01*
X152030264Y-105583501D01*
X152090602Y-105729172D01*
X152090609Y-105729185D01*
X152178210Y-105860288D01*
X152178213Y-105860292D01*
X152289707Y-105971786D01*
X152289711Y-105971789D01*
X152420814Y-106059390D01*
X152420827Y-106059397D01*
X152566498Y-106119735D01*
X152566503Y-106119737D01*
X152721153Y-106150499D01*
X152721156Y-106150500D01*
X152721158Y-106150500D01*
X152878844Y-106150500D01*
X152878845Y-106150499D01*
X153033497Y-106119737D01*
X153179179Y-106059394D01*
X153310289Y-105971789D01*
X153421789Y-105860289D01*
X153509394Y-105729179D01*
X153569737Y-105583497D01*
X153600500Y-105428842D01*
X153600500Y-105271158D01*
X153600500Y-105271155D01*
X153600499Y-105271153D01*
X153569738Y-105116510D01*
X153569737Y-105116503D01*
X153569735Y-105116498D01*
X153509397Y-104970827D01*
X153509390Y-104970814D01*
X153421789Y-104839711D01*
X153421786Y-104839707D01*
X153310292Y-104728213D01*
X153310288Y-104728210D01*
X153179185Y-104640609D01*
X153179172Y-104640602D01*
X153033501Y-104580264D01*
X153033489Y-104580261D01*
X152878845Y-104549500D01*
X152878842Y-104549500D01*
X152721158Y-104549500D01*
X152721155Y-104549500D01*
X152566510Y-104580261D01*
X152566498Y-104580264D01*
X152420827Y-104640602D01*
X152420814Y-104640609D01*
X152289711Y-104728210D01*
X152289707Y-104728213D01*
X152178213Y-104839707D01*
X152178210Y-104839711D01*
X152090609Y-104970814D01*
X152090602Y-104970827D01*
X152030264Y-105116498D01*
X152030261Y-105116510D01*
X151999500Y-105271153D01*
X150200500Y-105271153D01*
X150200500Y-103196153D01*
X176299500Y-103196153D01*
X176299500Y-103353846D01*
X176330261Y-103508489D01*
X176330264Y-103508501D01*
X176390602Y-103654172D01*
X176390609Y-103654185D01*
X176478210Y-103785288D01*
X176478213Y-103785292D01*
X176589707Y-103896786D01*
X176589711Y-103896789D01*
X176720814Y-103984390D01*
X176720827Y-103984397D01*
X176866498Y-104044735D01*
X176866503Y-104044737D01*
X177021153Y-104075499D01*
X177021156Y-104075500D01*
X177021158Y-104075500D01*
X177178844Y-104075500D01*
X177178845Y-104075499D01*
X177333497Y-104044737D01*
X177479179Y-103984394D01*
X177610289Y-103896789D01*
X177721789Y-103785289D01*
X177809394Y-103654179D01*
X177869737Y-103508497D01*
X177900500Y-103353842D01*
X177900500Y-103196158D01*
X177900500Y-103196155D01*
X177900499Y-103196153D01*
X177869738Y-103041510D01*
X177869737Y-103041503D01*
X177869735Y-103041498D01*
X177809397Y-102895827D01*
X177809390Y-102895814D01*
X177721789Y-102764711D01*
X177721786Y-102764707D01*
X177610292Y-102653213D01*
X177610288Y-102653210D01*
X177479185Y-102565609D01*
X177479172Y-102565602D01*
X177333501Y-102505264D01*
X177333489Y-102505261D01*
X177178845Y-102474500D01*
X177178842Y-102474500D01*
X177021158Y-102474500D01*
X177021155Y-102474500D01*
X176866510Y-102505261D01*
X176866498Y-102505264D01*
X176720827Y-102565602D01*
X176720814Y-102565609D01*
X176589711Y-102653210D01*
X176589707Y-102653213D01*
X176478213Y-102764707D01*
X176478210Y-102764711D01*
X176390609Y-102895814D01*
X176390602Y-102895827D01*
X176330264Y-103041498D01*
X176330261Y-103041510D01*
X176299500Y-103196153D01*
X150200500Y-103196153D01*
X150200500Y-101671153D01*
X170549500Y-101671153D01*
X170549500Y-101828846D01*
X170580261Y-101983489D01*
X170580264Y-101983501D01*
X170640602Y-102129172D01*
X170640609Y-102129185D01*
X170728210Y-102260288D01*
X170728213Y-102260292D01*
X170839707Y-102371786D01*
X170839711Y-102371789D01*
X170970814Y-102459390D01*
X170970827Y-102459397D01*
X171116498Y-102519735D01*
X171116503Y-102519737D01*
X171271153Y-102550499D01*
X171271156Y-102550500D01*
X171271158Y-102550500D01*
X171428844Y-102550500D01*
X171428845Y-102550499D01*
X171583497Y-102519737D01*
X171729179Y-102459394D01*
X171860289Y-102371789D01*
X171971789Y-102260289D01*
X172059394Y-102129179D01*
X172119737Y-101983497D01*
X172150500Y-101828842D01*
X172150500Y-101746153D01*
X179799500Y-101746153D01*
X179799500Y-101903846D01*
X179830261Y-102058489D01*
X179830264Y-102058501D01*
X179890602Y-102204172D01*
X179890609Y-102204185D01*
X179978210Y-102335288D01*
X179978213Y-102335292D01*
X180089707Y-102446786D01*
X180089711Y-102446789D01*
X180220814Y-102534390D01*
X180220827Y-102534397D01*
X180296181Y-102565609D01*
X180366503Y-102594737D01*
X180521153Y-102625499D01*
X180521156Y-102625500D01*
X180521158Y-102625500D01*
X180678844Y-102625500D01*
X180678845Y-102625499D01*
X180833497Y-102594737D01*
X180979179Y-102534394D01*
X181110289Y-102446789D01*
X181221789Y-102335289D01*
X181309394Y-102204179D01*
X181369737Y-102058497D01*
X181400500Y-101903842D01*
X181400500Y-101746158D01*
X181400500Y-101746155D01*
X181400499Y-101746153D01*
X181385580Y-101671153D01*
X181369737Y-101591503D01*
X181360721Y-101569736D01*
X181309397Y-101445827D01*
X181309390Y-101445814D01*
X181221789Y-101314711D01*
X181221786Y-101314707D01*
X181110292Y-101203213D01*
X181110288Y-101203210D01*
X180979185Y-101115609D01*
X180979172Y-101115602D01*
X180833501Y-101055264D01*
X180833489Y-101055261D01*
X180678845Y-101024500D01*
X180678842Y-101024500D01*
X180521158Y-101024500D01*
X180521155Y-101024500D01*
X180366510Y-101055261D01*
X180366498Y-101055264D01*
X180220827Y-101115602D01*
X180220814Y-101115609D01*
X180089711Y-101203210D01*
X180089707Y-101203213D01*
X179978213Y-101314707D01*
X179978210Y-101314711D01*
X179890609Y-101445814D01*
X179890602Y-101445827D01*
X179830264Y-101591498D01*
X179830261Y-101591510D01*
X179799500Y-101746153D01*
X172150500Y-101746153D01*
X172150500Y-101671158D01*
X172150500Y-101671155D01*
X172150499Y-101671153D01*
X172134657Y-101591510D01*
X172119737Y-101516503D01*
X172116791Y-101509390D01*
X172059397Y-101370827D01*
X172059390Y-101370814D01*
X171971789Y-101239711D01*
X171971786Y-101239707D01*
X171860292Y-101128213D01*
X171860288Y-101128210D01*
X171729185Y-101040609D01*
X171729172Y-101040602D01*
X171583501Y-100980264D01*
X171583489Y-100980261D01*
X171428845Y-100949500D01*
X171428842Y-100949500D01*
X171271158Y-100949500D01*
X171271155Y-100949500D01*
X171116510Y-100980261D01*
X171116498Y-100980264D01*
X170970827Y-101040602D01*
X170970814Y-101040609D01*
X170839711Y-101128210D01*
X170839707Y-101128213D01*
X170728213Y-101239707D01*
X170728210Y-101239711D01*
X170640609Y-101370814D01*
X170640602Y-101370827D01*
X170580264Y-101516498D01*
X170580261Y-101516510D01*
X170549500Y-101671153D01*
X150200500Y-101671153D01*
X150200500Y-100721153D01*
X168149500Y-100721153D01*
X168149500Y-100878846D01*
X168180261Y-101033489D01*
X168180264Y-101033501D01*
X168240602Y-101179172D01*
X168240609Y-101179185D01*
X168328210Y-101310288D01*
X168328213Y-101310292D01*
X168439707Y-101421786D01*
X168439711Y-101421789D01*
X168570814Y-101509390D01*
X168570827Y-101509397D01*
X168670070Y-101550504D01*
X168716503Y-101569737D01*
X168825963Y-101591510D01*
X168871153Y-101600499D01*
X168871156Y-101600500D01*
X168871158Y-101600500D01*
X169028844Y-101600500D01*
X169028845Y-101600499D01*
X169183497Y-101569737D01*
X169329179Y-101509394D01*
X169460289Y-101421789D01*
X169571789Y-101310289D01*
X169659394Y-101179179D01*
X169719737Y-101033497D01*
X169750500Y-100878842D01*
X169750500Y-100721158D01*
X169750500Y-100721155D01*
X169750499Y-100721153D01*
X169728447Y-100610292D01*
X169719737Y-100566503D01*
X169683569Y-100479185D01*
X169659397Y-100420827D01*
X169659390Y-100420814D01*
X169571789Y-100289711D01*
X169571786Y-100289707D01*
X169460292Y-100178213D01*
X169460288Y-100178210D01*
X169370429Y-100118168D01*
X169329185Y-100090609D01*
X169329172Y-100090602D01*
X169183501Y-100030264D01*
X169183489Y-100030261D01*
X169137701Y-100021153D01*
X176299500Y-100021153D01*
X176299500Y-100178846D01*
X176330261Y-100333489D01*
X176330264Y-100333501D01*
X176390602Y-100479172D01*
X176390609Y-100479185D01*
X176478210Y-100610288D01*
X176478213Y-100610292D01*
X176589707Y-100721786D01*
X176589711Y-100721789D01*
X176720814Y-100809390D01*
X176720827Y-100809397D01*
X176866498Y-100869735D01*
X176866503Y-100869737D01*
X177021153Y-100900499D01*
X177021156Y-100900500D01*
X177021158Y-100900500D01*
X177178844Y-100900500D01*
X177178845Y-100900499D01*
X177333497Y-100869737D01*
X177479179Y-100809394D01*
X177610289Y-100721789D01*
X177721789Y-100610289D01*
X177809394Y-100479179D01*
X177869737Y-100333497D01*
X177900500Y-100178842D01*
X177900500Y-100021158D01*
X177900500Y-100021155D01*
X177900499Y-100021153D01*
X177869738Y-99866510D01*
X177869737Y-99866503D01*
X177840010Y-99794735D01*
X177809397Y-99720827D01*
X177809390Y-99720814D01*
X177721789Y-99589711D01*
X177721786Y-99589707D01*
X177610292Y-99478213D01*
X177610288Y-99478210D01*
X177479185Y-99390609D01*
X177479172Y-99390602D01*
X177333501Y-99330264D01*
X177333489Y-99330261D01*
X177178845Y-99299500D01*
X177178842Y-99299500D01*
X177021158Y-99299500D01*
X177021155Y-99299500D01*
X176866510Y-99330261D01*
X176866498Y-99330264D01*
X176720827Y-99390602D01*
X176720814Y-99390609D01*
X176589711Y-99478210D01*
X176589707Y-99478213D01*
X176478213Y-99589707D01*
X176478210Y-99589711D01*
X176390609Y-99720814D01*
X176390602Y-99720827D01*
X176330264Y-99866498D01*
X176330261Y-99866510D01*
X176299500Y-100021153D01*
X169137701Y-100021153D01*
X169028845Y-99999500D01*
X169028842Y-99999500D01*
X168871158Y-99999500D01*
X168871155Y-99999500D01*
X168716510Y-100030261D01*
X168716498Y-100030264D01*
X168570827Y-100090602D01*
X168570814Y-100090609D01*
X168439711Y-100178210D01*
X168439707Y-100178213D01*
X168328213Y-100289707D01*
X168328210Y-100289711D01*
X168240609Y-100420814D01*
X168240602Y-100420827D01*
X168180264Y-100566498D01*
X168180261Y-100566510D01*
X168149500Y-100721153D01*
X150200500Y-100721153D01*
X150200500Y-98946153D01*
X181874500Y-98946153D01*
X181874500Y-99103846D01*
X181905261Y-99258489D01*
X181905264Y-99258501D01*
X181965602Y-99404172D01*
X181965609Y-99404185D01*
X182053210Y-99535288D01*
X182053213Y-99535292D01*
X182164707Y-99646786D01*
X182164711Y-99646789D01*
X182295814Y-99734390D01*
X182295827Y-99734397D01*
X182441498Y-99794735D01*
X182441503Y-99794737D01*
X182596153Y-99825499D01*
X182596156Y-99825500D01*
X182596158Y-99825500D01*
X182753844Y-99825500D01*
X182753845Y-99825499D01*
X182908497Y-99794737D01*
X183054179Y-99734394D01*
X183185289Y-99646789D01*
X183296789Y-99535289D01*
X183384394Y-99404179D01*
X183444737Y-99258497D01*
X183475500Y-99103842D01*
X183475500Y-98946158D01*
X183475500Y-98946155D01*
X183475499Y-98946153D01*
X183444738Y-98791510D01*
X183444737Y-98791503D01*
X183444735Y-98791498D01*
X183384397Y-98645827D01*
X183384390Y-98645814D01*
X183296789Y-98514711D01*
X183296786Y-98514707D01*
X183185292Y-98403213D01*
X183185288Y-98403210D01*
X183054185Y-98315609D01*
X183054172Y-98315602D01*
X182908501Y-98255264D01*
X182908489Y-98255261D01*
X182753845Y-98224500D01*
X182753842Y-98224500D01*
X182596158Y-98224500D01*
X182596155Y-98224500D01*
X182441510Y-98255261D01*
X182441498Y-98255264D01*
X182295827Y-98315602D01*
X182295814Y-98315609D01*
X182164711Y-98403210D01*
X182164707Y-98403213D01*
X182053213Y-98514707D01*
X182053210Y-98514711D01*
X181965609Y-98645814D01*
X181965602Y-98645827D01*
X181905264Y-98791498D01*
X181905261Y-98791510D01*
X181874500Y-98946153D01*
X150200500Y-98946153D01*
X150200500Y-97584360D01*
X184287707Y-97584360D01*
X184287707Y-97742053D01*
X184318468Y-97896696D01*
X184318471Y-97896708D01*
X184378809Y-98042379D01*
X184378816Y-98042392D01*
X184466417Y-98173495D01*
X184466420Y-98173499D01*
X184577914Y-98284993D01*
X184577918Y-98284996D01*
X184709021Y-98372597D01*
X184709034Y-98372604D01*
X184782932Y-98403213D01*
X184854710Y-98432944D01*
X185009360Y-98463706D01*
X185009363Y-98463707D01*
X185009365Y-98463707D01*
X185167051Y-98463707D01*
X185167052Y-98463706D01*
X185321704Y-98432944D01*
X185467386Y-98372601D01*
X185598496Y-98284996D01*
X185709996Y-98173496D01*
X185797601Y-98042386D01*
X185857944Y-97896704D01*
X185888707Y-97742049D01*
X185888707Y-97584365D01*
X185888707Y-97584362D01*
X185888706Y-97584360D01*
X185857945Y-97429717D01*
X185857944Y-97429710D01*
X185857942Y-97429705D01*
X185797604Y-97284034D01*
X185797597Y-97284021D01*
X185709996Y-97152918D01*
X185709993Y-97152914D01*
X185598499Y-97041420D01*
X185598495Y-97041417D01*
X185467392Y-96953816D01*
X185467379Y-96953809D01*
X185321708Y-96893471D01*
X185321696Y-96893468D01*
X185167052Y-96862707D01*
X185167049Y-96862707D01*
X185009365Y-96862707D01*
X185009362Y-96862707D01*
X184854717Y-96893468D01*
X184854705Y-96893471D01*
X184709034Y-96953809D01*
X184709021Y-96953816D01*
X184577918Y-97041417D01*
X184577914Y-97041420D01*
X184466420Y-97152914D01*
X184466417Y-97152918D01*
X184378816Y-97284021D01*
X184378809Y-97284034D01*
X184318471Y-97429705D01*
X184318468Y-97429717D01*
X184287707Y-97584360D01*
X150200500Y-97584360D01*
X150200500Y-96321153D01*
X176399500Y-96321153D01*
X176399500Y-96478846D01*
X176430261Y-96633489D01*
X176430264Y-96633501D01*
X176490602Y-96779172D01*
X176490609Y-96779185D01*
X176578210Y-96910288D01*
X176578213Y-96910292D01*
X176689707Y-97021786D01*
X176689711Y-97021789D01*
X176820814Y-97109390D01*
X176820827Y-97109397D01*
X176925888Y-97152914D01*
X176966503Y-97169737D01*
X177121153Y-97200499D01*
X177121156Y-97200500D01*
X177121158Y-97200500D01*
X177278844Y-97200500D01*
X177278845Y-97200499D01*
X177433497Y-97169737D01*
X177579179Y-97109394D01*
X177710289Y-97021789D01*
X177821789Y-96910289D01*
X177909394Y-96779179D01*
X177969737Y-96633497D01*
X178000500Y-96478842D01*
X178000500Y-96321158D01*
X178000500Y-96321155D01*
X178000499Y-96321153D01*
X177969738Y-96166510D01*
X177969737Y-96166503D01*
X177969735Y-96166498D01*
X177909397Y-96020827D01*
X177909390Y-96020814D01*
X177821789Y-95889711D01*
X177821786Y-95889707D01*
X177710292Y-95778213D01*
X177710288Y-95778210D01*
X177579185Y-95690609D01*
X177579172Y-95690602D01*
X177433501Y-95630264D01*
X177433489Y-95630261D01*
X177278845Y-95599500D01*
X177278842Y-95599500D01*
X177121158Y-95599500D01*
X177121155Y-95599500D01*
X176966510Y-95630261D01*
X176966498Y-95630264D01*
X176820827Y-95690602D01*
X176820814Y-95690609D01*
X176689711Y-95778210D01*
X176689707Y-95778213D01*
X176578213Y-95889707D01*
X176578210Y-95889711D01*
X176490609Y-96020814D01*
X176490602Y-96020827D01*
X176430264Y-96166498D01*
X176430261Y-96166510D01*
X176399500Y-96321153D01*
X150200500Y-96321153D01*
X150200500Y-92921153D01*
X167899500Y-92921153D01*
X167899500Y-93078846D01*
X167930261Y-93233489D01*
X167930264Y-93233501D01*
X167990602Y-93379172D01*
X167990609Y-93379185D01*
X168078210Y-93510288D01*
X168078213Y-93510292D01*
X168189707Y-93621786D01*
X168189711Y-93621789D01*
X168320814Y-93709390D01*
X168320827Y-93709397D01*
X168466498Y-93769735D01*
X168466503Y-93769737D01*
X168621153Y-93800499D01*
X168621156Y-93800500D01*
X168621158Y-93800500D01*
X168778844Y-93800500D01*
X168778845Y-93800499D01*
X168933497Y-93769737D01*
X169079179Y-93709394D01*
X169210289Y-93621789D01*
X169321789Y-93510289D01*
X169409394Y-93379179D01*
X169469737Y-93233497D01*
X169500500Y-93078842D01*
X169500500Y-92921158D01*
X169500500Y-92921155D01*
X169500499Y-92921153D01*
X169469738Y-92766510D01*
X169469737Y-92766503D01*
X169469735Y-92766498D01*
X169409397Y-92620827D01*
X169409390Y-92620814D01*
X169321789Y-92489711D01*
X169321786Y-92489707D01*
X169210292Y-92378213D01*
X169210288Y-92378210D01*
X169079185Y-92290609D01*
X169079172Y-92290602D01*
X168933501Y-92230264D01*
X168933489Y-92230261D01*
X168778845Y-92199500D01*
X168778842Y-92199500D01*
X168621158Y-92199500D01*
X168621155Y-92199500D01*
X168466510Y-92230261D01*
X168466498Y-92230264D01*
X168320827Y-92290602D01*
X168320814Y-92290609D01*
X168189711Y-92378210D01*
X168189707Y-92378213D01*
X168078213Y-92489707D01*
X168078210Y-92489711D01*
X167990609Y-92620814D01*
X167990602Y-92620827D01*
X167930264Y-92766498D01*
X167930261Y-92766510D01*
X167899500Y-92921153D01*
X150200500Y-92921153D01*
X150200500Y-88421153D01*
X180999500Y-88421153D01*
X180999500Y-88578846D01*
X181030261Y-88733489D01*
X181030264Y-88733501D01*
X181090602Y-88879172D01*
X181090609Y-88879185D01*
X181178210Y-89010288D01*
X181178213Y-89010292D01*
X181289707Y-89121786D01*
X181289711Y-89121789D01*
X181420814Y-89209390D01*
X181420827Y-89209397D01*
X181566498Y-89269735D01*
X181566503Y-89269737D01*
X181721153Y-89300499D01*
X181721156Y-89300500D01*
X181721158Y-89300500D01*
X181878844Y-89300500D01*
X181878845Y-89300499D01*
X182033497Y-89269737D01*
X182179179Y-89209394D01*
X182310289Y-89121789D01*
X182421789Y-89010289D01*
X182509394Y-88879179D01*
X182569737Y-88733497D01*
X182600500Y-88578842D01*
X182600500Y-88421158D01*
X182600500Y-88421155D01*
X182600499Y-88421153D01*
X182569738Y-88266510D01*
X182569737Y-88266503D01*
X182567163Y-88260288D01*
X182509397Y-88120827D01*
X182509390Y-88120814D01*
X182421789Y-87989711D01*
X182421786Y-87989707D01*
X182310292Y-87878213D01*
X182310288Y-87878210D01*
X182179185Y-87790609D01*
X182179173Y-87790602D01*
X182152674Y-87779627D01*
X182033501Y-87730264D01*
X182033489Y-87730261D01*
X181878845Y-87699500D01*
X181878842Y-87699500D01*
X181721158Y-87699500D01*
X181721155Y-87699500D01*
X181566510Y-87730261D01*
X181566498Y-87730264D01*
X181420827Y-87790602D01*
X181420814Y-87790609D01*
X181289711Y-87878210D01*
X181289707Y-87878213D01*
X181178213Y-87989707D01*
X181178210Y-87989711D01*
X181090609Y-88120814D01*
X181090602Y-88120827D01*
X181030264Y-88266498D01*
X181030261Y-88266510D01*
X180999500Y-88421153D01*
X150200500Y-88421153D01*
X150200500Y-87171153D01*
X154449500Y-87171153D01*
X154449500Y-87328846D01*
X154480261Y-87483489D01*
X154480264Y-87483501D01*
X154540602Y-87629172D01*
X154540609Y-87629185D01*
X154628210Y-87760288D01*
X154628213Y-87760292D01*
X154739707Y-87871786D01*
X154739711Y-87871789D01*
X154870814Y-87959390D01*
X154870827Y-87959397D01*
X155016498Y-88019735D01*
X155016503Y-88019737D01*
X155171153Y-88050499D01*
X155171156Y-88050500D01*
X155171158Y-88050500D01*
X155328844Y-88050500D01*
X155328845Y-88050499D01*
X155483497Y-88019737D01*
X155629179Y-87959394D01*
X155760289Y-87871789D01*
X155871789Y-87760289D01*
X155959394Y-87629179D01*
X156019737Y-87483497D01*
X156050500Y-87328842D01*
X156050500Y-87171158D01*
X156050500Y-87171155D01*
X156050499Y-87171153D01*
X156019737Y-87016503D01*
X156018084Y-87012512D01*
X156000953Y-86971153D01*
X162599500Y-86971153D01*
X162599500Y-87128846D01*
X162630261Y-87283489D01*
X162630264Y-87283501D01*
X162690602Y-87429172D01*
X162690609Y-87429185D01*
X162778210Y-87560288D01*
X162778213Y-87560292D01*
X162889707Y-87671786D01*
X162889711Y-87671789D01*
X163020814Y-87759390D01*
X163020827Y-87759397D01*
X163166498Y-87819735D01*
X163166503Y-87819737D01*
X163321153Y-87850499D01*
X163321156Y-87850500D01*
X163321158Y-87850500D01*
X163478844Y-87850500D01*
X163478845Y-87850499D01*
X163633497Y-87819737D01*
X163779179Y-87759394D01*
X163910289Y-87671789D01*
X164021789Y-87560289D01*
X164109394Y-87429179D01*
X164169737Y-87283497D01*
X164200500Y-87128842D01*
X164200500Y-86971158D01*
X164200500Y-86971155D01*
X164194155Y-86939258D01*
X164194155Y-86939257D01*
X164190554Y-86921153D01*
X166499500Y-86921153D01*
X166499500Y-87078846D01*
X166530261Y-87233489D01*
X166530264Y-87233501D01*
X166590602Y-87379172D01*
X166590609Y-87379185D01*
X166678210Y-87510288D01*
X166678213Y-87510292D01*
X166789707Y-87621786D01*
X166789711Y-87621789D01*
X166920814Y-87709390D01*
X166920827Y-87709397D01*
X167066498Y-87769735D01*
X167066503Y-87769737D01*
X167221153Y-87800499D01*
X167221156Y-87800500D01*
X167221158Y-87800500D01*
X167378844Y-87800500D01*
X167378845Y-87800499D01*
X167533497Y-87769737D01*
X167679179Y-87709394D01*
X167810289Y-87621789D01*
X167921789Y-87510289D01*
X168009394Y-87379179D01*
X168012854Y-87370827D01*
X168054137Y-87271158D01*
X168069737Y-87233497D01*
X168072192Y-87221153D01*
X175949500Y-87221153D01*
X175949500Y-87378846D01*
X175980261Y-87533489D01*
X175980264Y-87533501D01*
X176040602Y-87679172D01*
X176040609Y-87679185D01*
X176128210Y-87810288D01*
X176128213Y-87810292D01*
X176239707Y-87921786D01*
X176239711Y-87921789D01*
X176370814Y-88009390D01*
X176370827Y-88009397D01*
X176516498Y-88069735D01*
X176516503Y-88069737D01*
X176671153Y-88100499D01*
X176671156Y-88100500D01*
X176671158Y-88100500D01*
X176828844Y-88100500D01*
X176828845Y-88100499D01*
X176983497Y-88069737D01*
X177129179Y-88009394D01*
X177260289Y-87921789D01*
X177371789Y-87810289D01*
X177459394Y-87679179D01*
X177462719Y-87671153D01*
X177480102Y-87629185D01*
X177519737Y-87533497D01*
X177550500Y-87378842D01*
X177550500Y-87271153D01*
X178199500Y-87271153D01*
X178199500Y-87428846D01*
X178230261Y-87583489D01*
X178230264Y-87583501D01*
X178290602Y-87729172D01*
X178290609Y-87729185D01*
X178378210Y-87860288D01*
X178378213Y-87860292D01*
X178489707Y-87971786D01*
X178489711Y-87971789D01*
X178620814Y-88059390D01*
X178620827Y-88059397D01*
X178720060Y-88100500D01*
X178766503Y-88119737D01*
X178921153Y-88150499D01*
X178921156Y-88150500D01*
X178921158Y-88150500D01*
X179078844Y-88150500D01*
X179078845Y-88150499D01*
X179233497Y-88119737D01*
X179379179Y-88059394D01*
X179510289Y-87971789D01*
X179621789Y-87860289D01*
X179709394Y-87729179D01*
X179733429Y-87671153D01*
X184074500Y-87671153D01*
X184074500Y-87828846D01*
X184105261Y-87983489D01*
X184105264Y-87983501D01*
X184165602Y-88129172D01*
X184165609Y-88129185D01*
X184253210Y-88260288D01*
X184253213Y-88260292D01*
X184364707Y-88371786D01*
X184364711Y-88371789D01*
X184495814Y-88459390D01*
X184495827Y-88459397D01*
X184641498Y-88519735D01*
X184641503Y-88519737D01*
X184796153Y-88550499D01*
X184796156Y-88550500D01*
X184796158Y-88550500D01*
X184953844Y-88550500D01*
X184953845Y-88550499D01*
X185108497Y-88519737D01*
X185254179Y-88459394D01*
X185385289Y-88371789D01*
X185496789Y-88260289D01*
X185584394Y-88129179D01*
X185587854Y-88120827D01*
X185616984Y-88050499D01*
X185644737Y-87983497D01*
X185675500Y-87828842D01*
X185675500Y-87671158D01*
X185675500Y-87671155D01*
X185675499Y-87671153D01*
X185653447Y-87560292D01*
X185644737Y-87516503D01*
X185608569Y-87429185D01*
X185584397Y-87370827D01*
X185584390Y-87370814D01*
X185496789Y-87239711D01*
X185496786Y-87239707D01*
X185385292Y-87128213D01*
X185385288Y-87128210D01*
X185254185Y-87040609D01*
X185254172Y-87040602D01*
X185108501Y-86980264D01*
X185108489Y-86980261D01*
X184953845Y-86949500D01*
X184953842Y-86949500D01*
X184796158Y-86949500D01*
X184796155Y-86949500D01*
X184641510Y-86980261D01*
X184641498Y-86980264D01*
X184495827Y-87040602D01*
X184495814Y-87040609D01*
X184364711Y-87128210D01*
X184364707Y-87128213D01*
X184253213Y-87239707D01*
X184253210Y-87239711D01*
X184165609Y-87370814D01*
X184165602Y-87370827D01*
X184105264Y-87516498D01*
X184105261Y-87516510D01*
X184074500Y-87671153D01*
X179733429Y-87671153D01*
X179769737Y-87583497D01*
X179800500Y-87428842D01*
X179800500Y-87271158D01*
X179800500Y-87271155D01*
X179800499Y-87271153D01*
X179794244Y-87239707D01*
X179769737Y-87116503D01*
X179754138Y-87078844D01*
X179709397Y-86970827D01*
X179709390Y-86970814D01*
X179621789Y-86839711D01*
X179621786Y-86839707D01*
X179510292Y-86728213D01*
X179510288Y-86728210D01*
X179379185Y-86640609D01*
X179379172Y-86640602D01*
X179233501Y-86580264D01*
X179233489Y-86580261D01*
X179078845Y-86549500D01*
X179078842Y-86549500D01*
X178921158Y-86549500D01*
X178921155Y-86549500D01*
X178766510Y-86580261D01*
X178766498Y-86580264D01*
X178620827Y-86640602D01*
X178620814Y-86640609D01*
X178489711Y-86728210D01*
X178489707Y-86728213D01*
X178378213Y-86839707D01*
X178378210Y-86839711D01*
X178290609Y-86970814D01*
X178290602Y-86970827D01*
X178230264Y-87116498D01*
X178230261Y-87116510D01*
X178199500Y-87271153D01*
X177550500Y-87271153D01*
X177550500Y-87221158D01*
X177550500Y-87221155D01*
X177550499Y-87221153D01*
X177532012Y-87128213D01*
X177519737Y-87066503D01*
X177519735Y-87066498D01*
X177459397Y-86920827D01*
X177459390Y-86920814D01*
X177371789Y-86789711D01*
X177371786Y-86789707D01*
X177260292Y-86678213D01*
X177260288Y-86678210D01*
X177129185Y-86590609D01*
X177129172Y-86590602D01*
X176983501Y-86530264D01*
X176983489Y-86530261D01*
X176828845Y-86499500D01*
X176828842Y-86499500D01*
X176671158Y-86499500D01*
X176671155Y-86499500D01*
X176516510Y-86530261D01*
X176516498Y-86530264D01*
X176370827Y-86590602D01*
X176370814Y-86590609D01*
X176239711Y-86678210D01*
X176239707Y-86678213D01*
X176128213Y-86789707D01*
X176128210Y-86789711D01*
X176040609Y-86920814D01*
X176040602Y-86920827D01*
X175980264Y-87066498D01*
X175980261Y-87066510D01*
X175949500Y-87221153D01*
X168072192Y-87221153D01*
X168078216Y-87190874D01*
X168078216Y-87190873D01*
X168100499Y-87078846D01*
X168100500Y-87078844D01*
X168100500Y-86921155D01*
X168100499Y-86921153D01*
X168079684Y-86816510D01*
X168069737Y-86766503D01*
X168069735Y-86766498D01*
X168009397Y-86620827D01*
X168009390Y-86620814D01*
X167921789Y-86489711D01*
X167921786Y-86489707D01*
X167810292Y-86378213D01*
X167810288Y-86378210D01*
X167679185Y-86290609D01*
X167679172Y-86290602D01*
X167533501Y-86230264D01*
X167533489Y-86230261D01*
X167378845Y-86199500D01*
X167378842Y-86199500D01*
X167221158Y-86199500D01*
X167221155Y-86199500D01*
X167066510Y-86230261D01*
X167066498Y-86230264D01*
X166920827Y-86290602D01*
X166920814Y-86290609D01*
X166789711Y-86378210D01*
X166789707Y-86378213D01*
X166678213Y-86489707D01*
X166678210Y-86489711D01*
X166590609Y-86620814D01*
X166590602Y-86620827D01*
X166530264Y-86766498D01*
X166530261Y-86766510D01*
X166499500Y-86921153D01*
X164190554Y-86921153D01*
X164174353Y-86839711D01*
X164169737Y-86816503D01*
X164169735Y-86816498D01*
X164109397Y-86670827D01*
X164109390Y-86670814D01*
X164021789Y-86539711D01*
X164021786Y-86539707D01*
X163910292Y-86428213D01*
X163910288Y-86428210D01*
X163779185Y-86340609D01*
X163779172Y-86340602D01*
X163633501Y-86280264D01*
X163633489Y-86280261D01*
X163478845Y-86249500D01*
X163478842Y-86249500D01*
X163321158Y-86249500D01*
X163321155Y-86249500D01*
X163166510Y-86280261D01*
X163166498Y-86280264D01*
X163020827Y-86340602D01*
X163020814Y-86340609D01*
X162889711Y-86428210D01*
X162889707Y-86428213D01*
X162778213Y-86539707D01*
X162778210Y-86539711D01*
X162690609Y-86670814D01*
X162690602Y-86670827D01*
X162630264Y-86816498D01*
X162630261Y-86816510D01*
X162599500Y-86971153D01*
X156000953Y-86971153D01*
X155959397Y-86870827D01*
X155959390Y-86870814D01*
X155871789Y-86739711D01*
X155871786Y-86739707D01*
X155760292Y-86628213D01*
X155760288Y-86628210D01*
X155629185Y-86540609D01*
X155629172Y-86540602D01*
X155483501Y-86480264D01*
X155483489Y-86480261D01*
X155328845Y-86449500D01*
X155328842Y-86449500D01*
X155171158Y-86449500D01*
X155171155Y-86449500D01*
X155016510Y-86480261D01*
X155016498Y-86480264D01*
X154870827Y-86540602D01*
X154870814Y-86540609D01*
X154739711Y-86628210D01*
X154739707Y-86628213D01*
X154628213Y-86739707D01*
X154628210Y-86739711D01*
X154540609Y-86870814D01*
X154540602Y-86870827D01*
X154480264Y-87016498D01*
X154480261Y-87016510D01*
X154449500Y-87171153D01*
X150200500Y-87171153D01*
X150200500Y-82521153D01*
X161399500Y-82521153D01*
X161399500Y-82678846D01*
X161430261Y-82833489D01*
X161430264Y-82833501D01*
X161490602Y-82979172D01*
X161490609Y-82979185D01*
X161578210Y-83110288D01*
X161578213Y-83110292D01*
X161689707Y-83221786D01*
X161689711Y-83221789D01*
X161820814Y-83309390D01*
X161820827Y-83309397D01*
X161966498Y-83369735D01*
X161966503Y-83369737D01*
X162121153Y-83400499D01*
X162121156Y-83400500D01*
X162121158Y-83400500D01*
X162278844Y-83400500D01*
X162278845Y-83400499D01*
X162433497Y-83369737D01*
X162579179Y-83309394D01*
X162710289Y-83221789D01*
X162821789Y-83110289D01*
X162909394Y-82979179D01*
X162969737Y-82833497D01*
X163000500Y-82678842D01*
X163000500Y-82521158D01*
X163000500Y-82521155D01*
X163000499Y-82521153D01*
X162974065Y-82388257D01*
X162970463Y-82370153D01*
X181605839Y-82370153D01*
X181605839Y-82527846D01*
X181636600Y-82682489D01*
X181636603Y-82682501D01*
X181696941Y-82828172D01*
X181696948Y-82828185D01*
X181784549Y-82959288D01*
X181784552Y-82959292D01*
X181896046Y-83070786D01*
X181896050Y-83070789D01*
X182027153Y-83158390D01*
X182027166Y-83158397D01*
X182172837Y-83218735D01*
X182172842Y-83218737D01*
X182327492Y-83249499D01*
X182327495Y-83249500D01*
X182327497Y-83249500D01*
X182485183Y-83249500D01*
X182485184Y-83249499D01*
X182639836Y-83218737D01*
X182785518Y-83158394D01*
X182916628Y-83070789D01*
X183028128Y-82959289D01*
X183115733Y-82828179D01*
X183176076Y-82682497D01*
X183206839Y-82527842D01*
X183206839Y-82370158D01*
X183206839Y-82370155D01*
X183206838Y-82370153D01*
X183177135Y-82220827D01*
X183176076Y-82215503D01*
X183123970Y-82089707D01*
X183115736Y-82069827D01*
X183115729Y-82069814D01*
X183028128Y-81938711D01*
X183028125Y-81938707D01*
X182916631Y-81827213D01*
X182916627Y-81827210D01*
X182785524Y-81739609D01*
X182785511Y-81739602D01*
X182639840Y-81679264D01*
X182639828Y-81679261D01*
X182485184Y-81648500D01*
X182485181Y-81648500D01*
X182327497Y-81648500D01*
X182327494Y-81648500D01*
X182172849Y-81679261D01*
X182172837Y-81679264D01*
X182027166Y-81739602D01*
X182027153Y-81739609D01*
X181896050Y-81827210D01*
X181896046Y-81827213D01*
X181784552Y-81938707D01*
X181784549Y-81938711D01*
X181696948Y-82069814D01*
X181696941Y-82069827D01*
X181636603Y-82215498D01*
X181636600Y-82215510D01*
X181605839Y-82370153D01*
X162970463Y-82370153D01*
X162969738Y-82366507D01*
X162969735Y-82366498D01*
X162909397Y-82220827D01*
X162909390Y-82220814D01*
X162821789Y-82089711D01*
X162821786Y-82089707D01*
X162710292Y-81978213D01*
X162710288Y-81978210D01*
X162579185Y-81890609D01*
X162579172Y-81890602D01*
X162433501Y-81830264D01*
X162433489Y-81830261D01*
X162278845Y-81799500D01*
X162278842Y-81799500D01*
X162121158Y-81799500D01*
X162121155Y-81799500D01*
X161966510Y-81830261D01*
X161966498Y-81830264D01*
X161820827Y-81890602D01*
X161820814Y-81890609D01*
X161689711Y-81978210D01*
X161689707Y-81978213D01*
X161578213Y-82089707D01*
X161578210Y-82089711D01*
X161490609Y-82220814D01*
X161490602Y-82220827D01*
X161430264Y-82366498D01*
X161430261Y-82366510D01*
X161399500Y-82521153D01*
X150200500Y-82521153D01*
X150200500Y-81021153D01*
X157849500Y-81021153D01*
X157849500Y-81178846D01*
X157880261Y-81333489D01*
X157880264Y-81333501D01*
X157940602Y-81479172D01*
X157940609Y-81479185D01*
X158028210Y-81610288D01*
X158028213Y-81610292D01*
X158139707Y-81721786D01*
X158139711Y-81721789D01*
X158270814Y-81809390D01*
X158270827Y-81809397D01*
X158416498Y-81869735D01*
X158416503Y-81869737D01*
X158571153Y-81900499D01*
X158571156Y-81900500D01*
X158571158Y-81900500D01*
X158728844Y-81900500D01*
X158728845Y-81900499D01*
X158883497Y-81869737D01*
X159029179Y-81809394D01*
X159160289Y-81721789D01*
X159271789Y-81610289D01*
X159359394Y-81479179D01*
X159419737Y-81333497D01*
X159450500Y-81178842D01*
X159450500Y-81021158D01*
X159450500Y-81021155D01*
X159434209Y-80939258D01*
X159434209Y-80939257D01*
X159430608Y-80921153D01*
X172762000Y-80921153D01*
X172762000Y-81078846D01*
X172792761Y-81233489D01*
X172792764Y-81233501D01*
X172853102Y-81379172D01*
X172853109Y-81379185D01*
X172940710Y-81510288D01*
X172940713Y-81510292D01*
X173052207Y-81621786D01*
X173052211Y-81621789D01*
X173183314Y-81709390D01*
X173183327Y-81709397D01*
X173328998Y-81769735D01*
X173329003Y-81769737D01*
X173478631Y-81799500D01*
X173483653Y-81800499D01*
X173483656Y-81800500D01*
X173483658Y-81800500D01*
X173641344Y-81800500D01*
X173641345Y-81800499D01*
X173795997Y-81769737D01*
X173941679Y-81709394D01*
X174072789Y-81621789D01*
X174184289Y-81510289D01*
X174271894Y-81379179D01*
X174332237Y-81233497D01*
X174363000Y-81078842D01*
X174363000Y-80921158D01*
X174363000Y-80921155D01*
X174362999Y-80921153D01*
X174332238Y-80766510D01*
X174332237Y-80766503D01*
X174313312Y-80720814D01*
X174271897Y-80620827D01*
X174271890Y-80620814D01*
X174184289Y-80489711D01*
X174184286Y-80489707D01*
X174072792Y-80378213D01*
X174072788Y-80378210D01*
X173941685Y-80290609D01*
X173941672Y-80290602D01*
X173796001Y-80230264D01*
X173795989Y-80230261D01*
X173641345Y-80199500D01*
X173641342Y-80199500D01*
X173483658Y-80199500D01*
X173483655Y-80199500D01*
X173329010Y-80230261D01*
X173328998Y-80230264D01*
X173183327Y-80290602D01*
X173183314Y-80290609D01*
X173052211Y-80378210D01*
X173052207Y-80378213D01*
X172940713Y-80489707D01*
X172940710Y-80489711D01*
X172853109Y-80620814D01*
X172853102Y-80620827D01*
X172792764Y-80766498D01*
X172792761Y-80766510D01*
X172762000Y-80921153D01*
X159430608Y-80921153D01*
X159419738Y-80866510D01*
X159419737Y-80866503D01*
X159378314Y-80766498D01*
X159359397Y-80720827D01*
X159359390Y-80720814D01*
X159271789Y-80589711D01*
X159271786Y-80589707D01*
X159160292Y-80478213D01*
X159160288Y-80478210D01*
X159029185Y-80390609D01*
X159029172Y-80390602D01*
X158883501Y-80330264D01*
X158883489Y-80330261D01*
X158728845Y-80299500D01*
X158728842Y-80299500D01*
X158571158Y-80299500D01*
X158571155Y-80299500D01*
X158416510Y-80330261D01*
X158416498Y-80330264D01*
X158270827Y-80390602D01*
X158270814Y-80390609D01*
X158139711Y-80478210D01*
X158139707Y-80478213D01*
X158028213Y-80589707D01*
X158028210Y-80589711D01*
X157940609Y-80720814D01*
X157940602Y-80720827D01*
X157880264Y-80866498D01*
X157880261Y-80866510D01*
X157849500Y-81021153D01*
X150200500Y-81021153D01*
X150200500Y-79696153D01*
X159299500Y-79696153D01*
X159299500Y-79853846D01*
X159330261Y-80008489D01*
X159330264Y-80008501D01*
X159390602Y-80154172D01*
X159390609Y-80154185D01*
X159478210Y-80285288D01*
X159478213Y-80285292D01*
X159589707Y-80396786D01*
X159589711Y-80396789D01*
X159720814Y-80484390D01*
X159720827Y-80484397D01*
X159866498Y-80544735D01*
X159866503Y-80544737D01*
X160021153Y-80575499D01*
X160021156Y-80575500D01*
X160021158Y-80575500D01*
X160178844Y-80575500D01*
X160178845Y-80575499D01*
X160333497Y-80544737D01*
X160479179Y-80484394D01*
X160610289Y-80396789D01*
X160721789Y-80285289D01*
X160809394Y-80154179D01*
X160869737Y-80008497D01*
X160900500Y-79853842D01*
X160900500Y-79696158D01*
X160900500Y-79696155D01*
X160900499Y-79696153D01*
X160878248Y-79584292D01*
X160869737Y-79541503D01*
X160833155Y-79453185D01*
X160809397Y-79395827D01*
X160809390Y-79395814D01*
X160721789Y-79264711D01*
X160721786Y-79264707D01*
X160610292Y-79153213D01*
X160610288Y-79153210D01*
X160524897Y-79096153D01*
X168824500Y-79096153D01*
X168824500Y-79253846D01*
X168855261Y-79408489D01*
X168855264Y-79408501D01*
X168915602Y-79554172D01*
X168915609Y-79554185D01*
X169003210Y-79685288D01*
X169003213Y-79685292D01*
X169114707Y-79796786D01*
X169114711Y-79796789D01*
X169245814Y-79884390D01*
X169245827Y-79884397D01*
X169391498Y-79944735D01*
X169391503Y-79944737D01*
X169546153Y-79975499D01*
X169546156Y-79975500D01*
X169546158Y-79975500D01*
X169703844Y-79975500D01*
X169703845Y-79975499D01*
X169858497Y-79944737D01*
X170004179Y-79884394D01*
X170135289Y-79796789D01*
X170246789Y-79685289D01*
X170334394Y-79554179D01*
X170368477Y-79471892D01*
X170412317Y-79417491D01*
X170478611Y-79395425D01*
X170507231Y-79397729D01*
X170517036Y-79399680D01*
X170521157Y-79400500D01*
X170521158Y-79400500D01*
X170678844Y-79400500D01*
X170678845Y-79400499D01*
X170833497Y-79369737D01*
X170979179Y-79309394D01*
X171110289Y-79221789D01*
X171221789Y-79110289D01*
X171298721Y-78995153D01*
X175605839Y-78995153D01*
X175605839Y-79152846D01*
X175636600Y-79307489D01*
X175636603Y-79307501D01*
X175696941Y-79453172D01*
X175696948Y-79453185D01*
X175784549Y-79584288D01*
X175784552Y-79584292D01*
X175896046Y-79695786D01*
X175896050Y-79695789D01*
X176027153Y-79783390D01*
X176027166Y-79783397D01*
X176172837Y-79843735D01*
X176172842Y-79843737D01*
X176327492Y-79874499D01*
X176327495Y-79874500D01*
X176327497Y-79874500D01*
X176485183Y-79874500D01*
X176485184Y-79874499D01*
X176639836Y-79843737D01*
X176785518Y-79783394D01*
X176916628Y-79695789D01*
X177028128Y-79584289D01*
X177115733Y-79453179D01*
X177176076Y-79307497D01*
X177206839Y-79152842D01*
X177206839Y-78995158D01*
X177206839Y-78995155D01*
X177206838Y-78995153D01*
X177176077Y-78840510D01*
X177176076Y-78840503D01*
X177157568Y-78795821D01*
X177115736Y-78694827D01*
X177115729Y-78694814D01*
X177028128Y-78563711D01*
X177028125Y-78563707D01*
X176916631Y-78452213D01*
X176916627Y-78452210D01*
X176785524Y-78364609D01*
X176785511Y-78364602D01*
X176639840Y-78304264D01*
X176639828Y-78304261D01*
X176485184Y-78273500D01*
X176485181Y-78273500D01*
X176327497Y-78273500D01*
X176327494Y-78273500D01*
X176172849Y-78304261D01*
X176172837Y-78304264D01*
X176027166Y-78364602D01*
X176027153Y-78364609D01*
X175896050Y-78452210D01*
X175896046Y-78452213D01*
X175784552Y-78563707D01*
X175784549Y-78563711D01*
X175696948Y-78694814D01*
X175696941Y-78694827D01*
X175636603Y-78840498D01*
X175636600Y-78840510D01*
X175605839Y-78995153D01*
X171298721Y-78995153D01*
X171309394Y-78979179D01*
X171369737Y-78833497D01*
X171400500Y-78678842D01*
X171400500Y-78521158D01*
X171400500Y-78521155D01*
X171400499Y-78521153D01*
X171369737Y-78366503D01*
X171369735Y-78366498D01*
X171309397Y-78220827D01*
X171309390Y-78220814D01*
X171221789Y-78089711D01*
X171221786Y-78089707D01*
X171110292Y-77978213D01*
X171110288Y-77978210D01*
X170979185Y-77890609D01*
X170979172Y-77890602D01*
X170833501Y-77830264D01*
X170833489Y-77830261D01*
X170678845Y-77799500D01*
X170678842Y-77799500D01*
X170521158Y-77799500D01*
X170521155Y-77799500D01*
X170366510Y-77830261D01*
X170366498Y-77830264D01*
X170220827Y-77890602D01*
X170220814Y-77890609D01*
X170089711Y-77978210D01*
X170089707Y-77978213D01*
X169978213Y-78089707D01*
X169978210Y-78089711D01*
X169890609Y-78220814D01*
X169890604Y-78220824D01*
X169856522Y-78303106D01*
X169812681Y-78357509D01*
X169746387Y-78379574D01*
X169717770Y-78377270D01*
X169703845Y-78374500D01*
X169703842Y-78374500D01*
X169546158Y-78374500D01*
X169546155Y-78374500D01*
X169391510Y-78405261D01*
X169391498Y-78405264D01*
X169245827Y-78465602D01*
X169245814Y-78465609D01*
X169114711Y-78553210D01*
X169114707Y-78553213D01*
X169003213Y-78664707D01*
X169003210Y-78664711D01*
X168915609Y-78795814D01*
X168915602Y-78795827D01*
X168855264Y-78941498D01*
X168855261Y-78941510D01*
X168824500Y-79096153D01*
X160524897Y-79096153D01*
X160479185Y-79065609D01*
X160479172Y-79065602D01*
X160333501Y-79005264D01*
X160333489Y-79005261D01*
X160178845Y-78974500D01*
X160178842Y-78974500D01*
X160021158Y-78974500D01*
X160021155Y-78974500D01*
X159866510Y-79005261D01*
X159866498Y-79005264D01*
X159720827Y-79065602D01*
X159720814Y-79065609D01*
X159589711Y-79153210D01*
X159589707Y-79153213D01*
X159478213Y-79264707D01*
X159478210Y-79264711D01*
X159390609Y-79395814D01*
X159390602Y-79395827D01*
X159330264Y-79541498D01*
X159330261Y-79541510D01*
X159299500Y-79696153D01*
X150200500Y-79696153D01*
X150200500Y-75897648D01*
X152699500Y-75897648D01*
X152699500Y-76102351D01*
X152731522Y-76304534D01*
X152794781Y-76499223D01*
X152887715Y-76681613D01*
X153008028Y-76847213D01*
X153152786Y-76991971D01*
X153307749Y-77104556D01*
X153318390Y-77112287D01*
X153434607Y-77171503D01*
X153500776Y-77205218D01*
X153500778Y-77205218D01*
X153500781Y-77205220D01*
X153605137Y-77239127D01*
X153695465Y-77268477D01*
X153796557Y-77284488D01*
X153897648Y-77300500D01*
X153897649Y-77300500D01*
X154102351Y-77300500D01*
X154102352Y-77300500D01*
X154304534Y-77268477D01*
X154499219Y-77205220D01*
X154681610Y-77112287D01*
X154774590Y-77044732D01*
X154847213Y-76991971D01*
X154847215Y-76991968D01*
X154847219Y-76991966D01*
X154991966Y-76847219D01*
X154991968Y-76847215D01*
X154991971Y-76847213D01*
X155044732Y-76774590D01*
X155112287Y-76681610D01*
X155205220Y-76499219D01*
X155268477Y-76304534D01*
X155300500Y-76102352D01*
X155300500Y-75897648D01*
X155272545Y-75721153D01*
X165349500Y-75721153D01*
X165349500Y-75878846D01*
X165380261Y-76033489D01*
X165380264Y-76033501D01*
X165440602Y-76179172D01*
X165440609Y-76179185D01*
X165528210Y-76310288D01*
X165528213Y-76310292D01*
X165639707Y-76421786D01*
X165639711Y-76421789D01*
X165770814Y-76509390D01*
X165770827Y-76509397D01*
X165904359Y-76564707D01*
X165916503Y-76569737D01*
X166071153Y-76600499D01*
X166071156Y-76600500D01*
X166071158Y-76600500D01*
X166228844Y-76600500D01*
X166228845Y-76600499D01*
X166383497Y-76569737D01*
X166529179Y-76509394D01*
X166660289Y-76421789D01*
X166771789Y-76310289D01*
X166859394Y-76179179D01*
X166919737Y-76033497D01*
X166950500Y-75878842D01*
X166950500Y-75721158D01*
X166950500Y-75721155D01*
X166934209Y-75639258D01*
X166934209Y-75639257D01*
X166930608Y-75621153D01*
X177699500Y-75621153D01*
X177699500Y-75778846D01*
X177730261Y-75933489D01*
X177730264Y-75933501D01*
X177790602Y-76079172D01*
X177790609Y-76079185D01*
X177878210Y-76210288D01*
X177878213Y-76210292D01*
X177989707Y-76321786D01*
X177989711Y-76321789D01*
X178120814Y-76409390D01*
X178120827Y-76409397D01*
X178226603Y-76453210D01*
X178266503Y-76469737D01*
X178317586Y-76479898D01*
X178421154Y-76500500D01*
X178426334Y-76501010D01*
X178491122Y-76527169D01*
X178531483Y-76584202D01*
X178534602Y-76654002D01*
X178517293Y-76693293D01*
X178515613Y-76695806D01*
X178515602Y-76695827D01*
X178455264Y-76841498D01*
X178455261Y-76841510D01*
X178424500Y-76996153D01*
X178424500Y-77153846D01*
X178455261Y-77308489D01*
X178455264Y-77308501D01*
X178515602Y-77454172D01*
X178515609Y-77454185D01*
X178603210Y-77585288D01*
X178603213Y-77585292D01*
X178714707Y-77696786D01*
X178714711Y-77696789D01*
X178845814Y-77784390D01*
X178845827Y-77784397D01*
X178991498Y-77844735D01*
X178991503Y-77844737D01*
X179146153Y-77875499D01*
X179146156Y-77875500D01*
X179146158Y-77875500D01*
X179303844Y-77875500D01*
X179303845Y-77875499D01*
X179458497Y-77844737D01*
X179604179Y-77784394D01*
X179735289Y-77696789D01*
X179846789Y-77585289D01*
X179934394Y-77454179D01*
X179994737Y-77308497D01*
X180025500Y-77153842D01*
X180025500Y-76996158D01*
X180025500Y-76996155D01*
X180025499Y-76996153D01*
X179995874Y-76847219D01*
X179994737Y-76841503D01*
X179994735Y-76841498D01*
X179934397Y-76695827D01*
X179934390Y-76695814D01*
X179846789Y-76564711D01*
X179846786Y-76564707D01*
X179735292Y-76453213D01*
X179735288Y-76453210D01*
X179604185Y-76365609D01*
X179604172Y-76365602D01*
X179458501Y-76305264D01*
X179458489Y-76305261D01*
X179303840Y-76274498D01*
X179298655Y-76273988D01*
X179233869Y-76247824D01*
X179193513Y-76190788D01*
X179190399Y-76120988D01*
X179207716Y-76081690D01*
X179209393Y-76079180D01*
X179209394Y-76079179D01*
X179269737Y-75933497D01*
X179276867Y-75897648D01*
X182699500Y-75897648D01*
X182699500Y-76102351D01*
X182731522Y-76304534D01*
X182794781Y-76499223D01*
X182887715Y-76681613D01*
X183008028Y-76847213D01*
X183152786Y-76991971D01*
X183307749Y-77104556D01*
X183318390Y-77112287D01*
X183434607Y-77171503D01*
X183500776Y-77205218D01*
X183500778Y-77205218D01*
X183500781Y-77205220D01*
X183605137Y-77239127D01*
X183695465Y-77268477D01*
X183796557Y-77284488D01*
X183897648Y-77300500D01*
X183897649Y-77300500D01*
X184102351Y-77300500D01*
X184102352Y-77300500D01*
X184304534Y-77268477D01*
X184499219Y-77205220D01*
X184681610Y-77112287D01*
X184774590Y-77044732D01*
X184847213Y-76991971D01*
X184847215Y-76991968D01*
X184847219Y-76991966D01*
X184991966Y-76847219D01*
X184991968Y-76847215D01*
X184991971Y-76847213D01*
X185044732Y-76774590D01*
X185112287Y-76681610D01*
X185205220Y-76499219D01*
X185268477Y-76304534D01*
X185300500Y-76102352D01*
X185300500Y-75897648D01*
X185272546Y-75721155D01*
X185268477Y-75695465D01*
X185205218Y-75500776D01*
X185164475Y-75420814D01*
X185112287Y-75318390D01*
X185091448Y-75289707D01*
X184991971Y-75152786D01*
X184847213Y-75008028D01*
X184681613Y-74887715D01*
X184681612Y-74887714D01*
X184681610Y-74887713D01*
X184624653Y-74858691D01*
X184499223Y-74794781D01*
X184304534Y-74731522D01*
X184129995Y-74703878D01*
X184102352Y-74699500D01*
X183897648Y-74699500D01*
X183873329Y-74703351D01*
X183695465Y-74731522D01*
X183500776Y-74794781D01*
X183318386Y-74887715D01*
X183152786Y-75008028D01*
X183008028Y-75152786D01*
X182887715Y-75318386D01*
X182794781Y-75500776D01*
X182731522Y-75695465D01*
X182699500Y-75897648D01*
X179276867Y-75897648D01*
X179285813Y-75852673D01*
X179300500Y-75778844D01*
X179300500Y-75621155D01*
X179300499Y-75621153D01*
X179269738Y-75466510D01*
X179269737Y-75466503D01*
X179250812Y-75420814D01*
X179209397Y-75320827D01*
X179209390Y-75320814D01*
X179121789Y-75189711D01*
X179121786Y-75189707D01*
X179010292Y-75078213D01*
X179010288Y-75078210D01*
X178879185Y-74990609D01*
X178879172Y-74990602D01*
X178733501Y-74930264D01*
X178733489Y-74930261D01*
X178578845Y-74899500D01*
X178578842Y-74899500D01*
X178421158Y-74899500D01*
X178421155Y-74899500D01*
X178266510Y-74930261D01*
X178266498Y-74930264D01*
X178120827Y-74990602D01*
X178120814Y-74990609D01*
X177989711Y-75078210D01*
X177989707Y-75078213D01*
X177878213Y-75189707D01*
X177878210Y-75189711D01*
X177790609Y-75320814D01*
X177790602Y-75320827D01*
X177730264Y-75466498D01*
X177730261Y-75466510D01*
X177699500Y-75621153D01*
X166930608Y-75621153D01*
X166919738Y-75566510D01*
X166919737Y-75566503D01*
X166919735Y-75566498D01*
X166859397Y-75420827D01*
X166859390Y-75420814D01*
X166771789Y-75289711D01*
X166771786Y-75289707D01*
X166660292Y-75178213D01*
X166660288Y-75178210D01*
X166529185Y-75090609D01*
X166529172Y-75090602D01*
X166383501Y-75030264D01*
X166383489Y-75030261D01*
X166228845Y-74999500D01*
X166228842Y-74999500D01*
X166071158Y-74999500D01*
X166071155Y-74999500D01*
X165916510Y-75030261D01*
X165916498Y-75030264D01*
X165770827Y-75090602D01*
X165770814Y-75090609D01*
X165639711Y-75178210D01*
X165639707Y-75178213D01*
X165528213Y-75289707D01*
X165528210Y-75289711D01*
X165440609Y-75420814D01*
X165440602Y-75420827D01*
X165380264Y-75566498D01*
X165380261Y-75566510D01*
X165349500Y-75721153D01*
X155272545Y-75721153D01*
X155268477Y-75695465D01*
X155205218Y-75500776D01*
X155164475Y-75420814D01*
X155112287Y-75318390D01*
X155091448Y-75289707D01*
X154991971Y-75152786D01*
X154847213Y-75008028D01*
X154681613Y-74887715D01*
X154681612Y-74887714D01*
X154681610Y-74887713D01*
X154624653Y-74858691D01*
X154499223Y-74794781D01*
X154304534Y-74731522D01*
X154129995Y-74703878D01*
X154102352Y-74699500D01*
X153897648Y-74699500D01*
X153873329Y-74703351D01*
X153695465Y-74731522D01*
X153500776Y-74794781D01*
X153318386Y-74887715D01*
X153152786Y-75008028D01*
X153008028Y-75152786D01*
X152887715Y-75318386D01*
X152794781Y-75500776D01*
X152731522Y-75695465D01*
X152699500Y-75897648D01*
X150200500Y-75897648D01*
X150200500Y-74171153D01*
X168449500Y-74171153D01*
X168449500Y-74328846D01*
X168480261Y-74483489D01*
X168480264Y-74483501D01*
X168540602Y-74629172D01*
X168540609Y-74629185D01*
X168628210Y-74760288D01*
X168628213Y-74760292D01*
X168739707Y-74871786D01*
X168739711Y-74871789D01*
X168870814Y-74959390D01*
X168870827Y-74959397D01*
X168988249Y-75008034D01*
X169016503Y-75019737D01*
X169171153Y-75050499D01*
X169171156Y-75050500D01*
X169171158Y-75050500D01*
X169328844Y-75050500D01*
X169328845Y-75050499D01*
X169483497Y-75019737D01*
X169629179Y-74959394D01*
X169760289Y-74871789D01*
X169871789Y-74760289D01*
X169959394Y-74629179D01*
X170019737Y-74483497D01*
X170050500Y-74328842D01*
X170050500Y-74171158D01*
X170050500Y-74171155D01*
X170050499Y-74171153D01*
X170019738Y-74016510D01*
X170019737Y-74016503D01*
X170019735Y-74016498D01*
X169959397Y-73870827D01*
X169959390Y-73870814D01*
X169871789Y-73739711D01*
X169871786Y-73739707D01*
X169760292Y-73628213D01*
X169760288Y-73628210D01*
X169629185Y-73540609D01*
X169629172Y-73540602D01*
X169483501Y-73480264D01*
X169483489Y-73480261D01*
X169328845Y-73449500D01*
X169328842Y-73449500D01*
X169171158Y-73449500D01*
X169171155Y-73449500D01*
X169016510Y-73480261D01*
X169016498Y-73480264D01*
X168870827Y-73540602D01*
X168870814Y-73540609D01*
X168739711Y-73628210D01*
X168739707Y-73628213D01*
X168628213Y-73739707D01*
X168628210Y-73739711D01*
X168540609Y-73870814D01*
X168540602Y-73870827D01*
X168480264Y-74016498D01*
X168480261Y-74016510D01*
X168449500Y-74171153D01*
X150200500Y-74171153D01*
X150200500Y-69196153D01*
X175874500Y-69196153D01*
X175874500Y-69353846D01*
X175905261Y-69508489D01*
X175905264Y-69508501D01*
X175965602Y-69654172D01*
X175965609Y-69654185D01*
X176053210Y-69785288D01*
X176053213Y-69785292D01*
X176164707Y-69896786D01*
X176164711Y-69896789D01*
X176295814Y-69984390D01*
X176295827Y-69984397D01*
X176441498Y-70044735D01*
X176441503Y-70044737D01*
X176596153Y-70075499D01*
X176596156Y-70075500D01*
X176702243Y-70075500D01*
X176769282Y-70095185D01*
X176815037Y-70147989D01*
X176824981Y-70217147D01*
X176823860Y-70223692D01*
X176799500Y-70346155D01*
X176799500Y-70503846D01*
X176830261Y-70658489D01*
X176830264Y-70658501D01*
X176890602Y-70804172D01*
X176890609Y-70804185D01*
X176978210Y-70935288D01*
X176978213Y-70935292D01*
X177089707Y-71046786D01*
X177089711Y-71046789D01*
X177220814Y-71134390D01*
X177220827Y-71134397D01*
X177366498Y-71194735D01*
X177366503Y-71194737D01*
X177521153Y-71225499D01*
X177521156Y-71225500D01*
X177521158Y-71225500D01*
X177678844Y-71225500D01*
X177678845Y-71225499D01*
X177833497Y-71194737D01*
X177979179Y-71134394D01*
X178110289Y-71046789D01*
X178221789Y-70935289D01*
X178309394Y-70804179D01*
X178369737Y-70658497D01*
X178400500Y-70503842D01*
X178400500Y-70346158D01*
X178400500Y-70346155D01*
X178400499Y-70346153D01*
X178369738Y-70191510D01*
X178369737Y-70191503D01*
X178329841Y-70095185D01*
X178309397Y-70045827D01*
X178309390Y-70045814D01*
X178221789Y-69914711D01*
X178221786Y-69914707D01*
X178110292Y-69803213D01*
X178110288Y-69803210D01*
X177979185Y-69715609D01*
X177979172Y-69715602D01*
X177833501Y-69655264D01*
X177833489Y-69655261D01*
X177678845Y-69624500D01*
X177678842Y-69624500D01*
X177572757Y-69624500D01*
X177505718Y-69604815D01*
X177459963Y-69552011D01*
X177450019Y-69482853D01*
X177451140Y-69476308D01*
X177475500Y-69353844D01*
X177475500Y-69196155D01*
X177475499Y-69196153D01*
X177444738Y-69041510D01*
X177444737Y-69041503D01*
X177407043Y-68950500D01*
X177384397Y-68895827D01*
X177384390Y-68895814D01*
X177296789Y-68764711D01*
X177296786Y-68764707D01*
X177185292Y-68653213D01*
X177185288Y-68653210D01*
X177054185Y-68565609D01*
X177054172Y-68565602D01*
X176908501Y-68505264D01*
X176908489Y-68505261D01*
X176753845Y-68474500D01*
X176753842Y-68474500D01*
X176596158Y-68474500D01*
X176596155Y-68474500D01*
X176441510Y-68505261D01*
X176441498Y-68505264D01*
X176295827Y-68565602D01*
X176295814Y-68565609D01*
X176164711Y-68653210D01*
X176164707Y-68653213D01*
X176053213Y-68764707D01*
X176053210Y-68764711D01*
X175965609Y-68895814D01*
X175965602Y-68895827D01*
X175905264Y-69041498D01*
X175905261Y-69041510D01*
X175874500Y-69196153D01*
X150200500Y-69196153D01*
X150200500Y-68071153D01*
X155199500Y-68071153D01*
X155199500Y-68228846D01*
X155230261Y-68383489D01*
X155230264Y-68383501D01*
X155290602Y-68529172D01*
X155290609Y-68529185D01*
X155378210Y-68660288D01*
X155378213Y-68660292D01*
X155489707Y-68771786D01*
X155489711Y-68771789D01*
X155620814Y-68859390D01*
X155620827Y-68859397D01*
X155766498Y-68919735D01*
X155766503Y-68919737D01*
X155921153Y-68950499D01*
X155921156Y-68950500D01*
X155921158Y-68950500D01*
X156078844Y-68950500D01*
X156078845Y-68950499D01*
X156233497Y-68919737D01*
X156379179Y-68859394D01*
X156510289Y-68771789D01*
X156621789Y-68660289D01*
X156709394Y-68529179D01*
X156769737Y-68383497D01*
X156800500Y-68228842D01*
X156800500Y-68071158D01*
X156800500Y-68071155D01*
X156800499Y-68071153D01*
X156786915Y-68002863D01*
X156769737Y-67916503D01*
X156769735Y-67916498D01*
X156709397Y-67770827D01*
X156709390Y-67770814D01*
X156621789Y-67639711D01*
X156621786Y-67639707D01*
X156510292Y-67528213D01*
X156510288Y-67528210D01*
X156379185Y-67440609D01*
X156379172Y-67440602D01*
X156233501Y-67380264D01*
X156233489Y-67380261D01*
X156078845Y-67349500D01*
X156078842Y-67349500D01*
X155921158Y-67349500D01*
X155921155Y-67349500D01*
X155766510Y-67380261D01*
X155766498Y-67380264D01*
X155620827Y-67440602D01*
X155620814Y-67440609D01*
X155489711Y-67528210D01*
X155489707Y-67528213D01*
X155378213Y-67639707D01*
X155378210Y-67639711D01*
X155290609Y-67770814D01*
X155290602Y-67770827D01*
X155230264Y-67916498D01*
X155230261Y-67916510D01*
X155199500Y-68071153D01*
X150200500Y-68071153D01*
X150200500Y-66791228D01*
X159499500Y-66791228D01*
X159499500Y-66958771D01*
X159532182Y-67123074D01*
X159532184Y-67123082D01*
X159596295Y-67277860D01*
X159689373Y-67417162D01*
X159807837Y-67535626D01*
X159900494Y-67597537D01*
X159947137Y-67628703D01*
X160101918Y-67692816D01*
X160266228Y-67725499D01*
X160266232Y-67725500D01*
X160266233Y-67725500D01*
X160433768Y-67725500D01*
X160433769Y-67725499D01*
X160598082Y-67692816D01*
X160752863Y-67628703D01*
X160892162Y-67535626D01*
X160911560Y-67516228D01*
X177399500Y-67516228D01*
X177399500Y-67683771D01*
X177432182Y-67848074D01*
X177432184Y-67848082D01*
X177496295Y-68002860D01*
X177589373Y-68142162D01*
X177707837Y-68260626D01*
X177800494Y-68322537D01*
X177847137Y-68353703D01*
X178001918Y-68417816D01*
X178166228Y-68450499D01*
X178166232Y-68450500D01*
X178166233Y-68450500D01*
X178333768Y-68450500D01*
X178333769Y-68450499D01*
X178498082Y-68417816D01*
X178652863Y-68353703D01*
X178792162Y-68260626D01*
X178910626Y-68142162D01*
X179003703Y-68002863D01*
X179067816Y-67848082D01*
X179100500Y-67683767D01*
X179100500Y-67516233D01*
X179067816Y-67351918D01*
X179003703Y-67197137D01*
X178954221Y-67123082D01*
X178910626Y-67057837D01*
X178792162Y-66939373D01*
X178652860Y-66846295D01*
X178498082Y-66782184D01*
X178498074Y-66782182D01*
X178333771Y-66749500D01*
X178333767Y-66749500D01*
X178166233Y-66749500D01*
X178166228Y-66749500D01*
X178001925Y-66782182D01*
X178001917Y-66782184D01*
X177847139Y-66846295D01*
X177707837Y-66939373D01*
X177589373Y-67057837D01*
X177496295Y-67197139D01*
X177432184Y-67351917D01*
X177432182Y-67351925D01*
X177399500Y-67516228D01*
X160911560Y-67516228D01*
X160927289Y-67500499D01*
X161005329Y-67422460D01*
X161010623Y-67417165D01*
X161010626Y-67417162D01*
X161019619Y-67403703D01*
X161103703Y-67277863D01*
X161167816Y-67123082D01*
X161200500Y-66958767D01*
X161200500Y-66913723D01*
X161220185Y-66846684D01*
X161272989Y-66800929D01*
X161342147Y-66790985D01*
X161348683Y-66792104D01*
X161453731Y-66812999D01*
X161453732Y-66813000D01*
X161453733Y-66813000D01*
X161621268Y-66813000D01*
X161621269Y-66812999D01*
X161785582Y-66780316D01*
X161940363Y-66716203D01*
X162079662Y-66623126D01*
X162198126Y-66504662D01*
X162291203Y-66365363D01*
X162355316Y-66210582D01*
X162388000Y-66046267D01*
X162388000Y-65996153D01*
X170779500Y-65996153D01*
X170779500Y-66153846D01*
X170810261Y-66308489D01*
X170810264Y-66308501D01*
X170870602Y-66454172D01*
X170870609Y-66454185D01*
X170958210Y-66585288D01*
X170958213Y-66585292D01*
X171069707Y-66696786D01*
X171069711Y-66696789D01*
X171200814Y-66784390D01*
X171200827Y-66784397D01*
X171346498Y-66844735D01*
X171346503Y-66844737D01*
X171501153Y-66875499D01*
X171501156Y-66875500D01*
X171501158Y-66875500D01*
X171658844Y-66875500D01*
X171658845Y-66875499D01*
X171813497Y-66844737D01*
X171926166Y-66798067D01*
X171959172Y-66784397D01*
X171959172Y-66784396D01*
X171959179Y-66784394D01*
X172090289Y-66696789D01*
X172201789Y-66585289D01*
X172214522Y-66566233D01*
X172214525Y-66566228D01*
X183249500Y-66566228D01*
X183249500Y-66733771D01*
X183282182Y-66898074D01*
X183282184Y-66898082D01*
X183346295Y-67052860D01*
X183439373Y-67192162D01*
X183557837Y-67310626D01*
X183619646Y-67351925D01*
X183697137Y-67403703D01*
X183851918Y-67467816D01*
X184016228Y-67500499D01*
X184016232Y-67500500D01*
X184016233Y-67500500D01*
X184183768Y-67500500D01*
X184183769Y-67500499D01*
X184348082Y-67467816D01*
X184502863Y-67403703D01*
X184642162Y-67310626D01*
X184760626Y-67192162D01*
X184853703Y-67052863D01*
X184917816Y-66898082D01*
X184950500Y-66733767D01*
X184950500Y-66566233D01*
X184917816Y-66401918D01*
X184853703Y-66247137D01*
X184791368Y-66153846D01*
X184760626Y-66107837D01*
X184642162Y-65989373D01*
X184502860Y-65896295D01*
X184348082Y-65832184D01*
X184348074Y-65832182D01*
X184183771Y-65799500D01*
X184183767Y-65799500D01*
X184016233Y-65799500D01*
X184016228Y-65799500D01*
X183851925Y-65832182D01*
X183851917Y-65832184D01*
X183697139Y-65896295D01*
X183557837Y-65989373D01*
X183439373Y-66107837D01*
X183346295Y-66247139D01*
X183282184Y-66401917D01*
X183282182Y-66401925D01*
X183249500Y-66566228D01*
X172214525Y-66566228D01*
X172264624Y-66491250D01*
X172264624Y-66491249D01*
X172289394Y-66454179D01*
X172349737Y-66308497D01*
X172380500Y-66153842D01*
X172380500Y-65996158D01*
X172380500Y-65996155D01*
X172380499Y-65996153D01*
X172360636Y-65896295D01*
X172349737Y-65841503D01*
X172340721Y-65819737D01*
X172289397Y-65695827D01*
X172289390Y-65695814D01*
X172201789Y-65564711D01*
X172201786Y-65564707D01*
X172090292Y-65453213D01*
X172090288Y-65453210D01*
X171959185Y-65365609D01*
X171959172Y-65365602D01*
X171813501Y-65305264D01*
X171813489Y-65305261D01*
X171658845Y-65274500D01*
X171658842Y-65274500D01*
X171501158Y-65274500D01*
X171501155Y-65274500D01*
X171346510Y-65305261D01*
X171346498Y-65305264D01*
X171200827Y-65365602D01*
X171200814Y-65365609D01*
X171069711Y-65453210D01*
X171069707Y-65453213D01*
X170958213Y-65564707D01*
X170958210Y-65564711D01*
X170870609Y-65695814D01*
X170870602Y-65695827D01*
X170810264Y-65841498D01*
X170810261Y-65841510D01*
X170779500Y-65996153D01*
X162388000Y-65996153D01*
X162388000Y-65878733D01*
X162355316Y-65714418D01*
X162291203Y-65559637D01*
X162260037Y-65512994D01*
X162198126Y-65420337D01*
X162079662Y-65301873D01*
X161940360Y-65208795D01*
X161785582Y-65144684D01*
X161785574Y-65144682D01*
X161621271Y-65112000D01*
X161621267Y-65112000D01*
X161453733Y-65112000D01*
X161453728Y-65112000D01*
X161289425Y-65144682D01*
X161289417Y-65144684D01*
X161134639Y-65208795D01*
X160995337Y-65301873D01*
X160876873Y-65420337D01*
X160783795Y-65559639D01*
X160719684Y-65714417D01*
X160719682Y-65714425D01*
X160687000Y-65878728D01*
X160687000Y-65923776D01*
X160667315Y-65990815D01*
X160614511Y-66036570D01*
X160545353Y-66046514D01*
X160538809Y-66045394D01*
X160433767Y-66024500D01*
X160266233Y-66024500D01*
X160266228Y-66024500D01*
X160101925Y-66057182D01*
X160101917Y-66057184D01*
X159947139Y-66121295D01*
X159807837Y-66214373D01*
X159689373Y-66332837D01*
X159596295Y-66472139D01*
X159532184Y-66626917D01*
X159532182Y-66626925D01*
X159499500Y-66791228D01*
X150200500Y-66791228D01*
X150200500Y-64971153D01*
X181499500Y-64971153D01*
X181499500Y-65128846D01*
X181530261Y-65283489D01*
X181530264Y-65283501D01*
X181590602Y-65429172D01*
X181590609Y-65429185D01*
X181678210Y-65560288D01*
X181678213Y-65560292D01*
X181789707Y-65671786D01*
X181789711Y-65671789D01*
X181920814Y-65759390D01*
X181920827Y-65759397D01*
X182017646Y-65799500D01*
X182066503Y-65819737D01*
X182175963Y-65841510D01*
X182221153Y-65850499D01*
X182221156Y-65850500D01*
X182221158Y-65850500D01*
X182378844Y-65850500D01*
X182378845Y-65850499D01*
X182533497Y-65819737D01*
X182679179Y-65759394D01*
X182810289Y-65671789D01*
X182921789Y-65560289D01*
X183009394Y-65429179D01*
X183013057Y-65420337D01*
X183069735Y-65283501D01*
X183069737Y-65283497D01*
X183100500Y-65128842D01*
X183100500Y-64971158D01*
X183100500Y-64971155D01*
X183100499Y-64971153D01*
X183069738Y-64816510D01*
X183069737Y-64816503D01*
X183069735Y-64816498D01*
X183009397Y-64670827D01*
X183009390Y-64670814D01*
X182921789Y-64539711D01*
X182921786Y-64539707D01*
X182810292Y-64428213D01*
X182810288Y-64428210D01*
X182679185Y-64340609D01*
X182679172Y-64340602D01*
X182533501Y-64280264D01*
X182533489Y-64280261D01*
X182378845Y-64249500D01*
X182378842Y-64249500D01*
X182221158Y-64249500D01*
X182221155Y-64249500D01*
X182066510Y-64280261D01*
X182066498Y-64280264D01*
X181920827Y-64340602D01*
X181920814Y-64340609D01*
X181789711Y-64428210D01*
X181789707Y-64428213D01*
X181678213Y-64539707D01*
X181678210Y-64539711D01*
X181590609Y-64670814D01*
X181590602Y-64670827D01*
X181530264Y-64816498D01*
X181530261Y-64816510D01*
X181499500Y-64971153D01*
X150200500Y-64971153D01*
X150200500Y-62227531D01*
X158986639Y-62227531D01*
X158986639Y-62385224D01*
X159017400Y-62539867D01*
X159017403Y-62539879D01*
X159077741Y-62685550D01*
X159077748Y-62685563D01*
X159165349Y-62816666D01*
X159165352Y-62816670D01*
X159276846Y-62928164D01*
X159276850Y-62928167D01*
X159407953Y-63015768D01*
X159407966Y-63015775D01*
X159553637Y-63076113D01*
X159553642Y-63076115D01*
X159708292Y-63106877D01*
X159708295Y-63106878D01*
X159708297Y-63106878D01*
X159865983Y-63106878D01*
X159865984Y-63106877D01*
X160020636Y-63076115D01*
X160166318Y-63015772D01*
X160297428Y-62928167D01*
X160408928Y-62816667D01*
X160496533Y-62685557D01*
X160556876Y-62539875D01*
X160582235Y-62412386D01*
X160614618Y-62350479D01*
X160675334Y-62315905D01*
X160745103Y-62319644D01*
X160751291Y-62322015D01*
X160866503Y-62369737D01*
X161021153Y-62400499D01*
X161021156Y-62400500D01*
X161021158Y-62400500D01*
X161178844Y-62400500D01*
X161178845Y-62400499D01*
X161333497Y-62369737D01*
X161479179Y-62309394D01*
X161610289Y-62221789D01*
X161721789Y-62110289D01*
X161809394Y-61979179D01*
X161869737Y-61833497D01*
X161900500Y-61678842D01*
X161900500Y-61521158D01*
X161900500Y-61521155D01*
X161900499Y-61521153D01*
X161899128Y-61514257D01*
X161895527Y-61496153D01*
X169499500Y-61496153D01*
X169499500Y-61653846D01*
X169530261Y-61808489D01*
X169530264Y-61808501D01*
X169590602Y-61954172D01*
X169590609Y-61954185D01*
X169678210Y-62085288D01*
X169678213Y-62085292D01*
X169789707Y-62196786D01*
X169789711Y-62196789D01*
X169920814Y-62284390D01*
X169920827Y-62284397D01*
X170066498Y-62344735D01*
X170066503Y-62344737D01*
X170192176Y-62369735D01*
X170221153Y-62375499D01*
X170221156Y-62375500D01*
X170221158Y-62375500D01*
X170378844Y-62375500D01*
X170378845Y-62375499D01*
X170533497Y-62344737D01*
X170679179Y-62284394D01*
X170810289Y-62196789D01*
X170921789Y-62085289D01*
X171009394Y-61954179D01*
X171069737Y-61808497D01*
X171100500Y-61653842D01*
X171100500Y-61496158D01*
X171100500Y-61496155D01*
X171100499Y-61496153D01*
X171069738Y-61341510D01*
X171069737Y-61341503D01*
X171069735Y-61341498D01*
X171009397Y-61195827D01*
X171009390Y-61195814D01*
X170921789Y-61064711D01*
X170921786Y-61064707D01*
X170810292Y-60953213D01*
X170810288Y-60953210D01*
X170679185Y-60865609D01*
X170679172Y-60865602D01*
X170533501Y-60805264D01*
X170533489Y-60805261D01*
X170378845Y-60774500D01*
X170378842Y-60774500D01*
X170221158Y-60774500D01*
X170221155Y-60774500D01*
X170066510Y-60805261D01*
X170066498Y-60805264D01*
X169920827Y-60865602D01*
X169920814Y-60865609D01*
X169789711Y-60953210D01*
X169789707Y-60953213D01*
X169678213Y-61064707D01*
X169678210Y-61064711D01*
X169590609Y-61195814D01*
X169590602Y-61195827D01*
X169530264Y-61341498D01*
X169530261Y-61341510D01*
X169499500Y-61496153D01*
X161895527Y-61496153D01*
X161869738Y-61366508D01*
X161869737Y-61366507D01*
X161869737Y-61366503D01*
X161849101Y-61316683D01*
X161809397Y-61220827D01*
X161809390Y-61220814D01*
X161721789Y-61089711D01*
X161721786Y-61089707D01*
X161610292Y-60978213D01*
X161610288Y-60978210D01*
X161479185Y-60890609D01*
X161479172Y-60890602D01*
X161333501Y-60830264D01*
X161333489Y-60830261D01*
X161178845Y-60799500D01*
X161178842Y-60799500D01*
X161152997Y-60799500D01*
X161085958Y-60779815D01*
X161040203Y-60727011D01*
X161034596Y-60709655D01*
X161034006Y-60709835D01*
X161032235Y-60703998D01*
X160971897Y-60558327D01*
X160971890Y-60558314D01*
X160884289Y-60427211D01*
X160884286Y-60427207D01*
X160772792Y-60315713D01*
X160772788Y-60315710D01*
X160641685Y-60228109D01*
X160641672Y-60228102D01*
X160496001Y-60167764D01*
X160495989Y-60167761D01*
X160341345Y-60137000D01*
X160341342Y-60137000D01*
X160183658Y-60137000D01*
X160183655Y-60137000D01*
X160029010Y-60167761D01*
X160028998Y-60167764D01*
X159883327Y-60228102D01*
X159883314Y-60228109D01*
X159752211Y-60315710D01*
X159752207Y-60315713D01*
X159640713Y-60427207D01*
X159640710Y-60427211D01*
X159553109Y-60558314D01*
X159553102Y-60558327D01*
X159492764Y-60703998D01*
X159492761Y-60704010D01*
X159462000Y-60858653D01*
X159462000Y-61016346D01*
X159492761Y-61170989D01*
X159492764Y-61171001D01*
X159553102Y-61316672D01*
X159553108Y-61316683D01*
X159584392Y-61363503D01*
X159605269Y-61430180D01*
X159586784Y-61497560D01*
X159534805Y-61544250D01*
X159528742Y-61546954D01*
X159407963Y-61596982D01*
X159407953Y-61596987D01*
X159276850Y-61684588D01*
X159276846Y-61684591D01*
X159165352Y-61796085D01*
X159165349Y-61796089D01*
X159077748Y-61927192D01*
X159077741Y-61927205D01*
X159017403Y-62072876D01*
X159017400Y-62072888D01*
X158986639Y-62227531D01*
X150200500Y-62227531D01*
X150200500Y-51471153D01*
X151221500Y-51471153D01*
X151221500Y-51628846D01*
X151252261Y-51783489D01*
X151252264Y-51783501D01*
X151312602Y-51929172D01*
X151312609Y-51929185D01*
X151400210Y-52060288D01*
X151400213Y-52060292D01*
X151452240Y-52112319D01*
X151485725Y-52173642D01*
X151480741Y-52243334D01*
X151452240Y-52287681D01*
X151400213Y-52339707D01*
X151400210Y-52339711D01*
X151312609Y-52470814D01*
X151312602Y-52470827D01*
X151252264Y-52616498D01*
X151252261Y-52616510D01*
X151221500Y-52771153D01*
X151221500Y-52928846D01*
X151252261Y-53083489D01*
X151252264Y-53083501D01*
X151312602Y-53229172D01*
X151312609Y-53229185D01*
X151400210Y-53360288D01*
X151400213Y-53360292D01*
X151511707Y-53471786D01*
X151511711Y-53471789D01*
X151586703Y-53521898D01*
X151631508Y-53575511D01*
X151640215Y-53644836D01*
X151610060Y-53707863D01*
X151586703Y-53728102D01*
X151511711Y-53778210D01*
X151511707Y-53778213D01*
X151400213Y-53889707D01*
X151400210Y-53889711D01*
X151312609Y-54020814D01*
X151312602Y-54020827D01*
X151252264Y-54166498D01*
X151252261Y-54166510D01*
X151221500Y-54321153D01*
X151221500Y-54478846D01*
X151252261Y-54633489D01*
X151252264Y-54633501D01*
X151312602Y-54779172D01*
X151312609Y-54779185D01*
X151400210Y-54910288D01*
X151400213Y-54910292D01*
X151511707Y-55021786D01*
X151511711Y-55021789D01*
X151624118Y-55096898D01*
X151668923Y-55150510D01*
X151677630Y-55219835D01*
X151647475Y-55282863D01*
X151624118Y-55303102D01*
X151511711Y-55378210D01*
X151511707Y-55378213D01*
X151400213Y-55489707D01*
X151400210Y-55489711D01*
X151312609Y-55620814D01*
X151312602Y-55620827D01*
X151252264Y-55766498D01*
X151252261Y-55766510D01*
X151221500Y-55921153D01*
X151221500Y-56078846D01*
X151252261Y-56233489D01*
X151252264Y-56233501D01*
X151312602Y-56379172D01*
X151312609Y-56379185D01*
X151400210Y-56510288D01*
X151400213Y-56510292D01*
X151511707Y-56621786D01*
X151511711Y-56621789D01*
X151586703Y-56671898D01*
X151631508Y-56725511D01*
X151640215Y-56794836D01*
X151610060Y-56857863D01*
X151586703Y-56878102D01*
X151511711Y-56928210D01*
X151511707Y-56928213D01*
X151400213Y-57039707D01*
X151400210Y-57039711D01*
X151312609Y-57170814D01*
X151312602Y-57170827D01*
X151252264Y-57316498D01*
X151252261Y-57316510D01*
X151221500Y-57471153D01*
X151221500Y-57628846D01*
X151252261Y-57783489D01*
X151252264Y-57783501D01*
X151312602Y-57929172D01*
X151312609Y-57929185D01*
X151400210Y-58060288D01*
X151400213Y-58060292D01*
X151511707Y-58171786D01*
X151549289Y-58196898D01*
X151594093Y-58250511D01*
X151602800Y-58319836D01*
X151572645Y-58382863D01*
X151549289Y-58403102D01*
X151511707Y-58428213D01*
X151400213Y-58539707D01*
X151400210Y-58539711D01*
X151312609Y-58670814D01*
X151312602Y-58670827D01*
X151252264Y-58816498D01*
X151252261Y-58816510D01*
X151221500Y-58971153D01*
X151221500Y-59128846D01*
X151252261Y-59283489D01*
X151252264Y-59283501D01*
X151312602Y-59429172D01*
X151312609Y-59429185D01*
X151400210Y-59560288D01*
X151400213Y-59560292D01*
X151511707Y-59671786D01*
X151511711Y-59671789D01*
X151642814Y-59759390D01*
X151642827Y-59759397D01*
X151778520Y-59815602D01*
X151788503Y-59819737D01*
X151943153Y-59850499D01*
X151943156Y-59850500D01*
X151943158Y-59850500D01*
X151947500Y-59850500D01*
X152014539Y-59870185D01*
X152060294Y-59922989D01*
X152071500Y-59974500D01*
X152071500Y-59978846D01*
X152102261Y-60133489D01*
X152102264Y-60133501D01*
X152162602Y-60279172D01*
X152162609Y-60279185D01*
X152250210Y-60410288D01*
X152250213Y-60410292D01*
X152361707Y-60521786D01*
X152361711Y-60521789D01*
X152492814Y-60609390D01*
X152492827Y-60609397D01*
X152598028Y-60652972D01*
X152638503Y-60669737D01*
X152793153Y-60700499D01*
X152793156Y-60700500D01*
X152793158Y-60700500D01*
X152950844Y-60700500D01*
X152950845Y-60700499D01*
X153105497Y-60669737D01*
X153251179Y-60609394D01*
X153382289Y-60521789D01*
X153493789Y-60410289D01*
X153543898Y-60335296D01*
X153597510Y-60290491D01*
X153666835Y-60281784D01*
X153729862Y-60311938D01*
X153750102Y-60335296D01*
X153800210Y-60410288D01*
X153800213Y-60410292D01*
X153911707Y-60521786D01*
X153911711Y-60521789D01*
X154042814Y-60609390D01*
X154042827Y-60609397D01*
X154148028Y-60652972D01*
X154188503Y-60669737D01*
X154343153Y-60700499D01*
X154343156Y-60700500D01*
X154343158Y-60700500D01*
X154500844Y-60700500D01*
X154500845Y-60700499D01*
X154655497Y-60669737D01*
X154801179Y-60609394D01*
X154932289Y-60521789D01*
X155043789Y-60410289D01*
X155093898Y-60335296D01*
X155147510Y-60290491D01*
X155216835Y-60281784D01*
X155279862Y-60311938D01*
X155300102Y-60335296D01*
X155350210Y-60410288D01*
X155350213Y-60410292D01*
X155461707Y-60521786D01*
X155461711Y-60521789D01*
X155592814Y-60609390D01*
X155592827Y-60609397D01*
X155698028Y-60652972D01*
X155738503Y-60669737D01*
X155893153Y-60700499D01*
X155893156Y-60700500D01*
X155893158Y-60700500D01*
X156050844Y-60700500D01*
X156050845Y-60700499D01*
X156205497Y-60669737D01*
X156303445Y-60629165D01*
X156372911Y-60621697D01*
X156435390Y-60652972D01*
X156471043Y-60713060D01*
X156472512Y-60719534D01*
X156480261Y-60758492D01*
X156480264Y-60758501D01*
X156540602Y-60904172D01*
X156540609Y-60904185D01*
X156628210Y-61035288D01*
X156628213Y-61035292D01*
X156739707Y-61146786D01*
X156739711Y-61146789D01*
X156870814Y-61234390D01*
X156870827Y-61234397D01*
X157016498Y-61294735D01*
X157016503Y-61294737D01*
X157171153Y-61325499D01*
X157171156Y-61325500D01*
X157171158Y-61325500D01*
X157328844Y-61325500D01*
X157328845Y-61325499D01*
X157483497Y-61294737D01*
X157629179Y-61234394D01*
X157760289Y-61146789D01*
X157871789Y-61035289D01*
X157959394Y-60904179D01*
X158019737Y-60758497D01*
X158050500Y-60603842D01*
X158050500Y-60446158D01*
X158050500Y-60446155D01*
X158050499Y-60446153D01*
X158028448Y-60335296D01*
X158019737Y-60291503D01*
X157993479Y-60228109D01*
X157959397Y-60145827D01*
X157959390Y-60145814D01*
X157871789Y-60014711D01*
X157871786Y-60014707D01*
X157760292Y-59903213D01*
X157760288Y-59903210D01*
X157629185Y-59815609D01*
X157629172Y-59815602D01*
X157483501Y-59755264D01*
X157483493Y-59755262D01*
X157461571Y-59750901D01*
X157399660Y-59718514D01*
X157365088Y-59657798D01*
X157368829Y-59588028D01*
X157409697Y-59531357D01*
X157438313Y-59514722D01*
X157451179Y-59509394D01*
X157582289Y-59421789D01*
X157693789Y-59310289D01*
X157699087Y-59302358D01*
X157752696Y-59257554D01*
X157822021Y-59248844D01*
X157849638Y-59256685D01*
X157941503Y-59294737D01*
X158096153Y-59325499D01*
X158096156Y-59325500D01*
X158096158Y-59325500D01*
X158253844Y-59325500D01*
X158253845Y-59325499D01*
X158408497Y-59294737D01*
X158554179Y-59234394D01*
X158685289Y-59146789D01*
X158796789Y-59035289D01*
X158884394Y-58904179D01*
X158888209Y-58894970D01*
X158908036Y-58847101D01*
X158944737Y-58758497D01*
X158975500Y-58603842D01*
X158975500Y-58446158D01*
X158975500Y-58446155D01*
X158975499Y-58446153D01*
X158970459Y-58420814D01*
X158944737Y-58291503D01*
X158905551Y-58196898D01*
X158884397Y-58145827D01*
X158884390Y-58145814D01*
X158796789Y-58014711D01*
X158796786Y-58014707D01*
X158685292Y-57903213D01*
X158685288Y-57903210D01*
X158554185Y-57815609D01*
X158554172Y-57815602D01*
X158408501Y-57755264D01*
X158408489Y-57755261D01*
X158253845Y-57724500D01*
X158253842Y-57724500D01*
X158096158Y-57724500D01*
X158096155Y-57724500D01*
X157941510Y-57755261D01*
X157941494Y-57755265D01*
X157935096Y-57757916D01*
X157865627Y-57765383D01*
X157803149Y-57734107D01*
X157767498Y-57674017D01*
X157769994Y-57604191D01*
X157779395Y-57585021D01*
X157778521Y-57584554D01*
X157781390Y-57579184D01*
X157781394Y-57579179D01*
X157841737Y-57433497D01*
X157872500Y-57278842D01*
X157872500Y-57121158D01*
X157872500Y-57121155D01*
X157872499Y-57121153D01*
X157844046Y-56978111D01*
X157841737Y-56966503D01*
X157781394Y-56820821D01*
X157781390Y-56820814D01*
X157781125Y-56820418D01*
X180848765Y-56820418D01*
X180848765Y-56978111D01*
X180879526Y-57132754D01*
X180879529Y-57132766D01*
X180939867Y-57278437D01*
X180939874Y-57278450D01*
X181027475Y-57409553D01*
X181027478Y-57409557D01*
X181138972Y-57521051D01*
X181138976Y-57521054D01*
X181270079Y-57608655D01*
X181270092Y-57608662D01*
X181415763Y-57669000D01*
X181415768Y-57669002D01*
X181570418Y-57699764D01*
X181570421Y-57699765D01*
X181570423Y-57699765D01*
X181728109Y-57699765D01*
X181728110Y-57699764D01*
X181882762Y-57669002D01*
X182028444Y-57608659D01*
X182159554Y-57521054D01*
X182271054Y-57409554D01*
X182358659Y-57278444D01*
X182419002Y-57132762D01*
X182449765Y-56978107D01*
X182449765Y-56820423D01*
X182449765Y-56820420D01*
X182449764Y-56820418D01*
X182436784Y-56755165D01*
X182419002Y-56665768D01*
X182419000Y-56665763D01*
X182358662Y-56520092D01*
X182358655Y-56520079D01*
X182271054Y-56388976D01*
X182271051Y-56388972D01*
X182159557Y-56277478D01*
X182159553Y-56277475D01*
X182028450Y-56189874D01*
X182028437Y-56189867D01*
X181882766Y-56129529D01*
X181882754Y-56129526D01*
X181728110Y-56098765D01*
X181728107Y-56098765D01*
X181570423Y-56098765D01*
X181570420Y-56098765D01*
X181415775Y-56129526D01*
X181415763Y-56129529D01*
X181270092Y-56189867D01*
X181270079Y-56189874D01*
X181138976Y-56277475D01*
X181138972Y-56277478D01*
X181027478Y-56388972D01*
X181027475Y-56388976D01*
X180939874Y-56520079D01*
X180939867Y-56520092D01*
X180879529Y-56665763D01*
X180879526Y-56665775D01*
X180848765Y-56820418D01*
X157781125Y-56820418D01*
X157693789Y-56689711D01*
X157693786Y-56689707D01*
X157582292Y-56578213D01*
X157582288Y-56578210D01*
X157451185Y-56490609D01*
X157451172Y-56490602D01*
X157305501Y-56430264D01*
X157305489Y-56430261D01*
X157150845Y-56399500D01*
X157150842Y-56399500D01*
X156993158Y-56399500D01*
X156993155Y-56399500D01*
X156838510Y-56430261D01*
X156838498Y-56430264D01*
X156692827Y-56490602D01*
X156692814Y-56490609D01*
X156561711Y-56578210D01*
X156561707Y-56578213D01*
X156450213Y-56689707D01*
X156450210Y-56689711D01*
X156362609Y-56820814D01*
X156362602Y-56820827D01*
X156302264Y-56966498D01*
X156302261Y-56966510D01*
X156271500Y-57121153D01*
X156271500Y-57278846D01*
X156302261Y-57433489D01*
X156302264Y-57433501D01*
X156362602Y-57579172D01*
X156362609Y-57579185D01*
X156450210Y-57710288D01*
X156450213Y-57710292D01*
X156561707Y-57821786D01*
X156561711Y-57821789D01*
X156674118Y-57896898D01*
X156718923Y-57950510D01*
X156727630Y-58019835D01*
X156697475Y-58082863D01*
X156674118Y-58103102D01*
X156561711Y-58178210D01*
X156561707Y-58178213D01*
X156450213Y-58289707D01*
X156450210Y-58289711D01*
X156362609Y-58420814D01*
X156362602Y-58420827D01*
X156302264Y-58566498D01*
X156302261Y-58566510D01*
X156271500Y-58721153D01*
X156271500Y-58878846D01*
X156290084Y-58972276D01*
X156283857Y-59041868D01*
X156240993Y-59097045D01*
X156175103Y-59120289D01*
X156144276Y-59118084D01*
X156050846Y-59099500D01*
X156050842Y-59099500D01*
X155893158Y-59099500D01*
X155893155Y-59099500D01*
X155738510Y-59130261D01*
X155738498Y-59130264D01*
X155592827Y-59190602D01*
X155592814Y-59190609D01*
X155461711Y-59278210D01*
X155461707Y-59278213D01*
X155350213Y-59389707D01*
X155350210Y-59389711D01*
X155300102Y-59464703D01*
X155246489Y-59509508D01*
X155177164Y-59518215D01*
X155114137Y-59488060D01*
X155093898Y-59464703D01*
X155043789Y-59389711D01*
X155043786Y-59389707D01*
X154932292Y-59278213D01*
X154932288Y-59278210D01*
X154801185Y-59190609D01*
X154801172Y-59190602D01*
X154655501Y-59130264D01*
X154655489Y-59130261D01*
X154500845Y-59099500D01*
X154500842Y-59099500D01*
X154343158Y-59099500D01*
X154343155Y-59099500D01*
X154188510Y-59130261D01*
X154188498Y-59130264D01*
X154042827Y-59190602D01*
X154042814Y-59190609D01*
X153911711Y-59278210D01*
X153911707Y-59278213D01*
X153800213Y-59389707D01*
X153800210Y-59389711D01*
X153750102Y-59464703D01*
X153696489Y-59509508D01*
X153627164Y-59518215D01*
X153564137Y-59488060D01*
X153543898Y-59464703D01*
X153493789Y-59389711D01*
X153493786Y-59389707D01*
X153382292Y-59278213D01*
X153382288Y-59278210D01*
X153251185Y-59190609D01*
X153251172Y-59190602D01*
X153105501Y-59130264D01*
X153105489Y-59130261D01*
X152950845Y-59099500D01*
X152950842Y-59099500D01*
X152946500Y-59099500D01*
X152940261Y-59097668D01*
X152933870Y-59098855D01*
X152907147Y-59087944D01*
X152879461Y-59079815D01*
X152875204Y-59074903D01*
X152869184Y-59072445D01*
X152852600Y-59048816D01*
X152833706Y-59027011D01*
X152831851Y-59019252D01*
X152829046Y-59015255D01*
X152824947Y-58990363D01*
X152822603Y-58980554D01*
X152822500Y-58978028D01*
X152822500Y-58971158D01*
X152822147Y-58969385D01*
X152821877Y-58962756D01*
X152829514Y-58932188D01*
X152835384Y-58901221D01*
X152837919Y-58898545D01*
X152838813Y-58894970D01*
X152861770Y-58873377D01*
X152883445Y-58850506D01*
X152887864Y-58848834D01*
X152889708Y-58847101D01*
X152895093Y-58846101D01*
X152921580Y-58836085D01*
X152953497Y-58829737D01*
X153099179Y-58769394D01*
X153230289Y-58681789D01*
X153341789Y-58570289D01*
X153429394Y-58439179D01*
X153489737Y-58293497D01*
X153520500Y-58138842D01*
X153520500Y-57981158D01*
X153520500Y-57981155D01*
X153520499Y-57981153D01*
X153506225Y-57909394D01*
X153489737Y-57826503D01*
X153471925Y-57783501D01*
X153429397Y-57680827D01*
X153429390Y-57680814D01*
X153341789Y-57549711D01*
X153341786Y-57549707D01*
X153230292Y-57438213D01*
X153230288Y-57438210D01*
X153099185Y-57350609D01*
X153099172Y-57350602D01*
X152953501Y-57290264D01*
X152953491Y-57290261D01*
X152830373Y-57265771D01*
X152768462Y-57233386D01*
X152740004Y-57191607D01*
X152731395Y-57170823D01*
X152731390Y-57170814D01*
X152643789Y-57039711D01*
X152643786Y-57039707D01*
X152532292Y-56928213D01*
X152532288Y-56928210D01*
X152457296Y-56878102D01*
X152412491Y-56824490D01*
X152403784Y-56755165D01*
X152433938Y-56692138D01*
X152457296Y-56671898D01*
X152476055Y-56659363D01*
X152532289Y-56621789D01*
X152643789Y-56510289D01*
X152731394Y-56379179D01*
X152791737Y-56233497D01*
X152822500Y-56078842D01*
X152822500Y-55921158D01*
X152822500Y-55921155D01*
X152822499Y-55921153D01*
X152791738Y-55766510D01*
X152791737Y-55766503D01*
X152791735Y-55766498D01*
X152731397Y-55620827D01*
X152731390Y-55620814D01*
X152643789Y-55489711D01*
X152643786Y-55489707D01*
X152532292Y-55378213D01*
X152532288Y-55378210D01*
X152419881Y-55303102D01*
X152375076Y-55249490D01*
X152366369Y-55180165D01*
X152396523Y-55117137D01*
X152419881Y-55096898D01*
X152489321Y-55050499D01*
X152532289Y-55021789D01*
X152643789Y-54910289D01*
X152731394Y-54779179D01*
X152731395Y-54779176D01*
X152731397Y-54779173D01*
X152734719Y-54771153D01*
X163649500Y-54771153D01*
X163649500Y-54928846D01*
X163680261Y-55083489D01*
X163680264Y-55083501D01*
X163740602Y-55229172D01*
X163740609Y-55229185D01*
X163828210Y-55360288D01*
X163828213Y-55360292D01*
X163939707Y-55471786D01*
X163939711Y-55471789D01*
X164070814Y-55559390D01*
X164070827Y-55559397D01*
X164216498Y-55619735D01*
X164216503Y-55619737D01*
X164371153Y-55650499D01*
X164371156Y-55650500D01*
X164371158Y-55650500D01*
X164528844Y-55650500D01*
X164528845Y-55650499D01*
X164683497Y-55619737D01*
X164829179Y-55559394D01*
X164960289Y-55471789D01*
X165071789Y-55360289D01*
X165159394Y-55229179D01*
X165219737Y-55083497D01*
X165250500Y-54928842D01*
X165250500Y-54771158D01*
X165250500Y-54771155D01*
X165250499Y-54771153D01*
X165223117Y-54633497D01*
X165219737Y-54616503D01*
X165219735Y-54616498D01*
X165159397Y-54470827D01*
X165159390Y-54470814D01*
X165071789Y-54339711D01*
X165071786Y-54339707D01*
X164960292Y-54228213D01*
X164960288Y-54228210D01*
X164874897Y-54171153D01*
X178749500Y-54171153D01*
X178749500Y-54328846D01*
X178780261Y-54483489D01*
X178780264Y-54483501D01*
X178840602Y-54629172D01*
X178840609Y-54629185D01*
X178928210Y-54760288D01*
X178928213Y-54760292D01*
X179039707Y-54871786D01*
X179039711Y-54871789D01*
X179170814Y-54959390D01*
X179170827Y-54959397D01*
X179316498Y-55019735D01*
X179316503Y-55019737D01*
X179471153Y-55050499D01*
X179471156Y-55050500D01*
X179471158Y-55050500D01*
X179628844Y-55050500D01*
X179628845Y-55050499D01*
X179783497Y-55019737D01*
X179929179Y-54959394D01*
X180060289Y-54871789D01*
X180171789Y-54760289D01*
X180259394Y-54629179D01*
X180319737Y-54483497D01*
X180350500Y-54328842D01*
X180350500Y-54171158D01*
X180350500Y-54171155D01*
X180350499Y-54171153D01*
X180332419Y-54080261D01*
X180319737Y-54016503D01*
X180319735Y-54016498D01*
X180259397Y-53870827D01*
X180259390Y-53870814D01*
X180171789Y-53739711D01*
X180171786Y-53739707D01*
X180060292Y-53628213D01*
X180060288Y-53628210D01*
X179929185Y-53540609D01*
X179929172Y-53540602D01*
X179783501Y-53480264D01*
X179783489Y-53480261D01*
X179628845Y-53449500D01*
X179628842Y-53449500D01*
X179471158Y-53449500D01*
X179471155Y-53449500D01*
X179316510Y-53480261D01*
X179316498Y-53480264D01*
X179170827Y-53540602D01*
X179170814Y-53540609D01*
X179039711Y-53628210D01*
X179039707Y-53628213D01*
X178928213Y-53739707D01*
X178928210Y-53739711D01*
X178840609Y-53870814D01*
X178840602Y-53870827D01*
X178780264Y-54016498D01*
X178780261Y-54016510D01*
X178749500Y-54171153D01*
X164874897Y-54171153D01*
X164829185Y-54140609D01*
X164829172Y-54140602D01*
X164683501Y-54080264D01*
X164683489Y-54080261D01*
X164528845Y-54049500D01*
X164528842Y-54049500D01*
X164371158Y-54049500D01*
X164371155Y-54049500D01*
X164216510Y-54080261D01*
X164216498Y-54080264D01*
X164070827Y-54140602D01*
X164070814Y-54140609D01*
X163939711Y-54228210D01*
X163939707Y-54228213D01*
X163828213Y-54339707D01*
X163828210Y-54339711D01*
X163740609Y-54470814D01*
X163740602Y-54470827D01*
X163680264Y-54616498D01*
X163680261Y-54616510D01*
X163649500Y-54771153D01*
X152734719Y-54771153D01*
X152756895Y-54717614D01*
X152756895Y-54717613D01*
X152791737Y-54633497D01*
X152822500Y-54478842D01*
X152822500Y-54321158D01*
X152822500Y-54321155D01*
X152822499Y-54321153D01*
X152804012Y-54228213D01*
X152791737Y-54166503D01*
X152791735Y-54166498D01*
X152731397Y-54020827D01*
X152731390Y-54020814D01*
X152643789Y-53889711D01*
X152643786Y-53889707D01*
X152532292Y-53778213D01*
X152532288Y-53778210D01*
X152457296Y-53728102D01*
X152412491Y-53674490D01*
X152403784Y-53605165D01*
X152433938Y-53542138D01*
X152457296Y-53521898D01*
X152519605Y-53480264D01*
X152532289Y-53471789D01*
X152643789Y-53360289D01*
X152731394Y-53229179D01*
X152791737Y-53083497D01*
X152822500Y-52928842D01*
X152822500Y-52771158D01*
X152822500Y-52771155D01*
X152822499Y-52771153D01*
X152791737Y-52616503D01*
X152791735Y-52616498D01*
X152731397Y-52470827D01*
X152731390Y-52470814D01*
X152643789Y-52339711D01*
X152643786Y-52339707D01*
X152591760Y-52287681D01*
X152558275Y-52226358D01*
X152563259Y-52156666D01*
X152591760Y-52112319D01*
X152643786Y-52060292D01*
X152643789Y-52060289D01*
X152731394Y-51929179D01*
X152791737Y-51783497D01*
X152822500Y-51628842D01*
X152822500Y-51524500D01*
X152842185Y-51457461D01*
X152894989Y-51411706D01*
X152946500Y-51400500D01*
X153000844Y-51400500D01*
X153000845Y-51400499D01*
X153155497Y-51369737D01*
X153301179Y-51309394D01*
X153432289Y-51221789D01*
X153483264Y-51170814D01*
X153534319Y-51119760D01*
X153595642Y-51086275D01*
X153665334Y-51091259D01*
X153709681Y-51119760D01*
X153811707Y-51221786D01*
X153811711Y-51221789D01*
X153942814Y-51309390D01*
X153942827Y-51309397D01*
X154080683Y-51366498D01*
X154088503Y-51369737D01*
X154207012Y-51393310D01*
X154243153Y-51400499D01*
X154243156Y-51400500D01*
X154243158Y-51400500D01*
X154400844Y-51400500D01*
X154400845Y-51400499D01*
X154555497Y-51369737D01*
X154701179Y-51309394D01*
X154832289Y-51221789D01*
X154943789Y-51110289D01*
X154951145Y-51099279D01*
X154968898Y-51072712D01*
X155022510Y-51027906D01*
X155091835Y-51019199D01*
X155154862Y-51049353D01*
X155175102Y-51072712D01*
X155200207Y-51110284D01*
X155200213Y-51110292D01*
X155311707Y-51221786D01*
X155311711Y-51221789D01*
X155442814Y-51309390D01*
X155442827Y-51309397D01*
X155580683Y-51366498D01*
X155588503Y-51369737D01*
X155707012Y-51393310D01*
X155743153Y-51400499D01*
X155743156Y-51400500D01*
X155886629Y-51400500D01*
X155953668Y-51420185D01*
X155999423Y-51472989D01*
X156009367Y-51542147D01*
X155980342Y-51605703D01*
X155955520Y-51627602D01*
X155909711Y-51658210D01*
X155909707Y-51658213D01*
X155798213Y-51769707D01*
X155798210Y-51769711D01*
X155710609Y-51900814D01*
X155710602Y-51900827D01*
X155650264Y-52046498D01*
X155650261Y-52046510D01*
X155619500Y-52201153D01*
X155619500Y-52358846D01*
X155650261Y-52513489D01*
X155650264Y-52513501D01*
X155710602Y-52659172D01*
X155710609Y-52659185D01*
X155798210Y-52790288D01*
X155798213Y-52790292D01*
X155909707Y-52901786D01*
X155909711Y-52901789D01*
X156040814Y-52989390D01*
X156040827Y-52989397D01*
X156186498Y-53049735D01*
X156186503Y-53049737D01*
X156341158Y-53080500D01*
X156341163Y-53080500D01*
X156347218Y-53081097D01*
X156346935Y-53083960D01*
X156402189Y-53100185D01*
X156447944Y-53152989D01*
X156457888Y-53222147D01*
X156449711Y-53251952D01*
X156402264Y-53366498D01*
X156402261Y-53366510D01*
X156371500Y-53521153D01*
X156371500Y-53678846D01*
X156402261Y-53833489D01*
X156402264Y-53833501D01*
X156462602Y-53979172D01*
X156462609Y-53979185D01*
X156550210Y-54110288D01*
X156550213Y-54110292D01*
X156661707Y-54221786D01*
X156661711Y-54221789D01*
X156792814Y-54309390D01*
X156792827Y-54309397D01*
X156866013Y-54339711D01*
X156938503Y-54369737D01*
X157093153Y-54400499D01*
X157093156Y-54400500D01*
X157093158Y-54400500D01*
X157250844Y-54400500D01*
X157250845Y-54400499D01*
X157405497Y-54369737D01*
X157551179Y-54309394D01*
X157682289Y-54221789D01*
X157793789Y-54110289D01*
X157881394Y-53979179D01*
X157941737Y-53833497D01*
X157972500Y-53678842D01*
X157972500Y-53521158D01*
X157970268Y-53509937D01*
X157976494Y-53440346D01*
X158019357Y-53385168D01*
X158085246Y-53361922D01*
X158139336Y-53371182D01*
X158251918Y-53417816D01*
X158411206Y-53449500D01*
X158416228Y-53450499D01*
X158416232Y-53450500D01*
X158416233Y-53450500D01*
X158583768Y-53450500D01*
X158583769Y-53450499D01*
X158748082Y-53417816D01*
X158902863Y-53353703D01*
X159042162Y-53260626D01*
X159160626Y-53142162D01*
X159253703Y-53002863D01*
X159317816Y-52848082D01*
X159350500Y-52683767D01*
X159350500Y-52516233D01*
X159317816Y-52351918D01*
X159255369Y-52201158D01*
X159253704Y-52197139D01*
X159160626Y-52057837D01*
X159042162Y-51939373D01*
X158902860Y-51846295D01*
X158748082Y-51782184D01*
X158748074Y-51782182D01*
X158583771Y-51749500D01*
X158583767Y-51749500D01*
X158416233Y-51749500D01*
X158416228Y-51749500D01*
X158251925Y-51782182D01*
X158251913Y-51782185D01*
X158143694Y-51827011D01*
X158074225Y-51834480D01*
X158011746Y-51803205D01*
X157976094Y-51743115D01*
X157972838Y-51724597D01*
X157972500Y-51721166D01*
X157972500Y-51721158D01*
X157941737Y-51566503D01*
X157941735Y-51566498D01*
X157881397Y-51420827D01*
X157881390Y-51420814D01*
X157793789Y-51289711D01*
X157793786Y-51289707D01*
X157682292Y-51178213D01*
X157682288Y-51178210D01*
X157551185Y-51090609D01*
X157551172Y-51090602D01*
X157405501Y-51030264D01*
X157405489Y-51030261D01*
X157250845Y-50999500D01*
X157250842Y-50999500D01*
X157093158Y-50999500D01*
X157093155Y-50999500D01*
X156938510Y-51030261D01*
X156938498Y-51030264D01*
X156792827Y-51090602D01*
X156792809Y-51090612D01*
X156704363Y-51149710D01*
X156637686Y-51170588D01*
X156570306Y-51152103D01*
X156523616Y-51100124D01*
X156512440Y-51031154D01*
X156529606Y-50985134D01*
X156528521Y-50984554D01*
X156531390Y-50979184D01*
X156531394Y-50979179D01*
X156531793Y-50978217D01*
X156572954Y-50878844D01*
X156591737Y-50833497D01*
X156622500Y-50678842D01*
X156622500Y-50521158D01*
X156622500Y-50521155D01*
X156622499Y-50521153D01*
X156620159Y-50509390D01*
X156591737Y-50366503D01*
X156576138Y-50328844D01*
X156531397Y-50220827D01*
X156531390Y-50220814D01*
X156443789Y-50089711D01*
X156443786Y-50089707D01*
X156332292Y-49978213D01*
X156332288Y-49978210D01*
X156246897Y-49921153D01*
X163649500Y-49921153D01*
X163649500Y-50078846D01*
X163680261Y-50233489D01*
X163680264Y-50233501D01*
X163740602Y-50379172D01*
X163740609Y-50379185D01*
X163828210Y-50510288D01*
X163828213Y-50510292D01*
X163939707Y-50621786D01*
X163939711Y-50621789D01*
X164070814Y-50709390D01*
X164070827Y-50709397D01*
X164178239Y-50753888D01*
X164232643Y-50797729D01*
X164254708Y-50864023D01*
X164237429Y-50931722D01*
X164199682Y-50971548D01*
X164189712Y-50978210D01*
X164189704Y-50978217D01*
X164078213Y-51089707D01*
X164078210Y-51089711D01*
X163990609Y-51220814D01*
X163990602Y-51220827D01*
X163930264Y-51366498D01*
X163930261Y-51366510D01*
X163899500Y-51521153D01*
X163899500Y-51678846D01*
X163930260Y-51833488D01*
X163930261Y-51833489D01*
X163930263Y-51833497D01*
X163958354Y-51901316D01*
X163965822Y-51970784D01*
X163934546Y-52033263D01*
X163931474Y-52036446D01*
X163878214Y-52089706D01*
X163878210Y-52089711D01*
X163790609Y-52220814D01*
X163790602Y-52220827D01*
X163730264Y-52366498D01*
X163730261Y-52366510D01*
X163699500Y-52521153D01*
X163699500Y-52678846D01*
X163730261Y-52833489D01*
X163730264Y-52833501D01*
X163790602Y-52979172D01*
X163790609Y-52979185D01*
X163878210Y-53110288D01*
X163878213Y-53110292D01*
X163989707Y-53221786D01*
X163989711Y-53221789D01*
X164120814Y-53309390D01*
X164120827Y-53309397D01*
X164258683Y-53366498D01*
X164266503Y-53369737D01*
X164421153Y-53400499D01*
X164421156Y-53400500D01*
X164421158Y-53400500D01*
X164578844Y-53400500D01*
X164578845Y-53400499D01*
X164733497Y-53369737D01*
X164879179Y-53309394D01*
X165010289Y-53221789D01*
X165121789Y-53110289D01*
X165209394Y-52979179D01*
X165269737Y-52833497D01*
X165300500Y-52678842D01*
X165300500Y-52521158D01*
X165300500Y-52521155D01*
X165300499Y-52521153D01*
X165269739Y-52366511D01*
X165269736Y-52366501D01*
X165263698Y-52351925D01*
X165241645Y-52298684D01*
X165234177Y-52229216D01*
X165265452Y-52166737D01*
X165268527Y-52163551D01*
X165321786Y-52110292D01*
X165321789Y-52110289D01*
X165409394Y-51979179D01*
X165469737Y-51833497D01*
X165500500Y-51678842D01*
X165500500Y-51561427D01*
X165520185Y-51494388D01*
X165555610Y-51458325D01*
X165593555Y-51432969D01*
X165610289Y-51421789D01*
X165685925Y-51346153D01*
X182674500Y-51346153D01*
X182674500Y-51503846D01*
X182705261Y-51658489D01*
X182705264Y-51658501D01*
X182765602Y-51804172D01*
X182765609Y-51804185D01*
X182853210Y-51935288D01*
X182853213Y-51935292D01*
X182964707Y-52046786D01*
X182964711Y-52046789D01*
X183095814Y-52134390D01*
X183095827Y-52134397D01*
X183241498Y-52194735D01*
X183241503Y-52194737D01*
X183377502Y-52221789D01*
X183396153Y-52225499D01*
X183396156Y-52225500D01*
X183396158Y-52225500D01*
X183553844Y-52225500D01*
X183553845Y-52225499D01*
X183708497Y-52194737D01*
X183854179Y-52134394D01*
X183985289Y-52046789D01*
X184096789Y-51935289D01*
X184184394Y-51804179D01*
X184184798Y-51803205D01*
X184244735Y-51658501D01*
X184244737Y-51658497D01*
X184275500Y-51503842D01*
X184275500Y-51346158D01*
X184275500Y-51346155D01*
X184275499Y-51346153D01*
X184264271Y-51289707D01*
X184244737Y-51191503D01*
X184236170Y-51170821D01*
X184184397Y-51045827D01*
X184184390Y-51045814D01*
X184096789Y-50914711D01*
X184096786Y-50914707D01*
X183985292Y-50803213D01*
X183985288Y-50803210D01*
X183854185Y-50715609D01*
X183854172Y-50715602D01*
X183708501Y-50655264D01*
X183708489Y-50655261D01*
X183553845Y-50624500D01*
X183553842Y-50624500D01*
X183396158Y-50624500D01*
X183396155Y-50624500D01*
X183241510Y-50655261D01*
X183241498Y-50655264D01*
X183095827Y-50715602D01*
X183095814Y-50715609D01*
X182964711Y-50803210D01*
X182964707Y-50803213D01*
X182853213Y-50914707D01*
X182853210Y-50914711D01*
X182765609Y-51045814D01*
X182765602Y-51045827D01*
X182705264Y-51191498D01*
X182705261Y-51191510D01*
X182674500Y-51346153D01*
X165685925Y-51346153D01*
X165721789Y-51310289D01*
X165809394Y-51179179D01*
X165812854Y-51170827D01*
X165846079Y-51090612D01*
X165869737Y-51033497D01*
X165900500Y-50878842D01*
X165900500Y-50721158D01*
X165900500Y-50721155D01*
X165900499Y-50721153D01*
X165894807Y-50692539D01*
X165869737Y-50566503D01*
X165850955Y-50521158D01*
X165809397Y-50420827D01*
X165809390Y-50420814D01*
X165721789Y-50289711D01*
X165721786Y-50289707D01*
X165610292Y-50178213D01*
X165610288Y-50178210D01*
X165479185Y-50090609D01*
X165479172Y-50090602D01*
X165327870Y-50027932D01*
X165328858Y-50025545D01*
X165327116Y-50024401D01*
X165314132Y-50021484D01*
X165298471Y-50005607D01*
X165279826Y-49993374D01*
X165273321Y-49980111D01*
X165265066Y-49971742D01*
X165258270Y-49949421D01*
X165252958Y-49938589D01*
X165250500Y-49926905D01*
X165250500Y-49921158D01*
X165219737Y-49766503D01*
X165200953Y-49721153D01*
X165899500Y-49721153D01*
X165899500Y-49878846D01*
X165930261Y-50033489D01*
X165930264Y-50033501D01*
X165990602Y-50179172D01*
X165990609Y-50179185D01*
X166078210Y-50310288D01*
X166078213Y-50310292D01*
X166189707Y-50421786D01*
X166189711Y-50421789D01*
X166320814Y-50509390D01*
X166320827Y-50509397D01*
X166443283Y-50560119D01*
X166466503Y-50569737D01*
X166621153Y-50600499D01*
X166621156Y-50600500D01*
X166621158Y-50600500D01*
X166778844Y-50600500D01*
X166778845Y-50600499D01*
X166933497Y-50569737D01*
X167079179Y-50509394D01*
X167210289Y-50421789D01*
X167321789Y-50310289D01*
X167409394Y-50179179D01*
X167412719Y-50171153D01*
X167443775Y-50096175D01*
X167469737Y-50033497D01*
X167500500Y-49878842D01*
X167500500Y-49721158D01*
X167500500Y-49721155D01*
X167500499Y-49721153D01*
X167474264Y-49589257D01*
X167470662Y-49571153D01*
X169779500Y-49571153D01*
X169779500Y-49728846D01*
X169810261Y-49883489D01*
X169810264Y-49883501D01*
X169870602Y-50029172D01*
X169870609Y-50029185D01*
X169958210Y-50160288D01*
X169958213Y-50160292D01*
X170069707Y-50271786D01*
X170069711Y-50271789D01*
X170200814Y-50359390D01*
X170200827Y-50359397D01*
X170346498Y-50419735D01*
X170346503Y-50419737D01*
X170501153Y-50450499D01*
X170501156Y-50450500D01*
X170501158Y-50450500D01*
X170658844Y-50450500D01*
X170761836Y-50430013D01*
X170793140Y-50423786D01*
X170862732Y-50430013D01*
X170886223Y-50442301D01*
X170986628Y-50509390D01*
X170986641Y-50509397D01*
X171109097Y-50560119D01*
X171132317Y-50569737D01*
X171286967Y-50600499D01*
X171286970Y-50600500D01*
X171286972Y-50600500D01*
X171444658Y-50600500D01*
X171444659Y-50600499D01*
X171599311Y-50569737D01*
X171744993Y-50509394D01*
X171790793Y-50478790D01*
X171857469Y-50457912D01*
X171907136Y-50467331D01*
X172056878Y-50529355D01*
X172056883Y-50529357D01*
X172211533Y-50560119D01*
X172211536Y-50560120D01*
X172211538Y-50560120D01*
X172369224Y-50560120D01*
X172369225Y-50560119D01*
X172523877Y-50529357D01*
X172669559Y-50469014D01*
X172800669Y-50381409D01*
X172800673Y-50381404D01*
X172802310Y-50380311D01*
X172868988Y-50359433D01*
X172918654Y-50368852D01*
X173041498Y-50419735D01*
X173041503Y-50419737D01*
X173196153Y-50450499D01*
X173196156Y-50450500D01*
X173196158Y-50450500D01*
X173353844Y-50450500D01*
X173353845Y-50450499D01*
X173508497Y-50419737D01*
X173654179Y-50359394D01*
X173785289Y-50271789D01*
X173885925Y-50171153D01*
X174249500Y-50171153D01*
X174249500Y-50328846D01*
X174280261Y-50483489D01*
X174280264Y-50483501D01*
X174340602Y-50629172D01*
X174340609Y-50629185D01*
X174428210Y-50760288D01*
X174428213Y-50760292D01*
X174539707Y-50871786D01*
X174539711Y-50871789D01*
X174670814Y-50959390D01*
X174670827Y-50959397D01*
X174732963Y-50985134D01*
X174816503Y-51019737D01*
X174965392Y-51049353D01*
X174971153Y-51050499D01*
X174971156Y-51050500D01*
X174971158Y-51050500D01*
X175128844Y-51050500D01*
X175128845Y-51050499D01*
X175283497Y-51019737D01*
X175429179Y-50959394D01*
X175560289Y-50871789D01*
X175671789Y-50760289D01*
X175759394Y-50629179D01*
X175819737Y-50483497D01*
X175850500Y-50328842D01*
X175850500Y-50171158D01*
X175850500Y-50171155D01*
X175850499Y-50171153D01*
X175835585Y-50096175D01*
X175819737Y-50016503D01*
X175791951Y-49949421D01*
X175759397Y-49870827D01*
X175759390Y-49870814D01*
X175671789Y-49739711D01*
X175671786Y-49739707D01*
X175560289Y-49628210D01*
X175500473Y-49588243D01*
X175429185Y-49540609D01*
X175429172Y-49540602D01*
X175309971Y-49491228D01*
X181574500Y-49491228D01*
X181574500Y-49658771D01*
X181607182Y-49823074D01*
X181607184Y-49823082D01*
X181671295Y-49977860D01*
X181764373Y-50117162D01*
X181882837Y-50235626D01*
X181975494Y-50297537D01*
X182022137Y-50328703D01*
X182022138Y-50328703D01*
X182022139Y-50328704D01*
X182022477Y-50328844D01*
X182176918Y-50392816D01*
X182332616Y-50423786D01*
X182341228Y-50425499D01*
X182341232Y-50425500D01*
X182341233Y-50425500D01*
X182508768Y-50425500D01*
X182508769Y-50425499D01*
X182673082Y-50392816D01*
X182827863Y-50328703D01*
X182967162Y-50235626D01*
X183085626Y-50117162D01*
X183178703Y-49977863D01*
X183242816Y-49823082D01*
X183275500Y-49658767D01*
X183275500Y-49491233D01*
X183242816Y-49326918D01*
X183178703Y-49172137D01*
X183131643Y-49101707D01*
X183085626Y-49032837D01*
X182967162Y-48914373D01*
X182827860Y-48821295D01*
X182673082Y-48757184D01*
X182673074Y-48757182D01*
X182508771Y-48724500D01*
X182508767Y-48724500D01*
X182341233Y-48724500D01*
X182341228Y-48724500D01*
X182176925Y-48757182D01*
X182176917Y-48757184D01*
X182022139Y-48821295D01*
X181882837Y-48914373D01*
X181764373Y-49032837D01*
X181671295Y-49172139D01*
X181607184Y-49326917D01*
X181607182Y-49326925D01*
X181574500Y-49491228D01*
X175309971Y-49491228D01*
X175283501Y-49480264D01*
X175283489Y-49480261D01*
X175128845Y-49449500D01*
X175128842Y-49449500D01*
X174971158Y-49449500D01*
X174971155Y-49449500D01*
X174816510Y-49480261D01*
X174816498Y-49480264D01*
X174670827Y-49540602D01*
X174670814Y-49540609D01*
X174539711Y-49628210D01*
X174539707Y-49628213D01*
X174428213Y-49739707D01*
X174428210Y-49739711D01*
X174340609Y-49870814D01*
X174340602Y-49870827D01*
X174280264Y-50016498D01*
X174280261Y-50016510D01*
X174249500Y-50171153D01*
X173885925Y-50171153D01*
X173896789Y-50160289D01*
X173943353Y-50090602D01*
X173984390Y-50029185D01*
X173984390Y-50029184D01*
X173984394Y-50029179D01*
X174044737Y-49883497D01*
X174075500Y-49728842D01*
X174075500Y-49571158D01*
X174075500Y-49571155D01*
X174075499Y-49571153D01*
X174059602Y-49491233D01*
X174044737Y-49416503D01*
X174007630Y-49326917D01*
X173984397Y-49270827D01*
X173984390Y-49270814D01*
X173896789Y-49139711D01*
X173896786Y-49139707D01*
X173785292Y-49028213D01*
X173785288Y-49028210D01*
X173654185Y-48940609D01*
X173654172Y-48940602D01*
X173508501Y-48880264D01*
X173508489Y-48880261D01*
X173353845Y-48849500D01*
X173353842Y-48849500D01*
X173196158Y-48849500D01*
X173196155Y-48849500D01*
X173041510Y-48880261D01*
X173041498Y-48880264D01*
X172895827Y-48940602D01*
X172895809Y-48940612D01*
X172763066Y-49029308D01*
X172696389Y-49050186D01*
X172646724Y-49040767D01*
X172523881Y-48989884D01*
X172523869Y-48989881D01*
X172369225Y-48959120D01*
X172369222Y-48959120D01*
X172211538Y-48959120D01*
X172211535Y-48959120D01*
X172056890Y-48989881D01*
X172056878Y-48989884D01*
X171911208Y-49050222D01*
X171911192Y-49050231D01*
X171865397Y-49080830D01*
X171798720Y-49101707D01*
X171749056Y-49092288D01*
X171599315Y-49030264D01*
X171599303Y-49030261D01*
X171444659Y-48999500D01*
X171444656Y-48999500D01*
X171286972Y-48999500D01*
X171286967Y-48999500D01*
X171152672Y-49026213D01*
X171083080Y-49019986D01*
X171059590Y-49007698D01*
X170959185Y-48940609D01*
X170959172Y-48940602D01*
X170813501Y-48880264D01*
X170813489Y-48880261D01*
X170658845Y-48849500D01*
X170658842Y-48849500D01*
X170501158Y-48849500D01*
X170501155Y-48849500D01*
X170346510Y-48880261D01*
X170346498Y-48880264D01*
X170200827Y-48940602D01*
X170200814Y-48940609D01*
X170069711Y-49028210D01*
X170069707Y-49028213D01*
X169958213Y-49139707D01*
X169958210Y-49139711D01*
X169870609Y-49270814D01*
X169870602Y-49270827D01*
X169810264Y-49416498D01*
X169810261Y-49416510D01*
X169779500Y-49571153D01*
X167470662Y-49571153D01*
X167469738Y-49566507D01*
X167469735Y-49566498D01*
X167409397Y-49420827D01*
X167409390Y-49420814D01*
X167321789Y-49289711D01*
X167321786Y-49289707D01*
X167210292Y-49178213D01*
X167210288Y-49178210D01*
X167079185Y-49090609D01*
X167079172Y-49090602D01*
X166933501Y-49030264D01*
X166933489Y-49030261D01*
X166778845Y-48999500D01*
X166778842Y-48999500D01*
X166621158Y-48999500D01*
X166621155Y-48999500D01*
X166466510Y-49030261D01*
X166466498Y-49030264D01*
X166320827Y-49090602D01*
X166320814Y-49090609D01*
X166189711Y-49178210D01*
X166189707Y-49178213D01*
X166078213Y-49289707D01*
X166078210Y-49289711D01*
X165990609Y-49420814D01*
X165990602Y-49420827D01*
X165930264Y-49566498D01*
X165930261Y-49566510D01*
X165899500Y-49721153D01*
X165200953Y-49721153D01*
X165159397Y-49620827D01*
X165159390Y-49620814D01*
X165071789Y-49489711D01*
X165071786Y-49489707D01*
X164960292Y-49378213D01*
X164960288Y-49378210D01*
X164829185Y-49290609D01*
X164829172Y-49290602D01*
X164683501Y-49230264D01*
X164683489Y-49230261D01*
X164528845Y-49199500D01*
X164528842Y-49199500D01*
X164371158Y-49199500D01*
X164371155Y-49199500D01*
X164216510Y-49230261D01*
X164216498Y-49230264D01*
X164070827Y-49290602D01*
X164070814Y-49290609D01*
X163939711Y-49378210D01*
X163939707Y-49378213D01*
X163828213Y-49489707D01*
X163828210Y-49489711D01*
X163740609Y-49620814D01*
X163740602Y-49620827D01*
X163680264Y-49766498D01*
X163680261Y-49766510D01*
X163649500Y-49921153D01*
X156246897Y-49921153D01*
X156201185Y-49890609D01*
X156201172Y-49890602D01*
X156055501Y-49830264D01*
X156055489Y-49830261D01*
X155900845Y-49799500D01*
X155900842Y-49799500D01*
X155743158Y-49799500D01*
X155743155Y-49799500D01*
X155588510Y-49830261D01*
X155588498Y-49830264D01*
X155442827Y-49890602D01*
X155442814Y-49890609D01*
X155311711Y-49978210D01*
X155311707Y-49978213D01*
X155200213Y-50089707D01*
X155175102Y-50127289D01*
X155121489Y-50172093D01*
X155052164Y-50180800D01*
X154989137Y-50150645D01*
X154968898Y-50127289D01*
X154943786Y-50089707D01*
X154832292Y-49978213D01*
X154832288Y-49978210D01*
X154701185Y-49890609D01*
X154701172Y-49890602D01*
X154555501Y-49830264D01*
X154555489Y-49830261D01*
X154400845Y-49799500D01*
X154400842Y-49799500D01*
X154243158Y-49799500D01*
X154243155Y-49799500D01*
X154088510Y-49830261D01*
X154088498Y-49830264D01*
X153942827Y-49890602D01*
X153942814Y-49890609D01*
X153811711Y-49978210D01*
X153811707Y-49978213D01*
X153709681Y-50080240D01*
X153648358Y-50113725D01*
X153578666Y-50108741D01*
X153534319Y-50080240D01*
X153432292Y-49978213D01*
X153432288Y-49978210D01*
X153301185Y-49890609D01*
X153301172Y-49890602D01*
X153155501Y-49830264D01*
X153155489Y-49830261D01*
X153000845Y-49799500D01*
X153000842Y-49799500D01*
X152843158Y-49799500D01*
X152843155Y-49799500D01*
X152688510Y-49830261D01*
X152688498Y-49830264D01*
X152542827Y-49890602D01*
X152542814Y-49890609D01*
X152411711Y-49978210D01*
X152411707Y-49978213D01*
X152300213Y-50089707D01*
X152300210Y-50089711D01*
X152212609Y-50220814D01*
X152212602Y-50220827D01*
X152152264Y-50366498D01*
X152152261Y-50366510D01*
X152121500Y-50521153D01*
X152121500Y-50625500D01*
X152101815Y-50692539D01*
X152049011Y-50738294D01*
X151997500Y-50749500D01*
X151943155Y-50749500D01*
X151788510Y-50780261D01*
X151788498Y-50780264D01*
X151642827Y-50840602D01*
X151642814Y-50840609D01*
X151511711Y-50928210D01*
X151511707Y-50928213D01*
X151400213Y-51039707D01*
X151400210Y-51039711D01*
X151312609Y-51170814D01*
X151312602Y-51170827D01*
X151252264Y-51316498D01*
X151252261Y-51316510D01*
X151221500Y-51471153D01*
X150200500Y-51471153D01*
X150200500Y-47116228D01*
X158949500Y-47116228D01*
X158949500Y-47283771D01*
X158982182Y-47448074D01*
X158982184Y-47448082D01*
X159046295Y-47602860D01*
X159139373Y-47742162D01*
X159257837Y-47860626D01*
X159350494Y-47922537D01*
X159397137Y-47953703D01*
X159551918Y-48017816D01*
X159716228Y-48050499D01*
X159716232Y-48050500D01*
X159716233Y-48050500D01*
X159883768Y-48050500D01*
X159883769Y-48050499D01*
X160048082Y-48017816D01*
X160202863Y-47953703D01*
X160342162Y-47860626D01*
X160460626Y-47742162D01*
X160553703Y-47602863D01*
X160617816Y-47448082D01*
X160650500Y-47283767D01*
X160650500Y-47116233D01*
X160617816Y-46951918D01*
X160553703Y-46797137D01*
X160495672Y-46710288D01*
X160460626Y-46657837D01*
X160342162Y-46539373D01*
X160202860Y-46446295D01*
X160048082Y-46382184D01*
X160048074Y-46382182D01*
X159883771Y-46349500D01*
X159883767Y-46349500D01*
X159716233Y-46349500D01*
X159716228Y-46349500D01*
X159551925Y-46382182D01*
X159551917Y-46382184D01*
X159397139Y-46446295D01*
X159257837Y-46539373D01*
X159139373Y-46657837D01*
X159046295Y-46797139D01*
X158982184Y-46951917D01*
X158982182Y-46951925D01*
X158949500Y-47116228D01*
X150200500Y-47116228D01*
X150200500Y-46121153D01*
X154624500Y-46121153D01*
X154624500Y-46278846D01*
X154655261Y-46433489D01*
X154655264Y-46433501D01*
X154715602Y-46579172D01*
X154715609Y-46579185D01*
X154803210Y-46710288D01*
X154803213Y-46710292D01*
X154914707Y-46821786D01*
X154914711Y-46821789D01*
X155045814Y-46909390D01*
X155045827Y-46909397D01*
X155191498Y-46969735D01*
X155191503Y-46969737D01*
X155346153Y-47000499D01*
X155346156Y-47000500D01*
X155346158Y-47000500D01*
X155503844Y-47000500D01*
X155564051Y-46988524D01*
X155564051Y-46988523D01*
X155658497Y-46969737D01*
X155804179Y-46909394D01*
X155935289Y-46821789D01*
X156046789Y-46710289D01*
X156134394Y-46579179D01*
X156194737Y-46433497D01*
X156225500Y-46278842D01*
X156225500Y-46121158D01*
X156225500Y-46121155D01*
X156225499Y-46121153D01*
X156203447Y-46010292D01*
X156194737Y-45966503D01*
X156158569Y-45879185D01*
X156134397Y-45820827D01*
X156134390Y-45820814D01*
X156046789Y-45689711D01*
X156046786Y-45689707D01*
X155935292Y-45578213D01*
X155935288Y-45578210D01*
X155845429Y-45518168D01*
X155804185Y-45490609D01*
X155804172Y-45490602D01*
X155658501Y-45430264D01*
X155658489Y-45430261D01*
X155612701Y-45421153D01*
X161099500Y-45421153D01*
X161099500Y-45578846D01*
X161130261Y-45733489D01*
X161130264Y-45733501D01*
X161190602Y-45879172D01*
X161190609Y-45879185D01*
X161278210Y-46010288D01*
X161278213Y-46010292D01*
X161389707Y-46121786D01*
X161389711Y-46121789D01*
X161520814Y-46209390D01*
X161520827Y-46209397D01*
X161620060Y-46250500D01*
X161666503Y-46269737D01*
X161821153Y-46300499D01*
X161821156Y-46300500D01*
X161821158Y-46300500D01*
X161978844Y-46300500D01*
X161978845Y-46300499D01*
X162126378Y-46271153D01*
X171299500Y-46271153D01*
X171299500Y-46428846D01*
X171330261Y-46583489D01*
X171330264Y-46583501D01*
X171390602Y-46729172D01*
X171390609Y-46729185D01*
X171478210Y-46860288D01*
X171478213Y-46860292D01*
X171589707Y-46971786D01*
X171589711Y-46971789D01*
X171720814Y-47059390D01*
X171720827Y-47059397D01*
X171866498Y-47119735D01*
X171866503Y-47119737D01*
X172021153Y-47150499D01*
X172021156Y-47150500D01*
X172021158Y-47150500D01*
X172178844Y-47150500D01*
X172178845Y-47150499D01*
X172333497Y-47119737D01*
X172479179Y-47059394D01*
X172610289Y-46971789D01*
X172721789Y-46860289D01*
X172809394Y-46729179D01*
X172869737Y-46583497D01*
X172900500Y-46428842D01*
X172900500Y-46271158D01*
X172900500Y-46271155D01*
X172900499Y-46271153D01*
X172878269Y-46159397D01*
X172869737Y-46116503D01*
X172851215Y-46071786D01*
X172809397Y-45970827D01*
X172809390Y-45970814D01*
X172721789Y-45839711D01*
X172721786Y-45839707D01*
X172610292Y-45728213D01*
X172610288Y-45728210D01*
X172479185Y-45640609D01*
X172479173Y-45640602D01*
X172452674Y-45629627D01*
X172333501Y-45580264D01*
X172333489Y-45580261D01*
X172178845Y-45549500D01*
X172178842Y-45549500D01*
X172021158Y-45549500D01*
X172021155Y-45549500D01*
X171866510Y-45580261D01*
X171866498Y-45580264D01*
X171720827Y-45640602D01*
X171720814Y-45640609D01*
X171589711Y-45728210D01*
X171589707Y-45728213D01*
X171478213Y-45839707D01*
X171478210Y-45839711D01*
X171390609Y-45970814D01*
X171390602Y-45970827D01*
X171330264Y-46116498D01*
X171330261Y-46116510D01*
X171299500Y-46271153D01*
X162126378Y-46271153D01*
X162133497Y-46269737D01*
X162279179Y-46209394D01*
X162410289Y-46121789D01*
X162521789Y-46010289D01*
X162609394Y-45879179D01*
X162669737Y-45733497D01*
X162700500Y-45578842D01*
X162700500Y-45421158D01*
X162700500Y-45421155D01*
X162694155Y-45389258D01*
X162694155Y-45389257D01*
X162690554Y-45371153D01*
X166979500Y-45371153D01*
X166979500Y-45528846D01*
X167010261Y-45683489D01*
X167010264Y-45683501D01*
X167070602Y-45829172D01*
X167070609Y-45829185D01*
X167158210Y-45960288D01*
X167158213Y-45960292D01*
X167269707Y-46071786D01*
X167269711Y-46071789D01*
X167400814Y-46159390D01*
X167400827Y-46159397D01*
X167546498Y-46219735D01*
X167546503Y-46219737D01*
X167701153Y-46250499D01*
X167701156Y-46250500D01*
X167701158Y-46250500D01*
X167858844Y-46250500D01*
X167858845Y-46250499D01*
X168013497Y-46219737D01*
X168159179Y-46159394D01*
X168290289Y-46071789D01*
X168401789Y-45960289D01*
X168489394Y-45829179D01*
X168492854Y-45820827D01*
X168547163Y-45689711D01*
X168549737Y-45683497D01*
X168580500Y-45528842D01*
X168580500Y-45521153D01*
X176049500Y-45521153D01*
X176049500Y-45678846D01*
X176080261Y-45833489D01*
X176080264Y-45833501D01*
X176140602Y-45979172D01*
X176140609Y-45979185D01*
X176228210Y-46110288D01*
X176228213Y-46110292D01*
X176339707Y-46221786D01*
X176339711Y-46221789D01*
X176470814Y-46309390D01*
X176470827Y-46309397D01*
X176567646Y-46349500D01*
X176616503Y-46369737D01*
X176771153Y-46400499D01*
X176771156Y-46400500D01*
X176771158Y-46400500D01*
X176928844Y-46400500D01*
X176928845Y-46400499D01*
X177083497Y-46369737D01*
X177229179Y-46309394D01*
X177360289Y-46221789D01*
X177471789Y-46110289D01*
X177559394Y-45979179D01*
X177562854Y-45970827D01*
X177573067Y-45946166D01*
X177619737Y-45833497D01*
X177650500Y-45678842D01*
X177650500Y-45521158D01*
X177650500Y-45521155D01*
X177650499Y-45521153D01*
X177632419Y-45430261D01*
X177619737Y-45366503D01*
X177578314Y-45266498D01*
X177559397Y-45220827D01*
X177559390Y-45220814D01*
X177471789Y-45089711D01*
X177471786Y-45089707D01*
X177360292Y-44978213D01*
X177360288Y-44978210D01*
X177229185Y-44890609D01*
X177229172Y-44890602D01*
X177083501Y-44830264D01*
X177083489Y-44830261D01*
X176928845Y-44799500D01*
X176928842Y-44799500D01*
X176771158Y-44799500D01*
X176771155Y-44799500D01*
X176616510Y-44830261D01*
X176616498Y-44830264D01*
X176470827Y-44890602D01*
X176470814Y-44890609D01*
X176339711Y-44978210D01*
X176339707Y-44978213D01*
X176228213Y-45089707D01*
X176228210Y-45089711D01*
X176140609Y-45220814D01*
X176140602Y-45220827D01*
X176080264Y-45366498D01*
X176080261Y-45366510D01*
X176049500Y-45521153D01*
X168580500Y-45521153D01*
X168580500Y-45371158D01*
X168580500Y-45371155D01*
X168580499Y-45371153D01*
X168559684Y-45266510D01*
X168549737Y-45216503D01*
X168510102Y-45120814D01*
X168489397Y-45070827D01*
X168489390Y-45070814D01*
X168401789Y-44939711D01*
X168401786Y-44939707D01*
X168290292Y-44828213D01*
X168290288Y-44828210D01*
X168159185Y-44740609D01*
X168159172Y-44740602D01*
X168013501Y-44680264D01*
X168013489Y-44680261D01*
X167858845Y-44649500D01*
X167858842Y-44649500D01*
X167701158Y-44649500D01*
X167701155Y-44649500D01*
X167546510Y-44680261D01*
X167546498Y-44680264D01*
X167400827Y-44740602D01*
X167400814Y-44740609D01*
X167269711Y-44828210D01*
X167269707Y-44828213D01*
X167158213Y-44939707D01*
X167158210Y-44939711D01*
X167070609Y-45070814D01*
X167070602Y-45070827D01*
X167010264Y-45216498D01*
X167010261Y-45216510D01*
X166979500Y-45371153D01*
X162690554Y-45371153D01*
X162669738Y-45266510D01*
X162669737Y-45266503D01*
X162650812Y-45220814D01*
X162609397Y-45120827D01*
X162609390Y-45120814D01*
X162521789Y-44989711D01*
X162521786Y-44989707D01*
X162410292Y-44878213D01*
X162410288Y-44878210D01*
X162279185Y-44790609D01*
X162279172Y-44790602D01*
X162133501Y-44730264D01*
X162133489Y-44730261D01*
X161978845Y-44699500D01*
X161978842Y-44699500D01*
X161821158Y-44699500D01*
X161821155Y-44699500D01*
X161666510Y-44730261D01*
X161666498Y-44730264D01*
X161520827Y-44790602D01*
X161520814Y-44790609D01*
X161389711Y-44878210D01*
X161389707Y-44878213D01*
X161278213Y-44989707D01*
X161278210Y-44989711D01*
X161190609Y-45120814D01*
X161190602Y-45120827D01*
X161130264Y-45266498D01*
X161130261Y-45266510D01*
X161099500Y-45421153D01*
X155612701Y-45421153D01*
X155503845Y-45399500D01*
X155503842Y-45399500D01*
X155346158Y-45399500D01*
X155346155Y-45399500D01*
X155191510Y-45430261D01*
X155191498Y-45430264D01*
X155045827Y-45490602D01*
X155045814Y-45490609D01*
X154914711Y-45578210D01*
X154914707Y-45578213D01*
X154803213Y-45689707D01*
X154803210Y-45689711D01*
X154715609Y-45820814D01*
X154715602Y-45820827D01*
X154655264Y-45966498D01*
X154655261Y-45966510D01*
X154624500Y-46121153D01*
X150200500Y-46121153D01*
X150200500Y-42271153D01*
X152299500Y-42271153D01*
X152299500Y-42428846D01*
X152330261Y-42583489D01*
X152330264Y-42583501D01*
X152390602Y-42729172D01*
X152390609Y-42729185D01*
X152478210Y-42860288D01*
X152478213Y-42860292D01*
X152589707Y-42971786D01*
X152589711Y-42971789D01*
X152720814Y-43059390D01*
X152720827Y-43059397D01*
X152866498Y-43119735D01*
X152866503Y-43119737D01*
X153021153Y-43150499D01*
X153021156Y-43150500D01*
X153021158Y-43150500D01*
X153178844Y-43150500D01*
X153178845Y-43150499D01*
X153333497Y-43119737D01*
X153479179Y-43059394D01*
X153536411Y-43021153D01*
X159499500Y-43021153D01*
X159499500Y-43178846D01*
X159530261Y-43333489D01*
X159530264Y-43333501D01*
X159590602Y-43479172D01*
X159590609Y-43479185D01*
X159678210Y-43610288D01*
X159678213Y-43610292D01*
X159789707Y-43721786D01*
X159789711Y-43721789D01*
X159920814Y-43809390D01*
X159920827Y-43809397D01*
X160066498Y-43869735D01*
X160066503Y-43869737D01*
X160221153Y-43900499D01*
X160221156Y-43900500D01*
X160221158Y-43900500D01*
X160378844Y-43900500D01*
X160378845Y-43900499D01*
X160533497Y-43869737D01*
X160679179Y-43809394D01*
X160698996Y-43796153D01*
X164949500Y-43796153D01*
X164949500Y-43953846D01*
X164980261Y-44108489D01*
X164980264Y-44108501D01*
X165040602Y-44254172D01*
X165040609Y-44254185D01*
X165128210Y-44385288D01*
X165128213Y-44385292D01*
X165239707Y-44496786D01*
X165239711Y-44496789D01*
X165370814Y-44584390D01*
X165370827Y-44584397D01*
X165516498Y-44644735D01*
X165516503Y-44644737D01*
X165671153Y-44675499D01*
X165671156Y-44675500D01*
X165671158Y-44675500D01*
X165828844Y-44675500D01*
X165828845Y-44675499D01*
X165983497Y-44644737D01*
X166129179Y-44584394D01*
X166260289Y-44496789D01*
X166371789Y-44385289D01*
X166459394Y-44254179D01*
X166519737Y-44108497D01*
X166550500Y-43953842D01*
X166550500Y-43796158D01*
X166550500Y-43796155D01*
X166550499Y-43796153D01*
X166523296Y-43659397D01*
X166519737Y-43641503D01*
X166506808Y-43610289D01*
X166459397Y-43495827D01*
X166459390Y-43495814D01*
X166371789Y-43364711D01*
X166371786Y-43364707D01*
X166260292Y-43253213D01*
X166260288Y-43253210D01*
X166129185Y-43165609D01*
X166129172Y-43165602D01*
X165983501Y-43105264D01*
X165983489Y-43105261D01*
X165828845Y-43074500D01*
X165828842Y-43074500D01*
X165671158Y-43074500D01*
X165671155Y-43074500D01*
X165516510Y-43105261D01*
X165516498Y-43105264D01*
X165370827Y-43165602D01*
X165370814Y-43165609D01*
X165239711Y-43253210D01*
X165239707Y-43253213D01*
X165128213Y-43364707D01*
X165128210Y-43364711D01*
X165040609Y-43495814D01*
X165040602Y-43495827D01*
X164980264Y-43641498D01*
X164980261Y-43641510D01*
X164949500Y-43796153D01*
X160698996Y-43796153D01*
X160810289Y-43721789D01*
X160812343Y-43719735D01*
X160829694Y-43702385D01*
X160921786Y-43610292D01*
X160921789Y-43610289D01*
X161009394Y-43479179D01*
X161069737Y-43333497D01*
X161100500Y-43178842D01*
X161100500Y-43021158D01*
X161100500Y-43021155D01*
X161100499Y-43021153D01*
X161070662Y-42871153D01*
X172249500Y-42871153D01*
X172249500Y-43028846D01*
X172280261Y-43183489D01*
X172280264Y-43183501D01*
X172340602Y-43329172D01*
X172340609Y-43329185D01*
X172428210Y-43460288D01*
X172428213Y-43460292D01*
X172539707Y-43571786D01*
X172539711Y-43571789D01*
X172670814Y-43659390D01*
X172670827Y-43659397D01*
X172774611Y-43702385D01*
X172816503Y-43719737D01*
X172971153Y-43750499D01*
X172971156Y-43750500D01*
X172971158Y-43750500D01*
X173128844Y-43750500D01*
X173128845Y-43750499D01*
X173283497Y-43719737D01*
X173429179Y-43659394D01*
X173560289Y-43571789D01*
X173671789Y-43460289D01*
X173759394Y-43329179D01*
X173819737Y-43183497D01*
X173850500Y-43028842D01*
X173850500Y-42871158D01*
X173850500Y-42871155D01*
X173850499Y-42871153D01*
X173828269Y-42759397D01*
X173819737Y-42716503D01*
X173801215Y-42671786D01*
X173759397Y-42570827D01*
X173759390Y-42570814D01*
X173671789Y-42439711D01*
X173671786Y-42439707D01*
X173560292Y-42328213D01*
X173560288Y-42328210D01*
X173429185Y-42240609D01*
X173429172Y-42240602D01*
X173283501Y-42180264D01*
X173283489Y-42180261D01*
X173128845Y-42149500D01*
X173128842Y-42149500D01*
X172971158Y-42149500D01*
X172971155Y-42149500D01*
X172816510Y-42180261D01*
X172816498Y-42180264D01*
X172670827Y-42240602D01*
X172670814Y-42240609D01*
X172539711Y-42328210D01*
X172539707Y-42328213D01*
X172428213Y-42439707D01*
X172428210Y-42439711D01*
X172340609Y-42570814D01*
X172340602Y-42570827D01*
X172280264Y-42716498D01*
X172280261Y-42716510D01*
X172249500Y-42871153D01*
X161070662Y-42871153D01*
X161069738Y-42866510D01*
X161069737Y-42866503D01*
X161067163Y-42860288D01*
X161009397Y-42720827D01*
X161009390Y-42720814D01*
X160921789Y-42589711D01*
X160921786Y-42589707D01*
X160810292Y-42478213D01*
X160810288Y-42478210D01*
X160679185Y-42390609D01*
X160679172Y-42390602D01*
X160533501Y-42330264D01*
X160533489Y-42330261D01*
X160378845Y-42299500D01*
X160378842Y-42299500D01*
X160221158Y-42299500D01*
X160221155Y-42299500D01*
X160066510Y-42330261D01*
X160066498Y-42330264D01*
X159920827Y-42390602D01*
X159920814Y-42390609D01*
X159789711Y-42478210D01*
X159789707Y-42478213D01*
X159678213Y-42589707D01*
X159678210Y-42589711D01*
X159590609Y-42720814D01*
X159590602Y-42720827D01*
X159530264Y-42866498D01*
X159530261Y-42866510D01*
X159499500Y-43021153D01*
X153536411Y-43021153D01*
X153610289Y-42971789D01*
X153610292Y-42971786D01*
X153654694Y-42927385D01*
X153721786Y-42860292D01*
X153721789Y-42860289D01*
X153809394Y-42729179D01*
X153812854Y-42720827D01*
X153823067Y-42696166D01*
X153869737Y-42583497D01*
X153900500Y-42428842D01*
X153900500Y-42271158D01*
X153900500Y-42271155D01*
X153900499Y-42271153D01*
X153882419Y-42180261D01*
X153869737Y-42116503D01*
X153869735Y-42116498D01*
X153826666Y-42012518D01*
X153809532Y-41971153D01*
X165586200Y-41971153D01*
X165586200Y-42128846D01*
X165616961Y-42283489D01*
X165616964Y-42283501D01*
X165677302Y-42429172D01*
X165677309Y-42429185D01*
X165764910Y-42560288D01*
X165764913Y-42560292D01*
X165876407Y-42671786D01*
X165876411Y-42671789D01*
X166007514Y-42759390D01*
X166007527Y-42759397D01*
X166153198Y-42819735D01*
X166153203Y-42819737D01*
X166307853Y-42850499D01*
X166307856Y-42850500D01*
X166307858Y-42850500D01*
X166465544Y-42850500D01*
X166465545Y-42850499D01*
X166620197Y-42819737D01*
X166765879Y-42759394D01*
X166896989Y-42671789D01*
X167008489Y-42560289D01*
X167096094Y-42429179D01*
X167156437Y-42283497D01*
X167187200Y-42128842D01*
X167187200Y-41971158D01*
X167187200Y-41971155D01*
X167187199Y-41971153D01*
X167161053Y-41839711D01*
X167156437Y-41816503D01*
X167156435Y-41816498D01*
X167096097Y-41670827D01*
X167096090Y-41670814D01*
X167008489Y-41539711D01*
X167008486Y-41539707D01*
X166896992Y-41428213D01*
X166896988Y-41428210D01*
X166765885Y-41340609D01*
X166765872Y-41340602D01*
X166620201Y-41280264D01*
X166620189Y-41280261D01*
X166465545Y-41249500D01*
X166465542Y-41249500D01*
X166307858Y-41249500D01*
X166307855Y-41249500D01*
X166153210Y-41280261D01*
X166153198Y-41280264D01*
X166007527Y-41340602D01*
X166007514Y-41340609D01*
X165876411Y-41428210D01*
X165876407Y-41428213D01*
X165764913Y-41539707D01*
X165764910Y-41539711D01*
X165677309Y-41670814D01*
X165677302Y-41670827D01*
X165616964Y-41816498D01*
X165616961Y-41816510D01*
X165586200Y-41971153D01*
X153809532Y-41971153D01*
X153809395Y-41970823D01*
X153809390Y-41970814D01*
X153721789Y-41839711D01*
X153721786Y-41839707D01*
X153610292Y-41728213D01*
X153610288Y-41728210D01*
X153479185Y-41640609D01*
X153479172Y-41640602D01*
X153333501Y-41580264D01*
X153333489Y-41580261D01*
X153178845Y-41549500D01*
X153178842Y-41549500D01*
X153021158Y-41549500D01*
X153021155Y-41549500D01*
X152866510Y-41580261D01*
X152866498Y-41580264D01*
X152720827Y-41640602D01*
X152720814Y-41640609D01*
X152589711Y-41728210D01*
X152589707Y-41728213D01*
X152478213Y-41839707D01*
X152478210Y-41839711D01*
X152390609Y-41970814D01*
X152390602Y-41970827D01*
X152330264Y-42116498D01*
X152330261Y-42116510D01*
X152299500Y-42271153D01*
X150200500Y-42271153D01*
X150200500Y-40521153D01*
X157299500Y-40521153D01*
X157299500Y-40678846D01*
X157330261Y-40833489D01*
X157330264Y-40833501D01*
X157390602Y-40979172D01*
X157390609Y-40979185D01*
X157478210Y-41110288D01*
X157478213Y-41110292D01*
X157589707Y-41221786D01*
X157589711Y-41221789D01*
X157720814Y-41309390D01*
X157720827Y-41309397D01*
X157796181Y-41340609D01*
X157866503Y-41369737D01*
X158021153Y-41400499D01*
X158021156Y-41400500D01*
X158021158Y-41400500D01*
X158178844Y-41400500D01*
X158178845Y-41400499D01*
X158333497Y-41369737D01*
X158479179Y-41309394D01*
X158610289Y-41221789D01*
X158721789Y-41110289D01*
X158809394Y-40979179D01*
X158869737Y-40833497D01*
X158900500Y-40678842D01*
X158900500Y-40521158D01*
X158900500Y-40521155D01*
X158900499Y-40521153D01*
X158890158Y-40469165D01*
X158869737Y-40366503D01*
X158833569Y-40279185D01*
X158809397Y-40220827D01*
X158809390Y-40220814D01*
X158721789Y-40089711D01*
X158721786Y-40089707D01*
X158610292Y-39978213D01*
X158610288Y-39978210D01*
X158479185Y-39890609D01*
X158479172Y-39890602D01*
X158333501Y-39830264D01*
X158333489Y-39830261D01*
X158178845Y-39799500D01*
X158178842Y-39799500D01*
X158021158Y-39799500D01*
X158021155Y-39799500D01*
X157866510Y-39830261D01*
X157866498Y-39830264D01*
X157720827Y-39890602D01*
X157720814Y-39890609D01*
X157589711Y-39978210D01*
X157589707Y-39978213D01*
X157478213Y-40089707D01*
X157478210Y-40089711D01*
X157390609Y-40220814D01*
X157390602Y-40220827D01*
X157330264Y-40366498D01*
X157330261Y-40366510D01*
X157299500Y-40521153D01*
X150200500Y-40521153D01*
X150200500Y-39321153D01*
X171893850Y-39321153D01*
X171893850Y-39478846D01*
X171924611Y-39633489D01*
X171924614Y-39633501D01*
X171984952Y-39779172D01*
X171984959Y-39779185D01*
X172072560Y-39910288D01*
X172072563Y-39910292D01*
X172184057Y-40021786D01*
X172184061Y-40021789D01*
X172315164Y-40109390D01*
X172315177Y-40109397D01*
X172460848Y-40169735D01*
X172460853Y-40169737D01*
X172615503Y-40200499D01*
X172615506Y-40200500D01*
X172615508Y-40200500D01*
X172773194Y-40200500D01*
X172773195Y-40200499D01*
X172927847Y-40169737D01*
X173073529Y-40109394D01*
X173204639Y-40021789D01*
X173316139Y-39910289D01*
X173375698Y-39821153D01*
X184274500Y-39821153D01*
X184274500Y-39978846D01*
X184305261Y-40133489D01*
X184305264Y-40133501D01*
X184365602Y-40279172D01*
X184365609Y-40279185D01*
X184453210Y-40410288D01*
X184453213Y-40410292D01*
X184542740Y-40499819D01*
X184576225Y-40561142D01*
X184571241Y-40630834D01*
X184542740Y-40675181D01*
X184528213Y-40689707D01*
X184528210Y-40689711D01*
X184440609Y-40820814D01*
X184440602Y-40820827D01*
X184380264Y-40966498D01*
X184380261Y-40966510D01*
X184349500Y-41121153D01*
X184349500Y-41278846D01*
X184380261Y-41433489D01*
X184380264Y-41433501D01*
X184440602Y-41579172D01*
X184440609Y-41579185D01*
X184528210Y-41710288D01*
X184528213Y-41710292D01*
X184639707Y-41821786D01*
X184639711Y-41821789D01*
X184770814Y-41909390D01*
X184770827Y-41909397D01*
X184916498Y-41969735D01*
X184916503Y-41969737D01*
X185071153Y-42000499D01*
X185071156Y-42000500D01*
X185071158Y-42000500D01*
X185228844Y-42000500D01*
X185228845Y-42000499D01*
X185383497Y-41969737D01*
X185529179Y-41909394D01*
X185660289Y-41821789D01*
X185771789Y-41710289D01*
X185859394Y-41579179D01*
X185919737Y-41433497D01*
X185950500Y-41278842D01*
X185950500Y-41121158D01*
X185950500Y-41121155D01*
X185950499Y-41121153D01*
X185948338Y-41110288D01*
X185919737Y-40966503D01*
X185919735Y-40966498D01*
X185859397Y-40820827D01*
X185859390Y-40820814D01*
X185771789Y-40689711D01*
X185771786Y-40689707D01*
X185682259Y-40600180D01*
X185648774Y-40538857D01*
X185653758Y-40469165D01*
X185682259Y-40424818D01*
X185696789Y-40410289D01*
X185784394Y-40279179D01*
X185844737Y-40133497D01*
X185875500Y-39978842D01*
X185875500Y-39821158D01*
X185875500Y-39821155D01*
X185875499Y-39821153D01*
X185844738Y-39666510D01*
X185844737Y-39666503D01*
X185831062Y-39633489D01*
X185784397Y-39520827D01*
X185784390Y-39520814D01*
X185696789Y-39389711D01*
X185696786Y-39389707D01*
X185585292Y-39278213D01*
X185585288Y-39278210D01*
X185454185Y-39190609D01*
X185454172Y-39190602D01*
X185308501Y-39130264D01*
X185308489Y-39130261D01*
X185153845Y-39099500D01*
X185153842Y-39099500D01*
X184996158Y-39099500D01*
X184996155Y-39099500D01*
X184841510Y-39130261D01*
X184841498Y-39130264D01*
X184695827Y-39190602D01*
X184695814Y-39190609D01*
X184564711Y-39278210D01*
X184564707Y-39278213D01*
X184453213Y-39389707D01*
X184453210Y-39389711D01*
X184365609Y-39520814D01*
X184365602Y-39520827D01*
X184305264Y-39666498D01*
X184305261Y-39666510D01*
X184274500Y-39821153D01*
X173375698Y-39821153D01*
X173403744Y-39779179D01*
X173464087Y-39633497D01*
X173494850Y-39478842D01*
X173494850Y-39321158D01*
X173491872Y-39306186D01*
X173498098Y-39236596D01*
X173540960Y-39181418D01*
X173606850Y-39158172D01*
X173660941Y-39167433D01*
X173666503Y-39169737D01*
X173821153Y-39200499D01*
X173821156Y-39200500D01*
X173821158Y-39200500D01*
X173978844Y-39200500D01*
X173978845Y-39200499D01*
X174133497Y-39169737D01*
X174279179Y-39109394D01*
X174410289Y-39021789D01*
X174521789Y-38910289D01*
X174609394Y-38779179D01*
X174669737Y-38633497D01*
X174700500Y-38478842D01*
X174700500Y-38321158D01*
X174700500Y-38321155D01*
X174700499Y-38321153D01*
X174680326Y-38219737D01*
X174669737Y-38166503D01*
X174651215Y-38121786D01*
X174609397Y-38020827D01*
X174609390Y-38020814D01*
X174521789Y-37889711D01*
X174521786Y-37889707D01*
X174410292Y-37778213D01*
X174410288Y-37778210D01*
X174279185Y-37690609D01*
X174279172Y-37690602D01*
X174133501Y-37630264D01*
X174133489Y-37630261D01*
X173978845Y-37599500D01*
X173978842Y-37599500D01*
X173821158Y-37599500D01*
X173821155Y-37599500D01*
X173666510Y-37630261D01*
X173666498Y-37630264D01*
X173520827Y-37690602D01*
X173520814Y-37690609D01*
X173389711Y-37778210D01*
X173389707Y-37778213D01*
X173278213Y-37889707D01*
X173278210Y-37889711D01*
X173190609Y-38020814D01*
X173190602Y-38020827D01*
X173130264Y-38166498D01*
X173130261Y-38166510D01*
X173099500Y-38321153D01*
X173099500Y-38478843D01*
X173102478Y-38493816D01*
X173096249Y-38563408D01*
X173053385Y-38618584D01*
X172987495Y-38641827D01*
X172933409Y-38632567D01*
X172927847Y-38630263D01*
X172927839Y-38630261D01*
X172773195Y-38599500D01*
X172773192Y-38599500D01*
X172615508Y-38599500D01*
X172615505Y-38599500D01*
X172460860Y-38630261D01*
X172460848Y-38630264D01*
X172315177Y-38690602D01*
X172315164Y-38690609D01*
X172184061Y-38778210D01*
X172184057Y-38778213D01*
X172072563Y-38889707D01*
X172072560Y-38889711D01*
X171984959Y-39020814D01*
X171984952Y-39020827D01*
X171924614Y-39166498D01*
X171924611Y-39166510D01*
X171893850Y-39321153D01*
X150200500Y-39321153D01*
X150200500Y-37421153D01*
X154199500Y-37421153D01*
X154199500Y-37578846D01*
X154230261Y-37733489D01*
X154230264Y-37733501D01*
X154290602Y-37879172D01*
X154290609Y-37879185D01*
X154378210Y-38010288D01*
X154378213Y-38010292D01*
X154489707Y-38121786D01*
X154489711Y-38121789D01*
X154620814Y-38209390D01*
X154620827Y-38209397D01*
X154720060Y-38250500D01*
X154766503Y-38269737D01*
X154921153Y-38300499D01*
X154921156Y-38300500D01*
X154921158Y-38300500D01*
X155078844Y-38300500D01*
X155078845Y-38300499D01*
X155233497Y-38269737D01*
X155379179Y-38209394D01*
X155510289Y-38121789D01*
X155621789Y-38010289D01*
X155709394Y-37879179D01*
X155769737Y-37733497D01*
X155800500Y-37578842D01*
X155800500Y-37421158D01*
X155800500Y-37421155D01*
X155794155Y-37389258D01*
X155794155Y-37389257D01*
X155790554Y-37371153D01*
X184349500Y-37371153D01*
X184349500Y-37528846D01*
X184380261Y-37683489D01*
X184380264Y-37683501D01*
X184440602Y-37829172D01*
X184440609Y-37829185D01*
X184528210Y-37960288D01*
X184528213Y-37960292D01*
X184639707Y-38071786D01*
X184639711Y-38071789D01*
X184770814Y-38159390D01*
X184770827Y-38159397D01*
X184916498Y-38219735D01*
X184916503Y-38219737D01*
X185071153Y-38250499D01*
X185071156Y-38250500D01*
X185071158Y-38250500D01*
X185228844Y-38250500D01*
X185228845Y-38250499D01*
X185383497Y-38219737D01*
X185529179Y-38159394D01*
X185660289Y-38071789D01*
X185771789Y-37960289D01*
X185859394Y-37829179D01*
X185919737Y-37683497D01*
X185950500Y-37528842D01*
X185950500Y-37371158D01*
X185950500Y-37371155D01*
X185950499Y-37371153D01*
X185929684Y-37266510D01*
X185919737Y-37216503D01*
X185880102Y-37120814D01*
X185859397Y-37070827D01*
X185859390Y-37070814D01*
X185771789Y-36939711D01*
X185771786Y-36939707D01*
X185660292Y-36828213D01*
X185660288Y-36828210D01*
X185529185Y-36740609D01*
X185529172Y-36740602D01*
X185383501Y-36680264D01*
X185383489Y-36680261D01*
X185228845Y-36649500D01*
X185228842Y-36649500D01*
X185071158Y-36649500D01*
X185071155Y-36649500D01*
X184916510Y-36680261D01*
X184916498Y-36680264D01*
X184770827Y-36740602D01*
X184770814Y-36740609D01*
X184639711Y-36828210D01*
X184639707Y-36828213D01*
X184528213Y-36939707D01*
X184528210Y-36939711D01*
X184440609Y-37070814D01*
X184440602Y-37070827D01*
X184380264Y-37216498D01*
X184380261Y-37216510D01*
X184349500Y-37371153D01*
X155790554Y-37371153D01*
X155769738Y-37266510D01*
X155769737Y-37266503D01*
X155769735Y-37266498D01*
X155709397Y-37120827D01*
X155709390Y-37120814D01*
X155621789Y-36989711D01*
X155621786Y-36989707D01*
X155510292Y-36878213D01*
X155510288Y-36878210D01*
X155379185Y-36790609D01*
X155379172Y-36790602D01*
X155233501Y-36730264D01*
X155233489Y-36730261D01*
X155078845Y-36699500D01*
X155078842Y-36699500D01*
X154921158Y-36699500D01*
X154921155Y-36699500D01*
X154766510Y-36730261D01*
X154766498Y-36730264D01*
X154620827Y-36790602D01*
X154620814Y-36790609D01*
X154489711Y-36878210D01*
X154489707Y-36878213D01*
X154378213Y-36989707D01*
X154378210Y-36989711D01*
X154290609Y-37120814D01*
X154290602Y-37120827D01*
X154230264Y-37266498D01*
X154230261Y-37266510D01*
X154199500Y-37421153D01*
X150200500Y-37421153D01*
X150200500Y-34821153D01*
X166636400Y-34821153D01*
X166636400Y-34978846D01*
X166667161Y-35133489D01*
X166667164Y-35133501D01*
X166727502Y-35279172D01*
X166727509Y-35279185D01*
X166815110Y-35410288D01*
X166815113Y-35410292D01*
X166926607Y-35521786D01*
X166926611Y-35521789D01*
X167057714Y-35609390D01*
X167057727Y-35609397D01*
X167203398Y-35669735D01*
X167203403Y-35669737D01*
X167358053Y-35700499D01*
X167358056Y-35700500D01*
X167358058Y-35700500D01*
X167515744Y-35700500D01*
X167515745Y-35700499D01*
X167670397Y-35669737D01*
X167816079Y-35609394D01*
X167947189Y-35521789D01*
X168058689Y-35410289D01*
X168146294Y-35279179D01*
X168206637Y-35133497D01*
X168237400Y-34978842D01*
X168237400Y-34821158D01*
X168237400Y-34821155D01*
X168237399Y-34821153D01*
X168215169Y-34709397D01*
X168206637Y-34666503D01*
X168206635Y-34666498D01*
X168146297Y-34520827D01*
X168146290Y-34520814D01*
X168058689Y-34389711D01*
X168058686Y-34389707D01*
X167947192Y-34278213D01*
X167947188Y-34278210D01*
X167816085Y-34190609D01*
X167816072Y-34190602D01*
X167670401Y-34130264D01*
X167670389Y-34130261D01*
X167515745Y-34099500D01*
X167515742Y-34099500D01*
X167358058Y-34099500D01*
X167358055Y-34099500D01*
X167203410Y-34130261D01*
X167203398Y-34130264D01*
X167057727Y-34190602D01*
X167057714Y-34190609D01*
X166926611Y-34278210D01*
X166926607Y-34278213D01*
X166815113Y-34389707D01*
X166815110Y-34389711D01*
X166727509Y-34520814D01*
X166727502Y-34520827D01*
X166667164Y-34666498D01*
X166667161Y-34666510D01*
X166636400Y-34821153D01*
X150200500Y-34821153D01*
X150200500Y-32021153D01*
X156549500Y-32021153D01*
X156549500Y-32178846D01*
X156580261Y-32333489D01*
X156580264Y-32333501D01*
X156640602Y-32479172D01*
X156640609Y-32479185D01*
X156728210Y-32610288D01*
X156728213Y-32610292D01*
X156839707Y-32721786D01*
X156839711Y-32721789D01*
X156970814Y-32809390D01*
X156970827Y-32809397D01*
X157094054Y-32860439D01*
X157148458Y-32904280D01*
X157170523Y-32970574D01*
X157153244Y-33038273D01*
X157102107Y-33085884D01*
X157094054Y-33089561D01*
X156970827Y-33140602D01*
X156970814Y-33140609D01*
X156839711Y-33228210D01*
X156839707Y-33228213D01*
X156728213Y-33339707D01*
X156728210Y-33339711D01*
X156640609Y-33470814D01*
X156640602Y-33470827D01*
X156580264Y-33616498D01*
X156580261Y-33616510D01*
X156549500Y-33771153D01*
X156549500Y-33928846D01*
X156580261Y-34083489D01*
X156580264Y-34083501D01*
X156640602Y-34229172D01*
X156640609Y-34229185D01*
X156728210Y-34360288D01*
X156728213Y-34360292D01*
X156839707Y-34471786D01*
X156839711Y-34471789D01*
X156970814Y-34559390D01*
X156970827Y-34559397D01*
X157116498Y-34619735D01*
X157116503Y-34619737D01*
X157271153Y-34650499D01*
X157271156Y-34650500D01*
X157271158Y-34650500D01*
X157428844Y-34650500D01*
X157428845Y-34650499D01*
X157583497Y-34619737D01*
X157729179Y-34559394D01*
X157860289Y-34471789D01*
X157971789Y-34360289D01*
X158059394Y-34229179D01*
X158119737Y-34083497D01*
X158150500Y-33928842D01*
X158150500Y-33921153D01*
X169199500Y-33921153D01*
X169199500Y-34078846D01*
X169230261Y-34233489D01*
X169230264Y-34233501D01*
X169290602Y-34379172D01*
X169290609Y-34379185D01*
X169378210Y-34510288D01*
X169378213Y-34510292D01*
X169489707Y-34621786D01*
X169489711Y-34621789D01*
X169620814Y-34709390D01*
X169620827Y-34709397D01*
X169766498Y-34769735D01*
X169766503Y-34769737D01*
X169921153Y-34800499D01*
X169921156Y-34800500D01*
X169921158Y-34800500D01*
X170078844Y-34800500D01*
X170078845Y-34800499D01*
X170233497Y-34769737D01*
X170379179Y-34709394D01*
X170510289Y-34621789D01*
X170621789Y-34510289D01*
X170709394Y-34379179D01*
X170769737Y-34233497D01*
X170800500Y-34078842D01*
X170800500Y-33921158D01*
X170800500Y-33921155D01*
X170800499Y-33921153D01*
X170769738Y-33766510D01*
X170769737Y-33766503D01*
X170769735Y-33766498D01*
X170709397Y-33620827D01*
X170709390Y-33620814D01*
X170621789Y-33489711D01*
X170621786Y-33489707D01*
X170510292Y-33378213D01*
X170510288Y-33378210D01*
X170379185Y-33290609D01*
X170379172Y-33290602D01*
X170233501Y-33230264D01*
X170233489Y-33230261D01*
X170078845Y-33199500D01*
X170078842Y-33199500D01*
X169921158Y-33199500D01*
X169921155Y-33199500D01*
X169766510Y-33230261D01*
X169766498Y-33230264D01*
X169620827Y-33290602D01*
X169620814Y-33290609D01*
X169489711Y-33378210D01*
X169489707Y-33378213D01*
X169378213Y-33489707D01*
X169378210Y-33489711D01*
X169290609Y-33620814D01*
X169290602Y-33620827D01*
X169230264Y-33766498D01*
X169230261Y-33766510D01*
X169199500Y-33921153D01*
X158150500Y-33921153D01*
X158150500Y-33771158D01*
X158150500Y-33771155D01*
X158150499Y-33771153D01*
X158120596Y-33620821D01*
X158119737Y-33616503D01*
X158119735Y-33616498D01*
X158059397Y-33470827D01*
X158059390Y-33470814D01*
X157971789Y-33339711D01*
X157971786Y-33339707D01*
X157860292Y-33228213D01*
X157860288Y-33228210D01*
X157729185Y-33140609D01*
X157729172Y-33140602D01*
X157605945Y-33089561D01*
X157551541Y-33045721D01*
X157529476Y-32979427D01*
X157546755Y-32911727D01*
X157597892Y-32864116D01*
X157605945Y-32860439D01*
X157729172Y-32809397D01*
X157729172Y-32809396D01*
X157729179Y-32809394D01*
X157860289Y-32721789D01*
X157971789Y-32610289D01*
X158059394Y-32479179D01*
X158119737Y-32333497D01*
X158150500Y-32178842D01*
X158150500Y-32021158D01*
X158150500Y-32021155D01*
X158150499Y-32021153D01*
X158119738Y-31866510D01*
X158119737Y-31866503D01*
X158119735Y-31866498D01*
X158059397Y-31720827D01*
X158059390Y-31720814D01*
X157971789Y-31589711D01*
X157971786Y-31589707D01*
X157860292Y-31478213D01*
X157860288Y-31478210D01*
X157729185Y-31390609D01*
X157729172Y-31390602D01*
X157583501Y-31330264D01*
X157583489Y-31330261D01*
X157428845Y-31299500D01*
X157428842Y-31299500D01*
X157271158Y-31299500D01*
X157271155Y-31299500D01*
X157116510Y-31330261D01*
X157116498Y-31330264D01*
X156970827Y-31390602D01*
X156970814Y-31390609D01*
X156839711Y-31478210D01*
X156839707Y-31478213D01*
X156728213Y-31589707D01*
X156728210Y-31589711D01*
X156640609Y-31720814D01*
X156640602Y-31720827D01*
X156580264Y-31866498D01*
X156580261Y-31866510D01*
X156549500Y-32021153D01*
X150200500Y-32021153D01*
X150200500Y-30003052D01*
X150200649Y-29996967D01*
X150205529Y-29897648D01*
X152699500Y-29897648D01*
X152699500Y-30102351D01*
X152731522Y-30304534D01*
X152794781Y-30499223D01*
X152887715Y-30681613D01*
X153008028Y-30847213D01*
X153152786Y-30991971D01*
X153307749Y-31104556D01*
X153318390Y-31112287D01*
X153434607Y-31171503D01*
X153500776Y-31205218D01*
X153500778Y-31205218D01*
X153500781Y-31205220D01*
X153605137Y-31239127D01*
X153695465Y-31268477D01*
X153796557Y-31284488D01*
X153897648Y-31300500D01*
X153897649Y-31300500D01*
X154102351Y-31300500D01*
X154102352Y-31300500D01*
X154304534Y-31268477D01*
X154499219Y-31205220D01*
X154681610Y-31112287D01*
X154774590Y-31044732D01*
X154847213Y-30991971D01*
X154847215Y-30991968D01*
X154847219Y-30991966D01*
X154991966Y-30847219D01*
X154991968Y-30847215D01*
X154991971Y-30847213D01*
X155044732Y-30774590D01*
X155112287Y-30681610D01*
X155205220Y-30499219D01*
X155268477Y-30304534D01*
X155300500Y-30102352D01*
X155300500Y-29897648D01*
X182699500Y-29897648D01*
X182699500Y-30102351D01*
X182731522Y-30304534D01*
X182794781Y-30499223D01*
X182887715Y-30681613D01*
X183008028Y-30847213D01*
X183152786Y-30991971D01*
X183307749Y-31104556D01*
X183318390Y-31112287D01*
X183434607Y-31171503D01*
X183500776Y-31205218D01*
X183500778Y-31205218D01*
X183500781Y-31205220D01*
X183605137Y-31239127D01*
X183695465Y-31268477D01*
X183796557Y-31284488D01*
X183897648Y-31300500D01*
X183897649Y-31300500D01*
X184102351Y-31300500D01*
X184102352Y-31300500D01*
X184304534Y-31268477D01*
X184499219Y-31205220D01*
X184681610Y-31112287D01*
X184774590Y-31044732D01*
X184847213Y-30991971D01*
X184847215Y-30991968D01*
X184847219Y-30991966D01*
X184991966Y-30847219D01*
X184991968Y-30847215D01*
X184991971Y-30847213D01*
X185044732Y-30774590D01*
X185112287Y-30681610D01*
X185205220Y-30499219D01*
X185268477Y-30304534D01*
X185300500Y-30102352D01*
X185300500Y-29897648D01*
X185268477Y-29695466D01*
X185205220Y-29500781D01*
X185205218Y-29500778D01*
X185205218Y-29500776D01*
X185163578Y-29419054D01*
X185112287Y-29318390D01*
X185073339Y-29264782D01*
X184991971Y-29152786D01*
X184847213Y-29008028D01*
X184681613Y-28887715D01*
X184681612Y-28887714D01*
X184681610Y-28887713D01*
X184624653Y-28858691D01*
X184499223Y-28794781D01*
X184304534Y-28731522D01*
X184129995Y-28703878D01*
X184102352Y-28699500D01*
X183897648Y-28699500D01*
X183873329Y-28703351D01*
X183695465Y-28731522D01*
X183500776Y-28794781D01*
X183318386Y-28887715D01*
X183152786Y-29008028D01*
X183008028Y-29152786D01*
X182887715Y-29318386D01*
X182794781Y-29500776D01*
X182731522Y-29695465D01*
X182699500Y-29897648D01*
X155300500Y-29897648D01*
X155268477Y-29695466D01*
X155205220Y-29500781D01*
X155205218Y-29500778D01*
X155205218Y-29500776D01*
X155163578Y-29419054D01*
X155112287Y-29318390D01*
X155073339Y-29264782D01*
X154991971Y-29152786D01*
X154847213Y-29008028D01*
X154681613Y-28887715D01*
X154681612Y-28887714D01*
X154681610Y-28887713D01*
X154624653Y-28858691D01*
X154499223Y-28794781D01*
X154304534Y-28731522D01*
X154129995Y-28703878D01*
X154102352Y-28699500D01*
X153897648Y-28699500D01*
X153873329Y-28703351D01*
X153695465Y-28731522D01*
X153500776Y-28794781D01*
X153318386Y-28887715D01*
X153152786Y-29008028D01*
X153008028Y-29152786D01*
X152887715Y-29318386D01*
X152794781Y-29500776D01*
X152731522Y-29695465D01*
X152699500Y-29897648D01*
X150205529Y-29897648D01*
X150206067Y-29886691D01*
X150206067Y-29886690D01*
X150218497Y-29633665D01*
X150219690Y-29621555D01*
X150237605Y-29500781D01*
X150272614Y-29264765D01*
X150274981Y-29252863D01*
X150362631Y-28902947D01*
X150366152Y-28891341D01*
X150487672Y-28551717D01*
X150492314Y-28540509D01*
X150646547Y-28214409D01*
X150652262Y-28203717D01*
X150837704Y-27894327D01*
X150844447Y-27884234D01*
X151059329Y-27594500D01*
X151067032Y-27585115D01*
X151309273Y-27317843D01*
X151317843Y-27309273D01*
X151585115Y-27067032D01*
X151594500Y-27059329D01*
X151884234Y-26844447D01*
X151894327Y-26837704D01*
X152203717Y-26652262D01*
X152214409Y-26646547D01*
X152540509Y-26492314D01*
X152551717Y-26487672D01*
X152891341Y-26366152D01*
X152902947Y-26362631D01*
X153252863Y-26274981D01*
X153264765Y-26272614D01*
X153621561Y-26219689D01*
X153633659Y-26218497D01*
X153942885Y-26203305D01*
X153996968Y-26200649D01*
X154003052Y-26200500D01*
X154039882Y-26200500D01*
X183960118Y-26200500D01*
X183996948Y-26200500D01*
X184003032Y-26200649D01*
G37*
G04 #@! TD.AperFunction*
G04 #@! TD*
M02*
