G04 #@! TF.GenerationSoftware,KiCad,Pcbnew,9.0.1*
G04 #@! TF.CreationDate,2026-07-16T12:47:56-04:00*
G04 #@! TF.ProjectId,DAQ-V4.1,4441512d-5634-42e3-912e-6b696361645f,rev?*
G04 #@! TF.SameCoordinates,Original*
G04 #@! TF.FileFunction,Copper,L2,Inr*
G04 #@! TF.FilePolarity,Positive*
%FSLAX46Y46*%
G04 Gerber Fmt 4.6, Leading zero omitted, Abs format (unit mm)*
G04 Created by KiCad (PCBNEW 9.0.1) date 2026-07-16 12:47:56*
%MOMM*%
%LPD*%
G01*
G04 APERTURE LIST*
G04 Aperture macros list*
%AMRoundRect*
0 Rectangle with rounded corners*
0 $1 Rounding radius*
0 $2 $3 $4 $5 $6 $7 $8 $9 X,Y pos of 4 corners*
0 Add a 4 corners polygon primitive as box body*
4,1,4,$2,$3,$4,$5,$6,$7,$8,$9,$2,$3,0*
0 Add four circle primitives for the rounded corners*
1,1,$1+$1,$2,$3*
1,1,$1+$1,$4,$5*
1,1,$1+$1,$6,$7*
1,1,$1+$1,$8,$9*
0 Add four rect primitives between the rounded corners*
20,1,$1+$1,$2,$3,$4,$5,0*
20,1,$1+$1,$4,$5,$6,$7,0*
20,1,$1+$1,$6,$7,$8,$9,0*
20,1,$1+$1,$8,$9,$2,$3,0*%
G04 Aperture macros list end*
G04 #@! TA.AperFunction,ComponentPad*
%ADD10RoundRect,0.750000X0.750000X-0.750000X0.750000X0.750000X-0.750000X0.750000X-0.750000X-0.750000X0*%
G04 #@! TD*
G04 #@! TA.AperFunction,ComponentPad*
%ADD11C,3.000000*%
G04 #@! TD*
G04 #@! TA.AperFunction,ViaPad*
%ADD12C,0.600000*%
G04 #@! TD*
G04 #@! TA.AperFunction,ViaPad*
%ADD13C,0.700000*%
G04 #@! TD*
G04 APERTURE END LIST*
D10*
G04 #@! TO.N,GND*
G04 #@! TO.C,J5*
X182175000Y-114825000D03*
D11*
G04 #@! TO.N,+7.5V*
X182175000Y-109825000D03*
G04 #@! TD*
D12*
G04 #@! TO.N,/LSM6DSV INT*
X166700000Y-49800000D03*
X173900000Y-38400000D03*
G04 #@! TO.N,/USART2_CTS*
X173275000Y-49650000D03*
X184875000Y-87750000D03*
G04 #@! TO.N,/USART2_TX*
X177600000Y-70425000D03*
X170300000Y-61575000D03*
G04 #@! TO.N,/USART2_RTS*
X182675000Y-99025000D03*
X172290380Y-49759620D03*
D13*
G04 #@! TO.N,/USART2_RX*
X160350000Y-66875000D03*
D12*
X185088207Y-97663207D03*
G04 #@! TO.N,Net-(U7-PE9)*
X181800000Y-88500000D03*
X171580000Y-66075000D03*
G04 #@! TO.N,/SPI1_MOSI*
X158650000Y-81100000D03*
X166150000Y-75800000D03*
G04 #@! TO.N,/SPI2_NSS*
X164500000Y-52600000D03*
X155000000Y-37500000D03*
G04 #@! TO.N,/SPI2_MOSI*
X160300000Y-43100000D03*
X164450000Y-50000000D03*
G04 #@! TO.N,/SPI2_SCK*
X161900000Y-45500000D03*
X164700000Y-51600000D03*
G04 #@! TO.N,/SPI2_MISO*
X158100000Y-40600000D03*
X165100000Y-50800000D03*
G04 #@! TO.N,/ADXL375 SDA*
X181649265Y-56899265D03*
X179550000Y-54250000D03*
G04 #@! TO.N,/SWO*
X175050000Y-50250000D03*
X176850000Y-45600000D03*
G04 #@! TO.N,/LSM6DSV SDA*
X173050000Y-42950000D03*
X167780000Y-45450000D03*
G04 #@! TO.N,GND*
X184600000Y-114800000D03*
X160100000Y-79775000D03*
X166386700Y-42050000D03*
X157172000Y-53600000D03*
X167050000Y-113775000D03*
X182300000Y-65050000D03*
X182406339Y-82449000D03*
X152922000Y-50600000D03*
X165750000Y-43875000D03*
X152720000Y-58060000D03*
X182200000Y-117200000D03*
X169250000Y-74250000D03*
X174337501Y-122125000D03*
X185150000Y-37450000D03*
X173562500Y-81000000D03*
X169000000Y-113775000D03*
X168950000Y-100800000D03*
X167436900Y-34900000D03*
X185075000Y-39900000D03*
X179800000Y-114800000D03*
X179225000Y-77075000D03*
X168175000Y-111325000D03*
X152022000Y-51550000D03*
D13*
X182425000Y-49575000D03*
D12*
X152800000Y-105350000D03*
X176675000Y-69275000D03*
X177100000Y-103275000D03*
X155972000Y-59900000D03*
D13*
X184100000Y-66650000D03*
D12*
X185150000Y-41200000D03*
X172637500Y-111937500D03*
D13*
X158500000Y-52600000D03*
D12*
X155425000Y-46200000D03*
X152022000Y-52850000D03*
X156420000Y-52280000D03*
X152022000Y-56000000D03*
X153100000Y-42350000D03*
D13*
X178250000Y-67600000D03*
D12*
X170000000Y-34000000D03*
D13*
X159800000Y-47200000D03*
D12*
X152022000Y-54400000D03*
X157072000Y-58800000D03*
X158175000Y-58525000D03*
X179000000Y-87350000D03*
X154322000Y-50600000D03*
X180600000Y-101825000D03*
D13*
X161537500Y-65962500D03*
D12*
X183475000Y-51425000D03*
X163400000Y-87050000D03*
X157350000Y-33850000D03*
X177200000Y-96400000D03*
X172525000Y-113425000D03*
X170875000Y-113750000D03*
X155250000Y-87250000D03*
X155822000Y-50600000D03*
X156000000Y-68150000D03*
X157072000Y-57200000D03*
X152872000Y-59900000D03*
X167300000Y-87000000D03*
X177100000Y-100100000D03*
X162200000Y-82600000D03*
X152022000Y-57550000D03*
X157172000Y-51800000D03*
X157250000Y-60525000D03*
X154422000Y-59900000D03*
X171350000Y-101750000D03*
X152022000Y-59050000D03*
X168700000Y-93000000D03*
X176750000Y-87300000D03*
X157350000Y-32100000D03*
X159787139Y-62306378D03*
X172694350Y-39400000D03*
G04 #@! TO.N,+3.3V*
X159900000Y-81550000D03*
X180625000Y-93150000D03*
X169125000Y-95750000D03*
X184350000Y-52825000D03*
X161850000Y-30350000D03*
X174650000Y-109225000D03*
X177200000Y-98225000D03*
X177050000Y-101650000D03*
X183350000Y-44325000D03*
X167075000Y-118350000D03*
X164000000Y-82550000D03*
X177767699Y-73212399D03*
D13*
X186200000Y-66650000D03*
D12*
X159400000Y-82612500D03*
X167436900Y-38900000D03*
X161009620Y-57384620D03*
X169656700Y-44650000D03*
D13*
X181000000Y-46775000D03*
D12*
X172700000Y-35400000D03*
X161625000Y-34075000D03*
D13*
X158500000Y-54150000D03*
D12*
X157150000Y-82612500D03*
X169150000Y-69925000D03*
X171950000Y-44650000D03*
X179500000Y-63600000D03*
D13*
X178261101Y-63588899D03*
D12*
X171760750Y-68085534D03*
X173850001Y-45519238D03*
D13*
X186800000Y-63625000D03*
D12*
X181150000Y-77200000D03*
X165200000Y-66575000D03*
X169475000Y-118350000D03*
X163359620Y-43940380D03*
X161700000Y-86800000D03*
X154800000Y-82562500D03*
X184900000Y-80300000D03*
X177200000Y-94875000D03*
X182250000Y-52825000D03*
D13*
X158575000Y-50250000D03*
D12*
X166300000Y-82600000D03*
X155775000Y-34575000D03*
X151500000Y-39900000D03*
X166037500Y-122175000D03*
X155450000Y-47750000D03*
X159300000Y-65800000D03*
G04 #@! TO.N,/SAM-M10Q RX*
X169625000Y-79175000D03*
X160262500Y-60937500D03*
G04 #@! TO.N,/SAM-M10Q TX*
X170600000Y-78600000D03*
X161100000Y-61600000D03*
G04 #@! TO.N,/SAM-M10Q TIMEPULSE*
X178500000Y-75700000D03*
X171365814Y-49800000D03*
G04 #@! TO.N,/SAM-M10Q NRESET*
X170580000Y-49650000D03*
X176406339Y-79074000D03*
G04 #@! TO.N,/NRST*
X164450000Y-54850000D03*
X172100000Y-46350000D03*
G04 #@! TD*
G04 #@! TA.AperFunction,Conductor*
G04 #@! TO.N,GND*
G36*
X184003032Y-26200649D02*
G01*
X184067797Y-26203830D01*
X184366338Y-26218497D01*
X184378440Y-26219689D01*
X184735230Y-26272613D01*
X184747140Y-26274982D01*
X185097046Y-26362629D01*
X185108663Y-26366154D01*
X185448275Y-26487669D01*
X185459497Y-26492317D01*
X185785582Y-26646543D01*
X185796290Y-26652267D01*
X185984308Y-26764961D01*
X186105659Y-26837696D01*
X186115777Y-26844456D01*
X186405488Y-27059321D01*
X186414894Y-27067041D01*
X186682146Y-27309264D01*
X186690735Y-27317853D01*
X186894324Y-27542479D01*
X186932958Y-27585105D01*
X186940678Y-27594511D01*
X187155543Y-27884222D01*
X187162303Y-27894340D01*
X187347725Y-28203697D01*
X187353462Y-28214429D01*
X187507679Y-28540495D01*
X187512334Y-28551734D01*
X187599297Y-28794780D01*
X187633840Y-28891319D01*
X187637373Y-28902964D01*
X187725014Y-29252846D01*
X187727388Y-29264782D01*
X187780309Y-29621555D01*
X187781502Y-29633664D01*
X187799351Y-29996967D01*
X187799500Y-30003052D01*
X187799500Y-63192152D01*
X187779815Y-63259191D01*
X187727011Y-63304946D01*
X187657853Y-63314890D01*
X187594297Y-63285865D01*
X187560940Y-63239606D01*
X187553706Y-63222143D01*
X187553704Y-63222139D01*
X187552827Y-63220827D01*
X187522537Y-63175494D01*
X187460626Y-63082837D01*
X187342162Y-62964373D01*
X187202860Y-62871295D01*
X187048082Y-62807184D01*
X187048074Y-62807182D01*
X186883771Y-62774500D01*
X186883767Y-62774500D01*
X186716233Y-62774500D01*
X186716228Y-62774500D01*
X186551925Y-62807182D01*
X186551917Y-62807184D01*
X186397139Y-62871295D01*
X186257837Y-62964373D01*
X186139373Y-63082837D01*
X186046295Y-63222139D01*
X185982184Y-63376917D01*
X185982182Y-63376925D01*
X185949500Y-63541228D01*
X185949500Y-63708771D01*
X185982182Y-63873074D01*
X185982184Y-63873082D01*
X186046295Y-64027860D01*
X186139373Y-64167162D01*
X186257837Y-64285626D01*
X186343108Y-64342602D01*
X186397137Y-64378703D01*
X186551918Y-64442816D01*
X186716228Y-64475499D01*
X186716232Y-64475500D01*
X186716233Y-64475500D01*
X186883768Y-64475500D01*
X186883769Y-64475499D01*
X187048082Y-64442816D01*
X187202863Y-64378703D01*
X187342162Y-64285626D01*
X187460626Y-64167162D01*
X187553703Y-64027863D01*
X187560939Y-64010395D01*
X187604780Y-63955991D01*
X187671074Y-63933926D01*
X187738773Y-63951205D01*
X187786384Y-64002342D01*
X187799500Y-64057847D01*
X187799500Y-121996947D01*
X187799351Y-122003032D01*
X187781502Y-122366335D01*
X187780309Y-122378444D01*
X187727388Y-122735217D01*
X187725014Y-122747153D01*
X187637373Y-123097035D01*
X187633840Y-123108680D01*
X187512335Y-123448262D01*
X187507679Y-123459504D01*
X187353462Y-123785570D01*
X187347725Y-123796302D01*
X187162303Y-124105659D01*
X187155543Y-124115777D01*
X186940678Y-124405488D01*
X186932958Y-124414894D01*
X186690743Y-124682138D01*
X186682138Y-124690743D01*
X186414894Y-124932958D01*
X186405488Y-124940678D01*
X186115777Y-125155543D01*
X186105659Y-125162303D01*
X185796302Y-125347725D01*
X185785570Y-125353462D01*
X185459504Y-125507679D01*
X185448262Y-125512335D01*
X185108680Y-125633840D01*
X185097035Y-125637373D01*
X184747153Y-125725014D01*
X184735217Y-125727388D01*
X184378444Y-125780309D01*
X184366335Y-125781502D01*
X184003033Y-125799351D01*
X183996948Y-125799500D01*
X154003052Y-125799500D01*
X153996967Y-125799351D01*
X153633664Y-125781502D01*
X153621555Y-125780309D01*
X153264782Y-125727388D01*
X153252846Y-125725014D01*
X152902964Y-125637373D01*
X152891323Y-125633841D01*
X152551734Y-125512334D01*
X152540495Y-125507679D01*
X152214429Y-125353462D01*
X152203702Y-125347727D01*
X151894340Y-125162303D01*
X151884222Y-125155543D01*
X151594511Y-124940678D01*
X151585105Y-124932958D01*
X151542479Y-124894324D01*
X151317853Y-124690735D01*
X151309264Y-124682146D01*
X151067041Y-124414894D01*
X151059321Y-124405488D01*
X150844456Y-124115777D01*
X150837696Y-124105659D01*
X150652267Y-123796290D01*
X150646543Y-123785582D01*
X150492317Y-123459497D01*
X150487669Y-123448275D01*
X150366154Y-123108663D01*
X150362629Y-123097046D01*
X150274982Y-122747140D01*
X150272613Y-122735230D01*
X150219689Y-122378440D01*
X150218497Y-122366334D01*
X150200649Y-122003031D01*
X150200500Y-121996947D01*
X150200500Y-121897648D01*
X152699500Y-121897648D01*
X152699500Y-122102351D01*
X152731522Y-122304534D01*
X152794781Y-122499223D01*
X152887715Y-122681613D01*
X153008028Y-122847213D01*
X153152786Y-122991971D01*
X153297397Y-123097035D01*
X153318390Y-123112287D01*
X153434607Y-123171503D01*
X153500776Y-123205218D01*
X153500778Y-123205218D01*
X153500781Y-123205220D01*
X153605137Y-123239127D01*
X153695465Y-123268477D01*
X153796557Y-123284488D01*
X153897648Y-123300500D01*
X153897649Y-123300500D01*
X154102351Y-123300500D01*
X154102352Y-123300500D01*
X154304534Y-123268477D01*
X154499219Y-123205220D01*
X154681610Y-123112287D01*
X154774590Y-123044732D01*
X154847213Y-122991971D01*
X154847215Y-122991968D01*
X154847219Y-122991966D01*
X154991966Y-122847219D01*
X154991968Y-122847215D01*
X154991971Y-122847213D01*
X155044732Y-122774590D01*
X155112287Y-122681610D01*
X155205220Y-122499219D01*
X155268477Y-122304534D01*
X155300500Y-122102352D01*
X155300500Y-122096153D01*
X165237000Y-122096153D01*
X165237000Y-122253846D01*
X165267761Y-122408489D01*
X165267764Y-122408501D01*
X165328102Y-122554172D01*
X165328109Y-122554185D01*
X165415710Y-122685288D01*
X165415713Y-122685292D01*
X165527207Y-122796786D01*
X165527211Y-122796789D01*
X165658314Y-122884390D01*
X165658327Y-122884397D01*
X165803998Y-122944735D01*
X165804003Y-122944737D01*
X165958653Y-122975499D01*
X165958656Y-122975500D01*
X165958658Y-122975500D01*
X166116344Y-122975500D01*
X166116345Y-122975499D01*
X166270997Y-122944737D01*
X166416679Y-122884394D01*
X166547789Y-122796789D01*
X166659289Y-122685289D01*
X166746894Y-122554179D01*
X166807237Y-122408497D01*
X166838000Y-122253842D01*
X166838000Y-122096158D01*
X166838000Y-122096155D01*
X166837999Y-122096153D01*
X166818873Y-122000000D01*
X166807237Y-121941503D01*
X166789072Y-121897648D01*
X182699500Y-121897648D01*
X182699500Y-122102351D01*
X182731522Y-122304534D01*
X182794781Y-122499223D01*
X182887715Y-122681613D01*
X183008028Y-122847213D01*
X183152786Y-122991971D01*
X183297397Y-123097035D01*
X183318390Y-123112287D01*
X183434607Y-123171503D01*
X183500776Y-123205218D01*
X183500778Y-123205218D01*
X183500781Y-123205220D01*
X183605137Y-123239127D01*
X183695465Y-123268477D01*
X183796557Y-123284488D01*
X183897648Y-123300500D01*
X183897649Y-123300500D01*
X184102351Y-123300500D01*
X184102352Y-123300500D01*
X184304534Y-123268477D01*
X184499219Y-123205220D01*
X184681610Y-123112287D01*
X184774590Y-123044732D01*
X184847213Y-122991971D01*
X184847215Y-122991968D01*
X184847219Y-122991966D01*
X184991966Y-122847219D01*
X184991968Y-122847215D01*
X184991971Y-122847213D01*
X185044732Y-122774590D01*
X185112287Y-122681610D01*
X185205220Y-122499219D01*
X185268477Y-122304534D01*
X185300500Y-122102352D01*
X185300500Y-121897648D01*
X185268477Y-121695466D01*
X185205220Y-121500781D01*
X185205218Y-121500778D01*
X185205218Y-121500776D01*
X185171503Y-121434607D01*
X185112287Y-121318390D01*
X185104556Y-121307749D01*
X184991971Y-121152786D01*
X184847213Y-121008028D01*
X184681613Y-120887715D01*
X184681612Y-120887714D01*
X184681610Y-120887713D01*
X184624653Y-120858691D01*
X184499223Y-120794781D01*
X184304534Y-120731522D01*
X184129995Y-120703878D01*
X184102352Y-120699500D01*
X183897648Y-120699500D01*
X183873329Y-120703351D01*
X183695465Y-120731522D01*
X183500776Y-120794781D01*
X183318386Y-120887715D01*
X183152786Y-121008028D01*
X183008028Y-121152786D01*
X182887715Y-121318386D01*
X182794781Y-121500776D01*
X182731522Y-121695465D01*
X182699500Y-121897648D01*
X166789072Y-121897648D01*
X166746897Y-121795827D01*
X166746890Y-121795814D01*
X166659289Y-121664711D01*
X166659286Y-121664707D01*
X166547792Y-121553213D01*
X166547788Y-121553210D01*
X166416685Y-121465609D01*
X166416672Y-121465602D01*
X166271001Y-121405264D01*
X166270989Y-121405261D01*
X166116345Y-121374500D01*
X166116342Y-121374500D01*
X165958658Y-121374500D01*
X165958655Y-121374500D01*
X165804010Y-121405261D01*
X165803998Y-121405264D01*
X165658327Y-121465602D01*
X165658314Y-121465609D01*
X165527211Y-121553210D01*
X165527207Y-121553213D01*
X165415713Y-121664707D01*
X165415710Y-121664711D01*
X165328109Y-121795814D01*
X165328102Y-121795827D01*
X165267764Y-121941498D01*
X165267761Y-121941510D01*
X165237000Y-122096153D01*
X155300500Y-122096153D01*
X155300500Y-121897648D01*
X155268477Y-121695466D01*
X155205220Y-121500781D01*
X155205218Y-121500778D01*
X155205218Y-121500776D01*
X155171503Y-121434607D01*
X155112287Y-121318390D01*
X155104556Y-121307749D01*
X154991971Y-121152786D01*
X154847213Y-121008028D01*
X154681613Y-120887715D01*
X154681612Y-120887714D01*
X154681610Y-120887713D01*
X154624653Y-120858691D01*
X154499223Y-120794781D01*
X154304534Y-120731522D01*
X154129995Y-120703878D01*
X154102352Y-120699500D01*
X153897648Y-120699500D01*
X153873329Y-120703351D01*
X153695465Y-120731522D01*
X153500776Y-120794781D01*
X153318386Y-120887715D01*
X153152786Y-121008028D01*
X153008028Y-121152786D01*
X152887715Y-121318386D01*
X152794781Y-121500776D01*
X152731522Y-121695465D01*
X152699500Y-121897648D01*
X150200500Y-121897648D01*
X150200500Y-118271153D01*
X166274500Y-118271153D01*
X166274500Y-118428846D01*
X166305261Y-118583489D01*
X166305264Y-118583501D01*
X166365602Y-118729172D01*
X166365609Y-118729185D01*
X166453210Y-118860288D01*
X166453213Y-118860292D01*
X166564707Y-118971786D01*
X166564711Y-118971789D01*
X166695814Y-119059390D01*
X166695827Y-119059397D01*
X166841498Y-119119735D01*
X166841503Y-119119737D01*
X166996153Y-119150499D01*
X166996156Y-119150500D01*
X166996158Y-119150500D01*
X167153844Y-119150500D01*
X167153845Y-119150499D01*
X167308497Y-119119737D01*
X167454179Y-119059394D01*
X167585289Y-118971789D01*
X167696789Y-118860289D01*
X167784394Y-118729179D01*
X167844737Y-118583497D01*
X167875500Y-118428842D01*
X167875500Y-118271158D01*
X167875500Y-118271155D01*
X167875499Y-118271153D01*
X168674500Y-118271153D01*
X168674500Y-118428846D01*
X168705261Y-118583489D01*
X168705264Y-118583501D01*
X168765602Y-118729172D01*
X168765609Y-118729185D01*
X168853210Y-118860288D01*
X168853213Y-118860292D01*
X168964707Y-118971786D01*
X168964711Y-118971789D01*
X169095814Y-119059390D01*
X169095827Y-119059397D01*
X169241498Y-119119735D01*
X169241503Y-119119737D01*
X169396153Y-119150499D01*
X169396156Y-119150500D01*
X169396158Y-119150500D01*
X169553844Y-119150500D01*
X169553845Y-119150499D01*
X169708497Y-119119737D01*
X169854179Y-119059394D01*
X169985289Y-118971789D01*
X170096789Y-118860289D01*
X170184394Y-118729179D01*
X170244737Y-118583497D01*
X170275500Y-118428842D01*
X170275500Y-118271158D01*
X170275500Y-118271155D01*
X170275499Y-118271153D01*
X170244738Y-118116510D01*
X170244737Y-118116503D01*
X170244735Y-118116498D01*
X170184397Y-117970827D01*
X170184390Y-117970814D01*
X170096789Y-117839711D01*
X170096786Y-117839707D01*
X169985292Y-117728213D01*
X169985288Y-117728210D01*
X169854185Y-117640609D01*
X169854172Y-117640602D01*
X169708501Y-117580264D01*
X169708489Y-117580261D01*
X169553845Y-117549500D01*
X169553842Y-117549500D01*
X169396158Y-117549500D01*
X169396155Y-117549500D01*
X169241510Y-117580261D01*
X169241498Y-117580264D01*
X169095827Y-117640602D01*
X169095814Y-117640609D01*
X168964711Y-117728210D01*
X168964707Y-117728213D01*
X168853213Y-117839707D01*
X168853210Y-117839711D01*
X168765609Y-117970814D01*
X168765602Y-117970827D01*
X168705264Y-118116498D01*
X168705261Y-118116510D01*
X168674500Y-118271153D01*
X167875499Y-118271153D01*
X167844738Y-118116510D01*
X167844737Y-118116503D01*
X167844735Y-118116498D01*
X167784397Y-117970827D01*
X167784390Y-117970814D01*
X167696789Y-117839711D01*
X167696786Y-117839707D01*
X167585292Y-117728213D01*
X167585288Y-117728210D01*
X167454185Y-117640609D01*
X167454172Y-117640602D01*
X167308501Y-117580264D01*
X167308489Y-117580261D01*
X167153845Y-117549500D01*
X167153842Y-117549500D01*
X166996158Y-117549500D01*
X166996155Y-117549500D01*
X166841510Y-117580261D01*
X166841498Y-117580264D01*
X166695827Y-117640602D01*
X166695814Y-117640609D01*
X166564711Y-117728210D01*
X166564707Y-117728213D01*
X166453213Y-117839707D01*
X166453210Y-117839711D01*
X166365609Y-117970814D01*
X166365602Y-117970827D01*
X166305264Y-118116498D01*
X166305261Y-118116510D01*
X166274500Y-118271153D01*
X150200500Y-118271153D01*
X150200500Y-114010803D01*
X180175000Y-114010803D01*
X180175000Y-114575000D01*
X181307096Y-114575000D01*
X181275000Y-114736358D01*
X181275000Y-114913642D01*
X181307096Y-115075000D01*
X180175001Y-115075000D01*
X180175001Y-115639197D01*
X180185400Y-115771332D01*
X180240377Y-115989519D01*
X180333428Y-116194374D01*
X180333431Y-116194380D01*
X180461559Y-116379323D01*
X180461569Y-116379335D01*
X180620664Y-116538430D01*
X180620676Y-116538440D01*
X180805619Y-116666568D01*
X180805625Y-116666571D01*
X181010480Y-116759622D01*
X181228667Y-116814599D01*
X181360810Y-116824999D01*
X181924999Y-116824999D01*
X181925000Y-116824998D01*
X181925000Y-115692904D01*
X182086358Y-115725000D01*
X182263642Y-115725000D01*
X182425000Y-115692904D01*
X182425000Y-116824999D01*
X182989182Y-116824999D01*
X182989197Y-116824998D01*
X183121332Y-116814599D01*
X183339519Y-116759622D01*
X183544374Y-116666571D01*
X183544380Y-116666568D01*
X183729323Y-116538440D01*
X183729335Y-116538430D01*
X183888430Y-116379335D01*
X183888440Y-116379323D01*
X184016568Y-116194380D01*
X184016571Y-116194374D01*
X184109622Y-115989519D01*
X184164599Y-115771332D01*
X184174999Y-115639196D01*
X184175000Y-115639184D01*
X184175000Y-115075000D01*
X183042904Y-115075000D01*
X183075000Y-114913642D01*
X183075000Y-114736358D01*
X183042904Y-114575000D01*
X184174999Y-114575000D01*
X184174999Y-114010817D01*
X184174998Y-114010802D01*
X184164599Y-113878667D01*
X184109622Y-113660480D01*
X184016571Y-113455625D01*
X184016568Y-113455619D01*
X183888440Y-113270676D01*
X183888430Y-113270664D01*
X183729335Y-113111569D01*
X183729323Y-113111559D01*
X183544380Y-112983431D01*
X183544374Y-112983428D01*
X183339519Y-112890377D01*
X183121332Y-112835400D01*
X182989196Y-112825000D01*
X182425000Y-112825000D01*
X182425000Y-113957095D01*
X182263642Y-113925000D01*
X182086358Y-113925000D01*
X181925000Y-113957095D01*
X181925000Y-112825000D01*
X181360817Y-112825000D01*
X181360802Y-112825001D01*
X181228667Y-112835400D01*
X181010480Y-112890377D01*
X180805625Y-112983428D01*
X180805619Y-112983431D01*
X180620676Y-113111559D01*
X180620664Y-113111569D01*
X180461569Y-113270664D01*
X180461559Y-113270676D01*
X180333431Y-113455619D01*
X180333428Y-113455625D01*
X180240377Y-113660480D01*
X180185400Y-113878667D01*
X180175000Y-114010803D01*
X150200500Y-114010803D01*
X150200500Y-109146153D01*
X173849500Y-109146153D01*
X173849500Y-109303846D01*
X173880261Y-109458489D01*
X173880264Y-109458501D01*
X173940602Y-109604172D01*
X173940609Y-109604185D01*
X174028210Y-109735288D01*
X174028213Y-109735292D01*
X174139707Y-109846786D01*
X174139711Y-109846789D01*
X174270814Y-109934390D01*
X174270827Y-109934397D01*
X174416498Y-109994735D01*
X174416503Y-109994737D01*
X174571153Y-110025499D01*
X174571156Y-110025500D01*
X174571158Y-110025500D01*
X174728844Y-110025500D01*
X174728845Y-110025499D01*
X174883497Y-109994737D01*
X175029179Y-109934394D01*
X175160289Y-109846789D01*
X175271789Y-109735289D01*
X175299462Y-109693872D01*
X180174500Y-109693872D01*
X180174500Y-109956127D01*
X180179584Y-109994738D01*
X180208730Y-110216116D01*
X180276602Y-110469418D01*
X180276605Y-110469428D01*
X180376953Y-110711690D01*
X180376958Y-110711700D01*
X180508075Y-110938803D01*
X180667718Y-111146851D01*
X180667726Y-111146860D01*
X180853140Y-111332274D01*
X180853148Y-111332281D01*
X181061196Y-111491924D01*
X181288299Y-111623041D01*
X181288309Y-111623046D01*
X181530571Y-111723394D01*
X181530581Y-111723398D01*
X181783884Y-111791270D01*
X182043880Y-111825500D01*
X182043887Y-111825500D01*
X182306113Y-111825500D01*
X182306120Y-111825500D01*
X182566116Y-111791270D01*
X182819419Y-111723398D01*
X183061697Y-111623043D01*
X183288803Y-111491924D01*
X183496851Y-111332282D01*
X183496855Y-111332277D01*
X183496860Y-111332274D01*
X183682274Y-111146860D01*
X183682277Y-111146855D01*
X183682282Y-111146851D01*
X183841924Y-110938803D01*
X183973043Y-110711697D01*
X184073398Y-110469419D01*
X184141270Y-110216116D01*
X184175500Y-109956120D01*
X184175500Y-109693880D01*
X184141270Y-109433884D01*
X184073398Y-109180581D01*
X184059138Y-109146155D01*
X183973046Y-108938309D01*
X183973041Y-108938299D01*
X183841924Y-108711196D01*
X183691843Y-108515609D01*
X183682282Y-108503149D01*
X183682281Y-108503148D01*
X183682274Y-108503140D01*
X183496860Y-108317726D01*
X183496851Y-108317718D01*
X183288803Y-108158075D01*
X183061700Y-108026958D01*
X183061690Y-108026953D01*
X182819428Y-107926605D01*
X182819421Y-107926603D01*
X182819419Y-107926602D01*
X182566116Y-107858730D01*
X182508339Y-107851123D01*
X182306127Y-107824500D01*
X182306120Y-107824500D01*
X182043880Y-107824500D01*
X182043872Y-107824500D01*
X181812772Y-107854926D01*
X181783884Y-107858730D01*
X181530581Y-107926602D01*
X181530571Y-107926605D01*
X181288309Y-108026953D01*
X181288299Y-108026958D01*
X181061196Y-108158075D01*
X180853148Y-108317718D01*
X180667718Y-108503148D01*
X180508075Y-108711196D01*
X180376958Y-108938299D01*
X180376953Y-108938309D01*
X180276605Y-109180571D01*
X180276602Y-109180581D01*
X180243574Y-109303846D01*
X180208730Y-109433885D01*
X180174500Y-109693872D01*
X175299462Y-109693872D01*
X175309858Y-109678313D01*
X175348202Y-109620930D01*
X175359390Y-109604185D01*
X175359390Y-109604184D01*
X175359394Y-109604179D01*
X175419737Y-109458497D01*
X175450500Y-109303842D01*
X175450500Y-109146158D01*
X175450500Y-109146155D01*
X175450499Y-109146153D01*
X175419738Y-108991510D01*
X175419737Y-108991503D01*
X175419735Y-108991498D01*
X175359397Y-108845827D01*
X175359390Y-108845814D01*
X175271789Y-108714711D01*
X175271786Y-108714707D01*
X175160292Y-108603213D01*
X175160288Y-108603210D01*
X175029185Y-108515609D01*
X175029172Y-108515602D01*
X174883501Y-108455264D01*
X174883489Y-108455261D01*
X174728845Y-108424500D01*
X174728842Y-108424500D01*
X174571158Y-108424500D01*
X174571155Y-108424500D01*
X174416510Y-108455261D01*
X174416498Y-108455264D01*
X174270827Y-108515602D01*
X174270814Y-108515609D01*
X174139711Y-108603210D01*
X174139707Y-108603213D01*
X174028213Y-108714707D01*
X174028210Y-108714711D01*
X173940609Y-108845814D01*
X173940602Y-108845827D01*
X173880264Y-108991498D01*
X173880261Y-108991510D01*
X173849500Y-109146153D01*
X150200500Y-109146153D01*
X150200500Y-101571153D01*
X176249500Y-101571153D01*
X176249500Y-101728846D01*
X176280261Y-101883489D01*
X176280264Y-101883501D01*
X176340602Y-102029172D01*
X176340609Y-102029185D01*
X176428210Y-102160288D01*
X176428213Y-102160292D01*
X176539707Y-102271786D01*
X176539711Y-102271789D01*
X176670814Y-102359390D01*
X176670827Y-102359397D01*
X176816498Y-102419735D01*
X176816503Y-102419737D01*
X176971153Y-102450499D01*
X176971156Y-102450500D01*
X176971158Y-102450500D01*
X177128844Y-102450500D01*
X177128845Y-102450499D01*
X177283497Y-102419737D01*
X177429179Y-102359394D01*
X177560289Y-102271789D01*
X177671789Y-102160289D01*
X177759394Y-102029179D01*
X177819737Y-101883497D01*
X177850500Y-101728842D01*
X177850500Y-101571158D01*
X177850500Y-101571155D01*
X177850499Y-101571153D01*
X177819738Y-101416510D01*
X177819737Y-101416503D01*
X177819735Y-101416498D01*
X177759397Y-101270827D01*
X177759390Y-101270814D01*
X177671789Y-101139711D01*
X177671786Y-101139707D01*
X177560292Y-101028213D01*
X177560288Y-101028210D01*
X177429185Y-100940609D01*
X177429172Y-100940602D01*
X177283501Y-100880264D01*
X177283489Y-100880261D01*
X177128845Y-100849500D01*
X177128842Y-100849500D01*
X176971158Y-100849500D01*
X176971155Y-100849500D01*
X176816510Y-100880261D01*
X176816498Y-100880264D01*
X176670827Y-100940602D01*
X176670814Y-100940609D01*
X176539711Y-101028210D01*
X176539707Y-101028213D01*
X176428213Y-101139707D01*
X176428210Y-101139711D01*
X176340609Y-101270814D01*
X176340602Y-101270827D01*
X176280264Y-101416498D01*
X176280261Y-101416510D01*
X176249500Y-101571153D01*
X150200500Y-101571153D01*
X150200500Y-98146153D01*
X176399500Y-98146153D01*
X176399500Y-98303846D01*
X176430261Y-98458489D01*
X176430264Y-98458501D01*
X176490602Y-98604172D01*
X176490609Y-98604185D01*
X176578210Y-98735288D01*
X176578213Y-98735292D01*
X176689707Y-98846786D01*
X176689711Y-98846789D01*
X176820814Y-98934390D01*
X176820827Y-98934397D01*
X176966498Y-98994735D01*
X176966503Y-98994737D01*
X177121153Y-99025499D01*
X177121156Y-99025500D01*
X177121158Y-99025500D01*
X177278844Y-99025500D01*
X177278845Y-99025499D01*
X177433497Y-98994737D01*
X177550790Y-98946153D01*
X181874500Y-98946153D01*
X181874500Y-99103846D01*
X181905261Y-99258489D01*
X181905264Y-99258501D01*
X181965602Y-99404172D01*
X181965609Y-99404185D01*
X182053210Y-99535288D01*
X182053213Y-99535292D01*
X182164707Y-99646786D01*
X182164711Y-99646789D01*
X182295814Y-99734390D01*
X182295827Y-99734397D01*
X182441498Y-99794735D01*
X182441503Y-99794737D01*
X182596153Y-99825499D01*
X182596156Y-99825500D01*
X182596158Y-99825500D01*
X182753844Y-99825500D01*
X182753845Y-99825499D01*
X182908497Y-99794737D01*
X183054179Y-99734394D01*
X183185289Y-99646789D01*
X183296789Y-99535289D01*
X183384394Y-99404179D01*
X183444737Y-99258497D01*
X183475500Y-99103842D01*
X183475500Y-98946158D01*
X183475500Y-98946155D01*
X183475499Y-98946153D01*
X183455734Y-98846788D01*
X183444737Y-98791503D01*
X183421452Y-98735288D01*
X183384397Y-98645827D01*
X183384390Y-98645814D01*
X183296789Y-98514711D01*
X183296786Y-98514707D01*
X183185292Y-98403213D01*
X183185288Y-98403210D01*
X183054185Y-98315609D01*
X183054172Y-98315602D01*
X182908501Y-98255264D01*
X182908489Y-98255261D01*
X182753845Y-98224500D01*
X182753842Y-98224500D01*
X182596158Y-98224500D01*
X182596155Y-98224500D01*
X182441510Y-98255261D01*
X182441498Y-98255264D01*
X182295827Y-98315602D01*
X182295814Y-98315609D01*
X182164711Y-98403210D01*
X182164707Y-98403213D01*
X182053213Y-98514707D01*
X182053210Y-98514711D01*
X181965609Y-98645814D01*
X181965602Y-98645827D01*
X181905264Y-98791498D01*
X181905261Y-98791510D01*
X181874500Y-98946153D01*
X177550790Y-98946153D01*
X177579179Y-98934394D01*
X177710289Y-98846789D01*
X177821789Y-98735289D01*
X177909394Y-98604179D01*
X177969737Y-98458497D01*
X178000500Y-98303842D01*
X178000500Y-98146158D01*
X178000500Y-98146155D01*
X178000499Y-98146153D01*
X177969737Y-97991503D01*
X177930472Y-97896708D01*
X177909397Y-97845827D01*
X177909390Y-97845814D01*
X177821789Y-97714711D01*
X177821786Y-97714707D01*
X177710292Y-97603213D01*
X177710288Y-97603210D01*
X177682077Y-97584360D01*
X184287707Y-97584360D01*
X184287707Y-97742053D01*
X184318468Y-97896696D01*
X184318471Y-97896708D01*
X184378809Y-98042379D01*
X184378816Y-98042392D01*
X184466417Y-98173495D01*
X184466420Y-98173499D01*
X184577914Y-98284993D01*
X184577918Y-98284996D01*
X184709021Y-98372597D01*
X184709034Y-98372604D01*
X184782932Y-98403213D01*
X184854710Y-98432944D01*
X184983133Y-98458489D01*
X185009360Y-98463706D01*
X185009363Y-98463707D01*
X185009365Y-98463707D01*
X185167051Y-98463707D01*
X185167052Y-98463706D01*
X185321704Y-98432944D01*
X185467386Y-98372601D01*
X185598496Y-98284996D01*
X185709996Y-98173496D01*
X185797601Y-98042386D01*
X185857944Y-97896704D01*
X185888707Y-97742049D01*
X185888707Y-97584365D01*
X185888707Y-97584362D01*
X185888706Y-97584360D01*
X185857945Y-97429717D01*
X185857944Y-97429710D01*
X185855786Y-97424500D01*
X185797604Y-97284034D01*
X185797597Y-97284021D01*
X185709996Y-97152918D01*
X185709993Y-97152914D01*
X185598499Y-97041420D01*
X185598495Y-97041417D01*
X185467392Y-96953816D01*
X185467379Y-96953809D01*
X185321708Y-96893471D01*
X185321696Y-96893468D01*
X185167052Y-96862707D01*
X185167049Y-96862707D01*
X185009365Y-96862707D01*
X185009362Y-96862707D01*
X184854717Y-96893468D01*
X184854705Y-96893471D01*
X184709034Y-96953809D01*
X184709021Y-96953816D01*
X184577918Y-97041417D01*
X184577914Y-97041420D01*
X184466420Y-97152914D01*
X184466417Y-97152918D01*
X184378816Y-97284021D01*
X184378809Y-97284034D01*
X184318471Y-97429705D01*
X184318468Y-97429717D01*
X184287707Y-97584360D01*
X177682077Y-97584360D01*
X177579185Y-97515609D01*
X177579172Y-97515602D01*
X177433501Y-97455264D01*
X177433489Y-97455261D01*
X177278845Y-97424500D01*
X177278842Y-97424500D01*
X177121158Y-97424500D01*
X177121155Y-97424500D01*
X176966510Y-97455261D01*
X176966498Y-97455264D01*
X176820827Y-97515602D01*
X176820814Y-97515609D01*
X176689711Y-97603210D01*
X176689707Y-97603213D01*
X176578213Y-97714707D01*
X176578210Y-97714711D01*
X176490609Y-97845814D01*
X176490602Y-97845827D01*
X176430264Y-97991498D01*
X176430261Y-97991510D01*
X176399500Y-98146153D01*
X150200500Y-98146153D01*
X150200500Y-95671153D01*
X168324500Y-95671153D01*
X168324500Y-95828846D01*
X168355261Y-95983489D01*
X168355264Y-95983501D01*
X168415602Y-96129172D01*
X168415609Y-96129185D01*
X168503210Y-96260288D01*
X168503213Y-96260292D01*
X168614707Y-96371786D01*
X168614711Y-96371789D01*
X168745814Y-96459390D01*
X168745827Y-96459397D01*
X168891498Y-96519735D01*
X168891503Y-96519737D01*
X169046153Y-96550499D01*
X169046156Y-96550500D01*
X169046158Y-96550500D01*
X169203844Y-96550500D01*
X169203845Y-96550499D01*
X169358497Y-96519737D01*
X169504179Y-96459394D01*
X169635289Y-96371789D01*
X169746789Y-96260289D01*
X169834394Y-96129179D01*
X169894737Y-95983497D01*
X169925500Y-95828842D01*
X169925500Y-95671158D01*
X169925500Y-95671155D01*
X169925499Y-95671153D01*
X169920245Y-95644738D01*
X169894737Y-95516503D01*
X169886570Y-95496786D01*
X169834397Y-95370827D01*
X169834390Y-95370814D01*
X169746789Y-95239711D01*
X169746786Y-95239707D01*
X169635292Y-95128213D01*
X169635288Y-95128210D01*
X169504185Y-95040609D01*
X169504172Y-95040602D01*
X169358501Y-94980264D01*
X169358489Y-94980261D01*
X169203845Y-94949500D01*
X169203842Y-94949500D01*
X169046158Y-94949500D01*
X169046155Y-94949500D01*
X168891510Y-94980261D01*
X168891498Y-94980264D01*
X168745827Y-95040602D01*
X168745814Y-95040609D01*
X168614711Y-95128210D01*
X168614707Y-95128213D01*
X168503213Y-95239707D01*
X168503210Y-95239711D01*
X168415609Y-95370814D01*
X168415602Y-95370827D01*
X168355264Y-95516498D01*
X168355261Y-95516510D01*
X168324500Y-95671153D01*
X150200500Y-95671153D01*
X150200500Y-94796153D01*
X176399500Y-94796153D01*
X176399500Y-94953846D01*
X176430261Y-95108489D01*
X176430264Y-95108501D01*
X176490602Y-95254172D01*
X176490609Y-95254185D01*
X176578210Y-95385288D01*
X176578213Y-95385292D01*
X176689707Y-95496786D01*
X176689711Y-95496789D01*
X176820814Y-95584390D01*
X176820827Y-95584397D01*
X176966498Y-95644735D01*
X176966503Y-95644737D01*
X177121153Y-95675499D01*
X177121156Y-95675500D01*
X177121158Y-95675500D01*
X177278844Y-95675500D01*
X177278845Y-95675499D01*
X177433497Y-95644737D01*
X177579179Y-95584394D01*
X177710289Y-95496789D01*
X177821789Y-95385289D01*
X177909394Y-95254179D01*
X177915389Y-95239707D01*
X177961571Y-95128211D01*
X177969737Y-95108497D01*
X178000500Y-94953842D01*
X178000500Y-94796158D01*
X178000500Y-94796155D01*
X178000499Y-94796153D01*
X177969738Y-94641510D01*
X177969737Y-94641503D01*
X177969735Y-94641498D01*
X177909397Y-94495827D01*
X177909390Y-94495814D01*
X177821789Y-94364711D01*
X177821786Y-94364707D01*
X177710292Y-94253213D01*
X177710288Y-94253210D01*
X177579185Y-94165609D01*
X177579172Y-94165602D01*
X177433501Y-94105264D01*
X177433489Y-94105261D01*
X177278845Y-94074500D01*
X177278842Y-94074500D01*
X177121158Y-94074500D01*
X177121155Y-94074500D01*
X176966510Y-94105261D01*
X176966498Y-94105264D01*
X176820827Y-94165602D01*
X176820814Y-94165609D01*
X176689711Y-94253210D01*
X176689707Y-94253213D01*
X176578213Y-94364707D01*
X176578210Y-94364711D01*
X176490609Y-94495814D01*
X176490602Y-94495827D01*
X176430264Y-94641498D01*
X176430261Y-94641510D01*
X176399500Y-94796153D01*
X150200500Y-94796153D01*
X150200500Y-93071153D01*
X179824500Y-93071153D01*
X179824500Y-93228846D01*
X179855261Y-93383489D01*
X179855264Y-93383501D01*
X179915602Y-93529172D01*
X179915609Y-93529185D01*
X180003210Y-93660288D01*
X180003213Y-93660292D01*
X180114707Y-93771786D01*
X180114711Y-93771789D01*
X180245814Y-93859390D01*
X180245827Y-93859397D01*
X180391498Y-93919735D01*
X180391503Y-93919737D01*
X180546153Y-93950499D01*
X180546156Y-93950500D01*
X180546158Y-93950500D01*
X180703844Y-93950500D01*
X180703845Y-93950499D01*
X180858497Y-93919737D01*
X181004179Y-93859394D01*
X181135289Y-93771789D01*
X181246789Y-93660289D01*
X181334394Y-93529179D01*
X181394737Y-93383497D01*
X181425500Y-93228842D01*
X181425500Y-93071158D01*
X181425500Y-93071155D01*
X181425499Y-93071153D01*
X181394738Y-92916510D01*
X181394737Y-92916503D01*
X181394735Y-92916498D01*
X181334397Y-92770827D01*
X181334390Y-92770814D01*
X181246789Y-92639711D01*
X181246786Y-92639707D01*
X181135292Y-92528213D01*
X181135288Y-92528210D01*
X181004185Y-92440609D01*
X181004172Y-92440602D01*
X180858501Y-92380264D01*
X180858489Y-92380261D01*
X180703845Y-92349500D01*
X180703842Y-92349500D01*
X180546158Y-92349500D01*
X180546155Y-92349500D01*
X180391510Y-92380261D01*
X180391498Y-92380264D01*
X180245827Y-92440602D01*
X180245814Y-92440609D01*
X180114711Y-92528210D01*
X180114707Y-92528213D01*
X180003213Y-92639707D01*
X180003210Y-92639711D01*
X179915609Y-92770814D01*
X179915602Y-92770827D01*
X179855264Y-92916498D01*
X179855261Y-92916510D01*
X179824500Y-93071153D01*
X150200500Y-93071153D01*
X150200500Y-88421153D01*
X180999500Y-88421153D01*
X180999500Y-88578846D01*
X181030261Y-88733489D01*
X181030264Y-88733501D01*
X181090602Y-88879172D01*
X181090609Y-88879185D01*
X181178210Y-89010288D01*
X181178213Y-89010292D01*
X181289707Y-89121786D01*
X181289711Y-89121789D01*
X181420814Y-89209390D01*
X181420827Y-89209397D01*
X181566498Y-89269735D01*
X181566503Y-89269737D01*
X181721153Y-89300499D01*
X181721156Y-89300500D01*
X181721158Y-89300500D01*
X181878844Y-89300500D01*
X181878845Y-89300499D01*
X182033497Y-89269737D01*
X182179179Y-89209394D01*
X182310289Y-89121789D01*
X182421789Y-89010289D01*
X182509394Y-88879179D01*
X182569737Y-88733497D01*
X182600500Y-88578842D01*
X182600500Y-88421158D01*
X182600500Y-88421155D01*
X182600499Y-88421153D01*
X182569738Y-88266510D01*
X182569737Y-88266503D01*
X182567163Y-88260288D01*
X182509397Y-88120827D01*
X182509390Y-88120814D01*
X182421789Y-87989711D01*
X182421786Y-87989707D01*
X182310292Y-87878213D01*
X182310288Y-87878210D01*
X182179185Y-87790609D01*
X182179173Y-87790602D01*
X182152674Y-87779627D01*
X182033501Y-87730264D01*
X182033489Y-87730261D01*
X181878845Y-87699500D01*
X181878842Y-87699500D01*
X181721158Y-87699500D01*
X181721155Y-87699500D01*
X181566510Y-87730261D01*
X181566498Y-87730264D01*
X181420827Y-87790602D01*
X181420814Y-87790609D01*
X181289711Y-87878210D01*
X181289707Y-87878213D01*
X181178213Y-87989707D01*
X181178210Y-87989711D01*
X181090609Y-88120814D01*
X181090602Y-88120827D01*
X181030264Y-88266498D01*
X181030261Y-88266510D01*
X180999500Y-88421153D01*
X150200500Y-88421153D01*
X150200500Y-87671153D01*
X184074500Y-87671153D01*
X184074500Y-87828846D01*
X184105261Y-87983489D01*
X184105264Y-87983501D01*
X184165602Y-88129172D01*
X184165609Y-88129185D01*
X184253210Y-88260288D01*
X184253213Y-88260292D01*
X184364707Y-88371786D01*
X184364711Y-88371789D01*
X184495814Y-88459390D01*
X184495827Y-88459397D01*
X184641498Y-88519735D01*
X184641503Y-88519737D01*
X184796153Y-88550499D01*
X184796156Y-88550500D01*
X184796158Y-88550500D01*
X184953844Y-88550500D01*
X184953845Y-88550499D01*
X185108497Y-88519737D01*
X185254179Y-88459394D01*
X185385289Y-88371789D01*
X185496789Y-88260289D01*
X185584394Y-88129179D01*
X185587854Y-88120827D01*
X185642163Y-87989711D01*
X185644737Y-87983497D01*
X185675500Y-87828842D01*
X185675500Y-87671158D01*
X185675500Y-87671155D01*
X185675499Y-87671153D01*
X185655326Y-87569737D01*
X185644737Y-87516503D01*
X185641791Y-87509390D01*
X185584397Y-87370827D01*
X185584390Y-87370814D01*
X185496789Y-87239711D01*
X185496786Y-87239707D01*
X185385292Y-87128213D01*
X185385288Y-87128210D01*
X185254185Y-87040609D01*
X185254172Y-87040602D01*
X185108501Y-86980264D01*
X185108489Y-86980261D01*
X184953845Y-86949500D01*
X184953842Y-86949500D01*
X184796158Y-86949500D01*
X184796155Y-86949500D01*
X184641510Y-86980261D01*
X184641498Y-86980264D01*
X184495827Y-87040602D01*
X184495814Y-87040609D01*
X184364711Y-87128210D01*
X184364707Y-87128213D01*
X184253213Y-87239707D01*
X184253210Y-87239711D01*
X184165609Y-87370814D01*
X184165602Y-87370827D01*
X184105264Y-87516498D01*
X184105261Y-87516510D01*
X184074500Y-87671153D01*
X150200500Y-87671153D01*
X150200500Y-86721153D01*
X160899500Y-86721153D01*
X160899500Y-86878846D01*
X160930261Y-87033489D01*
X160930264Y-87033501D01*
X160990602Y-87179172D01*
X160990609Y-87179185D01*
X161078210Y-87310288D01*
X161078213Y-87310292D01*
X161189707Y-87421786D01*
X161189711Y-87421789D01*
X161320814Y-87509390D01*
X161320827Y-87509397D01*
X161466498Y-87569735D01*
X161466503Y-87569737D01*
X161621153Y-87600499D01*
X161621156Y-87600500D01*
X161621158Y-87600500D01*
X161778844Y-87600500D01*
X161778845Y-87600499D01*
X161933497Y-87569737D01*
X162079179Y-87509394D01*
X162210289Y-87421789D01*
X162321789Y-87310289D01*
X162409394Y-87179179D01*
X162469737Y-87033497D01*
X162500500Y-86878842D01*
X162500500Y-86721158D01*
X162500500Y-86721155D01*
X162500499Y-86721153D01*
X162469738Y-86566510D01*
X162469737Y-86566503D01*
X162469735Y-86566498D01*
X162409397Y-86420827D01*
X162409390Y-86420814D01*
X162321789Y-86289711D01*
X162321786Y-86289707D01*
X162210292Y-86178213D01*
X162210288Y-86178210D01*
X162079185Y-86090609D01*
X162079172Y-86090602D01*
X161933501Y-86030264D01*
X161933489Y-86030261D01*
X161778845Y-85999500D01*
X161778842Y-85999500D01*
X161621158Y-85999500D01*
X161621155Y-85999500D01*
X161466510Y-86030261D01*
X161466498Y-86030264D01*
X161320827Y-86090602D01*
X161320814Y-86090609D01*
X161189711Y-86178210D01*
X161189707Y-86178213D01*
X161078213Y-86289707D01*
X161078210Y-86289711D01*
X160990609Y-86420814D01*
X160990602Y-86420827D01*
X160930264Y-86566498D01*
X160930261Y-86566510D01*
X160899500Y-86721153D01*
X150200500Y-86721153D01*
X150200500Y-82483653D01*
X153999500Y-82483653D01*
X153999500Y-82641346D01*
X154030261Y-82795989D01*
X154030264Y-82796001D01*
X154090602Y-82941672D01*
X154090609Y-82941685D01*
X154178210Y-83072788D01*
X154178213Y-83072792D01*
X154289707Y-83184286D01*
X154289711Y-83184289D01*
X154420814Y-83271890D01*
X154420827Y-83271897D01*
X154566498Y-83332235D01*
X154566503Y-83332237D01*
X154658312Y-83350499D01*
X154721153Y-83362999D01*
X154721156Y-83363000D01*
X154721158Y-83363000D01*
X154878844Y-83363000D01*
X154878845Y-83362999D01*
X155033497Y-83332237D01*
X155179179Y-83271894D01*
X155310289Y-83184289D01*
X155421789Y-83072789D01*
X155509394Y-82941679D01*
X155569737Y-82795997D01*
X155600500Y-82641342D01*
X155600500Y-82533653D01*
X156349500Y-82533653D01*
X156349500Y-82691346D01*
X156380261Y-82845989D01*
X156380264Y-82846001D01*
X156440602Y-82991672D01*
X156440609Y-82991685D01*
X156528210Y-83122788D01*
X156528213Y-83122792D01*
X156639707Y-83234286D01*
X156639711Y-83234289D01*
X156770814Y-83321890D01*
X156770827Y-83321897D01*
X156916498Y-83382235D01*
X156916503Y-83382237D01*
X157008312Y-83400499D01*
X157071153Y-83412999D01*
X157071156Y-83413000D01*
X157071158Y-83413000D01*
X157228844Y-83413000D01*
X157228845Y-83412999D01*
X157383497Y-83382237D01*
X157529179Y-83321894D01*
X157660289Y-83234289D01*
X157771789Y-83122789D01*
X157859394Y-82991679D01*
X157919737Y-82845997D01*
X157950500Y-82691342D01*
X157950500Y-82533658D01*
X157950500Y-82533656D01*
X157950500Y-82533655D01*
X157950499Y-82533653D01*
X157919738Y-82379010D01*
X157919737Y-82379003D01*
X157903829Y-82340597D01*
X157859397Y-82233327D01*
X157859390Y-82233314D01*
X157771789Y-82102211D01*
X157771786Y-82102207D01*
X157660292Y-81990713D01*
X157660288Y-81990710D01*
X157529185Y-81903109D01*
X157529172Y-81903102D01*
X157383501Y-81842764D01*
X157383489Y-81842761D01*
X157228845Y-81812000D01*
X157228842Y-81812000D01*
X157071158Y-81812000D01*
X157071155Y-81812000D01*
X156916510Y-81842761D01*
X156916498Y-81842764D01*
X156770827Y-81903102D01*
X156770814Y-81903109D01*
X156639711Y-81990710D01*
X156639707Y-81990713D01*
X156528213Y-82102207D01*
X156528210Y-82102211D01*
X156440609Y-82233314D01*
X156440602Y-82233327D01*
X156380264Y-82378998D01*
X156380261Y-82379010D01*
X156349500Y-82533653D01*
X155600500Y-82533653D01*
X155600500Y-82483658D01*
X155600500Y-82483655D01*
X155600499Y-82483653D01*
X155579684Y-82379010D01*
X155569737Y-82329003D01*
X155564187Y-82315603D01*
X155509397Y-82183327D01*
X155509390Y-82183314D01*
X155421789Y-82052211D01*
X155421786Y-82052207D01*
X155310292Y-81940713D01*
X155310288Y-81940710D01*
X155179185Y-81853109D01*
X155179172Y-81853102D01*
X155033501Y-81792764D01*
X155033489Y-81792761D01*
X154878845Y-81762000D01*
X154878842Y-81762000D01*
X154721158Y-81762000D01*
X154721155Y-81762000D01*
X154566510Y-81792761D01*
X154566498Y-81792764D01*
X154420827Y-81853102D01*
X154420814Y-81853109D01*
X154289711Y-81940710D01*
X154289707Y-81940713D01*
X154178213Y-82052207D01*
X154178210Y-82052211D01*
X154090609Y-82183314D01*
X154090602Y-82183327D01*
X154030264Y-82328998D01*
X154030261Y-82329010D01*
X153999500Y-82483653D01*
X150200500Y-82483653D01*
X150200500Y-81021153D01*
X157849500Y-81021153D01*
X157849500Y-81178846D01*
X157880261Y-81333489D01*
X157880264Y-81333501D01*
X157940602Y-81479172D01*
X157940609Y-81479185D01*
X158028210Y-81610288D01*
X158028213Y-81610292D01*
X158139707Y-81721786D01*
X158139711Y-81721789D01*
X158270814Y-81809390D01*
X158270827Y-81809397D01*
X158376359Y-81853109D01*
X158416503Y-81869737D01*
X158571153Y-81900499D01*
X158571156Y-81900500D01*
X158681575Y-81900500D01*
X158748614Y-81920185D01*
X158794369Y-81972989D01*
X158804313Y-82042147D01*
X158780423Y-82096363D01*
X158781595Y-82097146D01*
X158690609Y-82233314D01*
X158690602Y-82233327D01*
X158630264Y-82378998D01*
X158630261Y-82379010D01*
X158599500Y-82533653D01*
X158599500Y-82691346D01*
X158630261Y-82845989D01*
X158630264Y-82846001D01*
X158690602Y-82991672D01*
X158690609Y-82991685D01*
X158778210Y-83122788D01*
X158778213Y-83122792D01*
X158889707Y-83234286D01*
X158889711Y-83234289D01*
X159020814Y-83321890D01*
X159020827Y-83321897D01*
X159166498Y-83382235D01*
X159166503Y-83382237D01*
X159258312Y-83400499D01*
X159321153Y-83412999D01*
X159321156Y-83413000D01*
X159321158Y-83413000D01*
X159478844Y-83413000D01*
X159478845Y-83412999D01*
X159633497Y-83382237D01*
X159779179Y-83321894D01*
X159910289Y-83234289D01*
X160021789Y-83122789D01*
X160109394Y-82991679D01*
X160169737Y-82845997D01*
X160200500Y-82691342D01*
X160200500Y-82533658D01*
X160200499Y-82533655D01*
X160191668Y-82489259D01*
X160191668Y-82489257D01*
X160188067Y-82471153D01*
X163199500Y-82471153D01*
X163199500Y-82628846D01*
X163230261Y-82783489D01*
X163230264Y-82783501D01*
X163290602Y-82929172D01*
X163290609Y-82929185D01*
X163378210Y-83060288D01*
X163378213Y-83060292D01*
X163489707Y-83171786D01*
X163489711Y-83171789D01*
X163620814Y-83259390D01*
X163620827Y-83259397D01*
X163766498Y-83319735D01*
X163766503Y-83319737D01*
X163921153Y-83350499D01*
X163921156Y-83350500D01*
X163921158Y-83350500D01*
X164078844Y-83350500D01*
X164078845Y-83350499D01*
X164233497Y-83319737D01*
X164379179Y-83259394D01*
X164510289Y-83171789D01*
X164621789Y-83060289D01*
X164709394Y-82929179D01*
X164769737Y-82783497D01*
X164800500Y-82628842D01*
X164800500Y-82521153D01*
X165499500Y-82521153D01*
X165499500Y-82678846D01*
X165530261Y-82833489D01*
X165530264Y-82833501D01*
X165590602Y-82979172D01*
X165590609Y-82979185D01*
X165678210Y-83110288D01*
X165678213Y-83110292D01*
X165789707Y-83221786D01*
X165789711Y-83221789D01*
X165920814Y-83309390D01*
X165920827Y-83309397D01*
X166020060Y-83350500D01*
X166066503Y-83369737D01*
X166221153Y-83400499D01*
X166221156Y-83400500D01*
X166221158Y-83400500D01*
X166378844Y-83400500D01*
X166378845Y-83400499D01*
X166533497Y-83369737D01*
X166679179Y-83309394D01*
X166810289Y-83221789D01*
X166921789Y-83110289D01*
X167009394Y-82979179D01*
X167069737Y-82833497D01*
X167100500Y-82678842D01*
X167100500Y-82521158D01*
X167100500Y-82521155D01*
X167100499Y-82521153D01*
X167090553Y-82471153D01*
X167069737Y-82366503D01*
X167069735Y-82366498D01*
X167009397Y-82220827D01*
X167009390Y-82220814D01*
X166921789Y-82089711D01*
X166921786Y-82089707D01*
X166810292Y-81978213D01*
X166810288Y-81978210D01*
X166679185Y-81890609D01*
X166679172Y-81890602D01*
X166533501Y-81830264D01*
X166533489Y-81830261D01*
X166378845Y-81799500D01*
X166378842Y-81799500D01*
X166221158Y-81799500D01*
X166221155Y-81799500D01*
X166066510Y-81830261D01*
X166066498Y-81830264D01*
X165920827Y-81890602D01*
X165920814Y-81890609D01*
X165789711Y-81978210D01*
X165789707Y-81978213D01*
X165678213Y-82089707D01*
X165678210Y-82089711D01*
X165590609Y-82220814D01*
X165590602Y-82220827D01*
X165530264Y-82366498D01*
X165530261Y-82366510D01*
X165499500Y-82521153D01*
X164800500Y-82521153D01*
X164800500Y-82471158D01*
X164800500Y-82471155D01*
X164800499Y-82471153D01*
X164779684Y-82366510D01*
X164769737Y-82316503D01*
X164756862Y-82285420D01*
X164709397Y-82170827D01*
X164709390Y-82170814D01*
X164621789Y-82039711D01*
X164621786Y-82039707D01*
X164510292Y-81928213D01*
X164510288Y-81928210D01*
X164379185Y-81840609D01*
X164379172Y-81840602D01*
X164233501Y-81780264D01*
X164233489Y-81780261D01*
X164078845Y-81749500D01*
X164078842Y-81749500D01*
X163921158Y-81749500D01*
X163921155Y-81749500D01*
X163766510Y-81780261D01*
X163766498Y-81780264D01*
X163620827Y-81840602D01*
X163620814Y-81840609D01*
X163489711Y-81928210D01*
X163489707Y-81928213D01*
X163378213Y-82039707D01*
X163378210Y-82039711D01*
X163290609Y-82170814D01*
X163290602Y-82170827D01*
X163230264Y-82316498D01*
X163230261Y-82316510D01*
X163199500Y-82471153D01*
X160188067Y-82471153D01*
X160175940Y-82410188D01*
X160182167Y-82340597D01*
X160225030Y-82285420D01*
X160250101Y-82271438D01*
X160279179Y-82259394D01*
X160410289Y-82171789D01*
X160521789Y-82060289D01*
X160609394Y-81929179D01*
X160669737Y-81783497D01*
X160700500Y-81628842D01*
X160700500Y-81471158D01*
X160700500Y-81471155D01*
X160700499Y-81471153D01*
X160673117Y-81333497D01*
X160669737Y-81316503D01*
X160669735Y-81316498D01*
X160609397Y-81170827D01*
X160609390Y-81170814D01*
X160521789Y-81039711D01*
X160521786Y-81039707D01*
X160410292Y-80928213D01*
X160410288Y-80928210D01*
X160279185Y-80840609D01*
X160279172Y-80840602D01*
X160133501Y-80780264D01*
X160133489Y-80780261D01*
X159978845Y-80749500D01*
X159978842Y-80749500D01*
X159821158Y-80749500D01*
X159821155Y-80749500D01*
X159666510Y-80780261D01*
X159666498Y-80780264D01*
X159539945Y-80832684D01*
X159470476Y-80840153D01*
X159407997Y-80808877D01*
X159377932Y-80765575D01*
X159359397Y-80720827D01*
X159359390Y-80720814D01*
X159271789Y-80589711D01*
X159271786Y-80589707D01*
X159160292Y-80478213D01*
X159160288Y-80478210D01*
X159029185Y-80390609D01*
X159029172Y-80390602D01*
X158883501Y-80330264D01*
X158883489Y-80330261D01*
X158728845Y-80299500D01*
X158728842Y-80299500D01*
X158571158Y-80299500D01*
X158571155Y-80299500D01*
X158416510Y-80330261D01*
X158416498Y-80330264D01*
X158270827Y-80390602D01*
X158270814Y-80390609D01*
X158139711Y-80478210D01*
X158139707Y-80478213D01*
X158028213Y-80589707D01*
X158028210Y-80589711D01*
X157940609Y-80720814D01*
X157940602Y-80720827D01*
X157880264Y-80866498D01*
X157880261Y-80866510D01*
X157849500Y-81021153D01*
X150200500Y-81021153D01*
X150200500Y-80221153D01*
X184099500Y-80221153D01*
X184099500Y-80378846D01*
X184130261Y-80533489D01*
X184130264Y-80533501D01*
X184190602Y-80679172D01*
X184190609Y-80679185D01*
X184278210Y-80810288D01*
X184278213Y-80810292D01*
X184389707Y-80921786D01*
X184389711Y-80921789D01*
X184520814Y-81009390D01*
X184520827Y-81009397D01*
X184594013Y-81039711D01*
X184666503Y-81069737D01*
X184821153Y-81100499D01*
X184821156Y-81100500D01*
X184821158Y-81100500D01*
X184978844Y-81100500D01*
X184978845Y-81100499D01*
X185133497Y-81069737D01*
X185279179Y-81009394D01*
X185410289Y-80921789D01*
X185521789Y-80810289D01*
X185609394Y-80679179D01*
X185669737Y-80533497D01*
X185700500Y-80378842D01*
X185700500Y-80221158D01*
X185700500Y-80221155D01*
X185700499Y-80221153D01*
X185669738Y-80066510D01*
X185669737Y-80066503D01*
X185632043Y-79975500D01*
X185609397Y-79920827D01*
X185609390Y-79920814D01*
X185521789Y-79789711D01*
X185521786Y-79789707D01*
X185410292Y-79678213D01*
X185410288Y-79678210D01*
X185279185Y-79590609D01*
X185279172Y-79590602D01*
X185133501Y-79530264D01*
X185133489Y-79530261D01*
X184978845Y-79499500D01*
X184978842Y-79499500D01*
X184821158Y-79499500D01*
X184821155Y-79499500D01*
X184666510Y-79530261D01*
X184666498Y-79530264D01*
X184520827Y-79590602D01*
X184520814Y-79590609D01*
X184389711Y-79678210D01*
X184389707Y-79678213D01*
X184278213Y-79789707D01*
X184278210Y-79789711D01*
X184190609Y-79920814D01*
X184190602Y-79920827D01*
X184130264Y-80066498D01*
X184130261Y-80066510D01*
X184099500Y-80221153D01*
X150200500Y-80221153D01*
X150200500Y-79096153D01*
X168824500Y-79096153D01*
X168824500Y-79253846D01*
X168855261Y-79408489D01*
X168855264Y-79408501D01*
X168915602Y-79554172D01*
X168915609Y-79554185D01*
X169003210Y-79685288D01*
X169003213Y-79685292D01*
X169114707Y-79796786D01*
X169114711Y-79796789D01*
X169245814Y-79884390D01*
X169245827Y-79884397D01*
X169391498Y-79944735D01*
X169391503Y-79944737D01*
X169546153Y-79975499D01*
X169546156Y-79975500D01*
X169546158Y-79975500D01*
X169703844Y-79975500D01*
X169703845Y-79975499D01*
X169858497Y-79944737D01*
X170004179Y-79884394D01*
X170135289Y-79796789D01*
X170246789Y-79685289D01*
X170334394Y-79554179D01*
X170368477Y-79471892D01*
X170412317Y-79417491D01*
X170478611Y-79395425D01*
X170507231Y-79397729D01*
X170517036Y-79399680D01*
X170521157Y-79400500D01*
X170521158Y-79400500D01*
X170678844Y-79400500D01*
X170678845Y-79400499D01*
X170833497Y-79369737D01*
X170979179Y-79309394D01*
X171110289Y-79221789D01*
X171221789Y-79110289D01*
X171298721Y-78995153D01*
X175605839Y-78995153D01*
X175605839Y-79152846D01*
X175636600Y-79307489D01*
X175636603Y-79307501D01*
X175696941Y-79453172D01*
X175696948Y-79453185D01*
X175784549Y-79584288D01*
X175784552Y-79584292D01*
X175896046Y-79695786D01*
X175896050Y-79695789D01*
X176027153Y-79783390D01*
X176027166Y-79783397D01*
X176172837Y-79843735D01*
X176172842Y-79843737D01*
X176327492Y-79874499D01*
X176327495Y-79874500D01*
X176327497Y-79874500D01*
X176485183Y-79874500D01*
X176485184Y-79874499D01*
X176639836Y-79843737D01*
X176785518Y-79783394D01*
X176916628Y-79695789D01*
X177028128Y-79584289D01*
X177115733Y-79453179D01*
X177176076Y-79307497D01*
X177206839Y-79152842D01*
X177206839Y-78995158D01*
X177206839Y-78995155D01*
X177206838Y-78995153D01*
X177176077Y-78840510D01*
X177176076Y-78840503D01*
X177157568Y-78795821D01*
X177115736Y-78694827D01*
X177115729Y-78694814D01*
X177028128Y-78563711D01*
X177028125Y-78563707D01*
X176916631Y-78452213D01*
X176916627Y-78452210D01*
X176785524Y-78364609D01*
X176785511Y-78364602D01*
X176639840Y-78304264D01*
X176639828Y-78304261D01*
X176485184Y-78273500D01*
X176485181Y-78273500D01*
X176327497Y-78273500D01*
X176327494Y-78273500D01*
X176172849Y-78304261D01*
X176172837Y-78304264D01*
X176027166Y-78364602D01*
X176027153Y-78364609D01*
X175896050Y-78452210D01*
X175896046Y-78452213D01*
X175784552Y-78563707D01*
X175784549Y-78563711D01*
X175696948Y-78694814D01*
X175696941Y-78694827D01*
X175636603Y-78840498D01*
X175636600Y-78840510D01*
X175605839Y-78995153D01*
X171298721Y-78995153D01*
X171309394Y-78979179D01*
X171369737Y-78833497D01*
X171400500Y-78678842D01*
X171400500Y-78521158D01*
X171400500Y-78521155D01*
X171400499Y-78521153D01*
X171369737Y-78366503D01*
X171369735Y-78366498D01*
X171309397Y-78220827D01*
X171309390Y-78220814D01*
X171221789Y-78089711D01*
X171221786Y-78089707D01*
X171110292Y-77978213D01*
X171110288Y-77978210D01*
X170979185Y-77890609D01*
X170979172Y-77890602D01*
X170833501Y-77830264D01*
X170833489Y-77830261D01*
X170678845Y-77799500D01*
X170678842Y-77799500D01*
X170521158Y-77799500D01*
X170521155Y-77799500D01*
X170366510Y-77830261D01*
X170366498Y-77830264D01*
X170220827Y-77890602D01*
X170220814Y-77890609D01*
X170089711Y-77978210D01*
X170089707Y-77978213D01*
X169978213Y-78089707D01*
X169978210Y-78089711D01*
X169890609Y-78220814D01*
X169890604Y-78220824D01*
X169856522Y-78303106D01*
X169812681Y-78357509D01*
X169746387Y-78379574D01*
X169717770Y-78377270D01*
X169703845Y-78374500D01*
X169703842Y-78374500D01*
X169546158Y-78374500D01*
X169546155Y-78374500D01*
X169391510Y-78405261D01*
X169391498Y-78405264D01*
X169245827Y-78465602D01*
X169245814Y-78465609D01*
X169114711Y-78553210D01*
X169114707Y-78553213D01*
X169003213Y-78664707D01*
X169003210Y-78664711D01*
X168915609Y-78795814D01*
X168915602Y-78795827D01*
X168855264Y-78941498D01*
X168855261Y-78941510D01*
X168824500Y-79096153D01*
X150200500Y-79096153D01*
X150200500Y-75897648D01*
X152699500Y-75897648D01*
X152699500Y-76102351D01*
X152731522Y-76304534D01*
X152794781Y-76499223D01*
X152887715Y-76681613D01*
X153008028Y-76847213D01*
X153152786Y-76991971D01*
X153307749Y-77104556D01*
X153318390Y-77112287D01*
X153434607Y-77171503D01*
X153500776Y-77205218D01*
X153500778Y-77205218D01*
X153500781Y-77205220D01*
X153605137Y-77239127D01*
X153695465Y-77268477D01*
X153760932Y-77278846D01*
X153897648Y-77300500D01*
X153897649Y-77300500D01*
X154102351Y-77300500D01*
X154102352Y-77300500D01*
X154304534Y-77268477D01*
X154499219Y-77205220D01*
X154664210Y-77121153D01*
X180349500Y-77121153D01*
X180349500Y-77278846D01*
X180380261Y-77433489D01*
X180380264Y-77433501D01*
X180440602Y-77579172D01*
X180440609Y-77579185D01*
X180528210Y-77710288D01*
X180528213Y-77710292D01*
X180639707Y-77821786D01*
X180639711Y-77821789D01*
X180770814Y-77909390D01*
X180770827Y-77909397D01*
X180916498Y-77969735D01*
X180916503Y-77969737D01*
X181071153Y-78000499D01*
X181071156Y-78000500D01*
X181071158Y-78000500D01*
X181228844Y-78000500D01*
X181228845Y-78000499D01*
X181383497Y-77969737D01*
X181529179Y-77909394D01*
X181660289Y-77821789D01*
X181771789Y-77710289D01*
X181859394Y-77579179D01*
X181919737Y-77433497D01*
X181950500Y-77278842D01*
X181950500Y-77121158D01*
X181950500Y-77121155D01*
X181950499Y-77121153D01*
X181948735Y-77112284D01*
X181919737Y-76966503D01*
X181919735Y-76966498D01*
X181859397Y-76820827D01*
X181859390Y-76820814D01*
X181771789Y-76689711D01*
X181771786Y-76689707D01*
X181660292Y-76578213D01*
X181660288Y-76578210D01*
X181529185Y-76490609D01*
X181529172Y-76490602D01*
X181383501Y-76430264D01*
X181383489Y-76430261D01*
X181228845Y-76399500D01*
X181228842Y-76399500D01*
X181071158Y-76399500D01*
X181071155Y-76399500D01*
X180916510Y-76430261D01*
X180916498Y-76430264D01*
X180770827Y-76490602D01*
X180770814Y-76490609D01*
X180639711Y-76578210D01*
X180639707Y-76578213D01*
X180528213Y-76689707D01*
X180528210Y-76689711D01*
X180440609Y-76820814D01*
X180440602Y-76820827D01*
X180380264Y-76966498D01*
X180380261Y-76966510D01*
X180349500Y-77121153D01*
X154664210Y-77121153D01*
X154681610Y-77112287D01*
X154753190Y-77060281D01*
X154815863Y-77014748D01*
X154815864Y-77014747D01*
X154847215Y-76991969D01*
X154847215Y-76991968D01*
X154847219Y-76991966D01*
X154991966Y-76847219D01*
X154991968Y-76847215D01*
X154991971Y-76847213D01*
X155106401Y-76689711D01*
X155112287Y-76681610D01*
X155205220Y-76499219D01*
X155268477Y-76304534D01*
X155300500Y-76102352D01*
X155300500Y-75897648D01*
X155272545Y-75721153D01*
X165349500Y-75721153D01*
X165349500Y-75878846D01*
X165380261Y-76033489D01*
X165380264Y-76033501D01*
X165440602Y-76179172D01*
X165440609Y-76179185D01*
X165528210Y-76310288D01*
X165528213Y-76310292D01*
X165639707Y-76421786D01*
X165639711Y-76421789D01*
X165770814Y-76509390D01*
X165770827Y-76509397D01*
X165916498Y-76569735D01*
X165916503Y-76569737D01*
X166071153Y-76600499D01*
X166071156Y-76600500D01*
X166071158Y-76600500D01*
X166228844Y-76600500D01*
X166228845Y-76600499D01*
X166383497Y-76569737D01*
X166529179Y-76509394D01*
X166660289Y-76421789D01*
X166771789Y-76310289D01*
X166859394Y-76179179D01*
X166919737Y-76033497D01*
X166950500Y-75878842D01*
X166950500Y-75721158D01*
X166950500Y-75721155D01*
X166934209Y-75639258D01*
X166934209Y-75639257D01*
X166930608Y-75621153D01*
X177699500Y-75621153D01*
X177699500Y-75778846D01*
X177730261Y-75933489D01*
X177730264Y-75933501D01*
X177790602Y-76079172D01*
X177790609Y-76079185D01*
X177878210Y-76210288D01*
X177878213Y-76210292D01*
X177989707Y-76321786D01*
X177989711Y-76321789D01*
X178120814Y-76409390D01*
X178120827Y-76409397D01*
X178266498Y-76469735D01*
X178266503Y-76469737D01*
X178414718Y-76499219D01*
X178421153Y-76500499D01*
X178421156Y-76500500D01*
X178421158Y-76500500D01*
X178578844Y-76500500D01*
X178578845Y-76500499D01*
X178733497Y-76469737D01*
X178879179Y-76409394D01*
X179010289Y-76321789D01*
X179121789Y-76210289D01*
X179209394Y-76079179D01*
X179269737Y-75933497D01*
X179276867Y-75897648D01*
X182699500Y-75897648D01*
X182699500Y-76102351D01*
X182731522Y-76304534D01*
X182794781Y-76499223D01*
X182887715Y-76681613D01*
X183008028Y-76847213D01*
X183152786Y-76991971D01*
X183307749Y-77104556D01*
X183318390Y-77112287D01*
X183434607Y-77171503D01*
X183500776Y-77205218D01*
X183500778Y-77205218D01*
X183500781Y-77205220D01*
X183605137Y-77239127D01*
X183695465Y-77268477D01*
X183760932Y-77278846D01*
X183897648Y-77300500D01*
X183897649Y-77300500D01*
X184102351Y-77300500D01*
X184102352Y-77300500D01*
X184304534Y-77268477D01*
X184499219Y-77205220D01*
X184681610Y-77112287D01*
X184774590Y-77044732D01*
X184847213Y-76991971D01*
X184847215Y-76991968D01*
X184847219Y-76991966D01*
X184991966Y-76847219D01*
X184991968Y-76847215D01*
X184991971Y-76847213D01*
X185106401Y-76689711D01*
X185112287Y-76681610D01*
X185205220Y-76499219D01*
X185268477Y-76304534D01*
X185300500Y-76102352D01*
X185300500Y-75897648D01*
X185272546Y-75721155D01*
X185268477Y-75695465D01*
X185205218Y-75500776D01*
X185164475Y-75420814D01*
X185112287Y-75318390D01*
X185091448Y-75289707D01*
X184991971Y-75152786D01*
X184847213Y-75008028D01*
X184681613Y-74887715D01*
X184681612Y-74887714D01*
X184681610Y-74887713D01*
X184624653Y-74858691D01*
X184499223Y-74794781D01*
X184304534Y-74731522D01*
X184129995Y-74703878D01*
X184102352Y-74699500D01*
X183897648Y-74699500D01*
X183873329Y-74703351D01*
X183695465Y-74731522D01*
X183500776Y-74794781D01*
X183318386Y-74887715D01*
X183152786Y-75008028D01*
X183008028Y-75152786D01*
X182887715Y-75318386D01*
X182794781Y-75500776D01*
X182731522Y-75695465D01*
X182699500Y-75897648D01*
X179276867Y-75897648D01*
X179285813Y-75852673D01*
X179300500Y-75778844D01*
X179300500Y-75621155D01*
X179300499Y-75621153D01*
X179269738Y-75466510D01*
X179269737Y-75466503D01*
X179250812Y-75420814D01*
X179209397Y-75320827D01*
X179209390Y-75320814D01*
X179121789Y-75189711D01*
X179121786Y-75189707D01*
X179010292Y-75078213D01*
X179010288Y-75078210D01*
X178879185Y-74990609D01*
X178879172Y-74990602D01*
X178733501Y-74930264D01*
X178733489Y-74930261D01*
X178578845Y-74899500D01*
X178578842Y-74899500D01*
X178421158Y-74899500D01*
X178421155Y-74899500D01*
X178266510Y-74930261D01*
X178266498Y-74930264D01*
X178120827Y-74990602D01*
X178120814Y-74990609D01*
X177989711Y-75078210D01*
X177989707Y-75078213D01*
X177878213Y-75189707D01*
X177878210Y-75189711D01*
X177790609Y-75320814D01*
X177790602Y-75320827D01*
X177730264Y-75466498D01*
X177730261Y-75466510D01*
X177699500Y-75621153D01*
X166930608Y-75621153D01*
X166919738Y-75566510D01*
X166919737Y-75566503D01*
X166919735Y-75566498D01*
X166859397Y-75420827D01*
X166859390Y-75420814D01*
X166771789Y-75289711D01*
X166771786Y-75289707D01*
X166660292Y-75178213D01*
X166660288Y-75178210D01*
X166529185Y-75090609D01*
X166529172Y-75090602D01*
X166383501Y-75030264D01*
X166383489Y-75030261D01*
X166228845Y-74999500D01*
X166228842Y-74999500D01*
X166071158Y-74999500D01*
X166071155Y-74999500D01*
X165916510Y-75030261D01*
X165916498Y-75030264D01*
X165770827Y-75090602D01*
X165770814Y-75090609D01*
X165639711Y-75178210D01*
X165639707Y-75178213D01*
X165528213Y-75289707D01*
X165528210Y-75289711D01*
X165440609Y-75420814D01*
X165440602Y-75420827D01*
X165380264Y-75566498D01*
X165380261Y-75566510D01*
X165349500Y-75721153D01*
X155272545Y-75721153D01*
X155268477Y-75695465D01*
X155205218Y-75500776D01*
X155164475Y-75420814D01*
X155112287Y-75318390D01*
X155091448Y-75289707D01*
X154991971Y-75152786D01*
X154847213Y-75008028D01*
X154681613Y-74887715D01*
X154681612Y-74887714D01*
X154681610Y-74887713D01*
X154624653Y-74858691D01*
X154499223Y-74794781D01*
X154304534Y-74731522D01*
X154129995Y-74703878D01*
X154102352Y-74699500D01*
X153897648Y-74699500D01*
X153873329Y-74703351D01*
X153695465Y-74731522D01*
X153500776Y-74794781D01*
X153318386Y-74887715D01*
X153152786Y-75008028D01*
X153008028Y-75152786D01*
X152887715Y-75318386D01*
X152794781Y-75500776D01*
X152731522Y-75695465D01*
X152699500Y-75897648D01*
X150200500Y-75897648D01*
X150200500Y-73133552D01*
X176967199Y-73133552D01*
X176967199Y-73291245D01*
X176997960Y-73445888D01*
X176997963Y-73445900D01*
X177058301Y-73591571D01*
X177058308Y-73591584D01*
X177145909Y-73722687D01*
X177145912Y-73722691D01*
X177257406Y-73834185D01*
X177257410Y-73834188D01*
X177388513Y-73921789D01*
X177388526Y-73921796D01*
X177534197Y-73982134D01*
X177534202Y-73982136D01*
X177688852Y-74012898D01*
X177688855Y-74012899D01*
X177688857Y-74012899D01*
X177846543Y-74012899D01*
X177846544Y-74012898D01*
X178001196Y-73982136D01*
X178146878Y-73921793D01*
X178277988Y-73834188D01*
X178389488Y-73722688D01*
X178477093Y-73591578D01*
X178537436Y-73445896D01*
X178568199Y-73291241D01*
X178568199Y-73133557D01*
X178568199Y-73133554D01*
X178568198Y-73133552D01*
X178537437Y-72978909D01*
X178537436Y-72978902D01*
X178537434Y-72978897D01*
X178477096Y-72833226D01*
X178477089Y-72833213D01*
X178389488Y-72702110D01*
X178389485Y-72702106D01*
X178277991Y-72590612D01*
X178277987Y-72590609D01*
X178146884Y-72503008D01*
X178146871Y-72503001D01*
X178001200Y-72442663D01*
X178001188Y-72442660D01*
X177846544Y-72411899D01*
X177846541Y-72411899D01*
X177688857Y-72411899D01*
X177688854Y-72411899D01*
X177534209Y-72442660D01*
X177534197Y-72442663D01*
X177388526Y-72503001D01*
X177388513Y-72503008D01*
X177257410Y-72590609D01*
X177257406Y-72590612D01*
X177145912Y-72702106D01*
X177145909Y-72702110D01*
X177058308Y-72833213D01*
X177058301Y-72833226D01*
X176997963Y-72978897D01*
X176997960Y-72978909D01*
X176967199Y-73133552D01*
X150200500Y-73133552D01*
X150200500Y-69846153D01*
X168349500Y-69846153D01*
X168349500Y-70003846D01*
X168380261Y-70158489D01*
X168380264Y-70158501D01*
X168440602Y-70304172D01*
X168440609Y-70304185D01*
X168528210Y-70435288D01*
X168528213Y-70435292D01*
X168639707Y-70546786D01*
X168639711Y-70546789D01*
X168770814Y-70634390D01*
X168770827Y-70634397D01*
X168916498Y-70694735D01*
X168916503Y-70694737D01*
X169071153Y-70725499D01*
X169071156Y-70725500D01*
X169071158Y-70725500D01*
X169228844Y-70725500D01*
X169228845Y-70725499D01*
X169383497Y-70694737D01*
X169529179Y-70634394D01*
X169660289Y-70546789D01*
X169771789Y-70435289D01*
X169831348Y-70346153D01*
X176799500Y-70346153D01*
X176799500Y-70503846D01*
X176830261Y-70658489D01*
X176830264Y-70658501D01*
X176890602Y-70804172D01*
X176890609Y-70804185D01*
X176978210Y-70935288D01*
X176978213Y-70935292D01*
X177089707Y-71046786D01*
X177089711Y-71046789D01*
X177220814Y-71134390D01*
X177220827Y-71134397D01*
X177366498Y-71194735D01*
X177366503Y-71194737D01*
X177521153Y-71225499D01*
X177521156Y-71225500D01*
X177521158Y-71225500D01*
X177678844Y-71225500D01*
X177678845Y-71225499D01*
X177833497Y-71194737D01*
X177979179Y-71134394D01*
X178110289Y-71046789D01*
X178221789Y-70935289D01*
X178309394Y-70804179D01*
X178369737Y-70658497D01*
X178400500Y-70503842D01*
X178400500Y-70346158D01*
X178400500Y-70346155D01*
X178400499Y-70346153D01*
X178369738Y-70191510D01*
X178369737Y-70191503D01*
X178356062Y-70158489D01*
X178309397Y-70045827D01*
X178309390Y-70045814D01*
X178221789Y-69914711D01*
X178221786Y-69914707D01*
X178110292Y-69803213D01*
X178110288Y-69803210D01*
X177979185Y-69715609D01*
X177979172Y-69715602D01*
X177833501Y-69655264D01*
X177833489Y-69655261D01*
X177678845Y-69624500D01*
X177678842Y-69624500D01*
X177521158Y-69624500D01*
X177521155Y-69624500D01*
X177366510Y-69655261D01*
X177366498Y-69655264D01*
X177220827Y-69715602D01*
X177220814Y-69715609D01*
X177089711Y-69803210D01*
X177089707Y-69803213D01*
X176978213Y-69914707D01*
X176978210Y-69914711D01*
X176890609Y-70045814D01*
X176890602Y-70045827D01*
X176830264Y-70191498D01*
X176830261Y-70191510D01*
X176799500Y-70346153D01*
X169831348Y-70346153D01*
X169859394Y-70304179D01*
X169919737Y-70158497D01*
X169950500Y-70003842D01*
X169950500Y-69846158D01*
X169950500Y-69846155D01*
X169950499Y-69846153D01*
X169924531Y-69715606D01*
X169919737Y-69691503D01*
X169919735Y-69691498D01*
X169859397Y-69545827D01*
X169859390Y-69545814D01*
X169771789Y-69414711D01*
X169771786Y-69414707D01*
X169660292Y-69303213D01*
X169660288Y-69303210D01*
X169529185Y-69215609D01*
X169529172Y-69215602D01*
X169383501Y-69155264D01*
X169383489Y-69155261D01*
X169228845Y-69124500D01*
X169228842Y-69124500D01*
X169071158Y-69124500D01*
X169071155Y-69124500D01*
X168916510Y-69155261D01*
X168916498Y-69155264D01*
X168770827Y-69215602D01*
X168770814Y-69215609D01*
X168639711Y-69303210D01*
X168639707Y-69303213D01*
X168528213Y-69414707D01*
X168528210Y-69414711D01*
X168440609Y-69545814D01*
X168440602Y-69545827D01*
X168380264Y-69691498D01*
X168380261Y-69691510D01*
X168349500Y-69846153D01*
X150200500Y-69846153D01*
X150200500Y-68006687D01*
X170960250Y-68006687D01*
X170960250Y-68164380D01*
X170991011Y-68319023D01*
X170991014Y-68319035D01*
X171051352Y-68464706D01*
X171051359Y-68464719D01*
X171138960Y-68595822D01*
X171138963Y-68595826D01*
X171250457Y-68707320D01*
X171250461Y-68707323D01*
X171381564Y-68794924D01*
X171381577Y-68794931D01*
X171527248Y-68855269D01*
X171527253Y-68855271D01*
X171681903Y-68886033D01*
X171681906Y-68886034D01*
X171681908Y-68886034D01*
X171839594Y-68886034D01*
X171839595Y-68886033D01*
X171994247Y-68855271D01*
X172139929Y-68794928D01*
X172271039Y-68707323D01*
X172382539Y-68595823D01*
X172470144Y-68464713D01*
X172530487Y-68319031D01*
X172561250Y-68164376D01*
X172561250Y-68006692D01*
X172561250Y-68006689D01*
X172561249Y-68006687D01*
X172530488Y-67852044D01*
X172530487Y-67852037D01*
X172530485Y-67852032D01*
X172470147Y-67706361D01*
X172470140Y-67706348D01*
X172382539Y-67575245D01*
X172382536Y-67575241D01*
X172271042Y-67463747D01*
X172271038Y-67463744D01*
X172139935Y-67376143D01*
X172139922Y-67376136D01*
X171994251Y-67315798D01*
X171994239Y-67315795D01*
X171839595Y-67285034D01*
X171839592Y-67285034D01*
X171681908Y-67285034D01*
X171681905Y-67285034D01*
X171527260Y-67315795D01*
X171527248Y-67315798D01*
X171381577Y-67376136D01*
X171381564Y-67376143D01*
X171250461Y-67463744D01*
X171250457Y-67463747D01*
X171138963Y-67575241D01*
X171138960Y-67575245D01*
X171051359Y-67706348D01*
X171051352Y-67706361D01*
X170991014Y-67852032D01*
X170991011Y-67852044D01*
X170960250Y-68006687D01*
X150200500Y-68006687D01*
X150200500Y-65721153D01*
X158499500Y-65721153D01*
X158499500Y-65878846D01*
X158530261Y-66033489D01*
X158530264Y-66033501D01*
X158590602Y-66179172D01*
X158590609Y-66179185D01*
X158678210Y-66310288D01*
X158678213Y-66310292D01*
X158789707Y-66421786D01*
X158789711Y-66421789D01*
X158920814Y-66509390D01*
X158920827Y-66509397D01*
X159066498Y-66569735D01*
X159066503Y-66569737D01*
X159221153Y-66600499D01*
X159221156Y-66600500D01*
X159384934Y-66600500D01*
X159384934Y-66602993D01*
X159442836Y-66613959D01*
X159493558Y-66662012D01*
X159510250Y-66729858D01*
X159507990Y-66748547D01*
X159499500Y-66791232D01*
X159499500Y-66958771D01*
X159532182Y-67123074D01*
X159532184Y-67123082D01*
X159596295Y-67277860D01*
X159689373Y-67417162D01*
X159807837Y-67535626D01*
X159900494Y-67597537D01*
X159947137Y-67628703D01*
X160101918Y-67692816D01*
X160266228Y-67725499D01*
X160266232Y-67725500D01*
X160266233Y-67725500D01*
X160433768Y-67725500D01*
X160433769Y-67725499D01*
X160598082Y-67692816D01*
X160752863Y-67628703D01*
X160892162Y-67535626D01*
X161010626Y-67417162D01*
X161103703Y-67277863D01*
X161167816Y-67123082D01*
X161200500Y-66958767D01*
X161200500Y-66791233D01*
X161167816Y-66626918D01*
X161113651Y-66496153D01*
X164399500Y-66496153D01*
X164399500Y-66653846D01*
X164430261Y-66808489D01*
X164430264Y-66808501D01*
X164490602Y-66954172D01*
X164490609Y-66954185D01*
X164578210Y-67085288D01*
X164578213Y-67085292D01*
X164689707Y-67196786D01*
X164689711Y-67196789D01*
X164820814Y-67284390D01*
X164820827Y-67284397D01*
X164966498Y-67344735D01*
X164966503Y-67344737D01*
X165121153Y-67375499D01*
X165121156Y-67375500D01*
X165121158Y-67375500D01*
X165278844Y-67375500D01*
X165278845Y-67375499D01*
X165433497Y-67344737D01*
X165579179Y-67284394D01*
X165710289Y-67196789D01*
X165821789Y-67085289D01*
X165909394Y-66954179D01*
X165969737Y-66808497D01*
X166000500Y-66653842D01*
X166000500Y-66496158D01*
X166000500Y-66496155D01*
X166000499Y-66496153D01*
X165969738Y-66341510D01*
X165969737Y-66341503D01*
X165966148Y-66332838D01*
X165909397Y-66195827D01*
X165909390Y-66195814D01*
X165821790Y-66064712D01*
X165821784Y-66064705D01*
X165753232Y-65996153D01*
X170779500Y-65996153D01*
X170779500Y-66153846D01*
X170810261Y-66308489D01*
X170810264Y-66308501D01*
X170870602Y-66454172D01*
X170870609Y-66454185D01*
X170958210Y-66585288D01*
X170958213Y-66585292D01*
X171069707Y-66696786D01*
X171069711Y-66696789D01*
X171200814Y-66784390D01*
X171200827Y-66784397D01*
X171346498Y-66844735D01*
X171346503Y-66844737D01*
X171501153Y-66875499D01*
X171501156Y-66875500D01*
X171501158Y-66875500D01*
X171658844Y-66875500D01*
X171658845Y-66875499D01*
X171813497Y-66844737D01*
X171942668Y-66791233D01*
X171959172Y-66784397D01*
X171959172Y-66784396D01*
X171959179Y-66784394D01*
X172090289Y-66696789D01*
X172201789Y-66585289D01*
X172214522Y-66566233D01*
X172214525Y-66566228D01*
X185349500Y-66566228D01*
X185349500Y-66733771D01*
X185382182Y-66898074D01*
X185382184Y-66898082D01*
X185446295Y-67052860D01*
X185539373Y-67192162D01*
X185657837Y-67310626D01*
X185708890Y-67344738D01*
X185797137Y-67403703D01*
X185951918Y-67467816D01*
X186116228Y-67500499D01*
X186116232Y-67500500D01*
X186116233Y-67500500D01*
X186283768Y-67500500D01*
X186283769Y-67500499D01*
X186448082Y-67467816D01*
X186602863Y-67403703D01*
X186742162Y-67310626D01*
X186860626Y-67192162D01*
X186953703Y-67052863D01*
X187017816Y-66898082D01*
X187050500Y-66733767D01*
X187050500Y-66566233D01*
X187017816Y-66401918D01*
X186953703Y-66247137D01*
X186891368Y-66153846D01*
X186860626Y-66107837D01*
X186742162Y-65989373D01*
X186602860Y-65896295D01*
X186448082Y-65832184D01*
X186448074Y-65832182D01*
X186283771Y-65799500D01*
X186283767Y-65799500D01*
X186116233Y-65799500D01*
X186116228Y-65799500D01*
X185951925Y-65832182D01*
X185951917Y-65832184D01*
X185797139Y-65896295D01*
X185657837Y-65989373D01*
X185539373Y-66107837D01*
X185446295Y-66247139D01*
X185382184Y-66401917D01*
X185382182Y-66401925D01*
X185349500Y-66566228D01*
X172214525Y-66566228D01*
X172264624Y-66491250D01*
X172264624Y-66491249D01*
X172289394Y-66454179D01*
X172349737Y-66308497D01*
X172380500Y-66153842D01*
X172380500Y-65996158D01*
X172380500Y-65996155D01*
X172380499Y-65996153D01*
X172354531Y-65865606D01*
X172349737Y-65841503D01*
X172345876Y-65832182D01*
X172289397Y-65695827D01*
X172289390Y-65695814D01*
X172201789Y-65564711D01*
X172201786Y-65564707D01*
X172090292Y-65453213D01*
X172090288Y-65453210D01*
X171959185Y-65365609D01*
X171959172Y-65365602D01*
X171813501Y-65305264D01*
X171813489Y-65305261D01*
X171658845Y-65274500D01*
X171658842Y-65274500D01*
X171501158Y-65274500D01*
X171501155Y-65274500D01*
X171346510Y-65305261D01*
X171346498Y-65305264D01*
X171200827Y-65365602D01*
X171200814Y-65365609D01*
X171069711Y-65453210D01*
X171069707Y-65453213D01*
X170958213Y-65564707D01*
X170958210Y-65564711D01*
X170870609Y-65695814D01*
X170870602Y-65695827D01*
X170810264Y-65841498D01*
X170810261Y-65841510D01*
X170779500Y-65996153D01*
X165753232Y-65996153D01*
X165710292Y-65953213D01*
X165710288Y-65953210D01*
X165579185Y-65865609D01*
X165579172Y-65865602D01*
X165433501Y-65805264D01*
X165433489Y-65805261D01*
X165278845Y-65774500D01*
X165278842Y-65774500D01*
X165121158Y-65774500D01*
X165121155Y-65774500D01*
X164966510Y-65805261D01*
X164966498Y-65805264D01*
X164820827Y-65865602D01*
X164820814Y-65865609D01*
X164689711Y-65953210D01*
X164689707Y-65953213D01*
X164578213Y-66064707D01*
X164578210Y-66064711D01*
X164490609Y-66195814D01*
X164490602Y-66195827D01*
X164430264Y-66341498D01*
X164430261Y-66341510D01*
X164399500Y-66496153D01*
X161113651Y-66496153D01*
X161103703Y-66472137D01*
X161056783Y-66401917D01*
X161010626Y-66332837D01*
X160892162Y-66214373D01*
X160752860Y-66121295D01*
X160598082Y-66057184D01*
X160598074Y-66057182D01*
X160433771Y-66024500D01*
X160433767Y-66024500D01*
X160266233Y-66024500D01*
X160266232Y-66024500D01*
X160245516Y-66028620D01*
X160175924Y-66022391D01*
X160120748Y-65979526D01*
X160097506Y-65913636D01*
X160099711Y-65882808D01*
X160100500Y-65878841D01*
X160100500Y-65721155D01*
X160100499Y-65721153D01*
X160069738Y-65566510D01*
X160069737Y-65566503D01*
X160068993Y-65564707D01*
X160009397Y-65420827D01*
X160009390Y-65420814D01*
X159921789Y-65289711D01*
X159921786Y-65289707D01*
X159810292Y-65178213D01*
X159810288Y-65178210D01*
X159679185Y-65090609D01*
X159679172Y-65090602D01*
X159533501Y-65030264D01*
X159533489Y-65030261D01*
X159378845Y-64999500D01*
X159378842Y-64999500D01*
X159221158Y-64999500D01*
X159221155Y-64999500D01*
X159066510Y-65030261D01*
X159066498Y-65030264D01*
X158920827Y-65090602D01*
X158920814Y-65090609D01*
X158789711Y-65178210D01*
X158789707Y-65178213D01*
X158678213Y-65289707D01*
X158678210Y-65289711D01*
X158590609Y-65420814D01*
X158590602Y-65420827D01*
X158530264Y-65566498D01*
X158530261Y-65566510D01*
X158499500Y-65721153D01*
X150200500Y-65721153D01*
X150200500Y-63505127D01*
X177410601Y-63505127D01*
X177410601Y-63672670D01*
X177443283Y-63836973D01*
X177443285Y-63836981D01*
X177507396Y-63991759D01*
X177600474Y-64131061D01*
X177718938Y-64249525D01*
X177808533Y-64309390D01*
X177858238Y-64342602D01*
X178013019Y-64406715D01*
X178177329Y-64439398D01*
X178177333Y-64439399D01*
X178177334Y-64439399D01*
X178344869Y-64439399D01*
X178344870Y-64439398D01*
X178509183Y-64406715D01*
X178663964Y-64342602D01*
X178803263Y-64249525D01*
X178823067Y-64229721D01*
X178884389Y-64196234D01*
X178954081Y-64201217D01*
X178984454Y-64218691D01*
X178984646Y-64218405D01*
X178988918Y-64221259D01*
X178989409Y-64221542D01*
X178989707Y-64221787D01*
X179120814Y-64309390D01*
X179120827Y-64309397D01*
X179200995Y-64342603D01*
X179266503Y-64369737D01*
X179421153Y-64400499D01*
X179421156Y-64400500D01*
X179421158Y-64400500D01*
X179578844Y-64400500D01*
X179578845Y-64400499D01*
X179733497Y-64369737D01*
X179879179Y-64309394D01*
X180010289Y-64221789D01*
X180121789Y-64110289D01*
X180209394Y-63979179D01*
X180269737Y-63833497D01*
X180300500Y-63678842D01*
X180300500Y-63521158D01*
X180300500Y-63521155D01*
X180300499Y-63521153D01*
X180271810Y-63376925D01*
X180269737Y-63366503D01*
X180269735Y-63366498D01*
X180209397Y-63220827D01*
X180209390Y-63220814D01*
X180121789Y-63089711D01*
X180121786Y-63089707D01*
X180010292Y-62978213D01*
X180010288Y-62978210D01*
X179879185Y-62890609D01*
X179879172Y-62890602D01*
X179733501Y-62830264D01*
X179733489Y-62830261D01*
X179578845Y-62799500D01*
X179578842Y-62799500D01*
X179421158Y-62799500D01*
X179421155Y-62799500D01*
X179266510Y-62830261D01*
X179266498Y-62830264D01*
X179120827Y-62890602D01*
X179120814Y-62890609D01*
X178992493Y-62976351D01*
X178925815Y-62997229D01*
X178858435Y-62978744D01*
X178835921Y-62960930D01*
X178803263Y-62928272D01*
X178663961Y-62835194D01*
X178509183Y-62771083D01*
X178509175Y-62771081D01*
X178344872Y-62738399D01*
X178344868Y-62738399D01*
X178177334Y-62738399D01*
X178177329Y-62738399D01*
X178013026Y-62771081D01*
X178013018Y-62771083D01*
X177858240Y-62835194D01*
X177718938Y-62928272D01*
X177600474Y-63046736D01*
X177507396Y-63186038D01*
X177443285Y-63340816D01*
X177443283Y-63340824D01*
X177410601Y-63505127D01*
X150200500Y-63505127D01*
X150200500Y-60858653D01*
X159462000Y-60858653D01*
X159462000Y-61016346D01*
X159492761Y-61170989D01*
X159492764Y-61171001D01*
X159553102Y-61316672D01*
X159553109Y-61316685D01*
X159640710Y-61447788D01*
X159640713Y-61447792D01*
X159752207Y-61559286D01*
X159752211Y-61559289D01*
X159883314Y-61646890D01*
X159883327Y-61646897D01*
X160028998Y-61707235D01*
X160029003Y-61707237D01*
X160183653Y-61737999D01*
X160183656Y-61738000D01*
X160183658Y-61738000D01*
X160209503Y-61738000D01*
X160276542Y-61757685D01*
X160322297Y-61810489D01*
X160327903Y-61827844D01*
X160328494Y-61827665D01*
X160330264Y-61833501D01*
X160390602Y-61979172D01*
X160390609Y-61979185D01*
X160478210Y-62110288D01*
X160478213Y-62110292D01*
X160589707Y-62221786D01*
X160589711Y-62221789D01*
X160720814Y-62309390D01*
X160720827Y-62309397D01*
X160866498Y-62369735D01*
X160866503Y-62369737D01*
X161021153Y-62400499D01*
X161021156Y-62400500D01*
X161021158Y-62400500D01*
X161178844Y-62400500D01*
X161178845Y-62400499D01*
X161333497Y-62369737D01*
X161479179Y-62309394D01*
X161610289Y-62221789D01*
X161721789Y-62110289D01*
X161809394Y-61979179D01*
X161869737Y-61833497D01*
X161900500Y-61678842D01*
X161900500Y-61521158D01*
X161900500Y-61521155D01*
X161900499Y-61521153D01*
X161899128Y-61514257D01*
X161895527Y-61496153D01*
X169499500Y-61496153D01*
X169499500Y-61653846D01*
X169530261Y-61808489D01*
X169530264Y-61808501D01*
X169590602Y-61954172D01*
X169590609Y-61954185D01*
X169678210Y-62085288D01*
X169678213Y-62085292D01*
X169789707Y-62196786D01*
X169789711Y-62196789D01*
X169920814Y-62284390D01*
X169920827Y-62284397D01*
X170066498Y-62344735D01*
X170066503Y-62344737D01*
X170192176Y-62369735D01*
X170221153Y-62375499D01*
X170221156Y-62375500D01*
X170221158Y-62375500D01*
X170378844Y-62375500D01*
X170378845Y-62375499D01*
X170533497Y-62344737D01*
X170679179Y-62284394D01*
X170810289Y-62196789D01*
X170921789Y-62085289D01*
X171009394Y-61954179D01*
X171069737Y-61808497D01*
X171100500Y-61653842D01*
X171100500Y-61496158D01*
X171100500Y-61496155D01*
X171100499Y-61496153D01*
X171090879Y-61447789D01*
X171069737Y-61341503D01*
X171019752Y-61220827D01*
X171009397Y-61195827D01*
X171009390Y-61195814D01*
X170921789Y-61064711D01*
X170921786Y-61064707D01*
X170810292Y-60953213D01*
X170810288Y-60953210D01*
X170679185Y-60865609D01*
X170679172Y-60865602D01*
X170533501Y-60805264D01*
X170533489Y-60805261D01*
X170378845Y-60774500D01*
X170378842Y-60774500D01*
X170221158Y-60774500D01*
X170221155Y-60774500D01*
X170066510Y-60805261D01*
X170066498Y-60805264D01*
X169920827Y-60865602D01*
X169920814Y-60865609D01*
X169789711Y-60953210D01*
X169789707Y-60953213D01*
X169678213Y-61064707D01*
X169678210Y-61064711D01*
X169590609Y-61195814D01*
X169590602Y-61195827D01*
X169530264Y-61341498D01*
X169530261Y-61341510D01*
X169499500Y-61496153D01*
X161895527Y-61496153D01*
X161869738Y-61366508D01*
X161869737Y-61366507D01*
X161869737Y-61366503D01*
X161849102Y-61316685D01*
X161809397Y-61220827D01*
X161809390Y-61220814D01*
X161721789Y-61089711D01*
X161721786Y-61089707D01*
X161610292Y-60978213D01*
X161610288Y-60978210D01*
X161479185Y-60890609D01*
X161479172Y-60890602D01*
X161333501Y-60830264D01*
X161333489Y-60830261D01*
X161178845Y-60799500D01*
X161178842Y-60799500D01*
X161152997Y-60799500D01*
X161085958Y-60779815D01*
X161040203Y-60727011D01*
X161034596Y-60709655D01*
X161034006Y-60709835D01*
X161032235Y-60703998D01*
X160971897Y-60558327D01*
X160971890Y-60558314D01*
X160884289Y-60427211D01*
X160884286Y-60427207D01*
X160772792Y-60315713D01*
X160772788Y-60315710D01*
X160641685Y-60228109D01*
X160641672Y-60228102D01*
X160496001Y-60167764D01*
X160495989Y-60167761D01*
X160341345Y-60137000D01*
X160341342Y-60137000D01*
X160183658Y-60137000D01*
X160183655Y-60137000D01*
X160029010Y-60167761D01*
X160028998Y-60167764D01*
X159883327Y-60228102D01*
X159883314Y-60228109D01*
X159752211Y-60315710D01*
X159752207Y-60315713D01*
X159640713Y-60427207D01*
X159640710Y-60427211D01*
X159553109Y-60558314D01*
X159553102Y-60558327D01*
X159492764Y-60703998D01*
X159492761Y-60704010D01*
X159462000Y-60858653D01*
X150200500Y-60858653D01*
X150200500Y-57305773D01*
X160209120Y-57305773D01*
X160209120Y-57463466D01*
X160239881Y-57618109D01*
X160239884Y-57618121D01*
X160300222Y-57763792D01*
X160300229Y-57763805D01*
X160387830Y-57894908D01*
X160387833Y-57894912D01*
X160499327Y-58006406D01*
X160499331Y-58006409D01*
X160630434Y-58094010D01*
X160630447Y-58094017D01*
X160776118Y-58154355D01*
X160776123Y-58154357D01*
X160930773Y-58185119D01*
X160930776Y-58185120D01*
X160930778Y-58185120D01*
X161088464Y-58185120D01*
X161088465Y-58185119D01*
X161243117Y-58154357D01*
X161388799Y-58094014D01*
X161519909Y-58006409D01*
X161631409Y-57894909D01*
X161719014Y-57763799D01*
X161779357Y-57618117D01*
X161810120Y-57463462D01*
X161810120Y-57305778D01*
X161810120Y-57305775D01*
X161810119Y-57305773D01*
X161804683Y-57278444D01*
X161779357Y-57151123D01*
X161771748Y-57132754D01*
X161719017Y-57005447D01*
X161719010Y-57005434D01*
X161637350Y-56883222D01*
X161637349Y-56883221D01*
X161631407Y-56874328D01*
X161577497Y-56820418D01*
X180848765Y-56820418D01*
X180848765Y-56978111D01*
X180879526Y-57132754D01*
X180879529Y-57132766D01*
X180939867Y-57278437D01*
X180939874Y-57278450D01*
X181027475Y-57409553D01*
X181027478Y-57409557D01*
X181138972Y-57521051D01*
X181138976Y-57521054D01*
X181270079Y-57608655D01*
X181270092Y-57608662D01*
X181415763Y-57669000D01*
X181415768Y-57669002D01*
X181570418Y-57699764D01*
X181570421Y-57699765D01*
X181570423Y-57699765D01*
X181728109Y-57699765D01*
X181728110Y-57699764D01*
X181882762Y-57669002D01*
X182028444Y-57608659D01*
X182159554Y-57521054D01*
X182271054Y-57409554D01*
X182358659Y-57278444D01*
X182419002Y-57132762D01*
X182449765Y-56978107D01*
X182449765Y-56820423D01*
X182449765Y-56820420D01*
X182449764Y-56820418D01*
X182419002Y-56665768D01*
X182419000Y-56665763D01*
X182358662Y-56520092D01*
X182358655Y-56520079D01*
X182271054Y-56388976D01*
X182271051Y-56388972D01*
X182159557Y-56277478D01*
X182159553Y-56277475D01*
X182028450Y-56189874D01*
X182028437Y-56189867D01*
X181882766Y-56129529D01*
X181882754Y-56129526D01*
X181728110Y-56098765D01*
X181728107Y-56098765D01*
X181570423Y-56098765D01*
X181570420Y-56098765D01*
X181415775Y-56129526D01*
X181415763Y-56129529D01*
X181270092Y-56189867D01*
X181270079Y-56189874D01*
X181138976Y-56277475D01*
X181138972Y-56277478D01*
X181027478Y-56388972D01*
X181027475Y-56388976D01*
X180939874Y-56520079D01*
X180939867Y-56520092D01*
X180879529Y-56665763D01*
X180879526Y-56665775D01*
X180848765Y-56820418D01*
X161577497Y-56820418D01*
X161519912Y-56762833D01*
X161519908Y-56762830D01*
X161388805Y-56675229D01*
X161388792Y-56675222D01*
X161243121Y-56614884D01*
X161243109Y-56614881D01*
X161088465Y-56584120D01*
X161088462Y-56584120D01*
X160930778Y-56584120D01*
X160930775Y-56584120D01*
X160776130Y-56614881D01*
X160776118Y-56614884D01*
X160630447Y-56675222D01*
X160630434Y-56675229D01*
X160499331Y-56762830D01*
X160499327Y-56762833D01*
X160387833Y-56874327D01*
X160387830Y-56874331D01*
X160300229Y-57005434D01*
X160300222Y-57005447D01*
X160239884Y-57151118D01*
X160239881Y-57151130D01*
X160209120Y-57305773D01*
X150200500Y-57305773D01*
X150200500Y-54066228D01*
X157649500Y-54066228D01*
X157649500Y-54233771D01*
X157682182Y-54398074D01*
X157682184Y-54398082D01*
X157746295Y-54552860D01*
X157839373Y-54692162D01*
X157957837Y-54810626D01*
X158049370Y-54871786D01*
X158097137Y-54903703D01*
X158251918Y-54967816D01*
X158416228Y-55000499D01*
X158416232Y-55000500D01*
X158416233Y-55000500D01*
X158583768Y-55000500D01*
X158583769Y-55000499D01*
X158748082Y-54967816D01*
X158902863Y-54903703D01*
X159042162Y-54810626D01*
X159081635Y-54771153D01*
X163649500Y-54771153D01*
X163649500Y-54928846D01*
X163680261Y-55083489D01*
X163680264Y-55083501D01*
X163740602Y-55229172D01*
X163740609Y-55229185D01*
X163828210Y-55360288D01*
X163828213Y-55360292D01*
X163939707Y-55471786D01*
X163939711Y-55471789D01*
X164070814Y-55559390D01*
X164070827Y-55559397D01*
X164216498Y-55619735D01*
X164216503Y-55619737D01*
X164371153Y-55650499D01*
X164371156Y-55650500D01*
X164371158Y-55650500D01*
X164528844Y-55650500D01*
X164528845Y-55650499D01*
X164683497Y-55619737D01*
X164829179Y-55559394D01*
X164960289Y-55471789D01*
X165071789Y-55360289D01*
X165159394Y-55229179D01*
X165219737Y-55083497D01*
X165250500Y-54928842D01*
X165250500Y-54771158D01*
X165250500Y-54771155D01*
X165250499Y-54771153D01*
X165234787Y-54692165D01*
X165219737Y-54616503D01*
X165193377Y-54552863D01*
X165159397Y-54470827D01*
X165159390Y-54470814D01*
X165071789Y-54339711D01*
X165071786Y-54339707D01*
X164960292Y-54228213D01*
X164960288Y-54228210D01*
X164874897Y-54171153D01*
X178749500Y-54171153D01*
X178749500Y-54328846D01*
X178780261Y-54483489D01*
X178780264Y-54483501D01*
X178840602Y-54629172D01*
X178840609Y-54629185D01*
X178928210Y-54760288D01*
X178928213Y-54760292D01*
X179039707Y-54871786D01*
X179039711Y-54871789D01*
X179170814Y-54959390D01*
X179170827Y-54959397D01*
X179270060Y-55000500D01*
X179316503Y-55019737D01*
X179471153Y-55050499D01*
X179471156Y-55050500D01*
X179471158Y-55050500D01*
X179628844Y-55050500D01*
X179628845Y-55050499D01*
X179783497Y-55019737D01*
X179929179Y-54959394D01*
X180060289Y-54871789D01*
X180171789Y-54760289D01*
X180259394Y-54629179D01*
X180319737Y-54483497D01*
X180350500Y-54328842D01*
X180350500Y-54171158D01*
X180350500Y-54171155D01*
X180350499Y-54171153D01*
X180329628Y-54066228D01*
X180319737Y-54016503D01*
X180272275Y-53901918D01*
X180259397Y-53870827D01*
X180259390Y-53870814D01*
X180171789Y-53739711D01*
X180171786Y-53739707D01*
X180060292Y-53628213D01*
X180060288Y-53628210D01*
X179929185Y-53540609D01*
X179929172Y-53540602D01*
X179783501Y-53480264D01*
X179783489Y-53480261D01*
X179628845Y-53449500D01*
X179628842Y-53449500D01*
X179471158Y-53449500D01*
X179471155Y-53449500D01*
X179316510Y-53480261D01*
X179316498Y-53480264D01*
X179170827Y-53540602D01*
X179170814Y-53540609D01*
X179039711Y-53628210D01*
X179039707Y-53628213D01*
X178928213Y-53739707D01*
X178928210Y-53739711D01*
X178840609Y-53870814D01*
X178840602Y-53870827D01*
X178780264Y-54016498D01*
X178780261Y-54016510D01*
X178749500Y-54171153D01*
X164874897Y-54171153D01*
X164829185Y-54140609D01*
X164829172Y-54140602D01*
X164683501Y-54080264D01*
X164683489Y-54080261D01*
X164528845Y-54049500D01*
X164528842Y-54049500D01*
X164371158Y-54049500D01*
X164371155Y-54049500D01*
X164216510Y-54080261D01*
X164216498Y-54080264D01*
X164070827Y-54140602D01*
X164070814Y-54140609D01*
X163939711Y-54228210D01*
X163939707Y-54228213D01*
X163828213Y-54339707D01*
X163828210Y-54339711D01*
X163740609Y-54470814D01*
X163740602Y-54470827D01*
X163680264Y-54616498D01*
X163680261Y-54616510D01*
X163649500Y-54771153D01*
X159081635Y-54771153D01*
X159160626Y-54692162D01*
X159253703Y-54552863D01*
X159317816Y-54398082D01*
X159350500Y-54233767D01*
X159350500Y-54066233D01*
X159317816Y-53901918D01*
X159253703Y-53747137D01*
X159222537Y-53700494D01*
X159160626Y-53607837D01*
X159042162Y-53489373D01*
X158902860Y-53396295D01*
X158748082Y-53332184D01*
X158748074Y-53332182D01*
X158583771Y-53299500D01*
X158583767Y-53299500D01*
X158416233Y-53299500D01*
X158416228Y-53299500D01*
X158251925Y-53332182D01*
X158251917Y-53332184D01*
X158097139Y-53396295D01*
X157957837Y-53489373D01*
X157839373Y-53607837D01*
X157746295Y-53747139D01*
X157682184Y-53901917D01*
X157682182Y-53901925D01*
X157649500Y-54066228D01*
X150200500Y-54066228D01*
X150200500Y-50166228D01*
X157724500Y-50166228D01*
X157724500Y-50333771D01*
X157757182Y-50498074D01*
X157757184Y-50498082D01*
X157821295Y-50652860D01*
X157914373Y-50792162D01*
X158032837Y-50910626D01*
X158124014Y-50971548D01*
X158172137Y-51003703D01*
X158326918Y-51067816D01*
X158436993Y-51089711D01*
X158491228Y-51100499D01*
X158491232Y-51100500D01*
X158491233Y-51100500D01*
X158658768Y-51100500D01*
X158658769Y-51100499D01*
X158823082Y-51067816D01*
X158977863Y-51003703D01*
X159117162Y-50910626D01*
X159235626Y-50792162D01*
X159328703Y-50652863D01*
X159392816Y-50498082D01*
X159425500Y-50333767D01*
X159425500Y-50166233D01*
X159392816Y-50001918D01*
X159359362Y-49921153D01*
X163649500Y-49921153D01*
X163649500Y-50078846D01*
X163680261Y-50233489D01*
X163680264Y-50233501D01*
X163740602Y-50379172D01*
X163740609Y-50379185D01*
X163828210Y-50510288D01*
X163828213Y-50510292D01*
X163939707Y-50621786D01*
X163939711Y-50621789D01*
X164070814Y-50709390D01*
X164070827Y-50709397D01*
X164178239Y-50753888D01*
X164232643Y-50797729D01*
X164254708Y-50864023D01*
X164237429Y-50931722D01*
X164199682Y-50971548D01*
X164189712Y-50978210D01*
X164189704Y-50978217D01*
X164078213Y-51089707D01*
X164078210Y-51089711D01*
X163990609Y-51220814D01*
X163990602Y-51220827D01*
X163930264Y-51366498D01*
X163930261Y-51366510D01*
X163899500Y-51521153D01*
X163899500Y-51678846D01*
X163930260Y-51833488D01*
X163930261Y-51833489D01*
X163930263Y-51833497D01*
X163958354Y-51901316D01*
X163965822Y-51970784D01*
X163934546Y-52033263D01*
X163931474Y-52036446D01*
X163878214Y-52089706D01*
X163878210Y-52089711D01*
X163790609Y-52220814D01*
X163790602Y-52220827D01*
X163730264Y-52366498D01*
X163730261Y-52366510D01*
X163699500Y-52521153D01*
X163699500Y-52678846D01*
X163730261Y-52833489D01*
X163730264Y-52833501D01*
X163790602Y-52979172D01*
X163790609Y-52979185D01*
X163878210Y-53110288D01*
X163878213Y-53110292D01*
X163989707Y-53221786D01*
X163989711Y-53221789D01*
X164120814Y-53309390D01*
X164120827Y-53309397D01*
X164266498Y-53369735D01*
X164266503Y-53369737D01*
X164421153Y-53400499D01*
X164421156Y-53400500D01*
X164421158Y-53400500D01*
X164578844Y-53400500D01*
X164578845Y-53400499D01*
X164733497Y-53369737D01*
X164879179Y-53309394D01*
X165010289Y-53221789D01*
X165121789Y-53110289D01*
X165209394Y-52979179D01*
X165269737Y-52833497D01*
X165287111Y-52746153D01*
X181449500Y-52746153D01*
X181449500Y-52903846D01*
X181480261Y-53058489D01*
X181480264Y-53058501D01*
X181540602Y-53204172D01*
X181540609Y-53204185D01*
X181628210Y-53335288D01*
X181628213Y-53335292D01*
X181739707Y-53446786D01*
X181739711Y-53446789D01*
X181870814Y-53534390D01*
X181870827Y-53534397D01*
X182016498Y-53594735D01*
X182016503Y-53594737D01*
X182171153Y-53625499D01*
X182171156Y-53625500D01*
X182171158Y-53625500D01*
X182328844Y-53625500D01*
X182328845Y-53625499D01*
X182483497Y-53594737D01*
X182614182Y-53540606D01*
X182629172Y-53534397D01*
X182629172Y-53534396D01*
X182629179Y-53534394D01*
X182760289Y-53446789D01*
X182871789Y-53335289D01*
X182959394Y-53204179D01*
X183019737Y-53058497D01*
X183050500Y-52903842D01*
X183050500Y-52746158D01*
X183050500Y-52746155D01*
X183050499Y-52746153D01*
X183549500Y-52746153D01*
X183549500Y-52903846D01*
X183580261Y-53058489D01*
X183580264Y-53058501D01*
X183640602Y-53204172D01*
X183640609Y-53204185D01*
X183728210Y-53335288D01*
X183728213Y-53335292D01*
X183839707Y-53446786D01*
X183839711Y-53446789D01*
X183970814Y-53534390D01*
X183970827Y-53534397D01*
X184116498Y-53594735D01*
X184116503Y-53594737D01*
X184271153Y-53625499D01*
X184271156Y-53625500D01*
X184271158Y-53625500D01*
X184428844Y-53625500D01*
X184428845Y-53625499D01*
X184583497Y-53594737D01*
X184714182Y-53540606D01*
X184729172Y-53534397D01*
X184729172Y-53534396D01*
X184729179Y-53534394D01*
X184860289Y-53446789D01*
X184971789Y-53335289D01*
X185059394Y-53204179D01*
X185119737Y-53058497D01*
X185150500Y-52903842D01*
X185150500Y-52746158D01*
X185150500Y-52746155D01*
X185150499Y-52746153D01*
X185119738Y-52591510D01*
X185119737Y-52591503D01*
X185119735Y-52591498D01*
X185059397Y-52445827D01*
X185059390Y-52445814D01*
X184971789Y-52314711D01*
X184971786Y-52314707D01*
X184860292Y-52203213D01*
X184860288Y-52203210D01*
X184729185Y-52115609D01*
X184729172Y-52115602D01*
X184583501Y-52055264D01*
X184583489Y-52055261D01*
X184428845Y-52024500D01*
X184428842Y-52024500D01*
X184271158Y-52024500D01*
X184271155Y-52024500D01*
X184116510Y-52055261D01*
X184116498Y-52055264D01*
X183970827Y-52115602D01*
X183970814Y-52115609D01*
X183839711Y-52203210D01*
X183839707Y-52203213D01*
X183728213Y-52314707D01*
X183728210Y-52314711D01*
X183640609Y-52445814D01*
X183640602Y-52445827D01*
X183580264Y-52591498D01*
X183580261Y-52591510D01*
X183549500Y-52746153D01*
X183050499Y-52746153D01*
X183019738Y-52591510D01*
X183019737Y-52591503D01*
X183019735Y-52591498D01*
X182959397Y-52445827D01*
X182959390Y-52445814D01*
X182871789Y-52314711D01*
X182871786Y-52314707D01*
X182760292Y-52203213D01*
X182760288Y-52203210D01*
X182629185Y-52115609D01*
X182629172Y-52115602D01*
X182483501Y-52055264D01*
X182483489Y-52055261D01*
X182328845Y-52024500D01*
X182328842Y-52024500D01*
X182171158Y-52024500D01*
X182171155Y-52024500D01*
X182016510Y-52055261D01*
X182016498Y-52055264D01*
X181870827Y-52115602D01*
X181870814Y-52115609D01*
X181739711Y-52203210D01*
X181739707Y-52203213D01*
X181628213Y-52314707D01*
X181628210Y-52314711D01*
X181540609Y-52445814D01*
X181540602Y-52445827D01*
X181480264Y-52591498D01*
X181480261Y-52591510D01*
X181449500Y-52746153D01*
X165287111Y-52746153D01*
X165293134Y-52715874D01*
X165300500Y-52678844D01*
X165300500Y-52521155D01*
X165300499Y-52521153D01*
X165269739Y-52366511D01*
X165269736Y-52366501D01*
X165248282Y-52314707D01*
X165241645Y-52298684D01*
X165234177Y-52229216D01*
X165265452Y-52166737D01*
X165268527Y-52163551D01*
X165321786Y-52110292D01*
X165321789Y-52110289D01*
X165409394Y-51979179D01*
X165469737Y-51833497D01*
X165500500Y-51678842D01*
X165500500Y-51561427D01*
X165520185Y-51494388D01*
X165555610Y-51458325D01*
X165593555Y-51432969D01*
X165610289Y-51421789D01*
X165721789Y-51310289D01*
X165809394Y-51179179D01*
X165869737Y-51033497D01*
X165900500Y-50878842D01*
X165900500Y-50721158D01*
X165900500Y-50721155D01*
X165900499Y-50721153D01*
X165886915Y-50652863D01*
X165869737Y-50566503D01*
X165846080Y-50509390D01*
X165809397Y-50420827D01*
X165809390Y-50420814D01*
X165721789Y-50289711D01*
X165721786Y-50289707D01*
X165610292Y-50178213D01*
X165610288Y-50178210D01*
X165479185Y-50090609D01*
X165479172Y-50090602D01*
X165327870Y-50027932D01*
X165328858Y-50025545D01*
X165327116Y-50024401D01*
X165314132Y-50021484D01*
X165298471Y-50005607D01*
X165279826Y-49993374D01*
X165273321Y-49980111D01*
X165265066Y-49971742D01*
X165258270Y-49949421D01*
X165252958Y-49938589D01*
X165250500Y-49926905D01*
X165250500Y-49921158D01*
X165219737Y-49766503D01*
X165200953Y-49721153D01*
X165899500Y-49721153D01*
X165899500Y-49878846D01*
X165930261Y-50033489D01*
X165930264Y-50033501D01*
X165990602Y-50179172D01*
X165990609Y-50179185D01*
X166078210Y-50310288D01*
X166078213Y-50310292D01*
X166189707Y-50421786D01*
X166189711Y-50421789D01*
X166320814Y-50509390D01*
X166320827Y-50509397D01*
X166443283Y-50560119D01*
X166466503Y-50569737D01*
X166621153Y-50600499D01*
X166621156Y-50600500D01*
X166621158Y-50600500D01*
X166778844Y-50600500D01*
X166778845Y-50600499D01*
X166933497Y-50569737D01*
X167079179Y-50509394D01*
X167210289Y-50421789D01*
X167321789Y-50310289D01*
X167409394Y-50179179D01*
X167412719Y-50171153D01*
X167443775Y-50096175D01*
X167469737Y-50033497D01*
X167500500Y-49878842D01*
X167500500Y-49721158D01*
X167500500Y-49721155D01*
X167500499Y-49721153D01*
X167474264Y-49589257D01*
X167470662Y-49571153D01*
X169779500Y-49571153D01*
X169779500Y-49728846D01*
X169810261Y-49883489D01*
X169810264Y-49883501D01*
X169870602Y-50029172D01*
X169870609Y-50029185D01*
X169958210Y-50160288D01*
X169958213Y-50160292D01*
X170069707Y-50271786D01*
X170069711Y-50271789D01*
X170200814Y-50359390D01*
X170200827Y-50359397D01*
X170346498Y-50419735D01*
X170346503Y-50419737D01*
X170501153Y-50450499D01*
X170501156Y-50450500D01*
X170501158Y-50450500D01*
X170658844Y-50450500D01*
X170761836Y-50430013D01*
X170793140Y-50423786D01*
X170862732Y-50430013D01*
X170886223Y-50442301D01*
X170986628Y-50509390D01*
X170986641Y-50509397D01*
X171109097Y-50560119D01*
X171132317Y-50569737D01*
X171286967Y-50600499D01*
X171286970Y-50600500D01*
X171286972Y-50600500D01*
X171444658Y-50600500D01*
X171444659Y-50600499D01*
X171599311Y-50569737D01*
X171744993Y-50509394D01*
X171790793Y-50478790D01*
X171857469Y-50457912D01*
X171907136Y-50467331D01*
X172056878Y-50529355D01*
X172056883Y-50529357D01*
X172211533Y-50560119D01*
X172211536Y-50560120D01*
X172211538Y-50560120D01*
X172369224Y-50560120D01*
X172369225Y-50560119D01*
X172523877Y-50529357D01*
X172669559Y-50469014D01*
X172800669Y-50381409D01*
X172800673Y-50381404D01*
X172802310Y-50380311D01*
X172868988Y-50359433D01*
X172918654Y-50368852D01*
X173041498Y-50419735D01*
X173041503Y-50419737D01*
X173196153Y-50450499D01*
X173196156Y-50450500D01*
X173196158Y-50450500D01*
X173353844Y-50450500D01*
X173353845Y-50450499D01*
X173508497Y-50419737D01*
X173654179Y-50359394D01*
X173785289Y-50271789D01*
X173885925Y-50171153D01*
X174249500Y-50171153D01*
X174249500Y-50328846D01*
X174280261Y-50483489D01*
X174280264Y-50483501D01*
X174340602Y-50629172D01*
X174340609Y-50629185D01*
X174428210Y-50760288D01*
X174428213Y-50760292D01*
X174539707Y-50871786D01*
X174539711Y-50871789D01*
X174670814Y-50959390D01*
X174670827Y-50959397D01*
X174816498Y-51019735D01*
X174816503Y-51019737D01*
X174971153Y-51050499D01*
X174971156Y-51050500D01*
X174971158Y-51050500D01*
X175128844Y-51050500D01*
X175128845Y-51050499D01*
X175283497Y-51019737D01*
X175429179Y-50959394D01*
X175560289Y-50871789D01*
X175671789Y-50760289D01*
X175759394Y-50629179D01*
X175819737Y-50483497D01*
X175850500Y-50328842D01*
X175850500Y-50171158D01*
X175850500Y-50171155D01*
X175850499Y-50171153D01*
X175835585Y-50096175D01*
X175819737Y-50016503D01*
X175801197Y-49971742D01*
X175759397Y-49870827D01*
X175759390Y-49870814D01*
X175671789Y-49739711D01*
X175671786Y-49739707D01*
X175560292Y-49628213D01*
X175560288Y-49628210D01*
X175429185Y-49540609D01*
X175429172Y-49540602D01*
X175283501Y-49480264D01*
X175283489Y-49480261D01*
X175128845Y-49449500D01*
X175128842Y-49449500D01*
X174971158Y-49449500D01*
X174971155Y-49449500D01*
X174816510Y-49480261D01*
X174816498Y-49480264D01*
X174670827Y-49540602D01*
X174670814Y-49540609D01*
X174539711Y-49628210D01*
X174539707Y-49628213D01*
X174428213Y-49739707D01*
X174428210Y-49739711D01*
X174340609Y-49870814D01*
X174340602Y-49870827D01*
X174280264Y-50016498D01*
X174280261Y-50016510D01*
X174249500Y-50171153D01*
X173885925Y-50171153D01*
X173896789Y-50160289D01*
X173943353Y-50090602D01*
X173984390Y-50029185D01*
X173984390Y-50029184D01*
X173984394Y-50029179D01*
X174044737Y-49883497D01*
X174075500Y-49728842D01*
X174075500Y-49571158D01*
X174075500Y-49571155D01*
X174075499Y-49571153D01*
X174057419Y-49480261D01*
X174044737Y-49416503D01*
X174028876Y-49378210D01*
X173984397Y-49270827D01*
X173984390Y-49270814D01*
X173896789Y-49139711D01*
X173896786Y-49139707D01*
X173785292Y-49028213D01*
X173785288Y-49028210D01*
X173654185Y-48940609D01*
X173654172Y-48940602D01*
X173508501Y-48880264D01*
X173508489Y-48880261D01*
X173353845Y-48849500D01*
X173353842Y-48849500D01*
X173196158Y-48849500D01*
X173196155Y-48849500D01*
X173041510Y-48880261D01*
X173041498Y-48880264D01*
X172895827Y-48940602D01*
X172895809Y-48940612D01*
X172763066Y-49029308D01*
X172696389Y-49050186D01*
X172646724Y-49040767D01*
X172523881Y-48989884D01*
X172523869Y-48989881D01*
X172369225Y-48959120D01*
X172369222Y-48959120D01*
X172211538Y-48959120D01*
X172211535Y-48959120D01*
X172056890Y-48989881D01*
X172056878Y-48989884D01*
X171911208Y-49050222D01*
X171911192Y-49050231D01*
X171865397Y-49080830D01*
X171798720Y-49101707D01*
X171749056Y-49092288D01*
X171599315Y-49030264D01*
X171599303Y-49030261D01*
X171444659Y-48999500D01*
X171444656Y-48999500D01*
X171286972Y-48999500D01*
X171286967Y-48999500D01*
X171152672Y-49026213D01*
X171083080Y-49019986D01*
X171059590Y-49007698D01*
X170959185Y-48940609D01*
X170959172Y-48940602D01*
X170813501Y-48880264D01*
X170813489Y-48880261D01*
X170658845Y-48849500D01*
X170658842Y-48849500D01*
X170501158Y-48849500D01*
X170501155Y-48849500D01*
X170346510Y-48880261D01*
X170346498Y-48880264D01*
X170200827Y-48940602D01*
X170200814Y-48940609D01*
X170069711Y-49028210D01*
X170069707Y-49028213D01*
X169958213Y-49139707D01*
X169958210Y-49139711D01*
X169870609Y-49270814D01*
X169870602Y-49270827D01*
X169810264Y-49416498D01*
X169810261Y-49416510D01*
X169779500Y-49571153D01*
X167470662Y-49571153D01*
X167469738Y-49566507D01*
X167469735Y-49566498D01*
X167409397Y-49420827D01*
X167409390Y-49420814D01*
X167321789Y-49289711D01*
X167321786Y-49289707D01*
X167210292Y-49178213D01*
X167210288Y-49178210D01*
X167079185Y-49090609D01*
X167079172Y-49090602D01*
X166933501Y-49030264D01*
X166933489Y-49030261D01*
X166778845Y-48999500D01*
X166778842Y-48999500D01*
X166621158Y-48999500D01*
X166621155Y-48999500D01*
X166466510Y-49030261D01*
X166466498Y-49030264D01*
X166320827Y-49090602D01*
X166320814Y-49090609D01*
X166189711Y-49178210D01*
X166189707Y-49178213D01*
X166078213Y-49289707D01*
X166078210Y-49289711D01*
X165990609Y-49420814D01*
X165990602Y-49420827D01*
X165930264Y-49566498D01*
X165930261Y-49566510D01*
X165899500Y-49721153D01*
X165200953Y-49721153D01*
X165162455Y-49628210D01*
X165159397Y-49620827D01*
X165159390Y-49620814D01*
X165071789Y-49489711D01*
X165071786Y-49489707D01*
X164960292Y-49378213D01*
X164960288Y-49378210D01*
X164829185Y-49290609D01*
X164829172Y-49290602D01*
X164683501Y-49230264D01*
X164683489Y-49230261D01*
X164528845Y-49199500D01*
X164528842Y-49199500D01*
X164371158Y-49199500D01*
X164371155Y-49199500D01*
X164216510Y-49230261D01*
X164216498Y-49230264D01*
X164070827Y-49290602D01*
X164070814Y-49290609D01*
X163939711Y-49378210D01*
X163939707Y-49378213D01*
X163828213Y-49489707D01*
X163828210Y-49489711D01*
X163740609Y-49620814D01*
X163740602Y-49620827D01*
X163680264Y-49766498D01*
X163680261Y-49766510D01*
X163649500Y-49921153D01*
X159359362Y-49921153D01*
X159338513Y-49870821D01*
X159328704Y-49847139D01*
X159235626Y-49707837D01*
X159117162Y-49589373D01*
X158977860Y-49496295D01*
X158823082Y-49432184D01*
X158823074Y-49432182D01*
X158658771Y-49399500D01*
X158658767Y-49399500D01*
X158491233Y-49399500D01*
X158491228Y-49399500D01*
X158326925Y-49432182D01*
X158326917Y-49432184D01*
X158172139Y-49496295D01*
X158032837Y-49589373D01*
X157914373Y-49707837D01*
X157821295Y-49847139D01*
X157757184Y-50001917D01*
X157757182Y-50001925D01*
X157724500Y-50166228D01*
X150200500Y-50166228D01*
X150200500Y-47671153D01*
X154649500Y-47671153D01*
X154649500Y-47828846D01*
X154680261Y-47983489D01*
X154680264Y-47983501D01*
X154740602Y-48129172D01*
X154740609Y-48129185D01*
X154828210Y-48260288D01*
X154828213Y-48260292D01*
X154939707Y-48371786D01*
X154939711Y-48371789D01*
X155070814Y-48459390D01*
X155070827Y-48459397D01*
X155216498Y-48519735D01*
X155216503Y-48519737D01*
X155371153Y-48550499D01*
X155371156Y-48550500D01*
X155371158Y-48550500D01*
X155528844Y-48550500D01*
X155528845Y-48550499D01*
X155683497Y-48519737D01*
X155829179Y-48459394D01*
X155960289Y-48371789D01*
X156071789Y-48260289D01*
X156159394Y-48129179D01*
X156219737Y-47983497D01*
X156250500Y-47828842D01*
X156250500Y-47671158D01*
X156250500Y-47671155D01*
X156250499Y-47671153D01*
X156234917Y-47592816D01*
X156219737Y-47516503D01*
X156186237Y-47435626D01*
X156159397Y-47370827D01*
X156159390Y-47370814D01*
X156071789Y-47239711D01*
X156071786Y-47239707D01*
X155960292Y-47128213D01*
X155960288Y-47128210D01*
X155829185Y-47040609D01*
X155829172Y-47040602D01*
X155683501Y-46980264D01*
X155683489Y-46980261D01*
X155528845Y-46949500D01*
X155528842Y-46949500D01*
X155371158Y-46949500D01*
X155371155Y-46949500D01*
X155216510Y-46980261D01*
X155216498Y-46980264D01*
X155070827Y-47040602D01*
X155070814Y-47040609D01*
X154939711Y-47128210D01*
X154939707Y-47128213D01*
X154828213Y-47239707D01*
X154828210Y-47239711D01*
X154740609Y-47370814D01*
X154740602Y-47370827D01*
X154680264Y-47516498D01*
X154680261Y-47516510D01*
X154649500Y-47671153D01*
X150200500Y-47671153D01*
X150200500Y-45421153D01*
X161099500Y-45421153D01*
X161099500Y-45578846D01*
X161130261Y-45733489D01*
X161130264Y-45733501D01*
X161190602Y-45879172D01*
X161190609Y-45879185D01*
X161278210Y-46010288D01*
X161278213Y-46010292D01*
X161389707Y-46121786D01*
X161389711Y-46121789D01*
X161520814Y-46209390D01*
X161520827Y-46209397D01*
X161620060Y-46250500D01*
X161666503Y-46269737D01*
X161821153Y-46300499D01*
X161821156Y-46300500D01*
X161821158Y-46300500D01*
X161978844Y-46300500D01*
X161978845Y-46300499D01*
X162133497Y-46269737D01*
X162279179Y-46209394D01*
X162410289Y-46121789D01*
X162521789Y-46010289D01*
X162609394Y-45879179D01*
X162669737Y-45733497D01*
X162700500Y-45578842D01*
X162700500Y-45421158D01*
X162700500Y-45421155D01*
X162694155Y-45389258D01*
X162694155Y-45389257D01*
X162690554Y-45371153D01*
X166979500Y-45371153D01*
X166979500Y-45528846D01*
X167010261Y-45683489D01*
X167010264Y-45683501D01*
X167070602Y-45829172D01*
X167070609Y-45829185D01*
X167158210Y-45960288D01*
X167158213Y-45960292D01*
X167269707Y-46071786D01*
X167269711Y-46071789D01*
X167400814Y-46159390D01*
X167400827Y-46159397D01*
X167546498Y-46219735D01*
X167546503Y-46219737D01*
X167701153Y-46250499D01*
X167701156Y-46250500D01*
X167701158Y-46250500D01*
X167858844Y-46250500D01*
X167858845Y-46250499D01*
X168013497Y-46219737D01*
X168159179Y-46159394D01*
X168290289Y-46071789D01*
X168401789Y-45960289D01*
X168489394Y-45829179D01*
X168549737Y-45683497D01*
X168580500Y-45528842D01*
X168580500Y-45371158D01*
X168580500Y-45371155D01*
X168580499Y-45371153D01*
X168560734Y-45271789D01*
X168549737Y-45216503D01*
X168518073Y-45140059D01*
X168489397Y-45070827D01*
X168489390Y-45070814D01*
X168401789Y-44939711D01*
X168401786Y-44939707D01*
X168290292Y-44828213D01*
X168290288Y-44828210D01*
X168159185Y-44740609D01*
X168159172Y-44740602D01*
X168013501Y-44680264D01*
X168013489Y-44680261D01*
X167858845Y-44649500D01*
X167858842Y-44649500D01*
X167701158Y-44649500D01*
X167701155Y-44649500D01*
X167546510Y-44680261D01*
X167546498Y-44680264D01*
X167400827Y-44740602D01*
X167400814Y-44740609D01*
X167269711Y-44828210D01*
X167269707Y-44828213D01*
X167158213Y-44939707D01*
X167158210Y-44939711D01*
X167070609Y-45070814D01*
X167070602Y-45070827D01*
X167010264Y-45216498D01*
X167010261Y-45216510D01*
X166979500Y-45371153D01*
X162690554Y-45371153D01*
X162673565Y-45285748D01*
X162669737Y-45266503D01*
X162650812Y-45220814D01*
X162609397Y-45120827D01*
X162609390Y-45120814D01*
X162521789Y-44989711D01*
X162521786Y-44989707D01*
X162410292Y-44878213D01*
X162410288Y-44878210D01*
X162279185Y-44790609D01*
X162279172Y-44790602D01*
X162133501Y-44730264D01*
X162133489Y-44730261D01*
X161978845Y-44699500D01*
X161978842Y-44699500D01*
X161821158Y-44699500D01*
X161821155Y-44699500D01*
X161666510Y-44730261D01*
X161666498Y-44730264D01*
X161520827Y-44790602D01*
X161520814Y-44790609D01*
X161389711Y-44878210D01*
X161389707Y-44878213D01*
X161278213Y-44989707D01*
X161278210Y-44989711D01*
X161190609Y-45120814D01*
X161190602Y-45120827D01*
X161130264Y-45266498D01*
X161130261Y-45266510D01*
X161099500Y-45421153D01*
X150200500Y-45421153D01*
X150200500Y-43021153D01*
X159499500Y-43021153D01*
X159499500Y-43178846D01*
X159530261Y-43333489D01*
X159530264Y-43333501D01*
X159590602Y-43479172D01*
X159590609Y-43479185D01*
X159678210Y-43610288D01*
X159678213Y-43610292D01*
X159789707Y-43721786D01*
X159789711Y-43721789D01*
X159920814Y-43809390D01*
X159920827Y-43809397D01*
X160066498Y-43869735D01*
X160066503Y-43869737D01*
X160221153Y-43900499D01*
X160221156Y-43900500D01*
X160221158Y-43900500D01*
X160378844Y-43900500D01*
X160378845Y-43900499D01*
X160533497Y-43869737D01*
X160553303Y-43861533D01*
X162559120Y-43861533D01*
X162559120Y-44019226D01*
X162589881Y-44173869D01*
X162589884Y-44173881D01*
X162650222Y-44319552D01*
X162650229Y-44319565D01*
X162737830Y-44450668D01*
X162737833Y-44450672D01*
X162849327Y-44562166D01*
X162849331Y-44562169D01*
X162980434Y-44649770D01*
X162980447Y-44649777D01*
X163126118Y-44710115D01*
X163126123Y-44710117D01*
X163279380Y-44740602D01*
X163280773Y-44740879D01*
X163280776Y-44740880D01*
X163280778Y-44740880D01*
X163438464Y-44740880D01*
X163438465Y-44740879D01*
X163593117Y-44710117D01*
X163738799Y-44649774D01*
X163856464Y-44571153D01*
X168856200Y-44571153D01*
X168856200Y-44728846D01*
X168886961Y-44883489D01*
X168886964Y-44883501D01*
X168947302Y-45029172D01*
X168947309Y-45029185D01*
X169034910Y-45160288D01*
X169034913Y-45160292D01*
X169146407Y-45271786D01*
X169146411Y-45271789D01*
X169277514Y-45359390D01*
X169277527Y-45359397D01*
X169388397Y-45405320D01*
X169423203Y-45419737D01*
X169577853Y-45450499D01*
X169577856Y-45450500D01*
X169577858Y-45450500D01*
X169735544Y-45450500D01*
X169735545Y-45450499D01*
X169890197Y-45419737D01*
X170035879Y-45359394D01*
X170166989Y-45271789D01*
X170278489Y-45160289D01*
X170366094Y-45029179D01*
X170374474Y-45008949D01*
X170400222Y-44946786D01*
X170426437Y-44883497D01*
X170457200Y-44728842D01*
X170457200Y-44571158D01*
X170457200Y-44571155D01*
X170457199Y-44571153D01*
X171149500Y-44571153D01*
X171149500Y-44728846D01*
X171180261Y-44883489D01*
X171180264Y-44883501D01*
X171240602Y-45029172D01*
X171240609Y-45029185D01*
X171328210Y-45160288D01*
X171328213Y-45160292D01*
X171439707Y-45271786D01*
X171439711Y-45271789D01*
X171570814Y-45359390D01*
X171570827Y-45359397D01*
X171709521Y-45416845D01*
X171763925Y-45460685D01*
X171785990Y-45526979D01*
X171768711Y-45594679D01*
X171725241Y-45636256D01*
X171725886Y-45637221D01*
X171589711Y-45728210D01*
X171589707Y-45728213D01*
X171478213Y-45839707D01*
X171478210Y-45839711D01*
X171390609Y-45970814D01*
X171390602Y-45970827D01*
X171330264Y-46116498D01*
X171330261Y-46116510D01*
X171299500Y-46271153D01*
X171299500Y-46428846D01*
X171330261Y-46583489D01*
X171330264Y-46583501D01*
X171390602Y-46729172D01*
X171390609Y-46729185D01*
X171478210Y-46860288D01*
X171478213Y-46860292D01*
X171589707Y-46971786D01*
X171589711Y-46971789D01*
X171720814Y-47059390D01*
X171720827Y-47059397D01*
X171866498Y-47119735D01*
X171866503Y-47119737D01*
X172021153Y-47150499D01*
X172021156Y-47150500D01*
X172021158Y-47150500D01*
X172178844Y-47150500D01*
X172178845Y-47150499D01*
X172333497Y-47119737D01*
X172479179Y-47059394D01*
X172610289Y-46971789D01*
X172721789Y-46860289D01*
X172809394Y-46729179D01*
X172809395Y-46729176D01*
X172809397Y-46729173D01*
X172825114Y-46691228D01*
X180149500Y-46691228D01*
X180149500Y-46858771D01*
X180182182Y-47023074D01*
X180182184Y-47023082D01*
X180246295Y-47177860D01*
X180339373Y-47317162D01*
X180457837Y-47435626D01*
X180550494Y-47497537D01*
X180597137Y-47528703D01*
X180751918Y-47592816D01*
X180916228Y-47625499D01*
X180916232Y-47625500D01*
X180916233Y-47625500D01*
X181083768Y-47625500D01*
X181083769Y-47625499D01*
X181248082Y-47592816D01*
X181402863Y-47528703D01*
X181542162Y-47435626D01*
X181660626Y-47317162D01*
X181753703Y-47177863D01*
X181817816Y-47023082D01*
X181850500Y-46858767D01*
X181850500Y-46691233D01*
X181817816Y-46526918D01*
X181753703Y-46372137D01*
X181711777Y-46309390D01*
X181660626Y-46232837D01*
X181542162Y-46114373D01*
X181402860Y-46021295D01*
X181248082Y-45957184D01*
X181248074Y-45957182D01*
X181083771Y-45924500D01*
X181083767Y-45924500D01*
X180916233Y-45924500D01*
X180916228Y-45924500D01*
X180751925Y-45957182D01*
X180751917Y-45957184D01*
X180597139Y-46021295D01*
X180457837Y-46114373D01*
X180339373Y-46232837D01*
X180246295Y-46372139D01*
X180182184Y-46526917D01*
X180182182Y-46526925D01*
X180149500Y-46691228D01*
X172825114Y-46691228D01*
X172847290Y-46637689D01*
X172869737Y-46583497D01*
X172900500Y-46428842D01*
X172900500Y-46271158D01*
X172900500Y-46271155D01*
X172900499Y-46271153D01*
X172892877Y-46232837D01*
X172869737Y-46116503D01*
X172833711Y-46029527D01*
X172809397Y-45970827D01*
X172809390Y-45970814D01*
X172721789Y-45839711D01*
X172721786Y-45839707D01*
X172610292Y-45728213D01*
X172610288Y-45728210D01*
X172479185Y-45640609D01*
X172479172Y-45640602D01*
X172340478Y-45583154D01*
X172332129Y-45576426D01*
X172321814Y-45573496D01*
X172305397Y-45554884D01*
X172286074Y-45539313D01*
X172282687Y-45529138D01*
X172275595Y-45521098D01*
X172271846Y-45496566D01*
X172264009Y-45473019D01*
X172266660Y-45462629D01*
X172265041Y-45452030D01*
X172270232Y-45440391D01*
X173049501Y-45440391D01*
X173049501Y-45598084D01*
X173080262Y-45752727D01*
X173080265Y-45752739D01*
X173140603Y-45898410D01*
X173140610Y-45898423D01*
X173228211Y-46029526D01*
X173228214Y-46029530D01*
X173339708Y-46141024D01*
X173339712Y-46141027D01*
X173470815Y-46228628D01*
X173470828Y-46228635D01*
X173616499Y-46288973D01*
X173616504Y-46288975D01*
X173719157Y-46309394D01*
X173771154Y-46319737D01*
X173771157Y-46319738D01*
X173771159Y-46319738D01*
X173928845Y-46319738D01*
X173928846Y-46319737D01*
X174083498Y-46288975D01*
X174229180Y-46228632D01*
X174360290Y-46141027D01*
X174471790Y-46029527D01*
X174559395Y-45898417D01*
X174567367Y-45879172D01*
X174586284Y-45833501D01*
X174619738Y-45752735D01*
X174650501Y-45598080D01*
X174650501Y-45521153D01*
X176049500Y-45521153D01*
X176049500Y-45678846D01*
X176080261Y-45833489D01*
X176080264Y-45833501D01*
X176140602Y-45979172D01*
X176140609Y-45979185D01*
X176228210Y-46110288D01*
X176228213Y-46110292D01*
X176339707Y-46221786D01*
X176339711Y-46221789D01*
X176470814Y-46309390D01*
X176470827Y-46309397D01*
X176616498Y-46369735D01*
X176616503Y-46369737D01*
X176771153Y-46400499D01*
X176771156Y-46400500D01*
X176771158Y-46400500D01*
X176928844Y-46400500D01*
X176928845Y-46400499D01*
X177083497Y-46369737D01*
X177229179Y-46309394D01*
X177360289Y-46221789D01*
X177471789Y-46110289D01*
X177559394Y-45979179D01*
X177562854Y-45970827D01*
X177592849Y-45898410D01*
X177619737Y-45833497D01*
X177650500Y-45678842D01*
X177650500Y-45521158D01*
X177650500Y-45521155D01*
X177650499Y-45521153D01*
X177632241Y-45429365D01*
X177619737Y-45366503D01*
X177604993Y-45330908D01*
X177559397Y-45220827D01*
X177559390Y-45220814D01*
X177471789Y-45089711D01*
X177471786Y-45089707D01*
X177360292Y-44978213D01*
X177360288Y-44978210D01*
X177229185Y-44890609D01*
X177229172Y-44890602D01*
X177083501Y-44830264D01*
X177083489Y-44830261D01*
X176928845Y-44799500D01*
X176928842Y-44799500D01*
X176771158Y-44799500D01*
X176771155Y-44799500D01*
X176616510Y-44830261D01*
X176616498Y-44830264D01*
X176470827Y-44890602D01*
X176470814Y-44890609D01*
X176339711Y-44978210D01*
X176339707Y-44978213D01*
X176228213Y-45089707D01*
X176228210Y-45089711D01*
X176140609Y-45220814D01*
X176140602Y-45220827D01*
X176080264Y-45366498D01*
X176080261Y-45366510D01*
X176049500Y-45521153D01*
X174650501Y-45521153D01*
X174650501Y-45440396D01*
X174650501Y-45440393D01*
X174650500Y-45440391D01*
X174640123Y-45388221D01*
X174619738Y-45285741D01*
X174611772Y-45266510D01*
X174559398Y-45140065D01*
X174559391Y-45140052D01*
X174471790Y-45008949D01*
X174471787Y-45008945D01*
X174360293Y-44897451D01*
X174360289Y-44897448D01*
X174229186Y-44809847D01*
X174229173Y-44809840D01*
X174083502Y-44749502D01*
X174083490Y-44749499D01*
X173928846Y-44718738D01*
X173928843Y-44718738D01*
X173771159Y-44718738D01*
X173771156Y-44718738D01*
X173616511Y-44749499D01*
X173616499Y-44749502D01*
X173470828Y-44809840D01*
X173470815Y-44809847D01*
X173339712Y-44897448D01*
X173339708Y-44897451D01*
X173228214Y-45008945D01*
X173228211Y-45008949D01*
X173140610Y-45140052D01*
X173140603Y-45140065D01*
X173080265Y-45285736D01*
X173080262Y-45285748D01*
X173049501Y-45440391D01*
X172270232Y-45440391D01*
X172275150Y-45429365D01*
X172281288Y-45405320D01*
X172289887Y-45396329D01*
X172293504Y-45388221D01*
X172311542Y-45373687D01*
X172319972Y-45364874D01*
X172326885Y-45360343D01*
X172329179Y-45359394D01*
X172460289Y-45271789D01*
X172571789Y-45160289D01*
X172659394Y-45029179D01*
X172667774Y-45008949D01*
X172693522Y-44946786D01*
X172719737Y-44883497D01*
X172750500Y-44728842D01*
X172750500Y-44571158D01*
X172750500Y-44571155D01*
X172750499Y-44571153D01*
X172747980Y-44558489D01*
X172719737Y-44416503D01*
X172714493Y-44403842D01*
X172666327Y-44287558D01*
X172666311Y-44287520D01*
X172665679Y-44285995D01*
X172659394Y-44270821D01*
X172659391Y-44270816D01*
X172659390Y-44270814D01*
X172642912Y-44246153D01*
X182549500Y-44246153D01*
X182549500Y-44403846D01*
X182580261Y-44558489D01*
X182580264Y-44558501D01*
X182640602Y-44704172D01*
X182640609Y-44704185D01*
X182728210Y-44835288D01*
X182728213Y-44835292D01*
X182839707Y-44946786D01*
X182839711Y-44946789D01*
X182970814Y-45034390D01*
X182970827Y-45034397D01*
X183104359Y-45089707D01*
X183116503Y-45094737D01*
X183271153Y-45125499D01*
X183271156Y-45125500D01*
X183271158Y-45125500D01*
X183428844Y-45125500D01*
X183428845Y-45125499D01*
X183583497Y-45094737D01*
X183729179Y-45034394D01*
X183860289Y-44946789D01*
X183971789Y-44835289D01*
X184059394Y-44704179D01*
X184119737Y-44558497D01*
X184150500Y-44403842D01*
X184150500Y-44246158D01*
X184150500Y-44246155D01*
X184150499Y-44246153D01*
X184119738Y-44091510D01*
X184119737Y-44091503D01*
X184093521Y-44028211D01*
X184059397Y-43945827D01*
X184059390Y-43945814D01*
X183971789Y-43814711D01*
X183971786Y-43814707D01*
X183860292Y-43703213D01*
X183860288Y-43703210D01*
X183729185Y-43615609D01*
X183729172Y-43615602D01*
X183583501Y-43555264D01*
X183583489Y-43555261D01*
X183428845Y-43524500D01*
X183428842Y-43524500D01*
X183271158Y-43524500D01*
X183271155Y-43524500D01*
X183116510Y-43555261D01*
X183116498Y-43555264D01*
X182970827Y-43615602D01*
X182970814Y-43615609D01*
X182839711Y-43703210D01*
X182839707Y-43703213D01*
X182728213Y-43814707D01*
X182728210Y-43814711D01*
X182640609Y-43945814D01*
X182640602Y-43945827D01*
X182580264Y-44091498D01*
X182580261Y-44091510D01*
X182549500Y-44246153D01*
X172642912Y-44246153D01*
X172571789Y-44139711D01*
X172571786Y-44139707D01*
X172460292Y-44028213D01*
X172460288Y-44028210D01*
X172329185Y-43940609D01*
X172329172Y-43940602D01*
X172183501Y-43880264D01*
X172183489Y-43880261D01*
X172028845Y-43849500D01*
X172028842Y-43849500D01*
X171871158Y-43849500D01*
X171871155Y-43849500D01*
X171716510Y-43880261D01*
X171716498Y-43880264D01*
X171570827Y-43940602D01*
X171570814Y-43940609D01*
X171439711Y-44028210D01*
X171439707Y-44028213D01*
X171328213Y-44139707D01*
X171328210Y-44139711D01*
X171240609Y-44270814D01*
X171240602Y-44270827D01*
X171180264Y-44416498D01*
X171180261Y-44416510D01*
X171149500Y-44571153D01*
X170457199Y-44571153D01*
X170454680Y-44558489D01*
X170426437Y-44416503D01*
X170421193Y-44403842D01*
X170366097Y-44270827D01*
X170366090Y-44270814D01*
X170278489Y-44139711D01*
X170278486Y-44139707D01*
X170166992Y-44028213D01*
X170166988Y-44028210D01*
X170035885Y-43940609D01*
X170035872Y-43940602D01*
X169890201Y-43880264D01*
X169890189Y-43880261D01*
X169735545Y-43849500D01*
X169735542Y-43849500D01*
X169577858Y-43849500D01*
X169577855Y-43849500D01*
X169423210Y-43880261D01*
X169423198Y-43880264D01*
X169277527Y-43940602D01*
X169277514Y-43940609D01*
X169146411Y-44028210D01*
X169146407Y-44028213D01*
X169034913Y-44139707D01*
X169034910Y-44139711D01*
X168947309Y-44270814D01*
X168947302Y-44270827D01*
X168886964Y-44416498D01*
X168886961Y-44416510D01*
X168856200Y-44571153D01*
X163856464Y-44571153D01*
X163869909Y-44562169D01*
X163981409Y-44450669D01*
X164069014Y-44319559D01*
X164129357Y-44173877D01*
X164160120Y-44019222D01*
X164160120Y-43861538D01*
X164160120Y-43861535D01*
X164160119Y-43861533D01*
X164131914Y-43719738D01*
X164129357Y-43706883D01*
X164109685Y-43659390D01*
X164069017Y-43561207D01*
X164069010Y-43561194D01*
X163981409Y-43430091D01*
X163981406Y-43430087D01*
X163869912Y-43318593D01*
X163869908Y-43318590D01*
X163738805Y-43230989D01*
X163738792Y-43230982D01*
X163593121Y-43170644D01*
X163593109Y-43170641D01*
X163438465Y-43139880D01*
X163438462Y-43139880D01*
X163280778Y-43139880D01*
X163280775Y-43139880D01*
X163126130Y-43170641D01*
X163126118Y-43170644D01*
X162980447Y-43230982D01*
X162980434Y-43230989D01*
X162849331Y-43318590D01*
X162849327Y-43318593D01*
X162737833Y-43430087D01*
X162737830Y-43430091D01*
X162650229Y-43561194D01*
X162650222Y-43561207D01*
X162589884Y-43706878D01*
X162589881Y-43706890D01*
X162559120Y-43861533D01*
X160553303Y-43861533D01*
X160679179Y-43809394D01*
X160679185Y-43809390D01*
X160764561Y-43752344D01*
X160783970Y-43739374D01*
X160810289Y-43721789D01*
X160921789Y-43610289D01*
X161009394Y-43479179D01*
X161069737Y-43333497D01*
X161100500Y-43178842D01*
X161100500Y-43021158D01*
X161100500Y-43021155D01*
X161100499Y-43021153D01*
X161074264Y-42889257D01*
X161070662Y-42871153D01*
X172249500Y-42871153D01*
X172249500Y-43028846D01*
X172280261Y-43183489D01*
X172280264Y-43183501D01*
X172340602Y-43329172D01*
X172340609Y-43329185D01*
X172428210Y-43460288D01*
X172428213Y-43460292D01*
X172539707Y-43571786D01*
X172539711Y-43571789D01*
X172670814Y-43659390D01*
X172670827Y-43659397D01*
X172776603Y-43703210D01*
X172816503Y-43719737D01*
X172971153Y-43750499D01*
X172971156Y-43750500D01*
X172971158Y-43750500D01*
X173128844Y-43750500D01*
X173128845Y-43750499D01*
X173283497Y-43719737D01*
X173429179Y-43659394D01*
X173560289Y-43571789D01*
X173671789Y-43460289D01*
X173759394Y-43329179D01*
X173819737Y-43183497D01*
X173850500Y-43028842D01*
X173850500Y-42871158D01*
X173850500Y-42871155D01*
X173850499Y-42871153D01*
X173820596Y-42720821D01*
X173819737Y-42716503D01*
X173819735Y-42716498D01*
X173759397Y-42570827D01*
X173759390Y-42570814D01*
X173671789Y-42439711D01*
X173671786Y-42439707D01*
X173560292Y-42328213D01*
X173560288Y-42328210D01*
X173429185Y-42240609D01*
X173429172Y-42240602D01*
X173283501Y-42180264D01*
X173283489Y-42180261D01*
X173128845Y-42149500D01*
X173128842Y-42149500D01*
X172971158Y-42149500D01*
X172971155Y-42149500D01*
X172816510Y-42180261D01*
X172816498Y-42180264D01*
X172670827Y-42240602D01*
X172670814Y-42240609D01*
X172539711Y-42328210D01*
X172539707Y-42328213D01*
X172428213Y-42439707D01*
X172428210Y-42439711D01*
X172340609Y-42570814D01*
X172340602Y-42570827D01*
X172280264Y-42716498D01*
X172280261Y-42716510D01*
X172249500Y-42871153D01*
X161070662Y-42871153D01*
X161069738Y-42866507D01*
X161069735Y-42866498D01*
X161009397Y-42720827D01*
X161009390Y-42720814D01*
X160921789Y-42589711D01*
X160921786Y-42589707D01*
X160810292Y-42478213D01*
X160810288Y-42478210D01*
X160679185Y-42390609D01*
X160679172Y-42390602D01*
X160533501Y-42330264D01*
X160533489Y-42330261D01*
X160378845Y-42299500D01*
X160378842Y-42299500D01*
X160221158Y-42299500D01*
X160221155Y-42299500D01*
X160066510Y-42330261D01*
X160066498Y-42330264D01*
X159920827Y-42390602D01*
X159920814Y-42390609D01*
X159789711Y-42478210D01*
X159789707Y-42478213D01*
X159678213Y-42589707D01*
X159678210Y-42589711D01*
X159590609Y-42720814D01*
X159590602Y-42720827D01*
X159530264Y-42866498D01*
X159530261Y-42866510D01*
X159499500Y-43021153D01*
X150200500Y-43021153D01*
X150200500Y-39821153D01*
X150699500Y-39821153D01*
X150699500Y-39978846D01*
X150730261Y-40133489D01*
X150730264Y-40133501D01*
X150790602Y-40279172D01*
X150790609Y-40279185D01*
X150878210Y-40410288D01*
X150878213Y-40410292D01*
X150989707Y-40521786D01*
X150989711Y-40521789D01*
X151120814Y-40609390D01*
X151120827Y-40609397D01*
X151266498Y-40669735D01*
X151266503Y-40669737D01*
X151421153Y-40700499D01*
X151421156Y-40700500D01*
X151421158Y-40700500D01*
X151578844Y-40700500D01*
X151578845Y-40700499D01*
X151733497Y-40669737D01*
X151879179Y-40609394D01*
X152010289Y-40521789D01*
X152010925Y-40521153D01*
X157299500Y-40521153D01*
X157299500Y-40678846D01*
X157330261Y-40833489D01*
X157330264Y-40833501D01*
X157390602Y-40979172D01*
X157390609Y-40979185D01*
X157478210Y-41110288D01*
X157478213Y-41110292D01*
X157589707Y-41221786D01*
X157589711Y-41221789D01*
X157720814Y-41309390D01*
X157720827Y-41309397D01*
X157866498Y-41369735D01*
X157866503Y-41369737D01*
X158021153Y-41400499D01*
X158021156Y-41400500D01*
X158021158Y-41400500D01*
X158178844Y-41400500D01*
X158178845Y-41400499D01*
X158333497Y-41369737D01*
X158479179Y-41309394D01*
X158610289Y-41221789D01*
X158721789Y-41110289D01*
X158809394Y-40979179D01*
X158869737Y-40833497D01*
X158900500Y-40678842D01*
X158900500Y-40521158D01*
X158900500Y-40521155D01*
X158900499Y-40521153D01*
X158878447Y-40410292D01*
X158869737Y-40366503D01*
X158833569Y-40279185D01*
X158809397Y-40220827D01*
X158809390Y-40220814D01*
X158721789Y-40089711D01*
X158721786Y-40089707D01*
X158610292Y-39978213D01*
X158610288Y-39978210D01*
X158479185Y-39890609D01*
X158479172Y-39890602D01*
X158333501Y-39830264D01*
X158333489Y-39830261D01*
X158178845Y-39799500D01*
X158178842Y-39799500D01*
X158021158Y-39799500D01*
X158021155Y-39799500D01*
X157866510Y-39830261D01*
X157866498Y-39830264D01*
X157720827Y-39890602D01*
X157720814Y-39890609D01*
X157589711Y-39978210D01*
X157589707Y-39978213D01*
X157478213Y-40089707D01*
X157478210Y-40089711D01*
X157390609Y-40220814D01*
X157390602Y-40220827D01*
X157330264Y-40366498D01*
X157330261Y-40366510D01*
X157299500Y-40521153D01*
X152010925Y-40521153D01*
X152104694Y-40427385D01*
X152121786Y-40410292D01*
X152121789Y-40410289D01*
X152209394Y-40279179D01*
X152269737Y-40133497D01*
X152300500Y-39978842D01*
X152300500Y-39821158D01*
X152300500Y-39821155D01*
X152300499Y-39821153D01*
X152269738Y-39666510D01*
X152269737Y-39666503D01*
X152209794Y-39521786D01*
X152209397Y-39520827D01*
X152209390Y-39520814D01*
X152121789Y-39389711D01*
X152121786Y-39389707D01*
X152010292Y-39278213D01*
X152010288Y-39278210D01*
X151879185Y-39190609D01*
X151879172Y-39190602D01*
X151733501Y-39130264D01*
X151733489Y-39130261D01*
X151578845Y-39099500D01*
X151578842Y-39099500D01*
X151421158Y-39099500D01*
X151421155Y-39099500D01*
X151266510Y-39130261D01*
X151266498Y-39130264D01*
X151120827Y-39190602D01*
X151120814Y-39190609D01*
X150989711Y-39278210D01*
X150989707Y-39278213D01*
X150878213Y-39389707D01*
X150878210Y-39389711D01*
X150790609Y-39520814D01*
X150790602Y-39520827D01*
X150730264Y-39666498D01*
X150730261Y-39666510D01*
X150699500Y-39821153D01*
X150200500Y-39821153D01*
X150200500Y-38821153D01*
X166636400Y-38821153D01*
X166636400Y-38978846D01*
X166667161Y-39133489D01*
X166667164Y-39133501D01*
X166727502Y-39279172D01*
X166727509Y-39279185D01*
X166815110Y-39410288D01*
X166815113Y-39410292D01*
X166926607Y-39521786D01*
X166926611Y-39521789D01*
X167057714Y-39609390D01*
X167057727Y-39609397D01*
X167195583Y-39666498D01*
X167203403Y-39669737D01*
X167358053Y-39700499D01*
X167358056Y-39700500D01*
X167358058Y-39700500D01*
X167515744Y-39700500D01*
X167515745Y-39700499D01*
X167670397Y-39669737D01*
X167816079Y-39609394D01*
X167947189Y-39521789D01*
X168058689Y-39410289D01*
X168146294Y-39279179D01*
X168206637Y-39133497D01*
X168237400Y-38978842D01*
X168237400Y-38821158D01*
X168237400Y-38821155D01*
X168237399Y-38821153D01*
X168206638Y-38666510D01*
X168206637Y-38666503D01*
X168192962Y-38633489D01*
X168146297Y-38520827D01*
X168146290Y-38520814D01*
X168058690Y-38389712D01*
X168058684Y-38389705D01*
X167990132Y-38321153D01*
X173099500Y-38321153D01*
X173099500Y-38478846D01*
X173130261Y-38633489D01*
X173130264Y-38633501D01*
X173190602Y-38779172D01*
X173190609Y-38779185D01*
X173278210Y-38910288D01*
X173278213Y-38910292D01*
X173389707Y-39021786D01*
X173389711Y-39021789D01*
X173520814Y-39109390D01*
X173520827Y-39109397D01*
X173666498Y-39169735D01*
X173666503Y-39169737D01*
X173821153Y-39200499D01*
X173821156Y-39200500D01*
X173821158Y-39200500D01*
X173978844Y-39200500D01*
X173978845Y-39200499D01*
X174133497Y-39169737D01*
X174279179Y-39109394D01*
X174410289Y-39021789D01*
X174521789Y-38910289D01*
X174609394Y-38779179D01*
X174669737Y-38633497D01*
X174700500Y-38478842D01*
X174700500Y-38321158D01*
X174700500Y-38321155D01*
X174700499Y-38321153D01*
X174678269Y-38209397D01*
X174669737Y-38166503D01*
X174669735Y-38166498D01*
X174609397Y-38020827D01*
X174609390Y-38020814D01*
X174521789Y-37889711D01*
X174521786Y-37889707D01*
X174410292Y-37778213D01*
X174410288Y-37778210D01*
X174279185Y-37690609D01*
X174279172Y-37690602D01*
X174133501Y-37630264D01*
X174133489Y-37630261D01*
X173978845Y-37599500D01*
X173978842Y-37599500D01*
X173821158Y-37599500D01*
X173821155Y-37599500D01*
X173666510Y-37630261D01*
X173666498Y-37630264D01*
X173520827Y-37690602D01*
X173520814Y-37690609D01*
X173389711Y-37778210D01*
X173389707Y-37778213D01*
X173278213Y-37889707D01*
X173278210Y-37889711D01*
X173190609Y-38020814D01*
X173190602Y-38020827D01*
X173130264Y-38166498D01*
X173130261Y-38166510D01*
X173099500Y-38321153D01*
X167990132Y-38321153D01*
X167947192Y-38278213D01*
X167947188Y-38278210D01*
X167816085Y-38190609D01*
X167816072Y-38190602D01*
X167670401Y-38130264D01*
X167670389Y-38130261D01*
X167515745Y-38099500D01*
X167515742Y-38099500D01*
X167358058Y-38099500D01*
X167358055Y-38099500D01*
X167203410Y-38130261D01*
X167203398Y-38130264D01*
X167057727Y-38190602D01*
X167057714Y-38190609D01*
X166926611Y-38278210D01*
X166926607Y-38278213D01*
X166815113Y-38389707D01*
X166815110Y-38389711D01*
X166727509Y-38520814D01*
X166727502Y-38520827D01*
X166667164Y-38666498D01*
X166667161Y-38666510D01*
X166636400Y-38821153D01*
X150200500Y-38821153D01*
X150200500Y-37421153D01*
X154199500Y-37421153D01*
X154199500Y-37578846D01*
X154230261Y-37733489D01*
X154230264Y-37733501D01*
X154290602Y-37879172D01*
X154290609Y-37879185D01*
X154378210Y-38010288D01*
X154378213Y-38010292D01*
X154489707Y-38121786D01*
X154489711Y-38121789D01*
X154620814Y-38209390D01*
X154620827Y-38209397D01*
X154766498Y-38269735D01*
X154766503Y-38269737D01*
X154921153Y-38300499D01*
X154921156Y-38300500D01*
X154921158Y-38300500D01*
X155078844Y-38300500D01*
X155078845Y-38300499D01*
X155233497Y-38269737D01*
X155379179Y-38209394D01*
X155510289Y-38121789D01*
X155621789Y-38010289D01*
X155709394Y-37879179D01*
X155769737Y-37733497D01*
X155800500Y-37578842D01*
X155800500Y-37421158D01*
X155800500Y-37421155D01*
X155800499Y-37421153D01*
X155769738Y-37266510D01*
X155769737Y-37266503D01*
X155769735Y-37266498D01*
X155709397Y-37120827D01*
X155709390Y-37120814D01*
X155621789Y-36989711D01*
X155621786Y-36989707D01*
X155510292Y-36878213D01*
X155510288Y-36878210D01*
X155379185Y-36790609D01*
X155379172Y-36790602D01*
X155233501Y-36730264D01*
X155233489Y-36730261D01*
X155078845Y-36699500D01*
X155078842Y-36699500D01*
X154921158Y-36699500D01*
X154921155Y-36699500D01*
X154766510Y-36730261D01*
X154766498Y-36730264D01*
X154620827Y-36790602D01*
X154620814Y-36790609D01*
X154489711Y-36878210D01*
X154489707Y-36878213D01*
X154378213Y-36989707D01*
X154378210Y-36989711D01*
X154290609Y-37120814D01*
X154290602Y-37120827D01*
X154230264Y-37266498D01*
X154230261Y-37266510D01*
X154199500Y-37421153D01*
X150200500Y-37421153D01*
X150200500Y-34496153D01*
X154974500Y-34496153D01*
X154974500Y-34653846D01*
X155005261Y-34808489D01*
X155005264Y-34808501D01*
X155065602Y-34954172D01*
X155065609Y-34954185D01*
X155153210Y-35085288D01*
X155153213Y-35085292D01*
X155264707Y-35196786D01*
X155264711Y-35196789D01*
X155395814Y-35284390D01*
X155395827Y-35284397D01*
X155541498Y-35344735D01*
X155541503Y-35344737D01*
X155696153Y-35375499D01*
X155696156Y-35375500D01*
X155696158Y-35375500D01*
X155853844Y-35375500D01*
X155853845Y-35375499D01*
X156008497Y-35344737D01*
X156065434Y-35321153D01*
X171899500Y-35321153D01*
X171899500Y-35478846D01*
X171930261Y-35633489D01*
X171930264Y-35633501D01*
X171990602Y-35779172D01*
X171990609Y-35779185D01*
X172078210Y-35910288D01*
X172078213Y-35910292D01*
X172189707Y-36021786D01*
X172189711Y-36021789D01*
X172320814Y-36109390D01*
X172320827Y-36109397D01*
X172466498Y-36169735D01*
X172466503Y-36169737D01*
X172621153Y-36200499D01*
X172621156Y-36200500D01*
X172621158Y-36200500D01*
X172778844Y-36200500D01*
X172778845Y-36200499D01*
X172933497Y-36169737D01*
X173079179Y-36109394D01*
X173210289Y-36021789D01*
X173321789Y-35910289D01*
X173409394Y-35779179D01*
X173469737Y-35633497D01*
X173500500Y-35478842D01*
X173500500Y-35321158D01*
X173500500Y-35321155D01*
X173500499Y-35321153D01*
X173475761Y-35196789D01*
X173469737Y-35166503D01*
X173436099Y-35085292D01*
X173409397Y-35020827D01*
X173409390Y-35020814D01*
X173321789Y-34889711D01*
X173321786Y-34889707D01*
X173210292Y-34778213D01*
X173210288Y-34778210D01*
X173079185Y-34690609D01*
X173079172Y-34690602D01*
X172933501Y-34630264D01*
X172933489Y-34630261D01*
X172778845Y-34599500D01*
X172778842Y-34599500D01*
X172621158Y-34599500D01*
X172621155Y-34599500D01*
X172466510Y-34630261D01*
X172466498Y-34630264D01*
X172320827Y-34690602D01*
X172320814Y-34690609D01*
X172189711Y-34778210D01*
X172189707Y-34778213D01*
X172078213Y-34889707D01*
X172078210Y-34889711D01*
X171990609Y-35020814D01*
X171990602Y-35020827D01*
X171930264Y-35166498D01*
X171930261Y-35166510D01*
X171899500Y-35321153D01*
X156065434Y-35321153D01*
X156154179Y-35284394D01*
X156285289Y-35196789D01*
X156396789Y-35085289D01*
X156484394Y-34954179D01*
X156544737Y-34808497D01*
X156575500Y-34653842D01*
X156575500Y-34496158D01*
X156575500Y-34496155D01*
X156575499Y-34496153D01*
X156544738Y-34341510D01*
X156544737Y-34341503D01*
X156531062Y-34308489D01*
X156484397Y-34195827D01*
X156484390Y-34195814D01*
X156396790Y-34064712D01*
X156396784Y-34064705D01*
X156328232Y-33996153D01*
X160824500Y-33996153D01*
X160824500Y-34153846D01*
X160855261Y-34308489D01*
X160855264Y-34308501D01*
X160915602Y-34454172D01*
X160915609Y-34454185D01*
X161003210Y-34585288D01*
X161003213Y-34585292D01*
X161114707Y-34696786D01*
X161114711Y-34696789D01*
X161245814Y-34784390D01*
X161245827Y-34784397D01*
X161391498Y-34844735D01*
X161391503Y-34844737D01*
X161546153Y-34875499D01*
X161546156Y-34875500D01*
X161546158Y-34875500D01*
X161703844Y-34875500D01*
X161703845Y-34875499D01*
X161858497Y-34844737D01*
X162004179Y-34784394D01*
X162135289Y-34696789D01*
X162246789Y-34585289D01*
X162334394Y-34454179D01*
X162394737Y-34308497D01*
X162425500Y-34153842D01*
X162425500Y-33996158D01*
X162425500Y-33996155D01*
X162425499Y-33996153D01*
X162399531Y-33865606D01*
X162394737Y-33841503D01*
X162394735Y-33841498D01*
X162334397Y-33695827D01*
X162334390Y-33695814D01*
X162246789Y-33564711D01*
X162246786Y-33564707D01*
X162135292Y-33453213D01*
X162135288Y-33453210D01*
X162004185Y-33365609D01*
X162004172Y-33365602D01*
X161858501Y-33305264D01*
X161858489Y-33305261D01*
X161703845Y-33274500D01*
X161703842Y-33274500D01*
X161546158Y-33274500D01*
X161546155Y-33274500D01*
X161391510Y-33305261D01*
X161391498Y-33305264D01*
X161245827Y-33365602D01*
X161245814Y-33365609D01*
X161114711Y-33453210D01*
X161114707Y-33453213D01*
X161003213Y-33564707D01*
X161003210Y-33564711D01*
X160915609Y-33695814D01*
X160915602Y-33695827D01*
X160855264Y-33841498D01*
X160855261Y-33841510D01*
X160824500Y-33996153D01*
X156328232Y-33996153D01*
X156285292Y-33953213D01*
X156285288Y-33953210D01*
X156154185Y-33865609D01*
X156154172Y-33865602D01*
X156008501Y-33805264D01*
X156008489Y-33805261D01*
X155853845Y-33774500D01*
X155853842Y-33774500D01*
X155696158Y-33774500D01*
X155696155Y-33774500D01*
X155541510Y-33805261D01*
X155541498Y-33805264D01*
X155395827Y-33865602D01*
X155395814Y-33865609D01*
X155264711Y-33953210D01*
X155264707Y-33953213D01*
X155153213Y-34064707D01*
X155153210Y-34064711D01*
X155065609Y-34195814D01*
X155065602Y-34195827D01*
X155005264Y-34341498D01*
X155005261Y-34341510D01*
X154974500Y-34496153D01*
X150200500Y-34496153D01*
X150200500Y-30003052D01*
X150200649Y-29996967D01*
X150205529Y-29897648D01*
X152699500Y-29897648D01*
X152699500Y-30102352D01*
X152703878Y-30129995D01*
X152731522Y-30304534D01*
X152794781Y-30499223D01*
X152887715Y-30681613D01*
X153008028Y-30847213D01*
X153152786Y-30991971D01*
X153307749Y-31104556D01*
X153318390Y-31112287D01*
X153434607Y-31171503D01*
X153500776Y-31205218D01*
X153500778Y-31205218D01*
X153500781Y-31205220D01*
X153605137Y-31239127D01*
X153695465Y-31268477D01*
X153796557Y-31284488D01*
X153897648Y-31300500D01*
X153897649Y-31300500D01*
X154102351Y-31300500D01*
X154102352Y-31300500D01*
X154304534Y-31268477D01*
X154499219Y-31205220D01*
X154681610Y-31112287D01*
X154774590Y-31044732D01*
X154847213Y-30991971D01*
X154847215Y-30991968D01*
X154847219Y-30991966D01*
X154991966Y-30847219D01*
X154991968Y-30847215D01*
X154991971Y-30847213D01*
X155077731Y-30729172D01*
X155112287Y-30681610D01*
X155205220Y-30499219D01*
X155268477Y-30304534D01*
X155273764Y-30271153D01*
X161049500Y-30271153D01*
X161049500Y-30428846D01*
X161080261Y-30583489D01*
X161080264Y-30583501D01*
X161140602Y-30729172D01*
X161140609Y-30729185D01*
X161228210Y-30860288D01*
X161228213Y-30860292D01*
X161339707Y-30971786D01*
X161339711Y-30971789D01*
X161470814Y-31059390D01*
X161470827Y-31059397D01*
X161598517Y-31112287D01*
X161616503Y-31119737D01*
X161771153Y-31150499D01*
X161771156Y-31150500D01*
X161771158Y-31150500D01*
X161928844Y-31150500D01*
X161928845Y-31150499D01*
X162083497Y-31119737D01*
X162229179Y-31059394D01*
X162360289Y-30971789D01*
X162471789Y-30860289D01*
X162559394Y-30729179D01*
X162619737Y-30583497D01*
X162650500Y-30428842D01*
X162650500Y-30271158D01*
X162650500Y-30271155D01*
X162650499Y-30271153D01*
X162619738Y-30116510D01*
X162619737Y-30116503D01*
X162613875Y-30102351D01*
X162559397Y-29970827D01*
X162559393Y-29970820D01*
X162553278Y-29961668D01*
X162553277Y-29961666D01*
X162510501Y-29897648D01*
X182699500Y-29897648D01*
X182699500Y-30102352D01*
X182703878Y-30129995D01*
X182731522Y-30304534D01*
X182794781Y-30499223D01*
X182887715Y-30681613D01*
X183008028Y-30847213D01*
X183152786Y-30991971D01*
X183307749Y-31104556D01*
X183318390Y-31112287D01*
X183434607Y-31171503D01*
X183500776Y-31205218D01*
X183500778Y-31205218D01*
X183500781Y-31205220D01*
X183605137Y-31239127D01*
X183695465Y-31268477D01*
X183796557Y-31284488D01*
X183897648Y-31300500D01*
X183897649Y-31300500D01*
X184102351Y-31300500D01*
X184102352Y-31300500D01*
X184304534Y-31268477D01*
X184499219Y-31205220D01*
X184681610Y-31112287D01*
X184774590Y-31044732D01*
X184847213Y-30991971D01*
X184847215Y-30991968D01*
X184847219Y-30991966D01*
X184991966Y-30847219D01*
X184991968Y-30847215D01*
X184991971Y-30847213D01*
X185077731Y-30729172D01*
X185112287Y-30681610D01*
X185205220Y-30499219D01*
X185268477Y-30304534D01*
X185300500Y-30102352D01*
X185300500Y-29897648D01*
X185273664Y-29728213D01*
X185268477Y-29695465D01*
X185205218Y-29500776D01*
X185163578Y-29419054D01*
X185112287Y-29318390D01*
X185073339Y-29264782D01*
X184991971Y-29152786D01*
X184847213Y-29008028D01*
X184681613Y-28887715D01*
X184681612Y-28887714D01*
X184681610Y-28887713D01*
X184624653Y-28858691D01*
X184499223Y-28794781D01*
X184304534Y-28731522D01*
X184129995Y-28703878D01*
X184102352Y-28699500D01*
X183897648Y-28699500D01*
X183873329Y-28703351D01*
X183695465Y-28731522D01*
X183500776Y-28794781D01*
X183318386Y-28887715D01*
X183152786Y-29008028D01*
X183008028Y-29152786D01*
X182887715Y-29318386D01*
X182794781Y-29500776D01*
X182731522Y-29695465D01*
X182708677Y-29839707D01*
X182699500Y-29897648D01*
X162510501Y-29897648D01*
X162471789Y-29839711D01*
X162471786Y-29839707D01*
X162360292Y-29728213D01*
X162360288Y-29728210D01*
X162229185Y-29640609D01*
X162229172Y-29640602D01*
X162083501Y-29580264D01*
X162083489Y-29580261D01*
X161928845Y-29549500D01*
X161928842Y-29549500D01*
X161771158Y-29549500D01*
X161771155Y-29549500D01*
X161616510Y-29580261D01*
X161616498Y-29580264D01*
X161470827Y-29640602D01*
X161470814Y-29640609D01*
X161339711Y-29728210D01*
X161339707Y-29728213D01*
X161228213Y-29839707D01*
X161228210Y-29839711D01*
X161140609Y-29970814D01*
X161140602Y-29970827D01*
X161080264Y-30116498D01*
X161080261Y-30116510D01*
X161049500Y-30271153D01*
X155273764Y-30271153D01*
X155300500Y-30102352D01*
X155300500Y-29897648D01*
X155273664Y-29728213D01*
X155268477Y-29695465D01*
X155205218Y-29500776D01*
X155163578Y-29419054D01*
X155112287Y-29318390D01*
X155073339Y-29264782D01*
X154991971Y-29152786D01*
X154847213Y-29008028D01*
X154681613Y-28887715D01*
X154681612Y-28887714D01*
X154681610Y-28887713D01*
X154624653Y-28858691D01*
X154499223Y-28794781D01*
X154304534Y-28731522D01*
X154129995Y-28703878D01*
X154102352Y-28699500D01*
X153897648Y-28699500D01*
X153873329Y-28703351D01*
X153695465Y-28731522D01*
X153500776Y-28794781D01*
X153318386Y-28887715D01*
X153152786Y-29008028D01*
X153008028Y-29152786D01*
X152887715Y-29318386D01*
X152794781Y-29500776D01*
X152731522Y-29695465D01*
X152708677Y-29839707D01*
X152699500Y-29897648D01*
X150205529Y-29897648D01*
X150206067Y-29886691D01*
X150206067Y-29886690D01*
X150218497Y-29633665D01*
X150219690Y-29621555D01*
X150225815Y-29580263D01*
X150272614Y-29264765D01*
X150274981Y-29252863D01*
X150362631Y-28902947D01*
X150366152Y-28891341D01*
X150487672Y-28551717D01*
X150492314Y-28540509D01*
X150646547Y-28214409D01*
X150652262Y-28203717D01*
X150837704Y-27894327D01*
X150844447Y-27884234D01*
X151059329Y-27594500D01*
X151067032Y-27585115D01*
X151309273Y-27317843D01*
X151317843Y-27309273D01*
X151585115Y-27067032D01*
X151594500Y-27059329D01*
X151884234Y-26844447D01*
X151894327Y-26837704D01*
X152203717Y-26652262D01*
X152214409Y-26646547D01*
X152540509Y-26492314D01*
X152551717Y-26487672D01*
X152891341Y-26366152D01*
X152902947Y-26362631D01*
X153252863Y-26274981D01*
X153264765Y-26272614D01*
X153621561Y-26219689D01*
X153633659Y-26218497D01*
X153942885Y-26203305D01*
X153996968Y-26200649D01*
X154003052Y-26200500D01*
X154039882Y-26200500D01*
X183960118Y-26200500D01*
X183996948Y-26200500D01*
X184003032Y-26200649D01*
G37*
G04 #@! TD.AperFunction*
G04 #@! TD*
M02*
