G04 #@! TF.GenerationSoftware,KiCad,Pcbnew,9.0.1*
G04 #@! TF.CreationDate,2026-07-16T12:47:56-04:00*
G04 #@! TF.ProjectId,DAQ-V4.1,4441512d-5634-42e3-912e-6b696361645f,rev?*
G04 #@! TF.SameCoordinates,Original*
G04 #@! TF.FileFunction,Copper,L4,Bot*
G04 #@! TF.FilePolarity,Positive*
%FSLAX46Y46*%
G04 Gerber Fmt 4.6, Leading zero omitted, Abs format (unit mm)*
G04 Created by KiCad (PCBNEW 9.0.1) date 2026-07-16 12:47:56*
%MOMM*%
%LPD*%
G01*
G04 APERTURE LIST*
G04 Aperture macros list*
%AMRoundRect*
0 Rectangle with rounded corners*
0 $1 Rounding radius*
0 $2 $3 $4 $5 $6 $7 $8 $9 X,Y pos of 4 corners*
0 Add a 4 corners polygon primitive as box body*
4,1,4,$2,$3,$4,$5,$6,$7,$8,$9,$2,$3,0*
0 Add four circle primitives for the rounded corners*
1,1,$1+$1,$2,$3*
1,1,$1+$1,$4,$5*
1,1,$1+$1,$6,$7*
1,1,$1+$1,$8,$9*
0 Add four rect primitives between the rounded corners*
20,1,$1+$1,$2,$3,$4,$5,0*
20,1,$1+$1,$4,$5,$6,$7,0*
20,1,$1+$1,$6,$7,$8,$9,0*
20,1,$1+$1,$8,$9,$2,$3,0*%
G04 Aperture macros list end*
G04 #@! TA.AperFunction,ComponentPad*
%ADD10RoundRect,0.750000X0.750000X-0.750000X0.750000X0.750000X-0.750000X0.750000X-0.750000X-0.750000X0*%
G04 #@! TD*
G04 #@! TA.AperFunction,ComponentPad*
%ADD11C,3.000000*%
G04 #@! TD*
G04 #@! TA.AperFunction,ViaPad*
%ADD12C,0.600000*%
G04 #@! TD*
G04 #@! TA.AperFunction,ViaPad*
%ADD13C,0.700000*%
G04 #@! TD*
G04 #@! TA.AperFunction,Conductor*
%ADD14C,0.200000*%
G04 #@! TD*
G04 #@! TA.AperFunction,Conductor*
%ADD15C,0.300000*%
G04 #@! TD*
G04 APERTURE END LIST*
D10*
G04 #@! TO.P,J5,1,Pin_1*
G04 #@! TO.N,GND*
X182175000Y-114825000D03*
D11*
G04 #@! TO.P,J5,2,Pin_2*
G04 #@! TO.N,+7.5V*
X182175000Y-109825000D03*
G04 #@! TD*
D12*
G04 #@! TO.N,/LSM6DSV INT*
X166700000Y-49800000D03*
X173900000Y-38400000D03*
G04 #@! TO.N,/USART2_CTS*
X173275000Y-49650000D03*
X184875000Y-87750000D03*
G04 #@! TO.N,/USART2_TX*
X177600000Y-70425000D03*
X170300000Y-61575000D03*
G04 #@! TO.N,/USART2_RTS*
X182675000Y-99025000D03*
X172290380Y-49759620D03*
D13*
G04 #@! TO.N,/USART2_RX*
X160350000Y-66875000D03*
D12*
X185088207Y-97663207D03*
G04 #@! TO.N,Net-(U7-PE9)*
X181800000Y-88500000D03*
X171580000Y-66075000D03*
G04 #@! TO.N,/SPI1_MOSI*
X158650000Y-81100000D03*
X166150000Y-75800000D03*
G04 #@! TO.N,/SPI2_NSS*
X164500000Y-52600000D03*
X155000000Y-37500000D03*
G04 #@! TO.N,/SPI2_MOSI*
X160300000Y-43100000D03*
X164450000Y-50000000D03*
G04 #@! TO.N,/SPI2_SCK*
X161900000Y-45500000D03*
X164700000Y-51600000D03*
G04 #@! TO.N,/SPI2_MISO*
X158100000Y-40600000D03*
X165100000Y-50800000D03*
G04 #@! TO.N,/ADXL375 SDA*
X181649265Y-56899265D03*
X179550000Y-54250000D03*
G04 #@! TO.N,/SWO*
X175050000Y-50250000D03*
X176850000Y-45600000D03*
G04 #@! TO.N,/LSM6DSV SDA*
X173050000Y-42950000D03*
X167780000Y-45450000D03*
G04 #@! TO.N,GND*
X184600000Y-114800000D03*
X160100000Y-79775000D03*
X166386700Y-42050000D03*
X157172000Y-53600000D03*
X167050000Y-113775000D03*
X182300000Y-65050000D03*
X182406339Y-82449000D03*
X152922000Y-50600000D03*
X165750000Y-43875000D03*
X152720000Y-58060000D03*
X182200000Y-117200000D03*
X169250000Y-74250000D03*
X174337501Y-122125000D03*
X185150000Y-37450000D03*
X173562500Y-81000000D03*
X169000000Y-113775000D03*
X168950000Y-100800000D03*
X167436900Y-34900000D03*
X185075000Y-39900000D03*
X179800000Y-114800000D03*
X179225000Y-77075000D03*
X168175000Y-111325000D03*
X152022000Y-51550000D03*
D13*
X182425000Y-49575000D03*
D12*
X152800000Y-105350000D03*
X176675000Y-69275000D03*
X177100000Y-103275000D03*
X155972000Y-59900000D03*
D13*
X184100000Y-66650000D03*
D12*
X185150000Y-41200000D03*
X172637500Y-111937500D03*
D13*
X158500000Y-52600000D03*
D12*
X155425000Y-46200000D03*
X152022000Y-52850000D03*
X156420000Y-52280000D03*
X152022000Y-56000000D03*
X153100000Y-42350000D03*
D13*
X178250000Y-67600000D03*
D12*
X170000000Y-34000000D03*
D13*
X159800000Y-47200000D03*
D12*
X152022000Y-54400000D03*
X157072000Y-58800000D03*
X158175000Y-58525000D03*
X179000000Y-87350000D03*
X154322000Y-50600000D03*
X180600000Y-101825000D03*
D13*
X161537500Y-65962500D03*
D12*
X183475000Y-51425000D03*
X163400000Y-87050000D03*
X157350000Y-33850000D03*
X177200000Y-96400000D03*
X172525000Y-113425000D03*
X170875000Y-113750000D03*
X155250000Y-87250000D03*
X155822000Y-50600000D03*
X156000000Y-68150000D03*
X157072000Y-57200000D03*
X152872000Y-59900000D03*
X167300000Y-87000000D03*
X177100000Y-100100000D03*
X162200000Y-82600000D03*
X152022000Y-57550000D03*
X157172000Y-51800000D03*
X157250000Y-60525000D03*
X154422000Y-59900000D03*
X171350000Y-101750000D03*
X152022000Y-59050000D03*
X168700000Y-93000000D03*
X176750000Y-87300000D03*
X157350000Y-32100000D03*
X159787139Y-62306378D03*
X172694350Y-39400000D03*
G04 #@! TO.N,+3.3V*
X159900000Y-81550000D03*
X180625000Y-93150000D03*
X169125000Y-95750000D03*
X184350000Y-52825000D03*
X161850000Y-30350000D03*
X174650000Y-109225000D03*
X177200000Y-98225000D03*
X177050000Y-101650000D03*
X183350000Y-44325000D03*
X167075000Y-118350000D03*
X164000000Y-82550000D03*
X177767699Y-73212399D03*
D13*
X186200000Y-66650000D03*
D12*
X159400000Y-82612500D03*
X167436900Y-38900000D03*
X161009620Y-57384620D03*
X169656700Y-44650000D03*
D13*
X181000000Y-46775000D03*
D12*
X172700000Y-35400000D03*
X161625000Y-34075000D03*
D13*
X158500000Y-54150000D03*
D12*
X157150000Y-82612500D03*
X169150000Y-69925000D03*
X171950000Y-44650000D03*
X179500000Y-63600000D03*
D13*
X178261101Y-63588899D03*
D12*
X171760750Y-68085534D03*
X173850001Y-45519238D03*
D13*
X186800000Y-63625000D03*
D12*
X181150000Y-77200000D03*
X165200000Y-66575000D03*
X169475000Y-118350000D03*
X163359620Y-43940380D03*
X161700000Y-86800000D03*
X154800000Y-82562500D03*
X184900000Y-80300000D03*
X177200000Y-94875000D03*
X182250000Y-52825000D03*
D13*
X158575000Y-50250000D03*
D12*
X166300000Y-82600000D03*
X155775000Y-34575000D03*
X151500000Y-39900000D03*
X166037500Y-122175000D03*
X155450000Y-47750000D03*
X159300000Y-65800000D03*
G04 #@! TO.N,/SAM-M10Q RX*
X169625000Y-79175000D03*
X160262500Y-60937500D03*
G04 #@! TO.N,/SAM-M10Q TX*
X170600000Y-78600000D03*
X161100000Y-61600000D03*
G04 #@! TO.N,/SAM-M10Q TIMEPULSE*
X178500000Y-75700000D03*
X171365814Y-49800000D03*
G04 #@! TO.N,/SAM-M10Q NRESET*
X170580000Y-49650000D03*
X176406339Y-79074000D03*
G04 #@! TO.N,/NRST*
X164450000Y-54850000D03*
X172100000Y-46350000D03*
G04 #@! TD*
D14*
G04 #@! TO.N,/LSM6DSV INT*
X168724000Y-41451000D02*
X168063300Y-42111700D01*
X169225000Y-40950000D02*
X169101000Y-41074000D01*
X172725000Y-40950000D02*
X169225000Y-40950000D01*
X168748943Y-41451000D02*
X168724000Y-41451000D01*
X169101000Y-41098943D02*
X168748943Y-41451000D01*
X167625000Y-42111700D02*
X166386700Y-43350000D01*
X173900000Y-39775000D02*
X172725000Y-40950000D01*
X168063300Y-42111700D02*
X167625000Y-42111700D01*
X173900000Y-38400000D02*
X173900000Y-39775000D01*
X166386700Y-49486700D02*
X166700000Y-49800000D01*
X166386700Y-43350000D02*
X166386700Y-49486700D01*
X169101000Y-41074000D02*
X169101000Y-41098943D01*
D15*
G04 #@! TO.N,/USART2_CTS*
X180525000Y-82825000D02*
X180525000Y-66800000D01*
X184875000Y-87175000D02*
X180525000Y-82825000D01*
X184875000Y-87750000D02*
X184875000Y-87175000D01*
X173275000Y-59550000D02*
X173275000Y-49650000D01*
X180525000Y-66800000D02*
X173275000Y-59550000D01*
G04 #@! TO.N,/USART2_TX*
X172825000Y-69315556D02*
X172825000Y-64100000D01*
X172825000Y-64100000D02*
X170300000Y-61575000D01*
X173934444Y-70425000D02*
X172825000Y-69315556D01*
X177600000Y-70425000D02*
X173934444Y-70425000D01*
G04 #@! TO.N,/USART2_RTS*
X172150000Y-59900000D02*
X178550000Y-66300000D01*
X179075000Y-66300000D02*
X179875000Y-67100000D01*
X179875000Y-83775000D02*
X184625000Y-88525000D01*
X172150000Y-49900000D02*
X172150000Y-59900000D01*
X184625000Y-88525000D02*
X184625000Y-96800000D01*
X178550000Y-66300000D02*
X179075000Y-66300000D01*
X182875000Y-98550000D02*
X182875000Y-98825000D01*
X184625000Y-96800000D02*
X182875000Y-98550000D01*
X172290380Y-49759620D02*
X172150000Y-49900000D01*
X179875000Y-67100000D02*
X179875000Y-83775000D01*
X182875000Y-98825000D02*
X182675000Y-99025000D01*
G04 #@! TO.N,/USART2_RX*
X172535327Y-95410327D02*
X168325000Y-91200000D01*
X181875000Y-100875000D02*
X176725000Y-100875000D01*
X185088207Y-97663207D02*
X185086793Y-97663207D01*
X168325000Y-91200000D02*
X168325000Y-77050000D01*
X160350000Y-69075000D02*
X160350000Y-66875000D01*
X172535327Y-96685327D02*
X172535327Y-95410327D01*
X176725000Y-100875000D02*
X172535327Y-96685327D01*
X185086793Y-97663207D02*
X181875000Y-100875000D01*
X168325000Y-77050000D02*
X160350000Y-69075000D01*
G04 #@! TO.N,Net-(U7-PE9)*
X171580000Y-66925000D02*
X171580000Y-66075000D01*
X170850000Y-67655000D02*
X171580000Y-66925000D01*
X171349000Y-85049000D02*
X171349000Y-76850000D01*
X170000000Y-75675000D02*
X170000000Y-69025000D01*
X174800000Y-88500000D02*
X171349000Y-85049000D01*
X171349000Y-76850000D02*
X171175000Y-76850000D01*
X171175000Y-76850000D02*
X170000000Y-75675000D01*
X181800000Y-88500000D02*
X174800000Y-88500000D01*
X170850000Y-68175000D02*
X170850000Y-67655000D01*
X170000000Y-69025000D02*
X170850000Y-68175000D01*
G04 #@! TO.N,/SPI1_MOSI*
X161300000Y-80650000D02*
X166150000Y-75800000D01*
X158650000Y-81100000D02*
X159100000Y-80650000D01*
X159100000Y-80650000D02*
X161300000Y-80650000D01*
G04 #@! TO.N,/SPI2_NSS*
X163400000Y-52600000D02*
X155000000Y-44200000D01*
X164500000Y-52600000D02*
X163400000Y-52600000D01*
X155000000Y-44200000D02*
X155000000Y-37500000D01*
G04 #@! TO.N,/SPI2_MOSI*
X164100000Y-50000000D02*
X162900000Y-48800000D01*
X162700000Y-46100000D02*
X162700000Y-45379346D01*
X160420654Y-43100000D02*
X160300000Y-43100000D01*
X162900000Y-48800000D02*
X162700000Y-48600000D01*
X162700000Y-45379346D02*
X160420654Y-43100000D01*
X162700000Y-48600000D02*
X162700000Y-46100000D01*
X164450000Y-50000000D02*
X164100000Y-50000000D01*
G04 #@! TO.N,/SPI2_SCK*
X161900000Y-48800000D02*
X161900000Y-45500000D01*
X164700000Y-51600000D02*
X161900000Y-48800000D01*
G04 #@! TO.N,/SPI2_MISO*
X165100000Y-46600000D02*
X159100000Y-40600000D01*
X165100000Y-50800000D02*
X165100000Y-46600000D01*
X159100000Y-40600000D02*
X158100000Y-40600000D01*
D14*
G04 #@! TO.N,/ADXL375 SDA*
X179825000Y-55075000D02*
X181649265Y-56899265D01*
X179550000Y-54250000D02*
X179825000Y-54525000D01*
X179825000Y-54525000D02*
X179825000Y-55075000D01*
D15*
G04 #@! TO.N,/SWO*
X176850000Y-48450000D02*
X175050000Y-50250000D01*
X176850000Y-45600000D02*
X176850000Y-48450000D01*
D14*
G04 #@! TO.N,/LSM6DSV SDA*
X169181000Y-44049000D02*
X167780000Y-45450000D01*
X172325000Y-44050000D02*
X172324000Y-44049000D01*
X173050000Y-42950000D02*
X173050000Y-43325000D01*
X172324000Y-44049000D02*
X169181000Y-44049000D01*
X173050000Y-43325000D02*
X172325000Y-44050000D01*
D15*
G04 #@! TO.N,/SAM-M10Q RX*
X162587500Y-65787500D02*
X160875000Y-64075000D01*
X160875000Y-62475000D02*
X160000000Y-61600000D01*
X169125000Y-78675000D02*
X169125000Y-76750000D01*
X169625000Y-79175000D02*
X169125000Y-78675000D01*
X160000000Y-61600000D02*
X160000000Y-61200000D01*
X162587500Y-70212500D02*
X162587500Y-65787500D01*
X169125000Y-76750000D02*
X162587500Y-70212500D01*
X160875000Y-64075000D02*
X160875000Y-62475000D01*
X160000000Y-61200000D02*
X160262500Y-60937500D01*
G04 #@! TO.N,/SAM-M10Q TX*
X163675000Y-70200000D02*
X169975000Y-76500000D01*
X169975000Y-76500000D02*
X169975000Y-77975000D01*
X163675000Y-64566479D02*
X163675000Y-70200000D01*
X161100000Y-61991479D02*
X163675000Y-64566479D01*
X169975000Y-77975000D02*
X170600000Y-78600000D01*
X161100000Y-61600000D02*
X161100000Y-61991479D01*
G04 #@! TO.N,/SAM-M10Q TIMEPULSE*
X178523796Y-66939000D02*
X178894189Y-67309393D01*
X178089000Y-66939000D02*
X178523796Y-66939000D01*
X171365814Y-49800000D02*
X171175000Y-49990814D01*
X171175000Y-49990814D02*
X171175000Y-60025000D01*
X179016499Y-67309393D02*
X179150000Y-67442894D01*
X179150000Y-67442894D02*
X179150000Y-75050000D01*
X178894189Y-67309393D02*
X179016499Y-67309393D01*
X179150000Y-75050000D02*
X178500000Y-75700000D01*
X171175000Y-60025000D02*
X178089000Y-66939000D01*
G04 #@! TO.N,/SAM-M10Q NRESET*
X170580000Y-50045000D02*
X170051000Y-50574000D01*
X170051000Y-54250000D02*
X170250000Y-54449000D01*
X176406339Y-76449000D02*
X176406339Y-79074000D01*
X170051000Y-50574000D02*
X170051000Y-54250000D01*
X178378699Y-73465484D02*
X178375000Y-73469183D01*
X178375000Y-73469183D02*
X178375000Y-74480339D01*
X178375000Y-72955615D02*
X178378699Y-72959314D01*
X178378699Y-72959314D02*
X178378699Y-73465484D01*
X173500000Y-64150000D02*
X178375000Y-69025000D01*
X170580000Y-49650000D02*
X170580000Y-50045000D01*
X170580000Y-49650000D02*
X170605000Y-49625000D01*
X178375000Y-74480339D02*
X176406339Y-76449000D01*
X170250000Y-60450000D02*
X173500000Y-63700000D01*
X170250000Y-54449000D02*
X170250000Y-60450000D01*
X178375000Y-69025000D02*
X178375000Y-72955615D01*
X173500000Y-63700000D02*
X173500000Y-64150000D01*
G04 #@! TO.N,/NRST*
X172100000Y-47200000D02*
X164450000Y-54850000D01*
X172100000Y-46350000D02*
X172100000Y-47200000D01*
G04 #@! TD*
M02*
