%TF.GenerationSoftware,KiCad,Pcbnew,9.0.1*%
%TF.CreationDate,2026-07-16T12:47:56-04:00*%
%TF.ProjectId,DAQ-V4.1,4441512d-5634-42e3-912e-6b696361645f,rev?*%
%TF.SameCoordinates,Original*%
%TF.FileFunction,Drillmap*%
%TF.FilePolarity,Positive*%
%FSLAX45Y45*%
G04 Gerber Fmt 4.5, Leading zero omitted, Abs format (unit mm)*
G04 Created by KiCad (PCBNEW 9.0.1) date 2026-07-16 12:47:56*
%MOMM*%
%LPD*%
G01*
G04 APERTURE LIST*
%ADD10C,0.050000*%
%ADD11C,0.200000*%
%ADD12C,0.100000*%
%ADD13C,0.180000*%
G04 APERTURE END LIST*
D10*
X18800000Y-12200000D02*
X18800000Y-3000000D01*
X15400000Y-12600000D02*
X18400000Y-12600000D01*
X15000000Y-3000000D02*
X15000000Y-12200000D01*
X18800000Y-12200000D02*
G75*
G02*
X18400000Y-12600000I-400000J0D01*
G01*
X18400000Y-2600000D02*
X15400000Y-2600000D01*
X15400000Y-12600000D02*
G75*
G02*
X15000000Y-12200000I0J400000D01*
G01*
X15000000Y-3000000D02*
G75*
G02*
X15400000Y-2600000I400000J0D01*
G01*
X18400000Y-2600000D02*
G75*
G02*
X18800000Y-3000000I0J-400000D01*
G01*
D11*
D12*
X15135000Y-3975000D02*
X15165000Y-4005000D01*
X15165000Y-3975000D02*
X15135000Y-4005000D01*
X15187200Y-5140000D02*
X15217200Y-5170000D01*
X15217200Y-5140000D02*
X15187200Y-5170000D01*
X15187200Y-5270000D02*
X15217200Y-5300000D01*
X15217200Y-5270000D02*
X15187200Y-5300000D01*
X15187200Y-5425000D02*
X15217200Y-5455000D01*
X15217200Y-5425000D02*
X15187200Y-5455000D01*
X15187200Y-5585000D02*
X15217200Y-5615000D01*
X15217200Y-5585000D02*
X15187200Y-5615000D01*
X15187200Y-5740000D02*
X15217200Y-5770000D01*
X15217200Y-5740000D02*
X15187200Y-5770000D01*
X15187200Y-5890000D02*
X15217200Y-5920000D01*
X15217200Y-5890000D02*
X15187200Y-5920000D01*
X15257000Y-5791000D02*
X15287000Y-5821000D01*
X15287000Y-5791000D02*
X15257000Y-5821000D01*
X15265000Y-10520000D02*
X15295000Y-10550000D01*
X15295000Y-10520000D02*
X15265000Y-10550000D01*
X15272200Y-5975000D02*
X15302200Y-6005000D01*
X15302200Y-5975000D02*
X15272200Y-6005000D01*
X15277200Y-5045000D02*
X15307200Y-5075000D01*
X15307200Y-5045000D02*
X15277200Y-5075000D01*
X15295000Y-4220000D02*
X15325000Y-4250000D01*
X15325000Y-4220000D02*
X15295000Y-4250000D01*
X15417200Y-5045000D02*
X15447200Y-5075000D01*
X15447200Y-5045000D02*
X15417200Y-5075000D01*
X15427200Y-5975000D02*
X15457200Y-6005000D01*
X15457200Y-5975000D02*
X15427200Y-6005000D01*
X15465000Y-8241250D02*
X15495000Y-8271250D01*
X15495000Y-8241250D02*
X15465000Y-8271250D01*
X15485000Y-3735000D02*
X15515000Y-3765000D01*
X15515000Y-3735000D02*
X15485000Y-3765000D01*
X15510000Y-8710000D02*
X15540000Y-8740000D01*
X15540000Y-8710000D02*
X15510000Y-8740000D01*
X15527500Y-4605000D02*
X15557500Y-4635000D01*
X15557500Y-4605000D02*
X15527500Y-4635000D01*
X15530000Y-4760000D02*
X15560000Y-4790000D01*
X15560000Y-4760000D02*
X15530000Y-4790000D01*
X15562500Y-3442500D02*
X15592500Y-3472500D01*
X15592500Y-3442500D02*
X15562500Y-3472500D01*
X15567200Y-5045000D02*
X15597200Y-5075000D01*
X15597200Y-5045000D02*
X15567200Y-5075000D01*
X15582200Y-5975000D02*
X15612200Y-6005000D01*
X15612200Y-5975000D02*
X15582200Y-6005000D01*
X15585000Y-6800000D02*
X15615000Y-6830000D01*
X15615000Y-6800000D02*
X15585000Y-6830000D01*
X15627000Y-5213000D02*
X15657000Y-5243000D01*
X15657000Y-5213000D02*
X15627000Y-5243000D01*
X15692200Y-5705000D02*
X15722200Y-5735000D01*
X15722200Y-5705000D02*
X15692200Y-5735000D01*
X15692200Y-5865000D02*
X15722200Y-5895000D01*
X15722200Y-5865000D02*
X15692200Y-5895000D01*
X15700000Y-8246250D02*
X15730000Y-8276250D01*
X15730000Y-8246250D02*
X15700000Y-8276250D01*
X15702200Y-5165000D02*
X15732200Y-5195000D01*
X15732200Y-5165000D02*
X15702200Y-5195000D01*
X15702200Y-5345000D02*
X15732200Y-5375000D01*
X15732200Y-5345000D02*
X15702200Y-5375000D01*
X15710000Y-6037500D02*
X15740000Y-6067500D01*
X15740000Y-6037500D02*
X15710000Y-6067500D01*
X15720000Y-3195000D02*
X15750000Y-3225000D01*
X15750000Y-3195000D02*
X15720000Y-3225000D01*
X15720000Y-3370000D02*
X15750000Y-3400000D01*
X15750000Y-3370000D02*
X15720000Y-3400000D01*
X15795000Y-4045000D02*
X15825000Y-4075000D01*
X15825000Y-4045000D02*
X15795000Y-4075000D01*
X15802500Y-5837500D02*
X15832500Y-5867500D01*
X15832500Y-5837500D02*
X15802500Y-5867500D01*
X15835000Y-5245000D02*
X15865000Y-5275000D01*
X15865000Y-5245000D02*
X15835000Y-5275000D01*
X15835000Y-5400000D02*
X15865000Y-5430000D01*
X15865000Y-5400000D02*
X15835000Y-5430000D01*
X15842500Y-5010000D02*
X15872500Y-5040000D01*
X15872500Y-5010000D02*
X15842500Y-5040000D01*
X15850000Y-8095000D02*
X15880000Y-8125000D01*
X15880000Y-8095000D02*
X15850000Y-8125000D01*
X15915000Y-6565000D02*
X15945000Y-6595000D01*
X15945000Y-6565000D02*
X15915000Y-6595000D01*
X15925000Y-8246250D02*
X15955000Y-8276250D01*
X15955000Y-8246250D02*
X15925000Y-8276250D01*
X15963714Y-6215638D02*
X15993714Y-6245638D01*
X15993714Y-6215638D02*
X15963714Y-6245638D01*
X15965000Y-4705000D02*
X15995000Y-4735000D01*
X15995000Y-4705000D02*
X15965000Y-4735000D01*
X15975000Y-8140000D02*
X16005000Y-8170000D01*
X16005000Y-8140000D02*
X15975000Y-8170000D01*
X15995000Y-7962500D02*
X16025000Y-7992500D01*
X16025000Y-7962500D02*
X15995000Y-7992500D01*
X16011250Y-6078750D02*
X16041250Y-6108750D01*
X16041250Y-6078750D02*
X16011250Y-6108750D01*
X16015000Y-4295000D02*
X16045000Y-4325000D01*
X16045000Y-4295000D02*
X16015000Y-4325000D01*
X16020000Y-6672500D02*
X16050000Y-6702500D01*
X16050000Y-6672500D02*
X16020000Y-6702500D01*
X16085962Y-5723462D02*
X16115962Y-5753462D01*
X16115962Y-5723462D02*
X16085962Y-5753462D01*
X16095000Y-6145000D02*
X16125000Y-6175000D01*
X16125000Y-6145000D02*
X16095000Y-6175000D01*
X16138750Y-6581250D02*
X16168750Y-6611250D01*
X16168750Y-6581250D02*
X16138750Y-6611250D01*
X16147500Y-3392500D02*
X16177500Y-3422500D01*
X16177500Y-3392500D02*
X16147500Y-3422500D01*
X16155000Y-8665000D02*
X16185000Y-8695000D01*
X16185000Y-8665000D02*
X16155000Y-8695000D01*
X16170000Y-3020000D02*
X16200000Y-3050000D01*
X16200000Y-3020000D02*
X16170000Y-3050000D01*
X16175000Y-4535000D02*
X16205000Y-4565000D01*
X16205000Y-4535000D02*
X16175000Y-4565000D01*
X16205000Y-8245000D02*
X16235000Y-8275000D01*
X16235000Y-8245000D02*
X16205000Y-8275000D01*
X16320962Y-4379038D02*
X16350962Y-4409038D01*
X16350962Y-4379038D02*
X16320962Y-4409038D01*
X16325000Y-8690000D02*
X16355000Y-8720000D01*
X16355000Y-8690000D02*
X16325000Y-8720000D01*
X16385000Y-8240000D02*
X16415000Y-8270000D01*
X16415000Y-8240000D02*
X16385000Y-8270000D01*
X16430000Y-4985000D02*
X16460000Y-5015000D01*
X16460000Y-4985000D02*
X16430000Y-5015000D01*
X16430000Y-5470000D02*
X16460000Y-5500000D01*
X16460000Y-5470000D02*
X16430000Y-5500000D01*
X16435000Y-5245000D02*
X16465000Y-5275000D01*
X16465000Y-5245000D02*
X16435000Y-5275000D01*
X16455000Y-5145000D02*
X16485000Y-5175000D01*
X16485000Y-5145000D02*
X16455000Y-5175000D01*
X16495000Y-5065000D02*
X16525000Y-5095000D01*
X16525000Y-5065000D02*
X16495000Y-5095000D01*
X16505000Y-6642500D02*
X16535000Y-6672500D01*
X16535000Y-6642500D02*
X16505000Y-6672500D01*
X16560000Y-4372500D02*
X16590000Y-4402500D01*
X16590000Y-4372500D02*
X16560000Y-4402500D01*
X16588750Y-12202500D02*
X16618750Y-12232500D01*
X16618750Y-12202500D02*
X16588750Y-12232500D01*
X16600000Y-7565000D02*
X16630000Y-7595000D01*
X16630000Y-7565000D02*
X16600000Y-7595000D01*
X16615000Y-8245000D02*
X16645000Y-8275000D01*
X16645000Y-8245000D02*
X16615000Y-8275000D01*
X16623670Y-4190000D02*
X16653670Y-4220000D01*
X16653670Y-4190000D02*
X16623670Y-4220000D01*
X16655000Y-4965000D02*
X16685000Y-4995000D01*
X16685000Y-4965000D02*
X16655000Y-4995000D01*
X16690000Y-11362500D02*
X16720000Y-11392500D01*
X16720000Y-11362500D02*
X16690000Y-11392500D01*
X16692500Y-11820000D02*
X16722500Y-11850000D01*
X16722500Y-11820000D02*
X16692500Y-11850000D01*
X16715000Y-8685000D02*
X16745000Y-8715000D01*
X16745000Y-8685000D02*
X16715000Y-8715000D01*
X16728690Y-3475000D02*
X16758690Y-3505000D01*
X16758690Y-3475000D02*
X16728690Y-3505000D01*
X16728690Y-3875000D02*
X16758690Y-3905000D01*
X16758690Y-3875000D02*
X16728690Y-3905000D01*
X16763000Y-4530000D02*
X16793000Y-4560000D01*
X16793000Y-4530000D02*
X16763000Y-4560000D01*
X16802500Y-11117500D02*
X16832500Y-11147500D01*
X16832500Y-11117500D02*
X16802500Y-11147500D01*
X16855000Y-9285000D02*
X16885000Y-9315000D01*
X16885000Y-9285000D02*
X16855000Y-9315000D01*
X16880000Y-10065000D02*
X16910000Y-10095000D01*
X16910000Y-10065000D02*
X16880000Y-10095000D01*
X16885000Y-11362500D02*
X16915000Y-11392500D01*
X16915000Y-11362500D02*
X16885000Y-11392500D01*
X16897500Y-9560000D02*
X16927500Y-9590000D01*
X16927500Y-9560000D02*
X16897500Y-9590000D01*
X16900000Y-6977500D02*
X16930000Y-7007500D01*
X16930000Y-6977500D02*
X16900000Y-7007500D01*
X16910000Y-7410000D02*
X16940000Y-7440000D01*
X16940000Y-7410000D02*
X16910000Y-7440000D01*
X16932500Y-11820000D02*
X16962500Y-11850000D01*
X16962500Y-11820000D02*
X16932500Y-11850000D01*
X16947500Y-7902500D02*
X16977500Y-7932500D01*
X16977500Y-7902500D02*
X16947500Y-7932500D01*
X16950670Y-4450000D02*
X16980670Y-4480000D01*
X16980670Y-4450000D02*
X16950670Y-4480000D01*
X16985000Y-3385000D02*
X17015000Y-3415000D01*
X17015000Y-3385000D02*
X16985000Y-3415000D01*
X17015000Y-6142500D02*
X17045000Y-6172500D01*
X17045000Y-6142500D02*
X17015000Y-6172500D01*
X17043000Y-4950000D02*
X17073000Y-4980000D01*
X17073000Y-4950000D02*
X17043000Y-4980000D01*
X17045000Y-7845000D02*
X17075000Y-7875000D01*
X17075000Y-7845000D02*
X17045000Y-7875000D01*
X17072500Y-11360000D02*
X17102500Y-11390000D01*
X17102500Y-11360000D02*
X17072500Y-11390000D01*
X17120000Y-10160000D02*
X17150000Y-10190000D01*
X17150000Y-10160000D02*
X17120000Y-10190000D01*
X17121581Y-4965000D02*
X17151581Y-4995000D01*
X17151581Y-4965000D02*
X17121581Y-4995000D01*
X17143000Y-6592500D02*
X17173000Y-6622500D01*
X17173000Y-6592500D02*
X17143000Y-6622500D01*
X17161075Y-6793553D02*
X17191075Y-6823553D01*
X17191075Y-6793553D02*
X17161075Y-6823553D01*
X17180000Y-4450000D02*
X17210000Y-4480000D01*
X17210000Y-4450000D02*
X17180000Y-4480000D01*
X17195000Y-4620000D02*
X17225000Y-4650000D01*
X17225000Y-4620000D02*
X17195000Y-4650000D01*
X17214038Y-4960962D02*
X17244038Y-4990962D01*
X17244038Y-4960962D02*
X17214038Y-4990962D01*
X17237500Y-11327500D02*
X17267500Y-11357500D01*
X17267500Y-11327500D02*
X17237500Y-11357500D01*
X17248750Y-11178750D02*
X17278750Y-11208750D01*
X17278750Y-11178750D02*
X17248750Y-11208750D01*
X17254435Y-3925000D02*
X17284435Y-3955000D01*
X17284435Y-3925000D02*
X17254435Y-3955000D01*
X17255000Y-3525000D02*
X17285000Y-3555000D01*
X17285000Y-3525000D02*
X17255000Y-3555000D01*
X17290000Y-4280000D02*
X17320000Y-4310000D01*
X17320000Y-4280000D02*
X17290000Y-4310000D01*
X17312500Y-4950000D02*
X17342500Y-4980000D01*
X17342500Y-4950000D02*
X17312500Y-4980000D01*
X17341250Y-8085000D02*
X17371250Y-8115000D01*
X17371250Y-8085000D02*
X17341250Y-8115000D01*
X17370000Y-4536924D02*
X17400000Y-4566924D01*
X17400000Y-4536924D02*
X17370000Y-4566924D01*
X17375000Y-3825000D02*
X17405000Y-3855000D01*
X17405000Y-3825000D02*
X17375000Y-3855000D01*
X17418750Y-12197500D02*
X17448750Y-12227500D01*
X17448750Y-12197500D02*
X17418750Y-12227500D01*
X17450000Y-10907500D02*
X17480000Y-10937500D01*
X17480000Y-10907500D02*
X17450000Y-10937500D01*
X17490000Y-5010000D02*
X17520000Y-5040000D01*
X17520000Y-5010000D02*
X17490000Y-5040000D01*
X17625634Y-7892400D02*
X17655634Y-7922400D01*
X17655634Y-7892400D02*
X17625634Y-7922400D01*
X17652500Y-6912500D02*
X17682500Y-6942500D01*
X17682500Y-6912500D02*
X17652500Y-6942500D01*
X17660000Y-8715000D02*
X17690000Y-8745000D01*
X17690000Y-8715000D02*
X17660000Y-8745000D01*
X17670000Y-4545000D02*
X17700000Y-4575000D01*
X17700000Y-4545000D02*
X17670000Y-4575000D01*
X17690000Y-10150000D02*
X17720000Y-10180000D01*
X17720000Y-10150000D02*
X17690000Y-10180000D01*
X17695000Y-9995000D02*
X17725000Y-10025000D01*
X17725000Y-9995000D02*
X17695000Y-10025000D01*
X17695000Y-10312500D02*
X17725000Y-10342500D01*
X17725000Y-10312500D02*
X17695000Y-10342500D01*
X17705000Y-9472500D02*
X17735000Y-9502500D01*
X17735000Y-9472500D02*
X17705000Y-9502500D01*
X17705000Y-9625000D02*
X17735000Y-9655000D01*
X17735000Y-9625000D02*
X17705000Y-9655000D01*
X17705000Y-9807500D02*
X17735000Y-9837500D01*
X17735000Y-9807500D02*
X17705000Y-9837500D01*
X17745000Y-7027500D02*
X17775000Y-7057500D01*
X17775000Y-7027500D02*
X17745000Y-7057500D01*
X17761770Y-7306240D02*
X17791770Y-7336240D01*
X17791770Y-7306240D02*
X17761770Y-7336240D01*
X17810000Y-6745000D02*
X17840000Y-6775000D01*
X17840000Y-6745000D02*
X17810000Y-6775000D01*
X17811110Y-6343890D02*
X17841110Y-6373890D01*
X17841110Y-6343890D02*
X17811110Y-6373890D01*
X17835000Y-7555000D02*
X17865000Y-7585000D01*
X17865000Y-7555000D02*
X17835000Y-7585000D01*
X17885000Y-8720000D02*
X17915000Y-8750000D01*
X17915000Y-8720000D02*
X17885000Y-8750000D01*
X17907500Y-7692500D02*
X17937500Y-7722500D01*
X17937500Y-7692500D02*
X17907500Y-7722500D01*
X17935000Y-6345000D02*
X17965000Y-6375000D01*
X17965000Y-6345000D02*
X17935000Y-6375000D01*
X17940000Y-5410000D02*
X17970000Y-5440000D01*
X17970000Y-5410000D02*
X17940000Y-5440000D01*
X17965000Y-11465000D02*
X17995000Y-11495000D01*
X17995000Y-11465000D02*
X17965000Y-11495000D01*
X18045000Y-10167500D02*
X18075000Y-10197500D01*
X18075000Y-10167500D02*
X18045000Y-10197500D01*
X18047500Y-9300000D02*
X18077500Y-9330000D01*
X18077500Y-9300000D02*
X18047500Y-9330000D01*
X18085000Y-4662500D02*
X18115000Y-4692500D01*
X18115000Y-4662500D02*
X18085000Y-4692500D01*
X18100000Y-7705000D02*
X18130000Y-7735000D01*
X18130000Y-7705000D02*
X18100000Y-7735000D01*
X18149927Y-5674926D02*
X18179927Y-5704926D01*
X18179927Y-5674926D02*
X18149927Y-5704926D01*
X18165000Y-8835000D02*
X18195000Y-8865000D01*
X18195000Y-8835000D02*
X18165000Y-8865000D01*
X18205000Y-11705000D02*
X18235000Y-11735000D01*
X18235000Y-11705000D02*
X18205000Y-11735000D01*
X18210000Y-5267500D02*
X18240000Y-5297500D01*
X18240000Y-5267500D02*
X18210000Y-5297500D01*
X18215000Y-6490000D02*
X18245000Y-6520000D01*
X18245000Y-6490000D02*
X18215000Y-6520000D01*
X18225634Y-8229900D02*
X18255634Y-8259900D01*
X18255634Y-8229900D02*
X18225634Y-8259900D01*
X18227500Y-4942500D02*
X18257500Y-4972500D01*
X18257500Y-4942500D02*
X18227500Y-4972500D01*
X18252500Y-9887500D02*
X18282500Y-9917500D01*
X18282500Y-9887500D02*
X18252500Y-9917500D01*
X18320000Y-4417500D02*
X18350000Y-4447500D01*
X18350000Y-4417500D02*
X18320000Y-4447500D01*
X18332500Y-5127500D02*
X18362500Y-5157500D01*
X18362500Y-5127500D02*
X18332500Y-5157500D01*
X18395000Y-6650000D02*
X18425000Y-6680000D01*
X18425000Y-6650000D02*
X18395000Y-6680000D01*
X18420000Y-5267500D02*
X18450000Y-5297500D01*
X18450000Y-5267500D02*
X18420000Y-5297500D01*
X18445000Y-11465000D02*
X18475000Y-11495000D01*
X18475000Y-11465000D02*
X18445000Y-11495000D01*
X18472500Y-8760000D02*
X18502500Y-8790000D01*
X18502500Y-8760000D02*
X18472500Y-8790000D01*
X18475000Y-8015000D02*
X18505000Y-8045000D01*
X18505000Y-8015000D02*
X18475000Y-8045000D01*
X18492500Y-3975000D02*
X18522500Y-4005000D01*
X18522500Y-3975000D02*
X18492500Y-4005000D01*
X18493821Y-9751321D02*
X18523821Y-9781321D01*
X18523821Y-9751321D02*
X18493821Y-9781321D01*
X18500000Y-3730000D02*
X18530000Y-3760000D01*
X18530000Y-3730000D02*
X18500000Y-3760000D01*
X18500000Y-4105000D02*
X18530000Y-4135000D01*
X18530000Y-4105000D02*
X18500000Y-4135000D01*
X18605000Y-6650000D02*
X18635000Y-6680000D01*
X18635000Y-6650000D02*
X18605000Y-6680000D01*
X18665000Y-6347500D02*
X18695000Y-6377500D01*
X18695000Y-6347500D02*
X18665000Y-6377500D01*
D13*
X18307500Y-10982500D02*
G75*
G02*
X18127500Y-10982500I-90000J0D01*
G01*
X18127500Y-10982500D02*
G75*
G02*
X18307500Y-10982500I90000J0D01*
G01*
X18307500Y-11482500D02*
G75*
G02*
X18127500Y-11482500I-90000J0D01*
G01*
X18127500Y-11482500D02*
G75*
G02*
X18307500Y-11482500I90000J0D01*
G01*
D11*
X15258277Y-12913984D02*
X15258277Y-12713984D01*
X15258277Y-12713984D02*
X15305896Y-12713984D01*
X15305896Y-12713984D02*
X15334467Y-12723508D01*
X15334467Y-12723508D02*
X15353515Y-12742555D01*
X15353515Y-12742555D02*
X15363039Y-12761603D01*
X15363039Y-12761603D02*
X15372562Y-12799698D01*
X15372562Y-12799698D02*
X15372562Y-12828269D01*
X15372562Y-12828269D02*
X15363039Y-12866365D01*
X15363039Y-12866365D02*
X15353515Y-12885412D01*
X15353515Y-12885412D02*
X15334467Y-12904460D01*
X15334467Y-12904460D02*
X15305896Y-12913984D01*
X15305896Y-12913984D02*
X15258277Y-12913984D01*
X15458277Y-12913984D02*
X15458277Y-12780650D01*
X15458277Y-12818746D02*
X15467801Y-12799698D01*
X15467801Y-12799698D02*
X15477324Y-12790174D01*
X15477324Y-12790174D02*
X15496372Y-12780650D01*
X15496372Y-12780650D02*
X15515420Y-12780650D01*
X15582086Y-12913984D02*
X15582086Y-12780650D01*
X15582086Y-12713984D02*
X15572562Y-12723508D01*
X15572562Y-12723508D02*
X15582086Y-12733031D01*
X15582086Y-12733031D02*
X15591610Y-12723508D01*
X15591610Y-12723508D02*
X15582086Y-12713984D01*
X15582086Y-12713984D02*
X15582086Y-12733031D01*
X15705896Y-12913984D02*
X15686848Y-12904460D01*
X15686848Y-12904460D02*
X15677324Y-12885412D01*
X15677324Y-12885412D02*
X15677324Y-12713984D01*
X15810658Y-12913984D02*
X15791610Y-12904460D01*
X15791610Y-12904460D02*
X15782086Y-12885412D01*
X15782086Y-12885412D02*
X15782086Y-12713984D01*
X16039229Y-12913984D02*
X16039229Y-12713984D01*
X16039229Y-12713984D02*
X16105896Y-12856841D01*
X16105896Y-12856841D02*
X16172562Y-12713984D01*
X16172562Y-12713984D02*
X16172562Y-12913984D01*
X16353515Y-12913984D02*
X16353515Y-12809222D01*
X16353515Y-12809222D02*
X16343991Y-12790174D01*
X16343991Y-12790174D02*
X16324943Y-12780650D01*
X16324943Y-12780650D02*
X16286848Y-12780650D01*
X16286848Y-12780650D02*
X16267801Y-12790174D01*
X16353515Y-12904460D02*
X16334467Y-12913984D01*
X16334467Y-12913984D02*
X16286848Y-12913984D01*
X16286848Y-12913984D02*
X16267801Y-12904460D01*
X16267801Y-12904460D02*
X16258277Y-12885412D01*
X16258277Y-12885412D02*
X16258277Y-12866365D01*
X16258277Y-12866365D02*
X16267801Y-12847317D01*
X16267801Y-12847317D02*
X16286848Y-12837793D01*
X16286848Y-12837793D02*
X16334467Y-12837793D01*
X16334467Y-12837793D02*
X16353515Y-12828269D01*
X16448753Y-12780650D02*
X16448753Y-12980650D01*
X16448753Y-12790174D02*
X16467801Y-12780650D01*
X16467801Y-12780650D02*
X16505896Y-12780650D01*
X16505896Y-12780650D02*
X16524943Y-12790174D01*
X16524943Y-12790174D02*
X16534467Y-12799698D01*
X16534467Y-12799698D02*
X16543991Y-12818746D01*
X16543991Y-12818746D02*
X16543991Y-12875888D01*
X16543991Y-12875888D02*
X16534467Y-12894936D01*
X16534467Y-12894936D02*
X16524943Y-12904460D01*
X16524943Y-12904460D02*
X16505896Y-12913984D01*
X16505896Y-12913984D02*
X16467801Y-12913984D01*
X16467801Y-12913984D02*
X16448753Y-12904460D01*
X16629705Y-12894936D02*
X16639229Y-12904460D01*
X16639229Y-12904460D02*
X16629705Y-12913984D01*
X16629705Y-12913984D02*
X16620182Y-12904460D01*
X16620182Y-12904460D02*
X16629705Y-12894936D01*
X16629705Y-12894936D02*
X16629705Y-12913984D01*
X16629705Y-12790174D02*
X16639229Y-12799698D01*
X16639229Y-12799698D02*
X16629705Y-12809222D01*
X16629705Y-12809222D02*
X16620182Y-12799698D01*
X16620182Y-12799698D02*
X16629705Y-12790174D01*
X16629705Y-12790174D02*
X16629705Y-12809222D01*
D12*
X14967500Y-13227500D02*
X14997500Y-13257500D01*
X14997500Y-13227500D02*
X14967500Y-13257500D01*
D11*
X15296372Y-13133984D02*
X15315420Y-13133984D01*
X15315420Y-13133984D02*
X15334467Y-13143508D01*
X15334467Y-13143508D02*
X15343991Y-13153031D01*
X15343991Y-13153031D02*
X15353515Y-13172079D01*
X15353515Y-13172079D02*
X15363039Y-13210174D01*
X15363039Y-13210174D02*
X15363039Y-13257793D01*
X15363039Y-13257793D02*
X15353515Y-13295888D01*
X15353515Y-13295888D02*
X15343991Y-13314936D01*
X15343991Y-13314936D02*
X15334467Y-13324460D01*
X15334467Y-13324460D02*
X15315420Y-13333984D01*
X15315420Y-13333984D02*
X15296372Y-13333984D01*
X15296372Y-13333984D02*
X15277324Y-13324460D01*
X15277324Y-13324460D02*
X15267801Y-13314936D01*
X15267801Y-13314936D02*
X15258277Y-13295888D01*
X15258277Y-13295888D02*
X15248753Y-13257793D01*
X15248753Y-13257793D02*
X15248753Y-13210174D01*
X15248753Y-13210174D02*
X15258277Y-13172079D01*
X15258277Y-13172079D02*
X15267801Y-13153031D01*
X15267801Y-13153031D02*
X15277324Y-13143508D01*
X15277324Y-13143508D02*
X15296372Y-13133984D01*
X15448753Y-13314936D02*
X15458277Y-13324460D01*
X15458277Y-13324460D02*
X15448753Y-13333984D01*
X15448753Y-13333984D02*
X15439229Y-13324460D01*
X15439229Y-13324460D02*
X15448753Y-13314936D01*
X15448753Y-13314936D02*
X15448753Y-13333984D01*
X15524943Y-13133984D02*
X15648753Y-13133984D01*
X15648753Y-13133984D02*
X15582086Y-13210174D01*
X15582086Y-13210174D02*
X15610658Y-13210174D01*
X15610658Y-13210174D02*
X15629705Y-13219698D01*
X15629705Y-13219698D02*
X15639229Y-13229222D01*
X15639229Y-13229222D02*
X15648753Y-13248269D01*
X15648753Y-13248269D02*
X15648753Y-13295888D01*
X15648753Y-13295888D02*
X15639229Y-13314936D01*
X15639229Y-13314936D02*
X15629705Y-13324460D01*
X15629705Y-13324460D02*
X15610658Y-13333984D01*
X15610658Y-13333984D02*
X15553515Y-13333984D01*
X15553515Y-13333984D02*
X15534467Y-13324460D01*
X15534467Y-13324460D02*
X15524943Y-13314936D01*
X15772562Y-13133984D02*
X15791610Y-13133984D01*
X15791610Y-13133984D02*
X15810658Y-13143508D01*
X15810658Y-13143508D02*
X15820182Y-13153031D01*
X15820182Y-13153031D02*
X15829705Y-13172079D01*
X15829705Y-13172079D02*
X15839229Y-13210174D01*
X15839229Y-13210174D02*
X15839229Y-13257793D01*
X15839229Y-13257793D02*
X15829705Y-13295888D01*
X15829705Y-13295888D02*
X15820182Y-13314936D01*
X15820182Y-13314936D02*
X15810658Y-13324460D01*
X15810658Y-13324460D02*
X15791610Y-13333984D01*
X15791610Y-13333984D02*
X15772562Y-13333984D01*
X15772562Y-13333984D02*
X15753515Y-13324460D01*
X15753515Y-13324460D02*
X15743991Y-13314936D01*
X15743991Y-13314936D02*
X15734467Y-13295888D01*
X15734467Y-13295888D02*
X15724943Y-13257793D01*
X15724943Y-13257793D02*
X15724943Y-13210174D01*
X15724943Y-13210174D02*
X15734467Y-13172079D01*
X15734467Y-13172079D02*
X15743991Y-13153031D01*
X15743991Y-13153031D02*
X15753515Y-13143508D01*
X15753515Y-13143508D02*
X15772562Y-13133984D01*
X15963039Y-13133984D02*
X15982086Y-13133984D01*
X15982086Y-13133984D02*
X16001134Y-13143508D01*
X16001134Y-13143508D02*
X16010658Y-13153031D01*
X16010658Y-13153031D02*
X16020182Y-13172079D01*
X16020182Y-13172079D02*
X16029705Y-13210174D01*
X16029705Y-13210174D02*
X16029705Y-13257793D01*
X16029705Y-13257793D02*
X16020182Y-13295888D01*
X16020182Y-13295888D02*
X16010658Y-13314936D01*
X16010658Y-13314936D02*
X16001134Y-13324460D01*
X16001134Y-13324460D02*
X15982086Y-13333984D01*
X15982086Y-13333984D02*
X15963039Y-13333984D01*
X15963039Y-13333984D02*
X15943991Y-13324460D01*
X15943991Y-13324460D02*
X15934467Y-13314936D01*
X15934467Y-13314936D02*
X15924943Y-13295888D01*
X15924943Y-13295888D02*
X15915420Y-13257793D01*
X15915420Y-13257793D02*
X15915420Y-13210174D01*
X15915420Y-13210174D02*
X15924943Y-13172079D01*
X15924943Y-13172079D02*
X15934467Y-13153031D01*
X15934467Y-13153031D02*
X15943991Y-13143508D01*
X15943991Y-13143508D02*
X15963039Y-13133984D01*
X16115420Y-13333984D02*
X16115420Y-13200650D01*
X16115420Y-13219698D02*
X16124943Y-13210174D01*
X16124943Y-13210174D02*
X16143991Y-13200650D01*
X16143991Y-13200650D02*
X16172563Y-13200650D01*
X16172563Y-13200650D02*
X16191610Y-13210174D01*
X16191610Y-13210174D02*
X16201134Y-13229222D01*
X16201134Y-13229222D02*
X16201134Y-13333984D01*
X16201134Y-13229222D02*
X16210658Y-13210174D01*
X16210658Y-13210174D02*
X16229705Y-13200650D01*
X16229705Y-13200650D02*
X16258277Y-13200650D01*
X16258277Y-13200650D02*
X16277324Y-13210174D01*
X16277324Y-13210174D02*
X16286848Y-13229222D01*
X16286848Y-13229222D02*
X16286848Y-13333984D01*
X16382086Y-13333984D02*
X16382086Y-13200650D01*
X16382086Y-13219698D02*
X16391610Y-13210174D01*
X16391610Y-13210174D02*
X16410658Y-13200650D01*
X16410658Y-13200650D02*
X16439229Y-13200650D01*
X16439229Y-13200650D02*
X16458277Y-13210174D01*
X16458277Y-13210174D02*
X16467801Y-13229222D01*
X16467801Y-13229222D02*
X16467801Y-13333984D01*
X16467801Y-13229222D02*
X16477324Y-13210174D01*
X16477324Y-13210174D02*
X16496372Y-13200650D01*
X16496372Y-13200650D02*
X16524943Y-13200650D01*
X16524943Y-13200650D02*
X16543991Y-13210174D01*
X16543991Y-13210174D02*
X16553515Y-13229222D01*
X16553515Y-13229222D02*
X16553515Y-13333984D01*
X16943991Y-13124460D02*
X16772563Y-13381603D01*
X17201134Y-13133984D02*
X17220182Y-13133984D01*
X17220182Y-13133984D02*
X17239229Y-13143508D01*
X17239229Y-13143508D02*
X17248753Y-13153031D01*
X17248753Y-13153031D02*
X17258277Y-13172079D01*
X17258277Y-13172079D02*
X17267801Y-13210174D01*
X17267801Y-13210174D02*
X17267801Y-13257793D01*
X17267801Y-13257793D02*
X17258277Y-13295888D01*
X17258277Y-13295888D02*
X17248753Y-13314936D01*
X17248753Y-13314936D02*
X17239229Y-13324460D01*
X17239229Y-13324460D02*
X17220182Y-13333984D01*
X17220182Y-13333984D02*
X17201134Y-13333984D01*
X17201134Y-13333984D02*
X17182087Y-13324460D01*
X17182087Y-13324460D02*
X17172563Y-13314936D01*
X17172563Y-13314936D02*
X17163039Y-13295888D01*
X17163039Y-13295888D02*
X17153515Y-13257793D01*
X17153515Y-13257793D02*
X17153515Y-13210174D01*
X17153515Y-13210174D02*
X17163039Y-13172079D01*
X17163039Y-13172079D02*
X17172563Y-13153031D01*
X17172563Y-13153031D02*
X17182087Y-13143508D01*
X17182087Y-13143508D02*
X17201134Y-13133984D01*
X17353515Y-13314936D02*
X17363039Y-13324460D01*
X17363039Y-13324460D02*
X17353515Y-13333984D01*
X17353515Y-13333984D02*
X17343991Y-13324460D01*
X17343991Y-13324460D02*
X17353515Y-13314936D01*
X17353515Y-13314936D02*
X17353515Y-13333984D01*
X17486848Y-13133984D02*
X17505896Y-13133984D01*
X17505896Y-13133984D02*
X17524944Y-13143508D01*
X17524944Y-13143508D02*
X17534468Y-13153031D01*
X17534468Y-13153031D02*
X17543991Y-13172079D01*
X17543991Y-13172079D02*
X17553515Y-13210174D01*
X17553515Y-13210174D02*
X17553515Y-13257793D01*
X17553515Y-13257793D02*
X17543991Y-13295888D01*
X17543991Y-13295888D02*
X17534468Y-13314936D01*
X17534468Y-13314936D02*
X17524944Y-13324460D01*
X17524944Y-13324460D02*
X17505896Y-13333984D01*
X17505896Y-13333984D02*
X17486848Y-13333984D01*
X17486848Y-13333984D02*
X17467801Y-13324460D01*
X17467801Y-13324460D02*
X17458277Y-13314936D01*
X17458277Y-13314936D02*
X17448753Y-13295888D01*
X17448753Y-13295888D02*
X17439229Y-13257793D01*
X17439229Y-13257793D02*
X17439229Y-13210174D01*
X17439229Y-13210174D02*
X17448753Y-13172079D01*
X17448753Y-13172079D02*
X17458277Y-13153031D01*
X17458277Y-13153031D02*
X17467801Y-13143508D01*
X17467801Y-13143508D02*
X17486848Y-13133984D01*
X17743991Y-13333984D02*
X17629706Y-13333984D01*
X17686848Y-13333984D02*
X17686848Y-13133984D01*
X17686848Y-13133984D02*
X17667801Y-13162555D01*
X17667801Y-13162555D02*
X17648753Y-13181603D01*
X17648753Y-13181603D02*
X17629706Y-13191127D01*
X17934468Y-13333984D02*
X17820182Y-13333984D01*
X17877325Y-13333984D02*
X17877325Y-13133984D01*
X17877325Y-13133984D02*
X17858277Y-13162555D01*
X17858277Y-13162555D02*
X17839229Y-13181603D01*
X17839229Y-13181603D02*
X17820182Y-13191127D01*
X18048753Y-13219698D02*
X18029706Y-13210174D01*
X18029706Y-13210174D02*
X18020182Y-13200650D01*
X18020182Y-13200650D02*
X18010658Y-13181603D01*
X18010658Y-13181603D02*
X18010658Y-13172079D01*
X18010658Y-13172079D02*
X18020182Y-13153031D01*
X18020182Y-13153031D02*
X18029706Y-13143508D01*
X18029706Y-13143508D02*
X18048753Y-13133984D01*
X18048753Y-13133984D02*
X18086849Y-13133984D01*
X18086849Y-13133984D02*
X18105896Y-13143508D01*
X18105896Y-13143508D02*
X18115420Y-13153031D01*
X18115420Y-13153031D02*
X18124944Y-13172079D01*
X18124944Y-13172079D02*
X18124944Y-13181603D01*
X18124944Y-13181603D02*
X18115420Y-13200650D01*
X18115420Y-13200650D02*
X18105896Y-13210174D01*
X18105896Y-13210174D02*
X18086849Y-13219698D01*
X18086849Y-13219698D02*
X18048753Y-13219698D01*
X18048753Y-13219698D02*
X18029706Y-13229222D01*
X18029706Y-13229222D02*
X18020182Y-13238746D01*
X18020182Y-13238746D02*
X18010658Y-13257793D01*
X18010658Y-13257793D02*
X18010658Y-13295888D01*
X18010658Y-13295888D02*
X18020182Y-13314936D01*
X18020182Y-13314936D02*
X18029706Y-13324460D01*
X18029706Y-13324460D02*
X18048753Y-13333984D01*
X18048753Y-13333984D02*
X18086849Y-13333984D01*
X18086849Y-13333984D02*
X18105896Y-13324460D01*
X18105896Y-13324460D02*
X18115420Y-13314936D01*
X18115420Y-13314936D02*
X18124944Y-13295888D01*
X18124944Y-13295888D02*
X18124944Y-13257793D01*
X18124944Y-13257793D02*
X18115420Y-13238746D01*
X18115420Y-13238746D02*
X18105896Y-13229222D01*
X18105896Y-13229222D02*
X18086849Y-13219698D01*
X18201134Y-13133984D02*
X18201134Y-13172079D01*
X18277325Y-13133984D02*
X18277325Y-13172079D01*
X18572563Y-13410174D02*
X18563039Y-13400650D01*
X18563039Y-13400650D02*
X18543991Y-13372079D01*
X18543991Y-13372079D02*
X18534468Y-13353031D01*
X18534468Y-13353031D02*
X18524944Y-13324460D01*
X18524944Y-13324460D02*
X18515420Y-13276841D01*
X18515420Y-13276841D02*
X18515420Y-13238746D01*
X18515420Y-13238746D02*
X18524944Y-13191127D01*
X18524944Y-13191127D02*
X18534468Y-13162555D01*
X18534468Y-13162555D02*
X18543991Y-13143508D01*
X18543991Y-13143508D02*
X18563039Y-13114936D01*
X18563039Y-13114936D02*
X18572563Y-13105412D01*
X18753515Y-13333984D02*
X18639230Y-13333984D01*
X18696372Y-13333984D02*
X18696372Y-13133984D01*
X18696372Y-13133984D02*
X18677325Y-13162555D01*
X18677325Y-13162555D02*
X18658277Y-13181603D01*
X18658277Y-13181603D02*
X18639230Y-13191127D01*
X18934468Y-13133984D02*
X18839230Y-13133984D01*
X18839230Y-13133984D02*
X18829706Y-13229222D01*
X18829706Y-13229222D02*
X18839230Y-13219698D01*
X18839230Y-13219698D02*
X18858277Y-13210174D01*
X18858277Y-13210174D02*
X18905896Y-13210174D01*
X18905896Y-13210174D02*
X18924944Y-13219698D01*
X18924944Y-13219698D02*
X18934468Y-13229222D01*
X18934468Y-13229222D02*
X18943991Y-13248269D01*
X18943991Y-13248269D02*
X18943991Y-13295888D01*
X18943991Y-13295888D02*
X18934468Y-13314936D01*
X18934468Y-13314936D02*
X18924944Y-13324460D01*
X18924944Y-13324460D02*
X18905896Y-13333984D01*
X18905896Y-13333984D02*
X18858277Y-13333984D01*
X18858277Y-13333984D02*
X18839230Y-13324460D01*
X18839230Y-13324460D02*
X18829706Y-13314936D01*
X19124944Y-13133984D02*
X19029706Y-13133984D01*
X19029706Y-13133984D02*
X19020182Y-13229222D01*
X19020182Y-13229222D02*
X19029706Y-13219698D01*
X19029706Y-13219698D02*
X19048753Y-13210174D01*
X19048753Y-13210174D02*
X19096372Y-13210174D01*
X19096372Y-13210174D02*
X19115420Y-13219698D01*
X19115420Y-13219698D02*
X19124944Y-13229222D01*
X19124944Y-13229222D02*
X19134468Y-13248269D01*
X19134468Y-13248269D02*
X19134468Y-13295888D01*
X19134468Y-13295888D02*
X19124944Y-13314936D01*
X19124944Y-13314936D02*
X19115420Y-13324460D01*
X19115420Y-13324460D02*
X19096372Y-13333984D01*
X19096372Y-13333984D02*
X19048753Y-13333984D01*
X19048753Y-13333984D02*
X19029706Y-13324460D01*
X19029706Y-13324460D02*
X19020182Y-13314936D01*
X19372563Y-13333984D02*
X19372563Y-13133984D01*
X19458277Y-13333984D02*
X19458277Y-13229222D01*
X19458277Y-13229222D02*
X19448753Y-13210174D01*
X19448753Y-13210174D02*
X19429706Y-13200650D01*
X19429706Y-13200650D02*
X19401134Y-13200650D01*
X19401134Y-13200650D02*
X19382087Y-13210174D01*
X19382087Y-13210174D02*
X19372563Y-13219698D01*
X19582087Y-13333984D02*
X19563039Y-13324460D01*
X19563039Y-13324460D02*
X19553515Y-13314936D01*
X19553515Y-13314936D02*
X19543992Y-13295888D01*
X19543992Y-13295888D02*
X19543992Y-13238746D01*
X19543992Y-13238746D02*
X19553515Y-13219698D01*
X19553515Y-13219698D02*
X19563039Y-13210174D01*
X19563039Y-13210174D02*
X19582087Y-13200650D01*
X19582087Y-13200650D02*
X19610658Y-13200650D01*
X19610658Y-13200650D02*
X19629706Y-13210174D01*
X19629706Y-13210174D02*
X19639230Y-13219698D01*
X19639230Y-13219698D02*
X19648753Y-13238746D01*
X19648753Y-13238746D02*
X19648753Y-13295888D01*
X19648753Y-13295888D02*
X19639230Y-13314936D01*
X19639230Y-13314936D02*
X19629706Y-13324460D01*
X19629706Y-13324460D02*
X19610658Y-13333984D01*
X19610658Y-13333984D02*
X19582087Y-13333984D01*
X19763039Y-13333984D02*
X19743992Y-13324460D01*
X19743992Y-13324460D02*
X19734468Y-13305412D01*
X19734468Y-13305412D02*
X19734468Y-13133984D01*
X19915420Y-13324460D02*
X19896373Y-13333984D01*
X19896373Y-13333984D02*
X19858277Y-13333984D01*
X19858277Y-13333984D02*
X19839230Y-13324460D01*
X19839230Y-13324460D02*
X19829706Y-13305412D01*
X19829706Y-13305412D02*
X19829706Y-13229222D01*
X19829706Y-13229222D02*
X19839230Y-13210174D01*
X19839230Y-13210174D02*
X19858277Y-13200650D01*
X19858277Y-13200650D02*
X19896373Y-13200650D01*
X19896373Y-13200650D02*
X19915420Y-13210174D01*
X19915420Y-13210174D02*
X19924944Y-13229222D01*
X19924944Y-13229222D02*
X19924944Y-13248269D01*
X19924944Y-13248269D02*
X19829706Y-13267317D01*
X20001134Y-13324460D02*
X20020182Y-13333984D01*
X20020182Y-13333984D02*
X20058277Y-13333984D01*
X20058277Y-13333984D02*
X20077325Y-13324460D01*
X20077325Y-13324460D02*
X20086849Y-13305412D01*
X20086849Y-13305412D02*
X20086849Y-13295888D01*
X20086849Y-13295888D02*
X20077325Y-13276841D01*
X20077325Y-13276841D02*
X20058277Y-13267317D01*
X20058277Y-13267317D02*
X20029706Y-13267317D01*
X20029706Y-13267317D02*
X20010658Y-13257793D01*
X20010658Y-13257793D02*
X20001134Y-13238746D01*
X20001134Y-13238746D02*
X20001134Y-13229222D01*
X20001134Y-13229222D02*
X20010658Y-13210174D01*
X20010658Y-13210174D02*
X20029706Y-13200650D01*
X20029706Y-13200650D02*
X20058277Y-13200650D01*
X20058277Y-13200650D02*
X20077325Y-13210174D01*
X20153515Y-13410174D02*
X20163039Y-13400650D01*
X20163039Y-13400650D02*
X20182087Y-13372079D01*
X20182087Y-13372079D02*
X20191611Y-13353031D01*
X20191611Y-13353031D02*
X20201134Y-13324460D01*
X20201134Y-13324460D02*
X20210658Y-13276841D01*
X20210658Y-13276841D02*
X20210658Y-13238746D01*
X20210658Y-13238746D02*
X20201134Y-13191127D01*
X20201134Y-13191127D02*
X20191611Y-13162555D01*
X20191611Y-13162555D02*
X20182087Y-13143508D01*
X20182087Y-13143508D02*
X20163039Y-13114936D01*
X20163039Y-13114936D02*
X20153515Y-13105412D01*
D13*
X14997500Y-13506500D02*
G75*
G02*
X14817500Y-13506500I-90000J0D01*
G01*
X14817500Y-13506500D02*
G75*
G02*
X14997500Y-13506500I90000J0D01*
G01*
D11*
X15363039Y-13597984D02*
X15248753Y-13597984D01*
X15305896Y-13597984D02*
X15305896Y-13397984D01*
X15305896Y-13397984D02*
X15286848Y-13426555D01*
X15286848Y-13426555D02*
X15267801Y-13445603D01*
X15267801Y-13445603D02*
X15248753Y-13455127D01*
X15448753Y-13578936D02*
X15458277Y-13588460D01*
X15458277Y-13588460D02*
X15448753Y-13597984D01*
X15448753Y-13597984D02*
X15439229Y-13588460D01*
X15439229Y-13588460D02*
X15448753Y-13578936D01*
X15448753Y-13578936D02*
X15448753Y-13597984D01*
X15572562Y-13483698D02*
X15553515Y-13474174D01*
X15553515Y-13474174D02*
X15543991Y-13464650D01*
X15543991Y-13464650D02*
X15534467Y-13445603D01*
X15534467Y-13445603D02*
X15534467Y-13436079D01*
X15534467Y-13436079D02*
X15543991Y-13417031D01*
X15543991Y-13417031D02*
X15553515Y-13407508D01*
X15553515Y-13407508D02*
X15572562Y-13397984D01*
X15572562Y-13397984D02*
X15610658Y-13397984D01*
X15610658Y-13397984D02*
X15629705Y-13407508D01*
X15629705Y-13407508D02*
X15639229Y-13417031D01*
X15639229Y-13417031D02*
X15648753Y-13436079D01*
X15648753Y-13436079D02*
X15648753Y-13445603D01*
X15648753Y-13445603D02*
X15639229Y-13464650D01*
X15639229Y-13464650D02*
X15629705Y-13474174D01*
X15629705Y-13474174D02*
X15610658Y-13483698D01*
X15610658Y-13483698D02*
X15572562Y-13483698D01*
X15572562Y-13483698D02*
X15553515Y-13493222D01*
X15553515Y-13493222D02*
X15543991Y-13502746D01*
X15543991Y-13502746D02*
X15534467Y-13521793D01*
X15534467Y-13521793D02*
X15534467Y-13559888D01*
X15534467Y-13559888D02*
X15543991Y-13578936D01*
X15543991Y-13578936D02*
X15553515Y-13588460D01*
X15553515Y-13588460D02*
X15572562Y-13597984D01*
X15572562Y-13597984D02*
X15610658Y-13597984D01*
X15610658Y-13597984D02*
X15629705Y-13588460D01*
X15629705Y-13588460D02*
X15639229Y-13578936D01*
X15639229Y-13578936D02*
X15648753Y-13559888D01*
X15648753Y-13559888D02*
X15648753Y-13521793D01*
X15648753Y-13521793D02*
X15639229Y-13502746D01*
X15639229Y-13502746D02*
X15629705Y-13493222D01*
X15629705Y-13493222D02*
X15610658Y-13483698D01*
X15772562Y-13397984D02*
X15791610Y-13397984D01*
X15791610Y-13397984D02*
X15810658Y-13407508D01*
X15810658Y-13407508D02*
X15820182Y-13417031D01*
X15820182Y-13417031D02*
X15829705Y-13436079D01*
X15829705Y-13436079D02*
X15839229Y-13474174D01*
X15839229Y-13474174D02*
X15839229Y-13521793D01*
X15839229Y-13521793D02*
X15829705Y-13559888D01*
X15829705Y-13559888D02*
X15820182Y-13578936D01*
X15820182Y-13578936D02*
X15810658Y-13588460D01*
X15810658Y-13588460D02*
X15791610Y-13597984D01*
X15791610Y-13597984D02*
X15772562Y-13597984D01*
X15772562Y-13597984D02*
X15753515Y-13588460D01*
X15753515Y-13588460D02*
X15743991Y-13578936D01*
X15743991Y-13578936D02*
X15734467Y-13559888D01*
X15734467Y-13559888D02*
X15724943Y-13521793D01*
X15724943Y-13521793D02*
X15724943Y-13474174D01*
X15724943Y-13474174D02*
X15734467Y-13436079D01*
X15734467Y-13436079D02*
X15743991Y-13417031D01*
X15743991Y-13417031D02*
X15753515Y-13407508D01*
X15753515Y-13407508D02*
X15772562Y-13397984D01*
X15963039Y-13397984D02*
X15982086Y-13397984D01*
X15982086Y-13397984D02*
X16001134Y-13407508D01*
X16001134Y-13407508D02*
X16010658Y-13417031D01*
X16010658Y-13417031D02*
X16020182Y-13436079D01*
X16020182Y-13436079D02*
X16029705Y-13474174D01*
X16029705Y-13474174D02*
X16029705Y-13521793D01*
X16029705Y-13521793D02*
X16020182Y-13559888D01*
X16020182Y-13559888D02*
X16010658Y-13578936D01*
X16010658Y-13578936D02*
X16001134Y-13588460D01*
X16001134Y-13588460D02*
X15982086Y-13597984D01*
X15982086Y-13597984D02*
X15963039Y-13597984D01*
X15963039Y-13597984D02*
X15943991Y-13588460D01*
X15943991Y-13588460D02*
X15934467Y-13578936D01*
X15934467Y-13578936D02*
X15924943Y-13559888D01*
X15924943Y-13559888D02*
X15915420Y-13521793D01*
X15915420Y-13521793D02*
X15915420Y-13474174D01*
X15915420Y-13474174D02*
X15924943Y-13436079D01*
X15924943Y-13436079D02*
X15934467Y-13417031D01*
X15934467Y-13417031D02*
X15943991Y-13407508D01*
X15943991Y-13407508D02*
X15963039Y-13397984D01*
X16115420Y-13597984D02*
X16115420Y-13464650D01*
X16115420Y-13483698D02*
X16124943Y-13474174D01*
X16124943Y-13474174D02*
X16143991Y-13464650D01*
X16143991Y-13464650D02*
X16172563Y-13464650D01*
X16172563Y-13464650D02*
X16191610Y-13474174D01*
X16191610Y-13474174D02*
X16201134Y-13493222D01*
X16201134Y-13493222D02*
X16201134Y-13597984D01*
X16201134Y-13493222D02*
X16210658Y-13474174D01*
X16210658Y-13474174D02*
X16229705Y-13464650D01*
X16229705Y-13464650D02*
X16258277Y-13464650D01*
X16258277Y-13464650D02*
X16277324Y-13474174D01*
X16277324Y-13474174D02*
X16286848Y-13493222D01*
X16286848Y-13493222D02*
X16286848Y-13597984D01*
X16382086Y-13597984D02*
X16382086Y-13464650D01*
X16382086Y-13483698D02*
X16391610Y-13474174D01*
X16391610Y-13474174D02*
X16410658Y-13464650D01*
X16410658Y-13464650D02*
X16439229Y-13464650D01*
X16439229Y-13464650D02*
X16458277Y-13474174D01*
X16458277Y-13474174D02*
X16467801Y-13493222D01*
X16467801Y-13493222D02*
X16467801Y-13597984D01*
X16467801Y-13493222D02*
X16477324Y-13474174D01*
X16477324Y-13474174D02*
X16496372Y-13464650D01*
X16496372Y-13464650D02*
X16524943Y-13464650D01*
X16524943Y-13464650D02*
X16543991Y-13474174D01*
X16543991Y-13474174D02*
X16553515Y-13493222D01*
X16553515Y-13493222D02*
X16553515Y-13597984D01*
X16943991Y-13388460D02*
X16772563Y-13645603D01*
X17201134Y-13397984D02*
X17220182Y-13397984D01*
X17220182Y-13397984D02*
X17239229Y-13407508D01*
X17239229Y-13407508D02*
X17248753Y-13417031D01*
X17248753Y-13417031D02*
X17258277Y-13436079D01*
X17258277Y-13436079D02*
X17267801Y-13474174D01*
X17267801Y-13474174D02*
X17267801Y-13521793D01*
X17267801Y-13521793D02*
X17258277Y-13559888D01*
X17258277Y-13559888D02*
X17248753Y-13578936D01*
X17248753Y-13578936D02*
X17239229Y-13588460D01*
X17239229Y-13588460D02*
X17220182Y-13597984D01*
X17220182Y-13597984D02*
X17201134Y-13597984D01*
X17201134Y-13597984D02*
X17182087Y-13588460D01*
X17182087Y-13588460D02*
X17172563Y-13578936D01*
X17172563Y-13578936D02*
X17163039Y-13559888D01*
X17163039Y-13559888D02*
X17153515Y-13521793D01*
X17153515Y-13521793D02*
X17153515Y-13474174D01*
X17153515Y-13474174D02*
X17163039Y-13436079D01*
X17163039Y-13436079D02*
X17172563Y-13417031D01*
X17172563Y-13417031D02*
X17182087Y-13407508D01*
X17182087Y-13407508D02*
X17201134Y-13397984D01*
X17353515Y-13578936D02*
X17363039Y-13588460D01*
X17363039Y-13588460D02*
X17353515Y-13597984D01*
X17353515Y-13597984D02*
X17343991Y-13588460D01*
X17343991Y-13588460D02*
X17353515Y-13578936D01*
X17353515Y-13578936D02*
X17353515Y-13597984D01*
X17486848Y-13397984D02*
X17505896Y-13397984D01*
X17505896Y-13397984D02*
X17524944Y-13407508D01*
X17524944Y-13407508D02*
X17534468Y-13417031D01*
X17534468Y-13417031D02*
X17543991Y-13436079D01*
X17543991Y-13436079D02*
X17553515Y-13474174D01*
X17553515Y-13474174D02*
X17553515Y-13521793D01*
X17553515Y-13521793D02*
X17543991Y-13559888D01*
X17543991Y-13559888D02*
X17534468Y-13578936D01*
X17534468Y-13578936D02*
X17524944Y-13588460D01*
X17524944Y-13588460D02*
X17505896Y-13597984D01*
X17505896Y-13597984D02*
X17486848Y-13597984D01*
X17486848Y-13597984D02*
X17467801Y-13588460D01*
X17467801Y-13588460D02*
X17458277Y-13578936D01*
X17458277Y-13578936D02*
X17448753Y-13559888D01*
X17448753Y-13559888D02*
X17439229Y-13521793D01*
X17439229Y-13521793D02*
X17439229Y-13474174D01*
X17439229Y-13474174D02*
X17448753Y-13436079D01*
X17448753Y-13436079D02*
X17458277Y-13417031D01*
X17458277Y-13417031D02*
X17467801Y-13407508D01*
X17467801Y-13407508D02*
X17486848Y-13397984D01*
X17620182Y-13397984D02*
X17753515Y-13397984D01*
X17753515Y-13397984D02*
X17667801Y-13597984D01*
X17867801Y-13397984D02*
X17886849Y-13397984D01*
X17886849Y-13397984D02*
X17905896Y-13407508D01*
X17905896Y-13407508D02*
X17915420Y-13417031D01*
X17915420Y-13417031D02*
X17924944Y-13436079D01*
X17924944Y-13436079D02*
X17934468Y-13474174D01*
X17934468Y-13474174D02*
X17934468Y-13521793D01*
X17934468Y-13521793D02*
X17924944Y-13559888D01*
X17924944Y-13559888D02*
X17915420Y-13578936D01*
X17915420Y-13578936D02*
X17905896Y-13588460D01*
X17905896Y-13588460D02*
X17886849Y-13597984D01*
X17886849Y-13597984D02*
X17867801Y-13597984D01*
X17867801Y-13597984D02*
X17848753Y-13588460D01*
X17848753Y-13588460D02*
X17839229Y-13578936D01*
X17839229Y-13578936D02*
X17829706Y-13559888D01*
X17829706Y-13559888D02*
X17820182Y-13521793D01*
X17820182Y-13521793D02*
X17820182Y-13474174D01*
X17820182Y-13474174D02*
X17829706Y-13436079D01*
X17829706Y-13436079D02*
X17839229Y-13417031D01*
X17839229Y-13417031D02*
X17848753Y-13407508D01*
X17848753Y-13407508D02*
X17867801Y-13397984D01*
X18029706Y-13597984D02*
X18067801Y-13597984D01*
X18067801Y-13597984D02*
X18086849Y-13588460D01*
X18086849Y-13588460D02*
X18096372Y-13578936D01*
X18096372Y-13578936D02*
X18115420Y-13550365D01*
X18115420Y-13550365D02*
X18124944Y-13512269D01*
X18124944Y-13512269D02*
X18124944Y-13436079D01*
X18124944Y-13436079D02*
X18115420Y-13417031D01*
X18115420Y-13417031D02*
X18105896Y-13407508D01*
X18105896Y-13407508D02*
X18086849Y-13397984D01*
X18086849Y-13397984D02*
X18048753Y-13397984D01*
X18048753Y-13397984D02*
X18029706Y-13407508D01*
X18029706Y-13407508D02*
X18020182Y-13417031D01*
X18020182Y-13417031D02*
X18010658Y-13436079D01*
X18010658Y-13436079D02*
X18010658Y-13483698D01*
X18010658Y-13483698D02*
X18020182Y-13502746D01*
X18020182Y-13502746D02*
X18029706Y-13512269D01*
X18029706Y-13512269D02*
X18048753Y-13521793D01*
X18048753Y-13521793D02*
X18086849Y-13521793D01*
X18086849Y-13521793D02*
X18105896Y-13512269D01*
X18105896Y-13512269D02*
X18115420Y-13502746D01*
X18115420Y-13502746D02*
X18124944Y-13483698D01*
X18201134Y-13397984D02*
X18201134Y-13436079D01*
X18277325Y-13397984D02*
X18277325Y-13436079D01*
X18572563Y-13674174D02*
X18563039Y-13664650D01*
X18563039Y-13664650D02*
X18543991Y-13636079D01*
X18543991Y-13636079D02*
X18534468Y-13617031D01*
X18534468Y-13617031D02*
X18524944Y-13588460D01*
X18524944Y-13588460D02*
X18515420Y-13540841D01*
X18515420Y-13540841D02*
X18515420Y-13502746D01*
X18515420Y-13502746D02*
X18524944Y-13455127D01*
X18524944Y-13455127D02*
X18534468Y-13426555D01*
X18534468Y-13426555D02*
X18543991Y-13407508D01*
X18543991Y-13407508D02*
X18563039Y-13378936D01*
X18563039Y-13378936D02*
X18572563Y-13369412D01*
X18639230Y-13417031D02*
X18648753Y-13407508D01*
X18648753Y-13407508D02*
X18667801Y-13397984D01*
X18667801Y-13397984D02*
X18715420Y-13397984D01*
X18715420Y-13397984D02*
X18734468Y-13407508D01*
X18734468Y-13407508D02*
X18743991Y-13417031D01*
X18743991Y-13417031D02*
X18753515Y-13436079D01*
X18753515Y-13436079D02*
X18753515Y-13455127D01*
X18753515Y-13455127D02*
X18743991Y-13483698D01*
X18743991Y-13483698D02*
X18629706Y-13597984D01*
X18629706Y-13597984D02*
X18753515Y-13597984D01*
X18991611Y-13597984D02*
X18991611Y-13397984D01*
X19077325Y-13597984D02*
X19077325Y-13493222D01*
X19077325Y-13493222D02*
X19067801Y-13474174D01*
X19067801Y-13474174D02*
X19048753Y-13464650D01*
X19048753Y-13464650D02*
X19020182Y-13464650D01*
X19020182Y-13464650D02*
X19001134Y-13474174D01*
X19001134Y-13474174D02*
X18991611Y-13483698D01*
X19201134Y-13597984D02*
X19182087Y-13588460D01*
X19182087Y-13588460D02*
X19172563Y-13578936D01*
X19172563Y-13578936D02*
X19163039Y-13559888D01*
X19163039Y-13559888D02*
X19163039Y-13502746D01*
X19163039Y-13502746D02*
X19172563Y-13483698D01*
X19172563Y-13483698D02*
X19182087Y-13474174D01*
X19182087Y-13474174D02*
X19201134Y-13464650D01*
X19201134Y-13464650D02*
X19229706Y-13464650D01*
X19229706Y-13464650D02*
X19248753Y-13474174D01*
X19248753Y-13474174D02*
X19258277Y-13483698D01*
X19258277Y-13483698D02*
X19267801Y-13502746D01*
X19267801Y-13502746D02*
X19267801Y-13559888D01*
X19267801Y-13559888D02*
X19258277Y-13578936D01*
X19258277Y-13578936D02*
X19248753Y-13588460D01*
X19248753Y-13588460D02*
X19229706Y-13597984D01*
X19229706Y-13597984D02*
X19201134Y-13597984D01*
X19382087Y-13597984D02*
X19363039Y-13588460D01*
X19363039Y-13588460D02*
X19353515Y-13569412D01*
X19353515Y-13569412D02*
X19353515Y-13397984D01*
X19534468Y-13588460D02*
X19515420Y-13597984D01*
X19515420Y-13597984D02*
X19477325Y-13597984D01*
X19477325Y-13597984D02*
X19458277Y-13588460D01*
X19458277Y-13588460D02*
X19448753Y-13569412D01*
X19448753Y-13569412D02*
X19448753Y-13493222D01*
X19448753Y-13493222D02*
X19458277Y-13474174D01*
X19458277Y-13474174D02*
X19477325Y-13464650D01*
X19477325Y-13464650D02*
X19515420Y-13464650D01*
X19515420Y-13464650D02*
X19534468Y-13474174D01*
X19534468Y-13474174D02*
X19543992Y-13493222D01*
X19543992Y-13493222D02*
X19543992Y-13512269D01*
X19543992Y-13512269D02*
X19448753Y-13531317D01*
X19620182Y-13588460D02*
X19639230Y-13597984D01*
X19639230Y-13597984D02*
X19677325Y-13597984D01*
X19677325Y-13597984D02*
X19696373Y-13588460D01*
X19696373Y-13588460D02*
X19705896Y-13569412D01*
X19705896Y-13569412D02*
X19705896Y-13559888D01*
X19705896Y-13559888D02*
X19696373Y-13540841D01*
X19696373Y-13540841D02*
X19677325Y-13531317D01*
X19677325Y-13531317D02*
X19648753Y-13531317D01*
X19648753Y-13531317D02*
X19629706Y-13521793D01*
X19629706Y-13521793D02*
X19620182Y-13502746D01*
X19620182Y-13502746D02*
X19620182Y-13493222D01*
X19620182Y-13493222D02*
X19629706Y-13474174D01*
X19629706Y-13474174D02*
X19648753Y-13464650D01*
X19648753Y-13464650D02*
X19677325Y-13464650D01*
X19677325Y-13464650D02*
X19696373Y-13474174D01*
X19772563Y-13674174D02*
X19782087Y-13664650D01*
X19782087Y-13664650D02*
X19801134Y-13636079D01*
X19801134Y-13636079D02*
X19810658Y-13617031D01*
X19810658Y-13617031D02*
X19820182Y-13588460D01*
X19820182Y-13588460D02*
X19829706Y-13540841D01*
X19829706Y-13540841D02*
X19829706Y-13502746D01*
X19829706Y-13502746D02*
X19820182Y-13455127D01*
X19820182Y-13455127D02*
X19810658Y-13426555D01*
X19810658Y-13426555D02*
X19801134Y-13407508D01*
X19801134Y-13407508D02*
X19782087Y-13378936D01*
X19782087Y-13378936D02*
X19772563Y-13369412D01*
M02*
